<?xml version="1.0" standalone="no"?>
<!DOCTYPE svg PUBLIC "-//W3C//DTD SVG 1.1//EN" "http://www.w3.org/Graphics/SVG/1.1/DTD/svg11.dtd" >
<svg xmlns="http://www.w3.org/2000/svg">
<metadata>Generated by IcoMoon</metadata>
<defs>
<font id="ZentaoIcon" horiz-adv-x="1024">
<font-face units-per-em="1024" ascent="819.2" descent="-204.8" />
<missing-glyph horiz-adv-x="1024" />
<glyph unicode="&#x20;" horiz-adv-x="512" d="" />
<glyph unicode="&#xe254;" glyph-name="pencil" d="M897.776 504.295l-80.888-80.888-165.925 165.925 80.888 80.888c16.593 16.593 45.631 16.593 62.223 0l103.705-103.705c16.593-16.593 16.593-45.631 0-62.223zM113.778 52.149l489.481 489.481 165.925-165.925-489.481-489.481h-165.925v165.925z" />
<glyph unicode="&#xe313;" glyph-name="angle-down" d="M296.429 458.221l215.571-215.571 215.571 215.571 65.991-65.991-281.565-281.565-281.565 281.565z" />
<glyph unicode="&#xe314;" glyph-name="angle-left" d="M687.557 66.667l-66.666-66.666-284.448 284.448 284.448 284.448 66.666-66.666-217.777-217.777z" />
<glyph unicode="&#xe315;" glyph-name="angle-right" d="M336.443 66.675l217.777 217.777-217.777 217.777 66.666 66.666 284.448-284.448-284.448-284.448z" />
<glyph unicode="&#xe316;" glyph-name="angle-top" d="M296.425 110.666l-65.99 65.99 281.565 281.565 281.565-281.565-65.99-65.99-215.572 215.572z" />
<glyph unicode="&#xe5ca;" glyph-name="check" d="M365.825 107.329l482.269 482.269 64.019-64.019-546.287-546.287-253.938 253.938 64.019 64.019z" />
<glyph unicode="&#xe5d4;" glyph-name="ellipsis-v" d="M603.025 648.532c0-51.576-39.443-91.024-91.025-91.024-51.576 0-91.024 39.448-91.024 91.024s39.448 91.024 91.024 91.024c51.576 0.003 91.025-39.443 91.025-91.024zM603.025 284.444c0-51.576-39.443-91.024-91.024-91.024s-91.020 39.448-91.020 91.024c0 51.576 39.448 91.024 91.020 91.024s91.024-39.448 91.024-91.024zM603.025-79.644c0-51.576-39.443-91.024-91.024-91.024s-91.024 39.448-91.024 91.024 39.448 91.024 91.024 91.024c51.576 0 91.024-39.443 91.024-91.024z" />
<glyph unicode="&#xe5dc;" glyph-name="first-page" d="M235.552 551.503h89.714v-534.113h-89.714v534.113zM788.448 79.98l-62.59-62.59-267.059 267.059 267.059 267.059 62.59-62.59-204.464-204.464z" />
<glyph unicode="&#xe5dd;" glyph-name="last-page" d="M698.73 551.503h89.715v-534.115h-89.715v534.115zM235.552 488.909l62.591 62.591 267.059-267.059-267.059-267.059-62.591 62.591 204.465 204.465z" />
<glyph unicode="&#xe6f1;" glyph-name="expand-alt" d="M850.488 682.666v0c32.991 0 59.732-26.744 59.732-59.732v-676.977c0-32.991-26.744-59.732-59.732-59.732h-676.977c-32.991 0-59.732 26.744-59.732 59.732 0 0 0 0 0 0v676.977c0 32.991 26.744 59.732 59.732 59.732h676.977zM850.488 622.932h-676.977v-676.977h676.977v676.977zM512 513.42v0c15.383 0 28.25-11.686 29.729-26.999l0.139-2.866v-169.244h169.244c15.383-0.001 28.25-11.686 29.729-26.999l0.139-2.866v0.002c0-15.383-11.684-28.25-26.999-29.729l-2.868-0.139h-169.244v-169.244c-0.007-16.496-13.387-29.86-29.883-29.854-15.374 0.007-28.23 11.683-29.714 26.985l-0.139 2.866v169.244h-169.244c-15.383 0.001-28.25 11.686-29.729 26.999l-0.139 2.866v-0.002c0 15.383 11.684 28.25 26.999 29.729l2.868 0.139h169.244v169.244c0 16.496 13.372 29.868 29.868 29.868v0z" />
<glyph unicode="&#xe6f2;" glyph-name="collapse-alt" d="M850.488 682.666v0c32.991 0 59.732-26.744 59.732-59.732v-676.977c0-32.991-26.744-59.732-59.732-59.732h-676.977c-32.991 0-59.732 26.744-59.732 59.732 0 0 0 0 0 0v676.977c0 32.991 26.744 59.732 59.732 59.732h676.977zM850.488 622.932h-676.977v-676.977h676.977v676.977zM541.867 314.312h169.244c15.383-0.001 28.25-11.686 29.729-26.999l0.139-2.866c0-15.381-11.684-28.248-26.999-29.729l-2.868-0.139h-398.222c-15.383 0.001-28.25 11.686-29.729 26.999l-0.139 2.866c0 15.381 11.684 28.248 26.999 29.729l2.868 0.139h228.976z" />
<glyph unicode="&#xe744;" glyph-name="more" horiz-adv-x="2269" d="M584.076 11.354h-73.155v423.937l-173.013-419.364h-91.81l-172.976 419.364v-423.937h-73.155v549.070h100.662l191.375-463.88 191.375 463.88h100.698zM1880.394 337.848h352.244v-73.155h-352.244v73.155zM934.053 486.829c110.94 0 201.179-90.238 201.179-201.179s-90.238-201.179-201.179-201.179-201.179 90.238-201.179 201.179 90.238 201.179 201.179 201.179zM934.053 559.985c-151.505 0-274.334-122.828-274.334-274.334s122.828-274.334 274.334-274.334 274.334 122.828 274.334 274.334c0 151.505-122.828 274.334-274.334 274.334v0zM1281.066 557.132h73.155v-548.667h-73.155v548.667zM1317.644 557.132h262.335v-73.155h-262.335v73.155zM1317.644 301.088h262.335v-73.155h-262.335v73.155zM1577.31 557.132v-73.155c50.404 0 91.445-41.040 91.445-91.445s-41.040-91.445-91.445-91.445v-73.155c90.896 0 164.6 73.704 164.6 164.6s-73.704 164.6-164.6 164.6zM1765.102 11.318l-239.036 272.321-54.977-48.282 196.679-224.039zM2269.033 11.318h-441.055v545.814h441.055v-73.155h-367.9v-399.502h367.9z" />
<glyph unicode="&#xe7f5;" glyph-name="bell" d="M697.982 61.265v280.069c0 115.965-70.017 210.052-185.982 210.052s-185.982-94.087-185.982-210.052v-280.069h371.965zM792.069 109.401l94.087-94.087v-45.947h-748.306v45.947l94.087 94.087v231.929c0 144.411 76.581 262.563 210.052 295.384v32.822c0 39.385 30.632 70.017 70.017 70.017s70.017-30.632 70.017-70.017v-32.822c133.472-32.822 210.052-153.162 210.052-295.384v-231.929zM512-170.668c-50.325 0-94.087 41.572-94.087 91.896h188.17c0-50.325-43.762-91.896-94.087-91.896z" />
<glyph unicode="&#xe900;" glyph-name="zentao-alt" d="M870.158 561.229c0 0 76.771-119.658 42.741-221.26-22.83-68.189-105.708-92.143-171.994-70.090-102.949 34.236-230.643 148.706-370.177 43.472-117.982-89.006-68.795-244.224 15.442-295.939 63.112-38.75 151.136-50.904 202.547-5.139 41.232 36.737 63.692 132.452-5.79 165.289-23.673 11.201-70.29 13.679-95.928-17.576-33.503-40.86-20.748-97.996 25.638-116.078 0 0-82.924 4.306-93.942 94-18.744 152.606 168.047 177.777 256.612 120.555 159.335-102.905 102.836-336.077-134.175-378.507-120.078-21.502-318.454 21.714-397.079 189.689-29.467 62.975-21.445 52.18-21.445 52.18s10.449-12.18 27.855-25.379c56.35-42.88 108.882-3.997 96.113 52.403-43.887 193.942 29.901 226.794 75.031 263.114 45.197 36.271 27.36 104.215-61.454 89.3-124.505-20.929-157.392-209.963-157.392-209.963s-20.527 321.158 248.551 349.284c274.456 28.654 313.72-223.679 433.702-261.912 79.988-25.488 108.37 35.365 85.145 182.559z" />
<glyph unicode="&#xe901;" glyph-name="zentao" d="M512-227.556c-282.77 0-512 229.23-512 512s229.23 512 512 512c282.77 0 512-229.23 512-512s-229.23-512-512-512zM870.158 561.229c23.225-147.194-5.157-208.047-85.145-182.559-119.982 38.233-159.246 290.566-433.702 261.912-269.079-28.126-248.551-349.284-248.551-349.284s32.887 189.034 157.392 209.963c88.814 14.915 106.651-53.028 61.454-89.3-45.129-36.32-118.918-69.171-75.031-263.114 12.769-56.4-39.763-95.284-96.113-52.403-17.406 13.199-27.855 25.379-27.855 25.379s-8.022 10.795 21.445-52.18c78.625-167.975 277.001-211.191 397.079-189.689 237.010 42.43 293.51 275.602 134.175 378.507-88.565 57.222-275.356 32.051-256.612-120.555 11.018-89.694 93.942-94 93.942-94-46.386 18.082-59.14 75.218-25.638 116.078 25.638 31.255 72.255 28.777 95.928 17.576 69.482-32.837 47.023-128.552 5.79-165.289-51.411-45.764-139.434-33.611-202.547 5.139-84.237 51.715-133.424 206.933-15.442 295.939 139.534 105.234 267.228-9.236 370.177-43.472 66.287-22.052 149.164 1.902 171.994 70.090 34.029 101.602-42.741 221.26-42.741 221.26z" />
<glyph unicode="&#xe902;" glyph-name="severity-solid" d="M516.504-222.334c260.111 9.209 422.095 219.441 422.163 390.541s-87.004 335.617-208.655 441.241c8.006-13.122 41.12-121.968-19.494-177.589-42.481 178.507-171.072 332.266-273.19 359.721 2.741-90.613-38.322-304.852-189.59-449.567-4.121 10.34 1.702 102.714-40.026 160.265-6.157-113.107-120.328-207.065-122.361-385.545s171.042-348.276 431.153-339.067z" />
<glyph unicode="&#xe903;" glyph-name="ops" d="M36.571 804.571v-1024zM73.143 804.571v-1024zM109.714 804.571v-1024zM146.286 804.571v-1024zM182.857 804.571v-1024zM219.429 804.571v-1024zM256 804.571v-1024zM292.571 804.571v-1024zM329.143 804.571v-1024zM365.714 804.571v-1024zM402.286 804.571v-1024zM438.857 804.571v-1024zM475.429 804.571v-1024zM512 804.571v-1024zM548.571 804.571v-1024zM585.143 804.571v-1024zM621.714 804.571v-1024zM658.286 804.571v-1024zM694.857 804.571v-1024zM731.429 804.571v-1024zM768 804.571v-1024zM804.571 804.571v-1024zM841.143 804.571v-1024zM877.714 804.571v-1024zM914.286 804.571v-1024zM950.857 804.571v-1024zM987.429 804.571v-1024zM0 768h1024zM0 731.428h1024zM0 694.857h1024zM0 658.285h1024zM0 621.714h1024zM0 585.142h1024zM0 548.571h1024zM0 512h1024zM0 475.428h1024zM0 438.857h1024zM0 402.285h1024zM0 365.714h1024zM0 329.142h1024zM0 292.571h1024zM0 256h1024zM0 219.428h1024zM0 182.857h1024zM0 146.285h1024zM0 109.714h1024zM0 73.142h1024zM0 36.571h1024zM0 0h1024zM0-36.572h1024zM0-73.143h1024zM0-109.715h1024zM0-146.286h1024zM0-182.858h1024zM731.429 73.142v-219.429h129.17c9.426-0.002 17.118-27.145 17.115-36.571-0.002-9.422-7.691-36.571-17.115-36.571h-695.707c-9.426 0-18.608 27.145-18.606 36.571 0.002 9.422 9.184 36.569 18.606 36.571h127.68v219.429h-219.429c-37.703 0-73.141 45.193-73.141 82.896v580.265c0 37.703 30.565 68.267 68.267 68.267h887.465c37.657-0.112 68.153-30.61 68.267-68.267v-580.265c-0.112-37.655-35.488-82.784-73.145-82.896h-219.429zM375.465-146.439h273.065v220.494h-273.065v-220.494zM950.857 700.633c0 17.008-14.034 30.795-31.346 30.795 0 0 0 0 0 0h-815.022c-17.312 0-31.346-13.79-31.346-30.795 0 0 0 0 0 0v-523.55c0-17.008 14.034-30.795 31.346-30.795 0 0 0 0 0 0h815.022c17.312 0 31.346 13.79 31.346 30.795 0 0 0 0 0 0v523.55zM836.949 414.836c10.386-12.224 16.107-28.119 16.043-44.581 0.967-22.391-8.958-43.742-26.283-56.542-22.039-14.594-47.801-21.559-73.728-19.934-12.974 0.176-25.897 1.751-38.571 4.711-11.193 1.625-21.979 5.566-31.744 11.6v41.319c9.977-8.512 21.472-14.8 33.792-18.485 13.083-4.722 26.8-7.173 40.619-7.25 38.912 0 58.368 13.774 58.368 42.046 0.055 7.513-2.094 14.862-6.144 21.022-4.629 6.8-10.562 12.482-17.408 16.672-7.168 4.711-20.821 12.322-40.96 22.473-20.686 8.672-39.415 21.888-54.955 38.784-8.8 11.726-13.504 26.327-13.312 41.319-0.453 22.411 10.162 43.445 27.989 55.456 20.713 14.496 45.186 21.723 69.973 20.661 20.697 1.154 41.392-2.304 60.757-10.149v-39.506c-19.099 12.279-41.177 18.329-63.488 17.399-14.571 0.649-29.017-3.125-41.643-10.873-10.039-6.073-16.181-17.454-16.043-29.719-0.347-10.622 3.781-20.85 11.264-27.909 14.871-11.712 31.033-21.451 48.128-28.997 21.344-9.111 40.818-22.528 57.349-39.509zM513.022 402.15v-108.009h-35.499v289.595h77.824c24.784 1.598 49.275-6.386 68.949-22.473 16.928-16.629 25.945-40.437 24.576-64.88 0.768-26.487-9.769-51.929-28.672-69.227-20.025-17.719-45.659-26.665-71.68-25.008l-35.497 0.002zM513.024 550.756v-115.621h32.768c17.627-1.36 35.113 4.185 49.152 15.584 11.634 11.259 17.792 27.543 16.725 44.219 0 37.33-20.821 55.817-62.464 55.817h-36.181zM203.095 333.286c-22.537 28.523-34.119 65.019-32.427 102.21-1.995 39.232 9.806 77.854 33.109 108.373 22.491 27.161 55.408 41.97 89.429 40.233 32.382 1.045 63.481-13.467 84.651-39.506 22.144-28.736 33.566-65.113 32.085-102.21 2.107-39.248-9.705-77.913-33.109-108.373-21.968-26.864-54.245-41.669-87.723-40.233-32.843-1.447-64.514 13.099-86.014 39.506zM291.157 551.478c-24.277 0.601-47.408-10.942-62.464-31.17-31.607-49.239-31.879-113.929-0.683-163.463 14.539-20.071 37.259-31.527 61.099-30.807 24.313-1.241 47.781 9.614 63.488 29.358 16.565 23.819 24.663 53.090 22.869 82.638 1.822 29.833-6.137 59.417-22.528 83.726-15.008 19.726-37.92 30.747-61.781 29.721z" />
<glyph unicode="&#xe904;" glyph-name="import, download" d="M146.286 394.158c-20.198 0-36.571-16.373-36.571-36.571v-438.857c0-20.198 16.374-36.571 36.571-36.571h731.429c20.198 0 36.571 16.373 36.571 36.571v438.857c0 20.198-16.373 36.571-36.571 36.571h-196.923c-20.198 0-36.571 16.373-36.571 36.571s16.373 36.571 36.571 36.571h196.923c60.595 0 109.714-49.119 109.714-109.714v-438.857c0-60.595-49.119-109.714-109.714-109.714h-731.429c-60.593 0-109.714 49.119-109.714 109.714v438.857c0 60.595 49.121 109.714 109.714 109.714h196.923c20.198 0 36.571-16.373 36.571-36.571s-16.373-36.571-36.571-36.571h-196.923zM531.712 73.441l122.222 143.349c7.621 8.938 4.974 21.255-5.914 27.513-4.045 2.322-8.861 3.569-13.798 3.569h-244.443c-13.29 0-24.064-8.843-24.064-19.756 0-4.052 1.518-8.005 4.348-11.326l122.222-143.349c7.621-8.938 22.627-11.11 33.514-4.853 2.3 1.324 4.301 2.966 5.914 4.853zM512 759.873c-20.198 0-36.571-16.374-36.571-36.571v-512h73.143v512c0 20.198-16.373 36.571-36.571 36.571z" />
<glyph unicode="&#xe905;" glyph-name="export" d="M146.286 394.158c-20.198 0-36.571-16.373-36.571-36.571v-438.857c0-20.198 16.374-36.571 36.571-36.571h731.429c20.198 0 36.571 16.373 36.571 36.571v438.857c0 20.198-16.373 36.571-36.571 36.571h-196.923c-20.198 0-36.571 16.373-36.571 36.571s16.373 36.571 36.571 36.571h196.923c60.595 0 109.714-49.119 109.714-109.714v-438.857c0-60.595-49.119-109.714-109.714-109.714h-731.429c-60.593 0-109.714 49.119-109.714 109.714v438.857c0 60.595 49.121 109.714 109.714 109.714h196.923c20.198 0 36.571-16.373 36.571-36.571s-16.373-36.571-36.571-36.571h-196.923zM531.712 751.445l122.222-143.346c7.621-8.938 4.974-21.256-5.914-27.512-4.045-2.324-8.861-3.571-13.798-3.571h-244.443c-13.29 0-24.064 8.844-24.064 19.755 0 4.053 1.518 8.008 4.348 11.329l122.222 143.346c7.621 8.938 22.627 11.112 33.514 4.855 2.3-1.323 4.301-2.966 5.914-4.855zM512 101.587c-20.198 0-36.571 16.373-36.571 36.571v512h73.143v-512c0-20.198-16.373-36.571-36.571-36.571z" />
<glyph unicode="&#xe906;" glyph-name="printer" d="M36.571 512c0 60.593 49.121 109.714 109.714 109.714h731.429c60.595 0 109.714-49.121 109.714-109.714v-365.714c0-60.595-49.119-109.714-109.714-109.714h-73.143v73.143h73.143c20.198 0 36.571 16.373 36.571 36.571v365.714c0 20.198-16.373 36.571-36.571 36.571h-731.429c-20.198 0-36.571-16.374-36.571-36.571v-365.714c0-20.198 16.374-36.571 36.571-36.571h73.143v-73.143h-73.143c-60.593 0-109.714 49.119-109.714 109.714v365.714zM182.857 182.857c0 40.397 32.747 73.143 73.143 73.143h512c40.397 0 73.143-32.746 73.143-73.143v-292.571c0-40.397-32.746-73.143-73.143-73.143h-512c-40.396 0-73.143 32.746-73.143 73.143v292.571zM768 182.857h-512v-292.571h512v292.571zM292.571 694.857c0 40.396 32.747 73.143 73.143 73.143h292.571c40.397 0 73.143-32.747 73.143-73.143v-73.143c0-40.396-32.746-73.143-73.143-73.143h-292.571c-40.396 0-73.143 32.747-73.143 73.143v73.143zM658.286 694.857h-292.571v-73.143h292.571v73.143z" />
<glyph unicode="&#xe907;" glyph-name="hand-right" d="M219.429 621.714v-694.857h365.714c20.198 0 36.571 16.373 36.571 36.571s-16.373 36.571-36.571 36.571h-36.571c-20.198 0-36.571 16.373-36.571 36.571s16.373 36.571 36.571 36.571h73.143c20.198 0 36.571 16.373 36.571 36.571s-16.373 36.571-36.571 36.571h-36.571c-20.198 0-36.571 16.373-36.571 36.571s16.373 36.571 36.571 36.571h73.143c20.198 0 36.571 16.373 36.571 36.571s-16.373 36.571-36.571 36.571h-36.571c-20.198 0-36.571 16.373-36.571 36.571s16.373 36.571 36.571 36.571h292.571c20.198 0 36.571 16.373 36.571 36.571s-16.373 36.571-36.571 36.571h-585.143c-20.198 0-36.571 16.374-36.571 36.571v146.286c0 20.198-16.374 36.571-36.571 36.571s-36.571-16.374-36.571-36.571zM717.349 163.525c8.964-15.901 14.080-34.256 14.080-53.811 0-38.85-20.191-72.982-50.651-92.475 8.964-15.901 14.080-34.256 14.080-53.811 0-60.595-49.119-109.714-109.714-109.714h-399.559c-21.704 0-39.299 17.595-39.299 39.3v728.7c0 60.594 49.121 109.714 109.714 109.714s109.714-49.121 109.714-109.714v-109.714h548.571c60.595 0 109.714-49.121 109.714-109.714 0-60.595-49.119-109.714-109.714-109.714h-152.528c4.041-11.44 6.243-23.749 6.243-36.571 0-38.85-20.191-72.982-50.651-92.475zM73.143 475.428v-512c0-20.198-16.374-36.571-36.571-36.571s-36.571 16.373-36.571 36.571v512c0 20.198 16.374 36.571 36.571 36.571s36.571-16.374 36.571-36.571z" />
<glyph unicode="&#xe908;" glyph-name="checked" d="M512 768c-262.572 0-475.429-212.857-475.429-475.429s212.857-475.429 475.429-475.429c262.572 0 475.429 212.857 475.429 475.429 0 39.212-4.754 77.36-13.736 113.883-4.824 19.617-24.631 31.605-44.244 26.781-19.617-4.824-31.605-24.631-26.781-44.244 7.585-30.855 11.619-63.141 11.619-96.421 0-222.175-180.111-402.286-402.286-402.286s-402.286 180.111-402.286 402.286c0 222.176 180.11 402.286 402.286 402.286 53.592 0 104.645-10.459 151.307-29.414 18.714-7.602 40.046 1.406 47.645 20.118 7.603 18.713-1.404 40.045-20.118 47.647-55.252 22.446-115.646 34.792-178.834 34.792zM978.695 634.566c13.1 15.374 11.253 38.456-4.118 51.556-15.375 13.1-38.459 11.256-51.558-4.118l-412.442-484.040-194.164 166.93c-15.316 13.166-38.406 11.425-51.573-3.891-13.168-15.312-11.426-38.404 3.889-51.573l222.019-190.877c7.376-6.341 16.973-9.483 26.672-8.73s18.695 5.339 25.004 12.741l436.272 512.001z" />
<glyph unicode="&#xe909;" glyph-name="off" d="M548.571 731.428c0 20.198-16.373 36.571-36.571 36.571s-36.571-16.374-36.571-36.571v-402.286c0-20.198 16.373-36.571 36.571-36.571s36.571 16.373 36.571 36.571v402.286zM231.858 595.735c14.348 14.216 14.455 37.371 0.239 51.719s-37.372 14.454-51.719 0.238c-88.744-87.928-143.807-210.866-143.807-346.707 0-266.562 212.205-483.844 475.429-483.844s475.429 217.282 475.429 483.844c0 134.246-53.778 255.89-140.694 343.594-14.219 14.346-37.372 14.451-51.719 0.233s-14.449-37.373-0.234-51.719c73.75-74.419 119.504-177.72 119.504-292.108 0-227.482-180.762-410.701-402.286-410.701s-402.286 183.219-402.286 410.701c0 115.749 46.846 220.143 122.144 294.749z" />
<glyph unicode="&#xe90a;" glyph-name="start, play" d="M109.714 658.285c0 20.198 16.374 36.571 36.571 36.571h731.429c20.198 0 36.571-16.374 36.571-36.571v-731.429c0-20.198-16.373-36.571-36.571-36.571h-731.429c-20.198 0-36.571 16.373-36.571 36.571v731.429zM146.286 768c-60.593 0-109.714-49.121-109.714-109.714v-731.429c0-60.595 49.121-109.714 109.714-109.714h731.429c60.595 0 109.714 49.119 109.714 109.714v731.429c0 60.593-49.119 109.714-109.714 109.714h-731.429zM365.714 149.855v285.433c0 8.684 3.046 17.135 8.682 24.083 14.38 17.735 41.585 21.329 60.763 8.028l205.762-142.717c3.291-2.282 6.213-4.985 8.682-8.027 14.38-17.733 10.496-42.895-8.682-56.196l-205.762-142.716c-7.512-5.211-16.651-8.027-26.043-8.027-23.969 0-43.403 17.971-43.403 40.141z" />
<glyph unicode="&#xe90b;" glyph-name="time" d="M109.714 668.734c0 14.427 11.696 26.122 26.123 26.122h752.326c14.427 0 26.123-11.696 26.123-26.123v-752.326c0-14.427-11.696-26.123-26.123-26.123h-752.326c-14.427 0-26.122 11.696-26.122 26.123v752.326zM135.837 768c-54.823 0-99.265-44.443-99.265-99.265v-752.326c0-54.824 44.443-99.266 99.265-99.266h752.326c54.824 0 99.266 44.442 99.266 99.266v752.326c0 54.823-44.442 99.265-99.266 99.265h-752.326zM548.571 512c0 20.198-16.373 36.571-36.571 36.571s-36.571-16.374-36.571-36.571v-213.716c0-13.356 5.307-26.167 14.753-35.613l142.245-142.245c14.281-14.281 37.438-14.281 51.719 0s14.281 37.438 0 51.719l-135.574 135.574v204.281z" />
<glyph unicode="&#xe90c;" glyph-name="edit" d="M109.714 658.285c0 20.198 16.373 36.571 36.571 36.571h491.103c20.198 0 36.571 16.374 36.571 36.571s-16.373 36.571-36.571 36.571h-491.103c-60.593 0-109.714-49.121-109.714-109.714v-731.429c0-60.595 49.121-109.714 109.714-109.714h731.429c60.595 0 109.714 49.119 109.714 109.714v491.103c0 20.198-16.373 36.57-36.571 36.57s-36.571-16.372-36.571-36.57v-491.103c0-20.198-16.373-36.571-36.571-36.571h-731.429c-20.198 0-36.571 16.373-36.571 36.571v731.429zM979.485 702.132c14.457 14.108 14.735 37.262 0.629 51.716-14.109 14.454-37.263 14.735-51.716 0.627l-518.173-505.753c-14.453-14.106-14.735-37.259-0.629-51.716 14.109-14.453 37.263-14.735 51.716-0.625l518.173 505.751z" />
<glyph unicode="&#xe90d;" glyph-name="trash" d="M329.143 731.428c0 40.396 32.747 73.143 73.143 73.143h219.429c40.397 0 73.143-32.747 73.143-73.143v-109.714h292.571c20.198 0 36.571-16.374 36.571-36.571s-16.373-36.571-36.571-36.571h-950.857c-20.198 0-36.571 16.374-36.571 36.571s16.374 36.571 36.571 36.571h292.571v109.714zM402.286 621.714h219.429v109.714h-219.429v-109.714zM144.138 475.365c20.163 1.186 37.47-14.198 38.656-34.361l32.522-552.866c1.137-19.332 17.144-34.425 36.508-34.425h520.353c19.365 0 35.372 15.093 36.509 34.425l32.519 552.866c1.189 20.163 18.494 35.547 38.656 34.361 20.165-1.186 35.547-18.493 34.363-38.655l-32.523-552.869c-3.412-57.991-51.434-103.27-109.524-103.27h-520.353c-58.091 0-106.114 45.279-109.525 103.27l-32.522 552.869c-1.186 20.162 14.198 37.469 34.361 38.655zM621.714 365.714c20.198 0 36.571-16.373 36.571-36.571v-292.571c0-20.198-16.373-36.571-36.571-36.571s-36.571 16.373-36.571 36.571v292.571c0 20.198 16.373 36.571 36.571 36.571zM438.857 329.142c0 20.198-16.373 36.571-36.571 36.571s-36.571-16.373-36.571-36.571v-292.571c0-20.198 16.373-36.571 36.571-36.571s36.571 16.373 36.571 36.571v292.571z" />
<glyph unicode="&#xe90e;" glyph-name="link" d="M752.837 746.576c-28.566 28.564-74.876 28.565-103.442 0.001l-213.098-213.095c-28.566-28.564-28.566-74.876 0-103.439l11.97-11.973c14.281-14.281 37.438-14.281 51.719 0 14.285 14.285 14.285 37.439 0 51.722l-11.97 11.971 213.098 213.095 213.091-213.095-213.094-213.094-11.97 11.97c-14.281 14.281-37.438 14.281-51.719 0s-14.281-37.438 0-51.719l11.97-11.97c28.566-28.566 74.876-28.566 103.439 0l213.098 213.094c28.562 28.563 28.562 74.874 0 103.438l-213.091 213.095zM689.145 469.795c14.281-14.282 14.281-37.437 0-51.718l-302.647-302.647c-14.281-14.281-37.438-14.281-51.72 0s-14.282 37.438 0 51.719l302.647 302.646c14.281 14.282 37.435 14.282 51.719 0zM271.089 368.274c28.564 28.562 74.876 28.562 103.439 0l11.973-11.973c14.281-14.281 14.281-37.438 0-51.719-14.285-14.281-37.44-14.281-51.722 0l-11.971 11.97-213.095-213.094 213.095-213.094 213.094 213.094-11.97 11.97c-14.281 14.285-14.281 37.438 0 51.723 14.281 14.281 37.438 14.281 51.719 0l11.97-11.973c28.566-28.562 28.566-74.873 0-103.439l-213.094-213.094c-28.563-28.566-74.875-28.566-103.439 0l-213.095 213.094c-28.564 28.566-28.564 74.876 0 103.439l213.095 213.098z" />
<glyph unicode="&#xe90f;" glyph-name="unlink" d="M757.288 757.288c-6.857 6.859-16.161 10.712-25.86 10.712s-19.003-3.853-25.86-10.711l-256-256c-14.281-14.282-14.281-37.438 0-51.72s37.438-14.281 51.719 0l230.14 230.14 167.709-167.711-230.14-230.142c-14.281-14.281-14.281-37.435 0-51.719 14.281-14.281 37.438-14.281 51.719 0l256 256.001c14.281 14.282 14.281 37.438 0 51.72l-219.429 219.431zM438.857 694.855c0 20.198-16.373 36.571-36.571 36.571s-36.571-16.374-36.571-36.571v-109.714c0-20.198 16.373-36.571 36.571-36.571s36.571 16.373 36.571 36.571v109.714zM658.286 0c0 20.198-16.373 36.571-36.571 36.571s-36.571-16.373-36.571-36.571v-109.714c0-20.198 16.373-36.571 36.571-36.571s36.571 16.373 36.571 36.571v109.714zM793.86 62.431l73.143-73.143c14.281-14.281 14.281-37.438 0-51.719s-37.438-14.281-51.719 0l-73.143 73.143c-14.281 14.281-14.281 37.438 0 51.719s37.438 14.281 51.719 0zM208.717 647.572c-14.282 14.282-37.438 14.282-51.72 0s-14.282-37.438 0-51.72l73.143-73.143c14.282-14.282 37.438-14.282 51.72 0s14.282 37.438 0 51.72l-73.143 73.143zM768 182.857c0 20.198 16.373 36.571 36.571 36.571h109.714c20.198 0 36.571-16.373 36.571-36.571s-16.373-36.571-36.571-36.571h-109.714c-20.198 0-36.571 16.373-36.571 36.571zM109.714 438.853c-20.198 0-36.571-16.373-36.571-36.571 0-20.195 16.374-36.571 36.571-36.571h109.714c20.198 0 36.571 16.377 36.571 36.571 0 20.198-16.374 36.571-36.571 36.571h-109.714zM355.003 355.002c14.281-14.281 14.281-37.438 0-51.719l-230.14-230.14 167.709-167.709 230.14 230.14c14.281 14.281 37.438 14.281 51.719 0s14.281-37.438 0-51.719l-256-256c-14.282-14.281-37.438-14.281-51.72 0l-219.429 219.429c-14.282 14.281-14.282 37.438 0 51.719l256 256c14.282 14.281 37.438 14.281 51.72 0z" />
<glyph unicode="&#xe910;" glyph-name="bullhorn" d="M329.169 57.896l548.545-167.563v804.474l-0.048 0.035-548.524-167.632v-469.278l0.026-0.037zM307.795 597.195l548.499 167.597c46.961 14.35 94.563-20.741 94.563-69.985v-804.474c0-49.236-47.594-84.337-94.563-69.983l-548.499 167.596c-30.747 9.395-51.795 37.778-51.795 69.987v469.278c0 32.214 21.054 60.592 51.795 69.985zM73.143 511.999c0 40.396 32.747 73.143 73.143 73.143h182.857v-585.142h-182.857c-40.396 0-73.143 32.746-73.143 73.143v438.857zM256 511.999h-109.714v-438.857h109.714v438.857z" />
<glyph unicode="&#xe911;" glyph-name="bug" d="M512 694.857c-60.595 0-109.714-49.121-109.714-109.714v-36.571c0-20.198-16.373-36.571-36.571-36.571s-36.571 16.374-36.571 36.571v36.571c0 100.989 81.869 182.857 182.857 182.857s182.857-81.868 182.857-182.857v-36.571c0-20.198-16.373-36.571-36.571-36.571s-36.571 16.374-36.571 36.571v36.571c0 60.593-49.119 109.714-109.714 109.714zM219.429 365.714h-36.571c-60.593 0-109.714 49.119-109.714 109.714v36.571c0 20.198 16.374 36.571 36.571 36.571s36.571-16.374 36.571-36.571v-36.571c0-20.198 16.374-36.571 36.571-36.571h658.286c20.198 0 36.571 16.373 36.571 36.571v36.571c0 20.198 16.373 36.571 36.571 36.571s36.571-16.374 36.571-36.571v-36.571c0-60.595-49.119-109.714-109.714-109.714h-36.571v-109.714h109.714c20.198 0 36.571-16.373 36.571-36.571s-16.373-36.571-36.571-36.571h-109.714v-73.143c0-12.387-0.768-24.591-2.264-36.571h38.835c60.595 0 109.714-49.119 109.714-109.714v-36.571c0-20.198-16.373-36.571-36.571-36.571s-36.571 16.373-36.571 36.571v36.571c0 20.198-16.373 36.571-36.571 36.571h-57.838c-43.403-107.22-148.52-182.857-271.305-182.857s-227.903 75.637-271.304 182.857h-57.838c-20.198 0-36.571-16.373-36.571-36.571v-36.571c0-20.198-16.374-36.571-36.571-36.571s-36.571 16.373-36.571 36.571v36.571c0 60.595 49.121 109.714 109.714 109.714h38.835c-1.494 11.981-2.263 24.185-2.263 36.571v73.143h-109.714c-20.198 0-36.571 16.373-36.571 36.571s16.374 36.571 36.571 36.571h109.714v109.714zM292.571 365.714v-256c0-121.187 98.242-219.429 219.429-219.429s219.429 98.242 219.429 219.429v256h-438.857z" />
<glyph unicode="&#xe912;" glyph-name="list-alt" d="M109.714 768h804.571c40.397 0 73.143-32.747 73.143-73.143v-804.571c0-40.397-32.746-73.143-73.143-73.143h-804.571c-40.396 0-73.143 32.746-73.143 73.143v804.571c0 40.396 32.747 73.143 73.143 73.143zM109.714 694.857v-146.286h804.571v146.286h-804.571zM109.714 475.428v-585.143h804.571v585.143h-804.571zM475.429 292.571h292.571c20.198 0 36.571-16.373 36.571-36.571s-16.373-36.571-36.571-36.571h-292.571c-20.198 0-36.571 16.373-36.571 36.571s16.373 36.571 36.571 36.571zM438.857 73.142c0-20.198 16.373-36.571 36.571-36.571h292.571c20.198 0 36.571 16.373 36.571 36.571s-16.373 36.571-36.571 36.571h-292.571c-20.198 0-36.571-16.373-36.571-36.571zM256 109.714h73.143c20.198 0 36.571-16.373 36.571-36.571s-16.374-36.571-36.571-36.571h-73.143c-20.198 0-36.571 16.373-36.571 36.571s16.374 36.571 36.571 36.571zM219.429 256c0-20.198 16.374-36.571 36.571-36.571h73.143c20.198 0 36.571 16.373 36.571 36.571s-16.374 36.571-36.571 36.571h-73.143c-20.198 0-36.571-16.373-36.571-36.571z" />
<glyph unicode="&#xe913;" glyph-name="rich-text" d="M841.143 731.428c60.594 0 109.714-49.121 109.714-109.714v0-658.286c0-60.594-49.121-109.714-109.714-109.714v0h-658.286c-60.594 0-109.714 49.121-109.714 109.714v0 658.286c0 60.594 49.121 109.714 109.714 109.714v0zM841.143 658.285h-658.286c-20.198 0-36.571-16.374-36.571-36.571v0-658.286c0-20.198 16.374-36.571 36.571-36.571v0h658.286c20.198 0 36.571 16.374 36.571 36.571v0 658.286c0 20.198-16.374 36.571-36.571 36.571v0zM694.857 512c20.198 0 36.571-16.374 36.571-36.571s-16.374-36.571-36.571-36.571h-146.286v-329.111c0-20.216-16.388-36.604-36.604-36.604-18.772 0-34.243 14.13-36.357 32.335l-0.246 4.269v329.111h-146.221c-20.198 0-36.571 16.374-36.571 36.571s16.374 36.571 36.571 36.571h365.714z" />
<glyph unicode="&#xe914;" glyph-name="glasses, review" d="M363.003 635.533c7.634-18.7-1.339-40.047-20.039-47.68l-113.772-46.437-101.612-248.845h311.277c10.346 0 20.206-4.381 27.14-12.061 6.938-7.676 10.295-17.931 9.245-28.222l-7.088-69.431h87.691l-7.084 69.431c-1.050 10.291 2.308 20.546 9.242 28.222 6.934 7.68 16.794 12.061 27.14 12.061h311.278l-101.61 248.845-113.774 46.437c-18.699 7.633-27.67 28.98-20.037 47.68s28.979 27.672 47.678 20.039l128-52.245c9.099-3.714 16.322-10.935 20.037-20.035l127.978-313.415c0.051-0.128 0.102-0.252 0.154-0.38 2.337-5.884 3.043-12.021 2.322-17.902l-26.050-255.309c-1.905-18.666-17.624-32.859-36.385-32.859h-313.468c-18.761 0-34.48 14.193-36.381 32.859l-11.575 113.426h-102.619l-11.571-113.426c-1.905-18.666-17.624-32.859-36.385-32.859h-313.468c-18.76 0-34.478 14.193-36.383 32.859l-26.052 255.309c-0.719 5.881-0.016 12.017 2.322 17.902l0.156 0.384 127.976 313.411c3.715 9.099 10.937 16.32 20.037 20.035l128 52.245c18.7 7.632 40.047-1.339 47.68-20.039zM113.637 219.428l18.659-182.857h247.411l18.659 182.857h-284.729zM625.638 219.428l18.659-182.857h247.409l18.659 182.857h-284.727z" />
<glyph unicode="&#xe915;" glyph-name="sitemap, testcase" d="M256 731.428h512c40.397 0 73.143-32.747 73.143-73.143v-292.571h73.143c40.397 0 73.143-32.746 73.143-73.143v-365.714c0-40.397-32.746-73.143-73.143-73.143h-292.571c-40.397 0-73.143 32.746-73.143 73.143v365.714c0 40.397 32.746 73.143 73.143 73.143h146.286v292.571h-512v-292.571h146.286c40.397 0 73.143-32.746 73.143-73.143v-365.714c0-40.397-32.746-73.143-73.143-73.143h-292.571c-40.396 0-73.143 32.746-73.143 73.143v365.714c0 40.397 32.747 73.143 73.143 73.143h73.143v292.571c0 40.396 32.747 73.143 73.143 73.143zM402.286-73.143v365.714h-292.571v-365.714h292.571zM914.286-73.143v365.714h-292.571v-365.714h292.571z" />
<glyph unicode="&#xe916;" glyph-name="markdown" d="M73.143 73.198v73.087h73.143v-73.087h-73.143zM219.429 73.198v292.516h73.143v-24.704c14.154 21.943 36.571 24.408 49.925 24.704 16.405 0 42.454 2.45 59.789-29.86 19.585 32.311 52.014 29.86 82.46 29.86 57.051 0 100.397-31.068 100.397-96.348v-196.224h-73.143v189.366c0 32.366-7.279 53.705-36.571 53.705-31.543 0-36.571-21.394-36.571-53.76v-189.312h-73.143v189.366c0 32.366-7.771 53.705-36.571 53.705-32.585 0-36.023-23.095-36.571-54.857v-188.215l-73.143 0.056zM621.714 219.428c0 82.615 60.782 146.286 131.437 146.286 33.134 0 65.171-4.406 84.7-29.86h3.291v176.146h73.143v-438.857h-73.143v42.679h-2.688c-19.529-25.345-52.663-42.679-85.248-42.679-70.71 0-131.492 63.671-131.492 146.286zM841.143 216.923c0 57.148-34.862 75.648-73.143 75.648s-73.143-23.053-73.143-73.143c0-50.090 27.849-73.143 70.748-73.143 42.404 0 75.538 25.106 75.538 70.637z" />
<glyph unicode="&#xe917;" glyph-name="pluses" d="M36.571 694.857c0 40.396 32.747 73.143 73.143 73.143h804.571c40.397 0 73.143-32.747 73.143-73.143v-804.571c0-40.397-32.746-73.143-73.143-73.143h-804.571c-40.396 0-73.143 32.746-73.143 73.143v804.571zM914.286 694.857h-804.571v-804.571h804.571v804.571zM402.286 402.285c20.198 0 36.571-16.373 36.571-36.571v-146.286h146.286c20.198 0 36.571-16.373 36.571-36.571s-16.373-36.571-36.571-36.571h-146.286v-146.286c0-20.198-16.373-36.571-36.571-36.571s-36.571 16.373-36.571 36.571v146.286h-146.286c-20.198 0-36.571 16.373-36.571 36.571s16.374 36.571 36.571 36.571h146.286v146.286c0 20.198 16.373 36.571 36.571 36.571zM731.429 585.142c0 20.198-16.373 36.571-36.571 36.571s-36.571-16.374-36.571-36.571v-73.143h-73.143c-20.198 0-36.571-16.374-36.571-36.571s16.373-36.571 36.571-36.571h73.143v-73.143c0-20.198 16.373-36.571 36.571-36.571s36.571 16.373 36.571 36.571v73.143h73.143c20.198 0 36.571 16.374 36.571 36.571s-16.373 36.571-36.571 36.571h-73.143v73.143z" />
<glyph unicode="&#xe918;" glyph-name="report-list" d="M323.592 687.992l-62.23-294.104c0.214-0.040 0.428-0.084 0.642-0.132l519.363-110.896-49.635 145.108c-4.359 12.746-1.379 26.845 7.764 36.706l104.101 112.283-520.005 111.033zM246.223 322.344l-100.75-476.145c-4.181-19.763-23.583-32.362-43.336-28.145-19.753 4.22-32.376 23.658-28.195 43.418l185.689 877.573c3.536 16.712 17.96 28.303 34.275 28.929 2.978 0.115 6.018-0.135 9.067-0.786l618.798-132.128c12.873-2.749 23.289-12.207 27.271-24.764s0.918-26.277-8.024-35.923l-133.040-143.498 63.437-185.454c4.264-12.464 1.507-26.251-7.216-36.096s-22.067-14.23-34.94-11.48l-582.399 124.357c-0.214 0.044-0.427 0.091-0.639 0.143z" />
<glyph unicode="&#xe919;" glyph-name="magic, active" d="M583.559 731.428c0 20.198-16.373 36.571-36.571 36.571s-36.571-16.374-36.571-36.571v-147.040c0-20.198 16.373-36.571 36.571-36.571s36.571 16.373 36.571 36.571v147.040zM858.522 587.116c14.277 14.288 14.277 37.454 0 51.742-14.274 14.288-37.42 14.288-51.697 0l-103.852-103.941c-14.277-14.288-14.277-37.454 0-51.742 14.274-14.288 37.42-14.288 51.697 0l103.852 103.941zM566.638 503.445c-14.274 14.288-37.42 14.288-51.697 0l-467.483-467.879c-14.276-14.288-14.276-37.453 0-51.741l155.828-155.959c14.276-14.288 37.422-14.288 51.698 0l467.486 467.877c14.274 14.288 14.274 37.456 0 51.745l-155.831 155.958zM125.004 9.695l415.785 416.139 104.13-104.221-415.785-416.135-104.13 104.218zM987.586 327.062c0-20.198-16.373-36.571-36.571-36.571h-146.918c-20.198 0-36.571 16.373-36.571 36.571s16.373 36.571 36.571 36.571h146.918c20.198 0 36.571-16.373 36.571-36.571zM806.832 15.264c14.274-14.288 37.42-14.288 51.697 0 14.274 14.288 14.274 37.453 0 51.741l-103.856 103.94c-14.274 14.288-37.42 14.288-51.697 0s-14.277-37.453 0-51.741l103.856-103.94zM235.459 638.85c14.276 14.288 37.422 14.288 51.698 0l103.854-103.941c14.274-14.288 14.274-37.454 0-51.742-14.277-14.288-37.423-14.288-51.699 0l-103.853 103.941c-14.276 14.288-14.276 37.454 0 51.742z" />
<glyph unicode="&#xe91a;" glyph-name="treemap" d="M36.571 402.285c0 40.396 32.747 73.143 73.143 73.143h219.429c40.397 0 73.143-32.747 73.143-73.143v-219.429c0-40.397-32.746-73.143-73.143-73.143h-219.429c-40.396 0-73.143 32.746-73.143 73.143v219.429zM329.143 402.285h-219.429v-219.429h219.429v219.429zM621.714 694.857c0 40.396 32.746 73.143 73.143 73.143h219.429c40.397 0 73.143-32.747 73.143-73.143v-219.429c0-40.397-32.746-73.143-73.143-73.143h-219.429c-40.397 0-73.143 32.746-73.143 73.143v219.429zM914.286 694.857h-219.429v-219.429h219.429v219.429zM621.714 109.714c0 40.397 32.746 73.143 73.143 73.143h219.429c40.397 0 73.143-32.746 73.143-73.143v-219.429c0-40.397-32.746-73.143-73.143-73.143h-219.429c-40.397 0-73.143 32.746-73.143 73.143v219.429zM914.286 109.714h-219.429v-219.429h219.429v219.429zM339.854 264.111c-14.282 14.281-14.282 37.438 0 51.719l284.46 284.46c14.281 14.282 37.438 14.282 51.719 0s14.281-37.437 0-51.72l-284.46-284.46c-14.281-14.281-37.437-14.281-51.72 0zM339.854 303.283c-14.282-14.281-14.282-37.438 0-51.719l284.46-284.46c14.281-14.281 37.438-14.281 51.719 0s14.281 37.438 0 51.719l-284.46 284.46c-14.281 14.281-37.437 14.281-51.72 0z" />
<glyph unicode="&#xe91b;" glyph-name="confirm" d="M36.571 658.285c0 60.593 49.121 109.714 109.714 109.714h658.286c60.595 0 109.714-49.121 109.714-109.714v-292.571c0-20.198-16.373-36.571-36.571-36.571s-36.571 16.373-36.571 36.571v292.571c0 20.198-16.373 36.571-36.571 36.571h-658.286c-20.198 0-36.571-16.374-36.571-36.571v-731.429c0-20.198 16.374-36.571 36.571-36.571h658.286c20.198 0 36.571 16.373 36.571 36.571v109.714c0 20.198 16.373 36.571 36.571 36.571s36.571-16.373 36.571-36.571v-109.714c0-60.595-49.119-109.714-109.714-109.714h-658.286c-60.594 0-109.714 49.119-109.714 109.714v731.429zM1011.646 356.549c-15.137 13.374-38.25 11.944-51.624-3.189l-267.377-302.588-120.733 100.089c-15.547 12.891-38.605 10.737-51.493-4.813-12.891-15.55-10.737-38.605 4.813-51.496l148.012-122.704c15.203-12.606 37.669-10.862 50.747 3.935l290.845 329.143c13.374 15.137 11.944 38.25-3.189 51.624zM292.571 548.571c0 20.198 16.374 36.571 36.571 36.571h365.714c20.198 0 36.571-16.374 36.571-36.571s-16.373-36.571-36.571-36.571h-365.714c-20.198 0-36.571 16.374-36.571 36.571zM292.571 365.714c0 20.198 16.374 36.571 36.571 36.571h365.714c20.198 0 36.571-16.373 36.571-36.571s-16.373-36.571-36.571-36.571h-365.714c-20.198 0-36.571 16.373-36.571 36.571zM256 548.571c0-20.198-16.374-36.571-36.571-36.571s-36.571 16.374-36.571 36.571c0 20.198 16.374 36.571 36.571 36.571s36.571-16.374 36.571-36.571zM256 365.714c0-20.198-16.374-36.571-36.571-36.571s-36.571 16.373-36.571 36.571c0 20.198 16.374 36.571 36.571 36.571s36.571-16.373 36.571-36.571z" />
<glyph unicode="&#xe91c;" glyph-name="lightbulb" d="M604.024 7.744h-175.835c-12.325 85.54-54.638 167.424-122.551 234.715-56.43 55.845-85.906 129.573-82.98 207.653 5.449 148.188 134.875 270.702 288.549 273.153l5.046 0.036c161.975 0 293.779-127.233 293.779-283.612 0-75.556-30.538-146.579-86.053-200.009-66.596-64.329-108.069-145.261-119.954-231.936zM549.715-154.414h-66.999l-42.020 84.444h151.076l-42.058-84.444zM509.962 796.371c-191.525-3.035-353.537-157.404-360.375-343.553-3.876-102.326 36.864-195.291 104.558-262.327 64.074-63.525 104.85-145.738 104.85-234.715v-25.746l43.325-87.033c21.519-43.228 65.646-70.554 113.933-70.554v0 0c48.285 0 92.41 27.33 113.919 70.56l43.301 87.026v26.039c0 87.186 37.633 169.509 101.303 230.985 66.926 64.439 108.398 153.746 108.398 252.635 0 197.010-164.279 356.754-366.922 356.754-2.085 0-4.169-0.036-6.29-0.074zM340.19 428.879h73.143c0 55.954 45.495 101.449 101.449 101.449v73.143c-96.256 0-174.593-78.3-174.593-174.593z" />
<glyph unicode="&#xe91d;" glyph-name="delay, calendar" d="M365.714 768c20.198 0 36.571-16.374 36.571-36.571v-109.714h219.429v109.714c0 20.198 16.373 36.571 36.571 36.571s36.571-16.374 36.571-36.571v-109.714h182.857c60.595 0 109.714-49.121 109.714-109.714v-585.143c0-60.595-49.119-109.714-109.714-109.714h-731.429c-60.593 0-109.714 49.119-109.714 109.714v585.143c0 60.593 49.121 109.714 109.714 109.714h182.857v109.714c0 20.198 16.374 36.571 36.571 36.571zM329.143 548.571h-182.857c-20.198 0-36.571-16.374-36.571-36.571v-585.143c0-20.198 16.374-36.571 36.571-36.571h731.429c20.198 0 36.571 16.373 36.571 36.571v585.143c0 20.198-16.373 36.571-36.571 36.571h-182.857v-109.714c0-20.198-16.373-36.571-36.571-36.571s-36.571 16.373-36.571 36.571v109.714h-219.429v-109.714c0-20.198-16.373-36.571-36.571-36.571s-36.571 16.373-36.571 36.571v109.714zM329.143 219.428c0 20.198 16.374 36.571 36.571 36.571h292.571c20.198 0 36.571-16.373 36.571-36.571s-16.373-36.571-36.571-36.571h-292.571c-20.198 0-36.571 16.373-36.571 36.571zM329.143 36.571c0 20.198 16.374 36.571 36.571 36.571h292.571c20.198 0 36.571-16.373 36.571-36.571s-16.373-36.571-36.571-36.571h-292.571c-20.198 0-36.571 16.373-36.571 36.571z" />
<glyph unicode="&#xe91e;" glyph-name="pause" d="M135.837 694.857c-14.427 0-26.123-11.696-26.123-26.122v-752.326c0-14.427 11.696-26.123 26.122-26.123h752.326c14.427 0 26.123 11.696 26.123 26.123v752.326c0 14.427-11.696 26.123-26.123 26.123h-752.326zM36.571 668.734c0 54.822 44.443 99.265 99.265 99.265h752.326c54.824 0 99.266-44.443 99.266-99.265v-752.326c0-54.824-44.442-99.266-99.266-99.266h-752.326c-54.822 0-99.265 44.442-99.265 99.266v752.326zM402.286 512c20.198 0 36.571-16.374 36.571-36.571v-365.714c0-20.198-16.373-36.571-36.571-36.571s-36.571 16.373-36.571 36.571v365.714c0 20.198 16.373 36.571 36.571 36.571zM658.286 475.428c0 20.198-16.373 36.571-36.571 36.571s-36.571-16.374-36.571-36.571v-365.714c0-20.198 16.373-36.571 36.571-36.571s36.571 16.373 36.571 36.571v365.714z" />
<glyph unicode="&#xe91f;" glyph-name="ban" d="M109.714 768c-40.396 0-73.143-32.747-73.143-73.143v-804.571c0-40.397 32.747-73.143 73.143-73.143h804.564c40.397 0 73.143 32.746 73.143 73.143v804.571c0 40.396-32.746 73.143-73.143 73.143h-804.564zM109.714 694.857h804.564v-804.571h-804.564v804.571zM830.431 559.282c14.281 14.282 14.281 37.438 0 51.72s-37.438 14.282-51.719 0l-585.143-585.143c-14.282-14.281-14.282-37.438 0-51.719s37.438-14.281 51.72 0l585.142 585.142z" />
<glyph unicode="&#xe920;" glyph-name="plus-bold" d="M548.571 731.428c0 20.198-16.373 36.571-36.571 36.571s-36.571-16.374-36.571-36.571v-402.286h-402.286c-20.198 0-36.571-16.373-36.571-36.571s16.374-36.571 36.571-36.571h402.286v-402.286c0-20.198 16.373-36.571 36.571-36.571s36.571 16.373 36.571 36.571v402.286h402.286c20.198 0 36.571 16.373 36.571 36.571s-16.373 36.571-36.571 36.571h-402.286v402.286z" />
<glyph unicode="&#xe921;" glyph-name="copy" d="M402.286 731.428c0 40.396 32.746 73.143 73.143 73.143l240.852-0.001c19.397 0 38.001-7.706 51.719-21.423l234.576-234.577c13.718-13.717 21.424-32.321 21.424-51.72v-350.068c0-40.397-32.746-73.143-73.143-73.143h-219.429c-20.198 0-36.571 16.373-36.571 36.571s16.373 36.571 36.571 36.571h219.429v292.070h-256c-20.198 0-36.571 16.375-36.571 36.573v256l-182.857 0.002v-146.286c0-20.198-16.373-36.571-36.571-36.571s-36.571 16.374-36.571 36.571v146.286zM731.429 716.279v-204.281h204.281l-204.281 204.281zM73.143 512c-40.396 0-73.143-32.747-73.143-73.143v-584.646c0-40.397 32.747-73.143 73.143-73.143h475.429c40.397 0 73.143 32.746 73.143 73.143v350.069c0 19.397-7.706 38.001-21.424 51.719l-234.576 234.577c-13.717 13.717-32.321 21.423-51.72 21.423l-240.851 0.001zM73.143 438.857l182.857-0.004v-256c0-20.195 16.374-36.571 36.571-36.571h256v-292.070h-475.429v584.646zM533.424 219.424h-204.281v204.284l204.281-204.284z" />
<glyph unicode="&#xe922;" glyph-name="refresh" d="M114.619 204.028c40.264-177.44 198.948-309.902 388.571-309.902s348.308 132.462 388.571 309.902h-91.503c-38.098-128.011-156.682-221.359-297.068-221.359s-258.97 93.347-297.068 221.359h-91.503zM107.179 336.842c22.022 199.22 190.922 354.172 396.012 354.172s373.989-154.952 396.012-354.172h-89.25c-21.48 150.183-150.64 265.629-306.763 265.629s-285.281-115.447-306.763-265.629h-89.25zM91.408 164.658l3.71 13.846c10.608 39.587 51.299 63.080 90.886 52.472l227.663-61.002-22.917-85.526-299.341 80.209zM119.642-72.074l-85.526 22.917 61.002 227.663c10.608 39.587 51.299 63.080 90.886 52.472l13.846-3.71-80.209-299.341zM932.592 385.157l-3.71-13.846c-10.608-39.587-51.299-63.080-90.886-52.472l-227.663 61.002 22.917 85.526 299.341-80.209zM904.358 621.889l85.526-22.917-61.002-227.663c-10.608-39.587-51.299-63.080-90.886-52.472l-13.846 3.71 80.209 299.341z" />
<glyph unicode="&#xe923;" glyph-name="arrow-up" d="M840.533 314.844l-298.667 298.667c-4.267 4.267-8.533 8.533-12.8 8.533-8.533 4.267-21.333 4.267-34.133 0-4.267-4.267-8.533-4.267-12.8-8.533l-298.667-298.667c-17.067-17.067-17.067-42.667 0-59.733s42.667-17.067 59.733 0l226.133 226.133v-494.933c0-25.6 17.067-42.667 42.667-42.667s42.667 17.067 42.667 42.667v494.933l226.133-226.133c8.533-8.533 21.333-12.8 29.867-12.8s21.333 4.267 29.867 12.8c17.067 17.067 17.067 42.667 0 59.733z" />
<glyph unicode="&#xe924;" glyph-name="arrow-down" d="M840.532 314.311c-17.067 17.067-42.667 17.067-59.733 0l-226.133-226.133v494.933c0 25.6-17.067 42.667-42.667 42.667s-42.667-17.067-42.667-42.667v-494.933l-226.133 226.133c-17.067 17.067-42.667 17.067-59.733 0s-17.067-42.667 0-59.733l298.667-298.667c4.267-4.267 8.533-8.533 12.8-8.533 4.267-4.267 12.8-4.267 17.067-4.267s12.8 0 17.067 4.267c4.267 4.267 8.533 4.267 12.8 8.533l298.667 298.667c17.067 17.067 17.067 42.667 0 59.733z" />
<glyph unicode="&#xe925;" glyph-name="plus" d="M860.445 342.35h-298.666v298.666c0 29.866-19.911 49.779-49.779 49.779s-49.779-19.911-49.779-49.779v-298.666h-298.666c-29.866 0-49.779-19.911-49.779-49.779s19.911-49.779 49.779-49.779h298.666v-298.666c0-29.866 19.911-49.779 49.779-49.779s49.779 19.911 49.779 49.779v298.666h298.666c29.866 0 49.779 19.911 49.779 49.779s-19.911 49.779-49.779 49.779z" />
<glyph unicode="&#xe926;" glyph-name="minus" d="M860.443 334.222h-696.885c-29.869 0-49.778-19.913-49.778-49.778s19.913-49.778 49.778-49.778h696.885c29.869 0 49.778 19.913 49.778 49.778s-19.913 49.778-49.778 49.778z" />
<glyph unicode="&#xe927;" glyph-name="exchange" d="M473.45 167.61h301.759c16.114 0 29.172 13.061 29.172 29.172s-13.061 29.172-29.172 29.172v0h-543.89c-4.265 0-8.195-2.321-10.249-6.061-3.113-5.662-1.050-12.774 4.613-15.887v0l264.382-145.418c2.913-1.602 6.373-1.89 9.509-0.787 6.095 2.138 9.306 8.813 7.165 14.908v0l-33.287 94.898zM550.55 401.278h-301.759c-16.114 0-29.172-13.061-29.172-29.172v0 0c0-16.114 13.061-29.172 29.172-29.172v0h543.89c4.265 0 8.195 2.321 10.249 6.061 3.113 5.662 1.050 12.774-4.613 15.887l-264.382 145.418c-2.913 1.602-6.373 1.89-9.509 0.787-6.095-2.138-9.306-8.813-7.165-14.908v0l33.287-94.898z" />
<glyph unicode="&#xe928;" glyph-name="search" d="M441.979 739.556c-212.68 0-385.091-172.414-385.091-385.095s172.411-385.095 385.091-385.095c93.736 0 179.65 33.493 246.428 89.16l218.939-218.939c13.672-13.672 35.838-13.672 49.509 0s13.672 35.838 0 49.509l-218.939 218.939c55.664 66.778 89.153 152.694 89.153 246.424 0 212.68-172.409 385.095-385.091 385.095zM126.906 354.46c0 174.010 141.064 315.078 315.074 315.078s315.074-141.065 315.074-315.078c0-174.009-141.064-315.078-315.074-315.078s-315.074 141.067-315.074 315.078z" />
<glyph unicode="&#xe929;" glyph-name="text" d="M847.856 697.805l59.939-224.765-49.603-13.434c-23.25 44.952-47.022 89.907-74.407 112.64-27.385 22.218-59.421 22.218-90.939 22.218h-129.176v-542.539c0-25.836 0-51.669 17.050-64.586 17.568-12.919 51.669-12.919 86.288-12.919v-51.669h-310.021v51.669c34.62 0 68.723 0 86.288 12.919 17.050 12.919 17.050 38.753 17.050 64.586v542.539h-129.176c-31.519 0-63.554 0-90.939-22.218-27.385-22.733-51.152-67.689-74.407-112.64l-49.603 13.434 59.939 224.765h671.713z" />
<glyph unicode="&#xe92a;" glyph-name="envelope-o" d="M950.857-26.414v438.857c-12-13.714-25.143-26.286-39.429-37.714-81.714-62.857-164-126.857-243.429-193.143-42.857-36-96-80-155.429-80h-1.143c-59.429 0-112.571 44-155.429 80-79.429 66.286-161.714 130.286-243.429 193.143-14.286 11.429-27.429 24-39.429 37.714v-438.857c0-9.714 8.571-18.286 18.286-18.286h841.142c9.714 0 18.286 8.571 18.286 18.286zM950.857 574.158c0 14.286 3.429 39.429-18.286 39.429h-841.142c-9.714 0-18.286-8.571-18.286-18.286 0-65.143 32.571-121.714 84-162.286 76.571-60 153.143-120.571 229.143-181.143 30.286-24.571 85.143-77.143 125.143-77.143h1.143c40 0 94.857 52.571 125.143 77.143 76 60.571 152.571 121.143 229.143 181.143 37.143 29.143 84 92.571 84 141.143zM1024 595.301v-621.713c0-50.286-41.143-91.429-91.429-91.429h-841.142c-50.286 0-91.429 41.143-91.429 91.429v621.713c0 50.286 41.143 91.429 91.429 91.429h841.142c50.286 0 91.429-41.143 91.429-91.429z" />
<glyph unicode="&#xe92b;" glyph-name="up-circle" d="M557.51 383.579l108.814-35.010c13.58-4.369 28.464-0.748 38.518 9.371 14.763 14.854 14.687 38.87-0.171 53.635v0l-138.961 138.075c-29.679 29.491-77.633 29.38-107.179-0.246v0l-137.389-137.787c-10.054-10.084-13.614-24.95-9.216-38.492 6.47-19.922 27.862-30.827 47.782-24.358v0l106.774 34.672v-318.972c0-25.135 20.374-45.51 45.51-45.51v0c25.135 0 45.51 20.374 45.51 45.51v0 319.106zM512 739.556v0c251.351 0 455.112-203.76 455.112-455.112v0c0-251.351-203.76-455.112-455.112-455.112s-455.112 203.76-455.112 455.112v0 0c0 251.351 203.76 455.112 455.112 455.112v0z" />
<glyph unicode="&#xe92c;" glyph-name="right-circle" d="M611.135 238.934l-35.010-108.814c-4.369-13.58-0.748-28.464 9.371-38.518 14.854-14.763 38.87-14.687 53.635 0.171v0l138.075 138.961c29.491 29.679 29.38 77.633-0.246 107.179v0l-137.787 137.389c-10.084 10.054-24.95 13.614-38.492 9.216-19.922-6.47-30.827-27.862-24.358-47.782v0l34.672-106.774h-318.972c-25.135 0-45.51-20.374-45.51-45.51v0c0-25.135 20.374-45.51 45.51-45.51v0h319.106zM967.112 284.444v0c0-251.351-203.76-455.112-455.112-455.112v0c-251.351 0-455.112 203.76-455.112 455.112s203.76 455.112 455.112 455.112v0 0c251.351 0 455.112-203.76 455.112-455.112v0z" />
<glyph unicode="&#xe92d;" glyph-name="down-circle" d="M466.49 185.309l-108.814 35.010c-13.58 4.369-28.464 0.748-38.518-9.371-14.763-14.854-14.687-38.87 0.171-53.635v0l138.961-138.075c29.679-29.491 77.633-29.38 107.179 0.246v0l137.389 137.787c10.054 10.084 13.614 24.95 9.216 38.492-6.47 19.922-27.862 30.827-47.782 24.358v0l-106.774-34.672v318.972c0 25.135-20.374 45.51-45.51 45.51v0c-25.135 0-45.51-20.374-45.51-45.51v0-319.106zM512-170.668v0c-251.351 0-455.112 203.76-455.112 455.112v0c0 251.351 203.76 455.112 455.112 455.112s455.112-203.76 455.112-455.112v0 0c0-251.351-203.76-455.112-455.112-455.112v0z" />
<glyph unicode="&#xe92e;" glyph-name="left-circle" d="M412.865 329.954l35.010 108.814c4.369 13.58 0.748 28.464-9.371 38.518-14.854 14.763-38.87 14.687-53.635-0.171v0l-138.075-138.961c-29.491-29.679-29.38-77.633 0.246-107.179v0l137.787-137.389c10.084-10.054 24.95-13.614 38.492-9.216 19.922 6.47 30.827 27.862 24.358 47.782v0l-34.672 106.774h318.972c25.135 0 45.51 20.374 45.51 45.51v0c0 25.135-20.374 45.51-45.51 45.51v0h-319.106zM56.888 284.444v0c0 251.351 203.76 455.112 455.112 455.112v0c251.351 0 455.112-203.76 455.112-455.112s-203.76-455.112-455.112-455.112v0 0c-251.351 0-455.112 203.76-455.112 455.112v0z" />
<glyph unicode="&#xe92f;" glyph-name="check-circle" d="M415.557 169.149l-83.113 83.113c-17.773 17.773-46.589 17.773-64.362 0s-17.773-46.589 0-64.362l112.737-112.737c0.777-0.91 1.596-1.798 2.457-2.658v0c0.861-0.861 1.748-1.68 2.658-2.457l0.145-0.145 0.011 0.011c17.88-15.135 44.684-14.272 61.547 2.591v0l321.813 321.813c17.773 17.773 17.773 46.589 0 64.362s-46.589 17.773-64.362 0l-289.53-289.53zM512-170.668c-251.352 0-455.112 203.76-455.112 455.112s203.76 455.112 455.112 455.112c251.352 0 455.112-203.76 455.112-455.112s-203.76-455.112-455.112-455.112z" />
<glyph unicode="&#xe930;" glyph-name="exclamation-sign" d="M512-170.668c-251.351 0-455.112 203.76-455.112 455.112s203.76 455.112 455.112 455.112c251.351 0 455.112-203.76 455.112-455.112s-203.76-455.112-455.112-455.112zM512-18.963c31.414 0 56.886 25.47 56.886 56.886s-25.47 56.886-56.886 56.886c-31.414 0-56.886-25.47-56.886-56.886s25.47-56.886 56.886-56.886zM511.999 549.923c-25.135 0-45.51-20.374-45.51-45.51v-288.237c0-25.135 20.374-45.51 45.51-45.51s45.51 20.374 45.51 45.51v288.237c0 25.135-20.374 45.51-45.51 45.51z" />
<glyph unicode="&#xe931;" glyph-name="unfold-all" d="M85.669-4.128h238.746c28.255 0 51.158-22.905 51.158-51.158s-22.905-51.158-51.158-51.158h-238.746c-28.255 0-51.158 22.905-51.158 51.158s22.905 51.158 51.158 51.158zM760.976-72.341v0 0c28.255 0 51.158 22.905 51.158 51.158v443.382c0 28.255-22.905 51.158-51.158 51.158v0 0c-28.255 0-51.158-22.905-51.158-51.158v-443.382c0-28.255 22.905-51.158 51.158-51.158zM795.195-94.13c19.979 19.979 19.979 52.373 0 72.352l-168.819 168.819c-19.979 19.979-52.373 19.979-72.352 0s-19.979-52.373 0-72.352l168.819-168.819c19.979-19.979 52.373-19.979 72.352 0zM795.195-94.13l168.819 168.819c19.979 19.979 19.979 52.373 0 72.352s-52.373 19.979-72.352 0l-168.819-168.819c-19.979-19.979-19.979-52.373 0-72.352s52.373-19.979 72.352 0zM85.669 223.248h238.746c28.255 0 51.158-22.905 51.158-51.158s-22.905-51.158-51.158-51.158h-238.746c-28.255 0-51.158 22.905-51.158 51.158s22.905 51.158 51.158 51.158zM85.669 450.621h238.746c28.255 0 51.158-22.905 51.158-51.158v0 0c0-28.255-22.905-51.158-51.158-51.158h-238.746c-28.255 0-51.158 22.905-51.158 51.158v0 0c0 28.255 22.905 51.158 51.158 51.158zM85.669 678.002h852.662c28.255 0 51.158-22.905 51.158-51.158s-22.905-51.158-51.158-51.158h-852.662c-28.255 0-51.158 22.905-51.158 51.158s22.905 51.158 51.158 51.158z" />
<glyph unicode="&#xe932;" glyph-name="fold-all" d="M84.989 4.323h239.127c28.3 0 51.24-22.941 51.24-51.24s-22.941-51.24-51.24-51.24h-239.127c-28.3 0-51.24 22.941-51.24 51.24s22.941 51.24 51.24 51.24zM761.377 427.919v0 0c28.3 0 51.24-22.941 51.24-51.24v-444.093c0-28.3-22.941-51.24-51.24-51.24v0 0c-28.3 0-51.24 22.941-51.24 51.24v444.093c0 28.3 22.941 51.24 51.24 51.24zM795.647 449.741c20.011-20.011 20.011-52.456 0-72.465l-169.087-169.087c-20.011-20.011-52.456-20.011-72.465 0s-20.011 52.456 0 72.465l169.087 169.087c20.011 20.011 52.456 20.011 72.465 0zM795.647 449.741l169.087-169.087c20.011-20.011 20.011-52.456 0-72.465s-52.456-20.011-72.465 0l-169.087 169.087c-20.011 20.011-20.011 52.456 0 72.465s52.456 20.011 72.465 0zM84.989 232.063h239.127c28.3 0 51.24-22.941 51.24-51.24s-22.941-51.24-51.24-51.24h-239.127c-28.3 0-51.24 22.941-51.24 51.24s22.941 51.24 51.24 51.24zM84.989 459.801h239.127c28.3 0 51.24-22.941 51.24-51.24v0 0c0-28.3-22.941-51.24-51.24-51.24h-239.127c-28.3 0-51.24 22.941-51.24 51.24v0 0c0 28.3 22.941 51.24 51.24 51.24zM84.989 687.542h854.023c28.3 0 51.24-22.941 51.24-51.24s-22.941-51.24-51.24-51.24h-854.023c-28.3 0-51.24 22.941-51.24 51.24s22.941 51.24 51.24 51.24z" />
<glyph unicode="&#xe933;" glyph-name="excel" d="M679.709 731.428c9.699 0 19.001-3.853 25.86-10.712v0l161.434-161.434c6.858-6.858 10.712-16.161 10.712-25.86v0-643.137c0-20.198-16.374-36.571-36.571-36.571v0h-658.286c-20.198 0-36.571 16.374-36.571 36.571v0 804.571c0 20.198 16.374 36.571 36.571 36.571v0zM658.286 658.285h-438.857v-731.43h585.143v585.145h-146.286v146.286zM399.266 438.857l112.734-154.891 112.734 154.891h95.958l-161.72-212.053 172.456-226.804h-95.958l-123.471 169.642-123.471-169.642h-95.958l171.114 226.804-160.377 212.053h95.958z" />
<glyph unicode="&#xe934;" glyph-name="chevron-left" d="M731.017 667.725v0c30.24-30.24 30.24-79.269 0-109.508l-328.525-328.525c-30.24-30.24-79.269-30.24-109.508 0v0c-30.24 30.24-30.24 79.269 0 109.508l328.525 328.525c30.24 30.24 79.269 30.24 109.508 0zM731.017-98.837v0c-30.24-30.24-79.269-30.24-109.508 0l-328.525 328.525c-30.24 30.24-30.24 79.269 0 109.508v0c30.24 30.24 79.269 30.24 109.508 0l328.525-328.525c30.24-30.24 30.24-79.269 0-109.508z" />
<glyph unicode="&#xe935;" glyph-name="chevron-right" d="M297.158 660.419v0c-29.663-29.663-29.663-77.758 0-107.42l322.263-322.263c29.663-29.663 77.758-29.663 107.42 0v0c29.663 29.663 29.663 77.758 0 107.42l-322.263 322.263c-29.663 29.663-77.758 29.663-107.42 0zM297.158-91.531v0c29.663-29.663 77.758-29.663 107.42 0l322.263 322.263c29.663 29.663 29.663 77.758 0 107.42v0c-29.663 29.663-77.758 29.663-107.42 0l-322.263-322.263c-29.663-29.663-29.663-77.758 0-107.42z" />
<glyph unicode="&#xe936;" glyph-name="close" d="M839.758 612.202c18.102-18.102 18.102-47.451 0-65.55l-589.961-589.961c-18.102-18.102-47.451-18.102-65.55 0s-18.102 47.451 0 65.55l589.961 589.961c18.102 18.102 47.451 18.102 65.55 0zM184.242 612.202c18.102 18.102 47.451 18.102 65.55 0l589.961-589.961c18.102-18.102 18.102-47.451 0-65.55s-47.451-18.102-65.55 0l-589.961 589.961c-18.102 18.102-18.102 47.451 0 65.55z" />
<glyph unicode="&#xe937;" glyph-name="flag" d="M972.299 529.453c-4.113 5.924-19.765 24.383-53.055 12.147-4.122-1.564-8.366-3.077-12.366-4.692-87.053-32.643-144.434-54.107-339.568 118.922-52.409 46.597-110.788 82.184-173.358 105.862-50.032 18.932-102.981 30.313-157.034 33.66-92.481 5.827-156.888-13.518-159.567-14.398-2.332-0.739-4.645-1.776-6.713-2.914-14.657-2.28-25.862-15.102-25.617-30.479l14.491-945.178c0.215-16.805 14.002-30.15 30.807-29.935s30.15 14.002 29.935 30.807l-6.725 438.002c1.58 1.346 3.282 2.641 4.914 4.11 67.052 55.11 143.047 117.374 350.575 6.806 37.81-20.228 79.016-30.082 122.535-29.391 2.734-0.008 5.399 0.159 8.185 0.272 39.946 1.776 81.899 12.354 124.448 31.466 66.599 29.942 136.273 82.065 191.131 143.072 20.958 23.236 37.739 45.795 48.887 65.27 10.456 18.183 22.624 45.151 8.094 66.591l-0.001 0.001z" />
<glyph unicode="&#xe938;" glyph-name="check-sign" d="M473.222 208.398l-108.612 108.612c-19.995 19.995-52.413 19.995-72.407 0v0 0c-19.995-19.995-19.995-52.413 0-72.407v0l144.816-144.816c9.998-9.998 23.102-14.996 36.205-14.996s26.206 4.998 36.205 14.996l289.63 289.63c19.995 19.995 19.995 52.413 0 72.407v0c-19.995 19.995-52.413 19.995-72.407 0l-253.428-253.428zM204.801 796.445h614.401c113.108 0 204.8-91.692 204.8-204.8v-614.401c0-113.108-91.692-204.8-204.8-204.8h-614.401c-113.108 0-204.8 91.692-204.8 204.8v614.401c0 113.108 91.692 204.8 204.8 204.8v0z" />
<glyph unicode="&#xe939;" glyph-name="minus-sign" d="M284.445 625.779h455.111c62.838 0 113.778-50.94 113.778-113.778v-455.111c0-62.838-50.94-113.778-113.778-113.778h-455.111c-62.838 0-113.778 50.94-113.778 113.778v455.111c0 62.838 50.94 113.778 113.778 113.778v0zM398.222 341.331c-31.42 0-56.887-25.47-56.887-56.887s25.47-56.887 56.887-56.887h227.555c31.42 0 56.887 25.47 56.887 56.887s-25.47 56.887-56.887 56.887h-227.555z" />
<glyph unicode="&#xe93a;" glyph-name="bars-sign" d="M170.666 739.556h682.666c62.838 0 113.778-50.94 113.778-113.778v-682.666c0-62.838-50.94-113.778-113.778-113.778h-682.666c-62.838 0-113.778 50.94-113.778 113.778v682.666c0 62.838 50.94 113.778 113.778 113.778v0zM312.888 113.778c-15.709 0-28.444-12.735-28.444-28.444s12.735-28.444 28.444-28.444h398.222c15.709 0 28.444 12.735 28.444 28.444s-12.735 28.444-28.444 28.444h-398.222zM312.888 284.444c-15.709 0-28.444-12.735-28.444-28.444s12.735-28.444 28.444-28.444h398.222c15.709 0 28.444 12.735 28.444 28.444s-12.735 28.444-28.444 28.444h-398.222zM312.888 455.11c-15.709 0-28.444-12.735-28.444-28.444s12.735-28.444 28.444-28.444h398.222c15.709 0 28.444 12.735 28.444 28.444s-12.735 28.444-28.444 28.444h-398.222z" />
<glyph unicode="&#xe93b;" glyph-name="cog" d="M896.374 197.305c-82.993-4.108-149.018-72.698-149.018-156.71 0-23.869 5.329-46.493 14.865-66.746-37.349-30.97-80.533-55.145-127.661-70.631-28.754 35.921-72.969 58.925-122.56 58.925s-93.806-23.004-122.56-58.925c-47.077 15.469-90.224 39.612-127.546 70.534 9.562 20.278 14.908 42.935 14.908 66.843 0 84.068-66.113 152.692-149.181 156.716-5.169 25.406-7.883 51.705-7.883 78.64s2.716 53.237 7.886 78.646c82.993 4.108 149.018 72.698 149.018 156.71 0 23.869-5.329 46.493-14.865 66.746 37.349 30.97 80.533 55.145 127.661 70.631 28.754-35.921 72.969-58.925 122.56-58.925s93.806 23.004 122.56 58.925c47.128-15.486 90.312-39.661 127.661-70.631-9.533-20.253-14.865-42.879-14.865-66.746 0-84.012 66.025-152.602 149.018-156.71 5.17-25.409 7.886-51.712 7.886-78.646s-2.716-53.237-7.886-78.646zM512 107.928c92.847 0 168.113 75.266 168.113 168.113s-75.266 168.113-168.113 168.113c-92.847 0-168.113-75.266-168.113-168.113s75.266-168.113 168.113-168.113z" />
<glyph unicode="&#xe93c;" glyph-name="color" d="M512-227.536c-282.759 0-511.98 229.221-511.98 511.98s229.221 511.98 511.98 511.98c282.759 0 508.252-204.169 511.98-447.983 1.318-86.219-30.006-212.303-192.409-275.415-69.232-26.904-186.27-1.378-234.428-25.237-64.809-32.11-47.245-111.882-22.099-133.338 43.832-37.4 17.103-141.988-63.044-141.988zM749.952 342.969c0-53.017 42.979-95.996 95.996-95.996s95.996 42.979 95.996 95.996c0 53.017-42.979 95.996-95.996 95.996s-95.996-42.979-95.996-95.996zM246.317 300.233c23.242 47.652 3.452 105.122-44.198 128.363s-105.122 3.452-128.363-44.198c-23.242-47.652-3.452-105.122 44.198-128.363s105.122-3.452 128.363 44.198zM380.748 471.568c51.658 11.927 83.868 63.472 71.941 115.13s-63.472 83.868-115.13 71.941c-51.658-11.927-83.868-63.472-71.941-115.13s63.472-83.868 115.13-71.941zM611.036 497.827c41.203-33.365 101.651-27.011 135.015 14.19s27.011 101.651-14.19 135.015c-41.203 33.365-101.651 27.011-135.015-14.19s-27.011-101.651 14.19-135.015z" />
<glyph unicode="&#xe93d;" glyph-name="paper-clip" d="M453.734-121.983l429.193 429.193c82.479 82.479 82.479 216.090 0 298.57s-216.090 82.479-298.57 0l-466.514-466.514c-51.503-51.503-51.503-135.102 0-186.605s135.102-51.503 186.605 0l391.873 391.873c20.526 20.526 20.526 54.116 0 74.642s-54.116 20.526-74.642 0l-354.55-354.55-55.981 55.981 354.55 354.55c51.503 51.503 135.102 51.503 186.605 0s51.503-135.102 0-186.605l-391.873-391.873c-82.479-82.479-216.090-82.479-298.57 0s-82.479 216.090 0 298.57l466.514 466.514c113.456 113.456 297.076 113.456 410.533 0s113.456-297.076 0-410.533l-429.193-429.193-55.981 55.981z" />
<glyph unicode="&#xe93e;" glyph-name="arrow-right" d="M849.601 267.375c4.266 8.534 4.266 21.332 0 34.134-4.266 4.266-4.266 8.534-8.534 12.798l-298.667 298.667c-17.069 17.069-42.666 17.069-59.732 0s-17.069-42.666 0-59.732l226.133-226.133h-494.934c-25.602 0-42.666-17.069-42.666-42.666s17.069-42.666 42.666-42.666h494.934l-226.133-226.133c-17.069-17.069-17.069-42.666 0-59.732 8.534-8.534 21.332-12.798 29.867-12.798s21.332 4.266 29.867 12.798l298.667 298.667c4.266 4.266 8.534 8.534 8.534 12.798z" />
<glyph unicode="&#xe93f;" glyph-name="undo" d="M300.686 720.36c12.534-13.805 11.502-35.154-2.298-47.685l-121.189-110.039h436.075c187.398 0 337.58-160.388 337.58-354.461s-150.184-354.461-337.58-354.461h-371.339c-18.642 0-33.759 15.114-33.759 33.759s15.114 33.759 33.759 33.759h371.339c146.814 0 270.066 126.778 270.066 286.944s-123.25 286.944-270.066 286.944h-436.075l121.189-110.042c13.805-12.533 14.832-33.882 2.298-47.682-12.534-13.805-33.882-14.834-47.685-2.298l-157.188 142.725c-30.222 26.91-30.222 75.201 0.001 102.113l157.187 142.727c13.805 12.534 35.154 11.502 47.685-2.298z" />
<glyph unicode="&#xe940;" glyph-name="chat, message" d="M512 1.686l-224.594-174.669c-22.332-17.345-54.497-13.302-71.842 9.031-6.973 8.979-10.76 20.022-10.764 31.391v134.247h-102.4c-56.554 0-102.4 45.846-102.4 102.4 0 0 0 0 0 0v546.15c0 56.554 45.846 102.4 102.4 102.4h819.2c56.554 0 102.4-45.846 102.4-102.4v-546.15c0-56.554-45.846-102.4-102.4-102.4h-409.601zM273.050-97.626l197.010 153.209c12.003 9.309 26.751 14.404 41.94 14.404h409.6c18.822 0.027 34.074 15.279 34.101 34.101v546.15c0 18.841-15.26 34.123-34.101 34.149h-819.2c-18.86 0-34.149-15.289-34.149-34.149 0 0 0 0 0 0v-546.15c0-18.815 15.286-34.101 34.149-34.101h102.4c37.727 0 68.25-30.573 68.25-68.3v-99.314zM716.8 325.987v0c-28.277 0-51.2 22.923-51.2 51.2s22.923 51.2 51.2 51.2c0 0 0 0 0 0v0c28.277 0 51.2-22.923 51.2-51.2s-22.923-51.2-51.2-51.2v0zM512 325.987v0c-28.277 0-51.2 22.923-51.2 51.2s22.923 51.2 51.2 51.2c0 0 0 0 0 0v0c28.277 0 51.2-22.923 51.2-51.2s-22.923-51.2-51.2-51.2v0zM307.199 325.987v0c-28.277 0-51.2 22.923-51.2 51.2s22.923 51.2 51.2 51.2c0 0 0 0 0 0v0c28.277 0 51.2-22.923 51.2-51.2s-22.923-51.2-51.2-51.2v0z" />
<glyph unicode="&#xe941;" glyph-name="person" d="M512 694.857c-80.79 0-146.286-65.494-146.286-146.286s65.496-146.286 146.286-146.286c80.79 0 146.286 65.494 146.286 146.286s-65.496 146.286-146.286 146.286zM292.571 548.571c0 121.187 98.242 219.429 219.429 219.429s219.429-98.241 219.429-219.429c0-121.187-98.242-219.429-219.429-219.429s-219.429 98.242-219.429 219.429zM73.143 0v-73.143c0-60.595 49.121-109.714 109.714-109.714h658.286c60.595 0 109.714 49.119 109.714 109.714v73.143c0 141.385-114.615 256-256 256h-365.714c-141.385 0-256-114.615-256-256zM329.143 182.857h365.714c100.988 0 182.857-81.869 182.857-182.857v-73.143c0-20.198-16.373-36.571-36.571-36.571h-658.286c-20.198 0-36.571 16.373-36.571 36.571v73.143c0 100.988 81.868 182.857 182.857 182.857z" />
<glyph unicode="&#xe942;" glyph-name="folder-account" d="M85.333-56.895c0 15.709-12.736 28.444-28.446 28.444h28.446v-28.444zM85.333-28.449v682.671h288.302l80.842-113.778h484.189v-42.997h85.333v71.441c0 31.419-25.47 56.889-56.889 56.889h-468.584l-63.833 89.839c-10.67 15.018-27.952 23.939-46.374 23.939h-331.43c-31.419 0-56.889-25.47-56.889-56.889v-739.561c0-31.419 25.47-56.889 56.889-56.889l355.669 0.006-0.001 85.333-327.223-0.004zM85.333 654.222v28.444c0-15.709-12.736-28.444-28.444-28.444h28.444zM388.319 654.222c-9.211 0-17.852 4.46-23.188 11.969l8.504-11.969h14.683zM967.111 540.444c-15.709 0-28.444 12.736-28.444 28.444v-28.444h28.444zM938.667 568.888c0-15.709 12.736-28.444 28.444-28.444h-28.444v28.444zM938.667 497.447h85.333v71.441c0 31.419-25.47 56.889-56.889 56.889h-468.584l-63.833 89.839c-10.67 15.018-27.952 23.939-46.374 23.939h-331.43c-31.419 0-56.889-25.47-56.889-56.889v-739.561c0-31.419 25.47-56.889 56.889-56.889l355.669 0.006-0.001 85.333-327.223-0.004v682.671h288.302l80.842-113.778h484.189v-42.997zM388.319 654.222c-9.211 0-17.852 4.46-23.188 11.969l8.504-11.969h14.683zM56.889 654.222c15.709 0 28.444 12.736 28.444 28.444v-28.444h-28.444zM56.888-28.449c15.711 0 28.446-12.736 28.446-28.444v28.444h-28.446zM1023.318-75.202c0.448-2.122 0.682-4.322 0.682-6.577 0-17.673-14.456-32-32.288-32-0.022 0-0.043 0-0.066 0-0.011 0-0.023 0-0.034 0-196.601 0-345.434 0-446.5 0-0.098 0-0.196 0.001-0.291 0.004-0.177-0.003-0.354-0.004-0.532-0.004-17.832 0-32.288 14.327-32.288 32 0 1.13 0.059 2.246 0.174 3.344-0.016 0.392 0.010 0.823 0.078 1.298 13.262 91.708 75.569 167.727 159.737 201.118-35.96 28.129-59.042 71.712-59.042 120.64 0 84.831 69.388 153.6 154.981 153.6s154.981-68.769 154.981-153.6c0-48.927-23.082-92.511-59.042-120.64 83.576-33.156 145.597-108.341 159.45-199.183zM981.333 455.111c23.564 0 42.667 19.102 42.667 42.667s-19.102 42.667-42.667 42.667c-23.564 0-42.667-19.102-42.667-42.667s19.102-42.667 42.667-42.667zM412.444-113.778c23.564 0 42.667 19.102 42.667 42.667s-19.102 42.667-42.667 42.667c-23.564 0-42.667-19.102-42.667-42.667s19.102-42.667 42.667-42.667z" />
<glyph unicode="&#xe943;" glyph-name="stack" d="M1024 476.444l-512 256-512-256 512-256 512 256zM512 647.474l342.058-171.030-342.058-171.030-342.058 171.030 342.058 171.030zM921.444 335.722l102.556-51.278-512-256-512 256 102.556 51.278 409.444-204.722zM921.444 143.722l102.556-51.278-512-256-512 256 102.556 51.278 409.444-204.722z" />
<glyph unicode="&#xe944;" glyph-name="folder" d="M409.598 694.045h-307.201c-56.831 0-102.4-45.568-102.4-102.4v-614.398c0-56.32 46.080-102.4 102.4-102.4h819.199c56.32 0 102.4 46.080 102.4 102.4v511.999c0 56.831-46.080 102.4-102.4 102.4h-409.601l-102.4 102.4z" />
<glyph unicode="&#xe945;" glyph-name="folder-o" horiz-adv-x="951" d="M877.714 46.729v402.286c0 30.288-24.572 54.857-54.857 54.857h-402.286c-30.288 0-54.857 24.572-54.857 54.857v36.571c0 30.288-24.572 54.857-54.857 54.857h-182.858c-30.288 0-54.857-24.572-54.857-54.857v-548.573c0-30.288 24.572-54.857 54.857-54.857h694.859c30.288 0 54.857 24.572 54.857 54.857zM950.859 449.016v-402.286c0-70.286-57.714-128.002-128.002-128.002h-694.859c-70.286 0-128.002 57.714-128.002 128.002v548.573c0 70.286 57.714 128.002 128.002 128.002h182.858c70.286 0 128.002-57.714 128.002-128.002v-18.286h383.999c70.286 0 128.002-57.714 128.002-128.002z" />
<glyph unicode="&#xe946;" glyph-name="folder-open-o" horiz-adv-x="1091" d="M1017.716 227.873c0 16.001-17.715 20.001-30.288 20.001h-621.719c-30.288 0-70.286-18.858-89.716-42.286l-168-207.429c-5.142-6.856-10.287-14.286-10.287-22.858 0-16.001 17.715-20.001 30.288-20.001h621.719c30.288 0 70.286 18.858 89.716 42.858l168 207.429c5.142 6.287 10.287 13.713 10.287 22.285zM365.71 321.016h438.862v91.429c0 30.288-24.572 54.856-54.856 54.856h-329.145c-30.288 0-54.856 24.572-54.856 54.856v36.57c0 30.288-24.572 54.856-54.856 54.856h-182.859c-30.288 0-54.856-24.572-54.856-54.856v-487.432l146.288 180.002c33.145 40.57 94.286 69.715 146.288 69.715zM1090.859 227.873c0-25.142-10.856-49.142-26.285-68.573l-168.573-207.429c-32.571-40.001-94.859-69.715-146.288-69.715h-621.719c-70.286 0-128.001 57.713-128.001 128.001v548.576c0 70.286 57.713 128.001 128.001 128.001h182.859c70.286 0 128.001-57.713 128.001-128.001v-18.286h310.859c70.286 0 128.001-57.713 128.001-128.001v-91.429h109.714c38.858 0 77.715-17.715 94.859-54.288 5.714-12.001 8.571-25.142 8.571-38.858z" />
<glyph unicode="&#xe947;" glyph-name="folder-open" d="M820.743-101.788h-724.187c-53.589 0-96.558 43.451-96.558 96.558v579.346c0 53.589 42.969 96.558 96.558 96.558h289.676l96.558-96.558h337.953c53.107 0 96.558-43.451 96.558-96.558v0h-820.743v-482.789l103.318 386.232h824.123l-110.074-410.373c-11.103-42.004-48.762-72.42-93.18-72.42z" />
<glyph unicode="&#xe948;" glyph-name="bars" d="M113.776 682.668h796.444v-113.778h-796.444v113.778zM113.776 341.333h796.444v-113.778h-796.444v113.778zM113.776-0.002h796.444v-113.778h-796.444v113.778z" />
<glyph unicode="&#xe949;" glyph-name="cards-view" d="M170.667 682.666h284.444v-341.333h-341.333v284.444c0 31.419 25.47 56.889 56.889 56.889zM113.778 227.555h341.333v-341.333h-284.444c-31.419 0-56.889 25.47-56.889 56.889v284.444zM568.889 682.666h284.444c31.419 0 56.889-25.47 56.889-56.889v-284.444h-341.333v341.333zM568.889 227.555h341.333v-284.444c0-31.419-25.47-56.889-56.889-56.889h-284.444v341.333z" />
<glyph unicode="&#xe94a;" glyph-name="star-empty" d="M470.699 732.995l0.544-0.792c-0.184 0.262-0.365 0.526-0.544 0.792zM77.153 423.114l0.508-0.728c-0.167 0.244-0.336 0.487-0.508 0.728zM200.729-145.098l0.941 0.325c-0.315-0.105-0.629-0.213-0.941-0.325zM824.385-145.389c-0.338 0.12-0.676 0.237-1.014 0.35l1.014-0.35zM757.134-190.319l-0.003 0.953c-0.003-0.318-0.002-0.636 0.003-0.953zM644.954 479.437l-132.36 192.597-148.368-215.689-251.154-84.722 155.067-222.304-0.080-26.96-0.725-244.475 244.818 84.478 244.785-84.475-0.794 271.434 155.064 222.292-250.146 84.389zM841.552 122.612l0.915-312.681c0.18-12.182-5.080-22.937-13.389-29.807-11.038-7.887-22.398-9.799-33.372-5.883l-283.557 97.851-283.585-97.855c-10.969-3.918-22.318-2.005-31.082 4.146-10.595 8.595-15.848 19.364-15.681 31.547l0.923 312.681-175.56 251.683c-6.94 9.732-8.716 21.66-5.859 32.304 4.526 13.219 12.658 21.795 23.75 25.386l284.967 96.134 173.667 252.467c6.679 9.949 16.966 15.422 27.534 15.858 13.34-0.428 23.602-5.89 30.286-15.831l173.77-252.844 283.926-95.786c11.092-3.585 19.228-12.167 22.879-22.577 3.737-13.442 1.965-25.367-4.973-35.116l-175.56-251.68z" />
<glyph unicode="&#xe94b;" glyph-name="star" d="M841.552 122.612l0.915-312.681c0.18-12.182-5.080-22.937-13.389-29.807-11.038-7.887-22.398-9.799-33.372-5.883l-283.557 97.851-283.585-97.855c-10.969-3.918-22.318-2.005-31.082 4.146-10.595 8.595-15.848 19.364-15.681 31.547l0.923 312.681-175.56 251.683c-6.94 9.732-8.716 21.66-5.859 32.304 4.526 13.219 12.658 21.795 23.75 25.386l284.967 96.134 173.667 252.467c6.679 9.949 16.966 15.422 27.534 15.858 13.34-0.428 23.602-5.89 30.286-15.831l173.77-252.844 283.926-95.786c11.092-3.585 19.228-12.167 22.879-22.577 3.737-13.442 1.965-25.367-4.973-35.116l-175.56-251.68z" />
<glyph unicode="&#xe94c;" glyph-name="move" d="M497.218 761.257l-91.67-114.677c-5.712-7.15-3.727-17.005 4.436-22.010 3.035-1.86 6.649-2.857 10.35-2.857h55.095v-292.571h-292.571v55.095c0 9.969-7.076 18.048-15.804 18.048-3.242 0-6.407-1.137-9.063-3.262l-114.677-91.666c-7.15-5.716-8.889-16.969-3.884-25.136 1.058-1.726 2.373-3.226 3.884-4.432l114.677-91.67c7.15-5.712 17.005-3.727 22.010 4.436 1.86 3.035 2.857 6.649 2.857 10.35v55.095h292.571v-292.571h-55.095c-9.969 0-18.048-7.077-18.048-15.803 0-3.244 1.137-6.407 3.262-9.066l91.666-114.673c5.716-7.153 16.969-8.891 25.136-3.884 1.726 1.057 3.226 2.37 4.432 3.884l91.67 114.673c5.712 7.153 3.727 17.006-4.436 22.012-3.035 1.858-6.649 2.856-10.35 2.856h-55.095v292.571h292.571v-55.095c0-9.969 7.077-18.048 15.803-18.048 3.244 0 6.407 1.137 9.066 3.262l114.673 91.666c7.153 5.716 8.891 16.969 3.884 25.136-1.057 1.726-2.37 3.226-3.884 4.432l-114.673 91.67c-7.153 5.712-17.006 3.727-22.012-4.436-1.858-3.035-2.856-6.649-2.856-10.35v-55.095h-292.571v292.571h55.095c9.969 0 18.048 7.076 18.048 15.804 0 3.242-1.137 6.407-3.262 9.063l-91.666 114.677c-5.716 7.15-16.969 8.889-25.136 3.884-1.726-1.058-3.226-2.373-4.432-3.884z" />
<glyph unicode="&#xe94d;" glyph-name="text-link" d="M454.248 192.989v0c-11.1-0.009-21.747 4.398-29.593 12.247-76.566 76.55-76.566 201.084 0 277.634l154.513 154.48c37.090 37.082 86.395 57.506 138.838 57.506s101.765-20.424 138.856-57.488c76.566-76.55 76.566-201.084 0-277.634l-70.629-70.614c-16.098-16.577-42.588-16.968-59.169-0.874s-16.972 42.579-0.874 59.156c0.287 0.296 0.579 0.587 0.874 0.874l70.629 70.614c43.928 44.013 43.928 115.273 0 159.286v0c-21.082 21.196-49.771 33.077-79.669 32.994v0c-29.899 0.087-58.589-11.795-79.669-32.994l-154.513-154.48c-43.928-44.013-43.928-115.273 0-159.286v0c16.344-16.334 16.349-42.822 0.011-59.163-7.85-7.852-18.501-12.259-29.605-12.259h-0.001zM305.977-109.714v0c-52.101-0.141-102.094 20.56-138.838 57.489-76.566 76.55-76.566 201.084 0 277.634l70.629 70.614c16.098 16.577 42.588 16.968 59.169 0.874s16.972-42.579 0.874-59.156c-0.287-0.296-0.579-0.587-0.874-0.874l-70.629-70.614c-43.928-44.013-43.928-115.273 0-159.286 21.271-21.285 49.573-32.994 79.669-32.994s58.398 11.709 79.669 32.994l154.513 154.48c43.928 44.013 43.928 115.273 0 159.286v0c-16.58 16.094-16.972 42.579-0.874 59.156s42.588 16.968 59.169 0.874c0.296-0.287 0.587-0.579 0.874-0.874 76.566-76.55 76.566-201.084 0-277.634l-154.513-154.48c-36.736-36.942-86.734-57.644-138.838-57.489h0.001z" />
<glyph unicode="&#xe94e;" glyph-name="eye" d="M658.286 292.571c0-80.79-65.496-146.286-146.286-146.286s-146.286 65.496-146.286 146.286c0 80.79 65.496 146.286 146.286 146.286s146.286-65.496 146.286-146.286zM0 292.571c0 0 128-329.143 512-329.143s512 329.143 512 329.143c0 0-128 329.143-512 329.143s-512-329.143-512-329.143zM68.109 265.903c-0.042-0.102-0.063-0.157-0.063-0.157l0.041 0.102 0.022 0.055zM81.023 292.571c2.374 4.432 5.089 9.315 8.156 14.574 15.705 26.924 40.267 63.016 75.264 99.010 69.126 71.103 179.115 142.416 347.557 142.416s278.429-71.314 347.557-142.416c34.999-35.994 59.56-72.086 75.264-99.010 3.068-5.259 5.782-10.141 8.155-14.574-2.373-4.432-5.087-9.315-8.155-14.574-15.704-26.924-40.265-63.016-75.264-99.010-69.127-71.102-179.116-142.416-347.557-142.416s-278.431 71.314-347.557 142.416c-34.997 35.994-59.559 72.086-75.264 99.010-3.068 5.259-5.782 10.141-8.156 14.574zM955.889 319.239c0.033 0.084 0.055 0.132 0.062 0.15l-0.037-0.095-0.026-0.055zM955.889 265.903l0.026-0.055 0.037-0.095c-0.007 0.018-0.029 0.066-0.062 0.15zM68.109 319.239l-0.060 0.15c-0.010 0.026 0.010-0.026 0.060-0.15z" />
<glyph unicode="&#xe94f;" glyph-name="unlock" d="M365.714 606.040v-20.898c0-20.198-16.374-36.571-36.571-36.571s-36.571 16.374-36.571 36.571v20.898c0 89.447 72.512 161.959 161.96 161.959h114.937c89.45 0 161.96-72.512 161.96-161.959v-167.184h120.163c54.824 0 99.266-44.442 99.266-99.266v-423.183c0-54.824-44.442-99.266-99.266-99.266h-679.183c-54.822 0-99.265 44.442-99.265 99.266v423.183c0 54.824 44.443 99.266 99.265 99.266h485.877v167.184c0 49.052-39.764 88.816-88.817 88.816h-114.937c-49.053 0-88.817-39.764-88.817-88.816zM694.857 365.714h-522.449c-14.427 0-26.123-11.696-26.123-26.123v-423.183c0-14.427 11.696-26.123 26.122-26.123h679.183c14.427 0 26.123 11.696 26.123 26.123v423.183c0 14.427-11.696 26.123-26.123 26.123h-156.734zM512 256c-20.198 0-36.571-16.373-36.571-36.571v-182.857c0-20.198 16.373-36.571 36.571-36.571s36.571 16.373 36.571 36.571v182.857c0 20.198-16.373 36.571-36.571 36.571z" />
<glyph unicode="&#xe950;" glyph-name="lock, private" d="M512 256c20.198 0 36.571-16.373 36.571-36.571v-182.857c0-20.198-16.373-36.571-36.571-36.571s-36.571 16.373-36.571 36.571v182.857c0 20.198 16.373 36.571 36.571 36.571zM292.571 438.857v182.857c0 80.791 65.494 146.286 146.286 146.286h146.286c80.79 0 146.286-65.494 146.286-146.286v-182.857h109.714c60.595 0 109.714-49.119 109.714-109.714v-402.286c0-60.595-49.119-109.714-109.714-109.714h-658.286c-60.594 0-109.714 49.119-109.714 109.714v402.286c0 60.595 49.121 109.714 109.714 109.714h109.714zM365.714 621.714v-182.857h292.571v182.857c0 40.396-32.746 73.143-73.143 73.143h-146.286c-40.397 0-73.143-32.747-73.143-73.143zM182.857 365.714c-20.198 0-36.571-16.373-36.571-36.571v-402.286c0-20.198 16.374-36.571 36.571-36.571h658.286c20.198 0 36.571 16.373 36.571 36.571v402.286c0 20.198-16.373 36.571-36.571 36.571h-658.286z" />
<glyph unicode="&#xe951;" glyph-name="cancel, ban-circle" d="M512 694.857c-222.176 0-402.286-180.11-402.286-402.286s180.11-402.286 402.286-402.286c222.175 0 402.286 180.111 402.286 402.286s-180.111 402.286-402.286 402.286zM36.571 292.571c0 262.572 212.857 475.429 475.429 475.429s475.429-212.857 475.429-475.429c0-262.572-212.857-475.429-475.429-475.429s-475.429 212.857-475.429 475.429zM858.887 566.318l-620.637-620.638-51.72 51.719 620.638 620.639 51.719-51.72z" />
<glyph unicode="&#xe952;" glyph-name="arrow-left" d="M810.667 327.111h-494.933l226.133 226.133c17.067 17.067 17.067 42.667 0 59.733s-42.667 17.067-59.733 0l-298.667-298.667c-4.267-4.267-8.533-8.533-8.533-12.8-4.267-8.533-4.267-21.333 0-34.133 4.267-4.267 4.267-8.533 8.533-12.8l298.667-298.667c8.533-8.533 21.333-12.8 29.867-12.8s21.333 4.267 29.867 12.8c17.067 17.067 17.067 42.667 0 59.733l-226.133 226.133h494.933c25.6 0 42.667 17.067 42.667 42.667s-17.067 42.667-42.667 42.667z" />
<glyph unicode="&#xe953;" glyph-name="format-bold" d="M576.001 28.443h-199.112v170.667h199.112c47.216 0 85.334-38.115 85.334-85.334s-38.115-85.334-85.334-85.334zM376.891 540.442h170.667c47.216 0 85.334-38.115 85.334-85.334s-38.115-85.334-85.334-85.334h-170.667zM695.467 296.391c55.181 38.685 93.866 101.829 93.866 158.721 0 128.569-99.557 227.556-227.556 227.556h-355.556v-796.444h400.498c119.468 0 211.057 96.71 211.057 215.608 0 86.471-48.923 160.427-122.311 194.561z" />
<glyph unicode="&#xe954;" glyph-name="format-header-pound" d="M40.636 614.399h94.272v-282.817h188.545v282.817h94.272v-659.907h-94.272v282.817h-188.545v-282.817h-94.272v659.907zM512 425.852h108.882l15.085 141.408h94.272l-15.085-141.408h94.272l15.085 141.408h94.272l-15.085-141.408h79.663v-94.272h-89.558l-9.426-94.272h98.987v-94.272h-108.882l-15.085-141.408h-94.272l15.085 141.408h-94.272l-15.085-141.408h-94.272l15.085 141.408h-79.663v94.272h89.558l9.426 94.272h-98.987v94.272zM705.26 331.581l-9.426-94.272h94.272l9.426 94.272h-94.272z" />
<glyph unicode="&#xe955;" glyph-name="format-italic" d="M398.223 682.666v-170.667h125.726l-194.561-455.11h-158.721v-170.667h455.11v170.667h-125.726l194.561 455.11h158.721v170.667h-455.11z" />
<glyph unicode="&#xe956;" glyph-name="test" d="M455.111 540.444c0-15.617-12.585-28.294-28.166-28.443-0.115-0.003-0.443-0.016-0.942-0.049-0.998-0.067-2.731-0.217-5.092-0.555-4.728-0.675-11.934-2.091-20.806-5.048-17.644-5.881-42.134-17.936-67.104-42.906s-37.025-49.46-42.906-67.104c-2.957-8.872-4.373-16.078-5.048-20.806-0.337-2.361-0.488-4.093-0.555-5.092-0.034-0.498-0.046-0.812-0.049-0.928-0.149-15.581-12.827-28.18-28.443-28.18-15.709 0-28.444 12.735-28.444 28.444h28.444c-28.444 0-28.444-0.014-28.444 0v0.122l0.001 0.144 0.004 0.35 0.023 0.954c0.024 0.745 0.068 1.71 0.146 2.877 0.156 2.335 0.449 5.492 1.001 9.353 1.103 7.716 3.242 18.288 7.396 30.75 8.341 25.023 24.73 57.421 56.649 89.341s64.317 48.308 89.341 56.649c12.462 4.154 23.033 6.294 30.75 7.396 3.861 0.551 7.018 0.845 9.353 1.001 1.168 0.078 2.132 0.121 2.877 0.146l0.954 0.023 0.35 0.004 0.144 0.001h0.064c0.014 0 0.058 0 0.058-28.444v-28.444c-0.014 0 0 0 0 28.444v28.444c15.709 0 28.444-12.735 28.444-28.444zM85.333 341.395c0 204.193 165.56 369.715 369.778 369.715 204.22 0 369.778-165.522 369.778-369.715 0-91.885-33.525-175.94-89.008-240.606l166.013-166.007c11.105-11.11 11.105-29.121 0-40.232-11.11-11.105-29.121-11.105-40.232 0l-166.019 166.025c-64.666-55.415-148.689-88.895-240.532-88.895-204.217 0-369.778 165.524-369.778 369.715zM455.111 654.222c-172.809 0-312.889-140.062-312.889-312.826 0-172.766 140.080-312.826 312.889-312.826 172.811 0 312.889 140.060 312.889 312.826 0 172.764-140.078 312.826-312.889 312.826z" />
<glyph unicode="&#xe957;" glyph-name="ppt" d="M679.709 731.428c9.699 0 19.001-3.853 25.86-10.712v0l161.434-161.434c6.858-6.858 10.712-16.161 10.712-25.86v0-643.137c0-20.198-16.374-36.571-36.571-36.571v0h-658.286c-20.198 0-36.571 16.374-36.571 36.571v0 804.571c0 20.198 16.374 36.571 36.571 36.571v0zM658.286 658.285h-438.857v-731.43h585.143v585.145h-146.286v146.286zM557.643 438.857c90.068 0 137.214-54.212 137.214-138.647s-53.068-117.343-138.194-117.387l-117.806 0.033v-182.857h-73.143v438.857h191.929zM553.835 365.692l-114.978 0.021v-109.705l114.978-0.009c24.369 0 42.080 4.524 52.482 12.492 10.051 8.131 15.397 21.717 15.397 42.365 0 20.16-5.537 34.379-15.923 42.343-8.671 7.015-22.552 11.182-41.853 12.23l-10.103 0.263z" />
<glyph unicode="&#xe958;" glyph-name="word" d="M679.709 731.428c9.699 0 19.001-3.853 25.86-10.712v0l161.434-161.434c6.858-6.858 10.712-16.161 10.712-25.86v0-643.137c0-20.198-16.374-36.571-36.571-36.571v0h-658.286c-20.198 0-36.571 16.374-36.571 36.571v0 804.571c0 20.198 16.374 36.571 36.571 36.571v0zM658.286 658.285h-438.857v-731.43h585.143v585.145h-146.286v146.286zM365.714 402.285l54.857-237.714 54.857 237.714h73.143l54.857-237.714 54.857 237.714h73.143l-91.429-365.714h-73.143l-54.892 237.714-54.822-237.714h-73.143l-91.429 365.714h73.143z" />
<glyph unicode="&#xe959;" glyph-name="chevron-double-up" d="M200.448-170.668l-95.705 95.705 407.257 407.257 407.257-407.257-95.705-95.705-311.553 310.873-311.553-310.873zM200.448 236.592l-95.705 95.705 407.257 407.257 407.257-407.257-95.705-95.705-311.553 310.873-311.553-310.873z" />
<glyph unicode="&#xe95a;" glyph-name="chevron-double-down" d="M823.553 739.555l95.705-95.705-407.258-407.258-407.258 407.258 95.705 95.705 311.553-310.872 311.553 310.872zM823.553 332.296l95.705-95.705-407.258-407.258-407.258 407.258 95.705 95.705 311.553-310.872 311.553 310.872z" />
<glyph unicode="&#xe95b;" glyph-name="chart-pie" d="M967.112 335.012h-404.543v404.543c223.511 0 404.543-181.033 404.543-404.543zM865.976 233.876c0-140.579-71.807-264.471-180.527-337.288l-194.687 337.288h375.214zM461.432-170.668c-140.579 0-264.471 71.807-337.288 180.527l328.185 189.629 189.124-328.185c-53.603-26.801-115.295-41.971-180.022-41.971zM56.888 233.876c0 223.511 181.033 404.543 404.543 404.543v-375.214l-362.571-209.352c-26.801 53.603-41.971 115.295-41.971 180.022z" />
<glyph unicode="&#xe95c;" glyph-name="chart-line" d="M691.516 294.318l190.287 328.964 77.64-44.879-234.719-406.155-292.162 168.296-214.072-370.252h742.299v-89.758h-897.58v807.822h89.758v-652.54l246.835 428.146 291.714-169.642z" />
<glyph unicode="&#xe95d;" glyph-name="chart-bar, bar-chart" d="M960.791-119.47h-897.58v807.822h89.758v-718.065h89.758v403.914h179.516v-403.914h89.758v583.43h179.516v-583.43h89.758v224.397h179.516v-314.155z" />
<glyph unicode="&#xe95e;" glyph-name="restart" d="M512.189 620.405c108.694 0 216.87-40.831 299.583-123.543 165.967-165.967 165.429-433.198-0.531-599.696-97.029-98.624-230.121-137.86-356.846-120.897l28.105 103.923c90.674-8.487 185.049 22.273 254.511 91.733 124.076 124.076 124.076 325.561 0 449.636-62.568 62.568-143.695 92.792-224.82 92.792v-242.847l-262.997 262.467 262.997 262.467v-176.036zM212.075-103.362c-139.978 140.516-161.192 352.61-65.223 514.861l78.471-77.948c-57.796-118.243-36.055-264.053 61.508-361.622 27.57-27.57 59.391-49.311 92.792-64.684l-26.508-103.4c-53.020 21.213-99.683 51.435-141.039 92.792z" />
<glyph unicode="&#xe95f;" glyph-name="history" d="M609.52 479.488h-73.139v-243.808l208.697-123.852 35.108 59.005-170.663 101.421v207.237zM585.141 723.299c-242.342 0-438.855-196.507-438.855-438.855h-146.285l193.096-196.507 196.999 196.507h-146.285c0 188.708 152.627 341.332 341.332 341.332s341.332-152.627 341.332-341.332c0-188.708-152.627-341.332-341.332-341.332-94.107 0-179.44 38.519-240.877 100.447l-69.239-69.239c79.48-79.969 188.22-128.728 310.12-128.728 242.342 0 438.855 196.507 438.855 438.855s-196.507 438.855-438.855 438.855z" />
<glyph unicode="&#xe960;" glyph-name="folder-move" d="M614.398-22.758v153.598h-204.8v204.8h204.8v153.598l255.999-255.999zM921.6 591.646h-409.6l-102.4 102.4h-307.202c-56.831 0-102.4-45.569-102.4-102.4v-614.398c0-56.32 46.080-102.4 102.4-102.4h819.2c56.32 0 102.4 46.080 102.4 102.4v511.999c0 56.831-46.080 102.4-102.4 102.4z" />
<glyph unicode="&#xe961;" glyph-name="folder-plus" d="M409.601 694.045l102.4-102.4h409.601c56.32 0 102.4-46.080 102.4-102.4v-511.999c0-56.32-46.080-102.4-102.4-102.4h-819.199c-56.831 0-102.4 46.080-102.4 102.4v614.398c0 56.831 45.568 102.4 102.4 102.4h307.201zM665.6 438.042v-153.598h-153.598v-102.4h153.598v-153.598h102.4v153.598h153.598v102.4h-153.598v153.598h-102.4z" />
<glyph unicode="&#xe962;" glyph-name="folder-upload" d="M85.333-56.895c0 15.709-12.736 28.444-28.446 28.444h28.446v-28.444zM85.333-28.449v682.671h288.302l80.842-113.778h484.189v-42.997h85.333v71.441c0 31.419-25.47 56.889-56.889 56.889h-468.584l-63.833 89.839c-10.67 15.018-27.952 23.939-46.374 23.939h-331.43c-31.419 0-56.889-25.47-56.889-56.889v-739.561c0-31.419 25.47-56.889 56.889-56.889l355.669 0.006-0.001 85.333-327.223-0.004zM85.333 654.222v28.444c0-15.709-12.736-28.444-28.444-28.444h28.444zM388.319 654.222c-9.211 0-17.852 4.46-23.188 11.969l8.504-11.969h14.683zM967.111 540.444c-15.709 0-28.444 12.736-28.444 28.444v-28.444h28.444zM938.667 568.888c0-15.709 12.736-28.444 28.444-28.444h-28.444v28.444zM938.667 497.447h85.333v71.441c0 31.419-25.47 56.889-56.889 56.889h-468.584l-63.833 89.839c-10.67 15.018-27.952 23.939-46.374 23.939h-331.43c-31.419 0-56.889-25.47-56.889-56.889v-739.561c0-31.419 25.47-56.889 56.889-56.889l355.669 0.006-0.001 85.333-327.223-0.004v682.671h288.302l80.842-113.778h484.189v-42.997zM388.319 654.222c-9.211 0-17.852 4.46-23.188 11.969l8.504-11.969h14.683zM56.889 654.222c15.709 0 28.444 12.736 28.444 28.444v-28.444h-28.444zM56.888-28.449c15.711 0 28.446-12.736 28.446-28.444v28.444h-28.446zM870.4 121.521v-206.854c0-15.709-12.736-28.444-28.444-28.444h-147.911c-15.709 0-28.444 12.736-28.444 28.444v206.854h-130.508c-12.753 0-23.092 10.339-23.092 23.092 0 6.124 2.433 11.998 6.763 16.329l228.826 228.826c11.273 11.273 29.55 11.273 40.822 0l228.826-228.826c9.018-9.018 9.018-23.64 0-32.658-4.331-4.331-10.204-6.763-16.329-6.763h-130.508zM981.333 455.111c23.564 0 42.667 19.102 42.667 42.667s-19.102 42.667-42.667 42.667c-23.564 0-42.667-19.102-42.667-42.667s19.102-42.667 42.667-42.667zM412.444-113.778c23.564 0 42.667 19.102 42.667 42.667s-19.102 42.667-42.667 42.667c-23.564 0-42.667-19.102-42.667-42.667s19.102-42.667 42.667-42.667z" />
<glyph unicode="&#xe963;" glyph-name="folder-star" d="M85.335-56.894c0 15.709-12.736 28.444-28.445 28.444h28.445v-28.444zM85.335-28.448v682.669h288.301l80.842-113.777h484.187v-42.997h85.333v71.441c0 31.419-25.47 56.889-56.889 56.889h-468.583l-63.833 89.839c-10.67 15.018-27.952 23.939-46.374 23.939h-331.429c-31.419 0-56.889-25.47-56.889-56.889v-739.559c0-31.419 25.47-56.889 56.889-56.889l355.668 0.006-0.001 85.333-327.222-0.004zM85.335 654.221v28.444c0-15.709-12.736-28.444-28.444-28.444h28.444zM388.319 654.221c-9.211 0-17.852 4.46-23.188 11.969l8.504-11.969h14.683zM967.11 540.443c-15.709 0-28.444 12.736-28.444 28.444v-28.444h28.444zM938.665 568.888c0-15.709 12.736-28.444 28.444-28.444h-28.444v28.444zM938.665 497.447h85.333v71.441c0 31.419-25.47 56.889-56.889 56.889h-468.583l-63.833 89.839c-10.67 15.018-27.952 23.939-46.374 23.939h-331.429c-31.419 0-56.889-25.47-56.889-56.889v-739.559c0-31.419 25.47-56.889 56.889-56.889l355.668 0.006-0.001 85.333-327.222-0.004v682.669h288.301l80.842-113.777h484.187v-42.997zM388.319 654.221c-9.211 0-17.852 4.46-23.188 11.969l8.504-11.969h14.683zM56.89 654.221c15.709 0 28.444 12.736 28.444 28.444v-28.444h-28.444zM56.889-28.448c15.711 0 28.445-12.736 28.445-28.444v28.444h-28.445zM981.332 455.11c23.564 0 42.667 19.102 42.667 42.667s-19.102 42.667-42.667 42.667c-23.564 0-42.667-19.102-42.667-42.667s19.102-42.667 42.667-42.667zM412.445-113.777c23.564 0 42.667 19.102 42.667 42.667s-19.102 42.667-42.667 42.667c-23.564 0-42.667-19.102-42.667-42.667s19.102-42.667 42.667-42.667zM932.775 61.388l0.458-156.303c0.090-6.090-2.54-11.466-6.694-14.9-5.519-3.942-11.199-4.899-16.686-2.941l-141.777 48.913-141.792-48.915c-5.484-1.959-11.159-1.002-15.541 2.072-5.298 4.297-7.924 9.68-7.84 15.77l0.461 156.303-87.78 125.811c-3.47 4.864-4.358 10.828-2.929 16.148 2.263 6.608 6.329 10.896 11.876 12.69l142.483 48.055 86.833 126.203c3.34 4.973 8.483 7.709 13.767 7.928 6.67-0.214 11.801-2.944 15.143-7.913l86.884-126.391 141.963-47.881c5.547-1.792 9.613-6.082 11.44-11.286 1.869-6.72 0.982-12.681-2.487-17.553l-87.78-125.81z" />
<glyph unicode="&#xe964;" glyph-name="folder-edit" d="M93.666 682.523c-51.985 0-93.664-41.682-93.664-93.664v-561.993c0-51.516 42.149-93.664 93.664-93.664h374.662v88.513l468.328 468.328v5.151c0 51.985-42.149 93.664-93.664 93.664h-374.662l-93.664 93.664h-280.997zM938.53 348.603c-6.556 0-13.114-2.809-18.265-7.96l-46.835-46.835 96.009-96.009 46.835 46.835c10.305 9.834 10.305 26.226 0 36.060l-59.947 59.947c-5.151 5.151-11.241 7.96-17.794 7.96zM846.267 266.648l-284.275-283.808v-96.474h96.474l283.808 284.275-96.009 96.009z" />
<glyph unicode="&#xe965;" glyph-name="folder-download" d="M921.6 591.645c56.32 0 102.4-46.080 102.4-102.4v-511.999c0-56.32-46.080-102.4-102.4-102.4h-819.2c-56.831 0-102.4 46.080-102.4 102.4v614.398c0 56.831 45.568 102.4 102.4 102.4h307.201l102.4-102.4h409.6zM883.199 233.245h-166.399v204.801h-102.4v-204.801h-166.399l217.6-217.6z" />
<glyph unicode="&#xe966;" glyph-name="folder-outline" d="M921.6-22.757h-819.199v511.999h819.199zM921.6 591.645h-409.6l-102.4 102.4h-307.201c-56.831 0-102.4-45.568-102.4-102.4v-614.398c0-56.32 46.080-102.4 102.4-102.4h819.199c56.32 0 102.4 46.080 102.4 102.4v511.999c0 56.831-46.080 102.4-102.4 102.4z" />
<glyph unicode="&#xe967;" glyph-name="cube" d="M931.536 593.202l-417.264 146.354h-1.915l-419.897-146.354c-7.6-5.606-12.055-14.511-11.976-23.954v-546.373c0.090-3.113 1.951-5.905 4.792-7.186l423.493-185.639 3.592-0.718 426.366 186.358c2.88 1.234 4.76 4.055 4.792 7.186v546.613c-0.074 9.339-4.504 18.108-11.976 23.714zM877.64 511.284v-448.884l-332.472-145.636v448.884l332.472 145.636zM823.746 560.865l-311.39-136.056-311.39 136.056 311.39 106.831 311.39-106.831zM479.301 365.647v-448.884l-332.472 145.636v448.884l332.472-145.636z" />
<glyph unicode="&#xe968;" glyph-name="help" d="M460.799-22.755h102.4v102.4h-102.4v-102.4zM512 796.444c-282.624 0-512-229.376-512-512s229.376-512 512-512c282.624 0 512 229.376 512 512s-229.376 512-512 512zM512-125.154c-225.791 0-409.598 183.807-409.598 409.598s183.807 409.598 409.598 409.598c225.791 0 409.598-183.807 409.598-409.598s-183.807-409.598-409.598-409.598zM512 591.643c-113.152 0-204.799-91.647-204.799-204.799h102.4c0 56.32 46.080 102.4 102.4 102.4s102.4-46.080 102.4-102.4c0-102.4-153.6-89.599-153.6-255.999h102.4c0 115.2 153.6 128 153.6 255.999 0 113.152-91.647 204.799-204.799 204.799z" />
<glyph unicode="&#xe969;" glyph-name="format-list-numbers" d="M301.475 237.658h654.969v93.567h-654.969zM301.475-43.045h654.969v93.567h-654.969zM301.475 518.357h654.969v93.567h-654.969zM67.557 331.222h84.21l-84.21-98.244v-42.105h140.349v46.783h-84.21l84.21 98.244v42.105h-140.349zM114.34 471.575h46.783v187.136h-93.567v-46.783h46.783zM67.557 50.523h93.567v-23.39h-46.783v-46.783h46.783v-23.39h-93.567v-46.783h140.349v187.136h-140.349v-46.783z" />
<glyph unicode="&#xe96a;" glyph-name="format-quote-close" d="M388.467-24.382h-185.294l-123.527 247.060v370.592h370.592v-370.592h-185.294zM882.587-24.382h-185.294l-123.527 247.060v370.592h370.592v-370.592h-185.294l123.527-247.060z" />
<glyph unicode="&#xe96b;" glyph-name="fullscreen" d="M56.888 739.556h325.080v-130.031h-195.048v-195.048h-130.031v325.080zM642.031 739.556h325.080v-325.080h-130.031v195.048h-195.048v130.031zM837.080 154.413h130.031v-325.080h-325.080v130.031h195.048v195.048zM381.969-40.636v-130.031h-325.080v325.080h130.031v-195.048h195.048z" />
<glyph unicode="&#xe96c;" glyph-name="image" d="M335.013 208.593l126.421-151.704 176.987 227.556 227.556-303.408h-707.951zM967.112-69.532v707.951c0 56.131-45.512 101.135-101.135 101.135h-707.951c-55.624 0-101.135-45.512-101.135-101.135v-707.951c0-55.624 45.512-101.135 101.135-101.135h707.951c55.624 0 101.135 45.512 101.135 101.135z" />
<glyph unicode="&#xe96d;" glyph-name="table-large" d="M150.306 691.35h723.389c49.732 0 90.424-40.69 90.424-90.424v-678.176c0-49.732-40.69-90.424-90.424-90.424h-723.389c-49.732 0-90.424 40.69-90.424 90.424v678.176c0 49.732 40.69 90.424 90.424 90.424zM150.306 510.502v-135.636h180.846v135.636h-180.846zM421.576 510.502v-135.636h180.846v135.636h-180.846zM873.694 374.868v135.636h-180.846v-135.636h180.846zM150.306 284.444v-135.636h180.846v135.636h-180.846zM150.306-77.25h180.846v135.636h-180.846v-135.636zM421.576 284.444v-135.636h180.846v135.636h-180.846zM421.576-77.25h180.846v135.636h-180.846v-135.636zM873.694-77.25v135.636h-180.846v-135.636h180.846zM873.694 284.444h-180.846v-135.636h180.846v135.636z" />
<glyph unicode="&#xe96e;" glyph-name="eye-off" d="M150.723 654.609l53.924-53.924c1.195-1.697 2.552-3.315 4.069-4.833l620.636-620.638c1.518-1.518 3.138-2.875 4.835-4.070l14.753-14.753c14.281-14.281 14.281-37.438 0-51.719s-37.438-14.281-51.719 0l-90.745 90.745c-55.921-19.752-120.441-31.989-194.476-31.989-384 0-512 329.143-512 329.143s50.45 129.73 183.024 226.298l-84.021 84.021c-14.282 14.282-14.282 37.438 0 51.72s37.438 14.282 51.72 0zM318.084 589.924c55.793 19.636 120.125 31.79 193.916 31.79 384 0 512-329.143 512-329.143s-50.341-129.445-182.587-225.979l-52.432 52.436c27.22 18.853 50.604 39.413 70.576 59.959 34.999 35.994 59.56 72.086 75.264 99.010 3.068 5.259 5.782 10.141 8.155 14.574-2.373 4.432-5.087 9.315-8.155 14.574-15.704 26.924-40.265 63.016-75.264 99.010-69.127 71.103-179.116 142.416-347.557 142.416-50.187 0-95.188-6.331-135.461-17.101l-58.455 58.454zM653.33 254.679l-179.222 179.222c12.083 3.233 24.788 4.955 37.892 4.955 80.79 0 146.286-65.496 146.286-146.286 0-13.104-1.723-25.808-4.955-37.892zM235.468 466.425c-27.411-18.938-50.943-39.611-71.025-60.27-34.997-35.994-59.559-72.086-75.264-99.010-3.068-5.259-5.782-10.141-8.156-14.574 2.374-4.432 5.089-9.315 8.156-14.574 15.705-26.924 40.267-63.016 75.264-99.010 69.126-71.102 179.115-142.416 347.557-142.416 50.436 0 95.634 6.393 136.060 17.262l-97.569 97.569c-12.266-3.335-25.172-5.116-38.491-5.116-80.79 0-146.286 65.496-146.286 146.286 0 13.319 1.781 26.225 5.116 38.491l-135.363 135.362zM68.109 265.903l-0.022-0.055-0.041-0.102 0.063 0.157zM68.109 319.239v0z" />
<glyph unicode="&#xe96f;" glyph-name="doc-lib" d="M877.714 329.142v219.429c0 20.198-16.374 36.571-36.571 36.571h-292.571v73.143c0 20.198-16.374 36.571-36.571 36.571h-240.852c-9.699 0-19.001-3.853-25.86-10.712l-88.291-88.291c-6.858-6.858-10.712-16.161-10.712-25.86v-240.852h-36.571c-20.198 0-36.571-16.374-36.571-36.571v-365.714c0-20.198 16.374-36.571 36.571-36.571h804.571c20.198 0 36.571 16.374 36.571 36.571v365.714c0 20.198-16.374 36.571-36.571 36.571h-36.571zM841.143 548.571v-219.429h-73.143v219.429h73.143zM731.429 548.571v-219.429h-73.143v219.429h73.143zM658.286 36.571h-292.571v146.286h292.571v-146.286zM622.158 548.571l-0.443-219.429h-73.143v219.429h73.586zM182.857 548.571h109.714v109.714h219.429v-329.143h-329.143v219.429z" />
<glyph unicode="&#xe970;" glyph-name="change, alter" d="M984.166 646.581l-91.67 114.677c-1.207 1.511-2.706 2.826-4.432 3.884-8.166 5.005-19.419 3.266-25.136-3.884l-91.666-114.677c-2.125-2.656-3.262-5.82-3.262-9.063 0-8.728 8.079-15.804 18.048-15.804h55.095v-412.734c0-14.427-11.696-26.123-26.123-26.123h-449.306c-20.198 0-36.571-16.373-36.571-36.571s16.373-36.571 36.571-36.571h449.306c54.824 0 99.266 44.442 99.266 99.266v412.734h55.095c3.701 0 7.314 0.997 10.35 2.857 8.163 5.005 10.149 14.859 4.436 22.010zM208.98 475.428c-54.823 0-99.265-44.442-99.265-99.266v-412.734h-55.096c-9.967 0-18.047-7.077-18.047-15.803 0-3.244 1.139-6.407 3.262-9.066l91.667-114.673c5.716-7.153 16.969-8.891 25.134-3.884 1.726 1.057 3.227 2.37 4.435 3.884l91.666 114.673c5.716 7.153 3.73 17.006-4.435 22.012-3.033 1.858-6.646 2.856-10.349 2.856h-55.094v412.734c0 14.427 11.696 26.123 26.123 26.123h449.306c20.198 0 36.571 16.373 36.571 36.571s-16.373 36.571-36.571 36.571h-449.306z" />
<glyph unicode="&#xe971;" glyph-name="treemap-alt" d="M410.864 663.701v-202.271h202.271v202.271h-202.271zM549.928 82.171h37.927c27.928 0 50.568-22.64 50.568-50.568v-151.704c0-27.928-22.64-50.568-50.568-50.568h-151.704c-27.928 0-50.568 22.64-50.568 50.568v151.704c0 27.928 22.64 50.568 50.568 50.568h37.927v143.659h-255.138v-143.659h40.225c27.928 0 50.568-22.64 50.568-50.568v-151.704c0-27.928-22.64-50.568-50.568-50.568h-151.704c-27.928 0-50.568 22.64-50.568 50.568v151.704c0 27.928 22.64 50.568 50.568 50.568h35.626v168.942c0 27.928 22.64 50.568 50.568 50.568h280.423v83.896h-63.21c-41.892 0-75.852 33.96-75.852 75.852v202.271c0 41.892 33.96 75.852 75.852 75.852h202.271c41.892 0 75.852-33.96 75.852-75.852v-202.271c0-41.892-33.96-75.852-75.852-75.852h-63.21v-83.896h280.423c27.928 0 50.568-22.64 50.568-50.568v-168.942h35.626c27.928 0 50.568-22.64 50.568-50.568v-151.704c0-27.928-22.64-50.568-50.568-50.568h-151.704c-27.928 0-50.568 22.64-50.568 50.568v151.704c0 27.928 22.64 50.568 50.568 50.568h40.225v143.659h-255.138v-143.659zM132.742 6.32v-101.137h101.137v101.137h-101.137zM790.123 6.32v-101.137h101.137v101.137h-101.137zM461.432 6.32v-101.137h101.137v101.137h-101.137z" />
<glyph unicode="&#xe972;" glyph-name="fullscreen-exit" d="M637.387 167.182h313.469v-125.387h-188.082v-188.082h-125.387v313.469zM73.143 167.182h313.469v-313.469h-125.387v188.082h-188.082v125.387zM261.224 731.427h125.387v-313.469h-313.469v125.387h188.082v188.082zM950.857 543.345v-125.387h-313.469v313.469h125.387v-188.082h188.082z" />
<glyph unicode="&#xe973;" glyph-name="severity" d="M181.734 318.751c-39.401-79.447-56.602-133.939-57.401-204.115-1.892-166.082 165.156-306.765 390.691-298.78 217.314 7.694 384.594 179.734 384.661 351.255 0.044 112.949-41.602 227.76-111.617 321.908-6.808-33.102-21.504-64.526-46.52-87.481l-54.048-49.595-16.982 71.361c-30.889 129.8-114.427 252.919-193.722 306.709-15.011-138.585-84.741-306.571-201.813-418.57l-46.149-44.15-23.644 59.33c-3.099 7.778-3.628 12.197-4.519 25.254-0.041 0.605-0.141 2.182-0.267 4.17-8.080-16.231-18.382-36.713-18.669-37.293zM712.422 433.274c6.045 5.548 58.723 83.177 19.681 179.293 122.818-106.638 210.724-272.732 210.657-445.474s-163.607-384.99-426.213-394.287c-262.606-9.296-437.341 162.127-435.289 342.32s117.319 275.051 123.535 389.243c22.508-31.044 31.313-72.123 35.266-105.245 0-7.933 1.714-26.787 5.144-56.558 26.56 25.99 39.752 40.054 39.577 42.191 120.433 142.858 154.342 328.667 151.832 411.688 204.616-86.152 273.83-354.848 275.811-363.172z" />
<glyph unicode="&#xe974;" glyph-name="plus-solid-circle" d="M874.015 653.078c-96.701 96.231-225.226 149.231-361.97 149.231s-265.316-53-362.025-149.23-150.020-224.308-150.020-360.504c0-136.197 53.285-264.25 150.019-360.513s225.234-149.23 361.993-149.23c136.757 0 265.305 52.942 361.969 149.228s150.019 224.354 150.019 360.55c0 136.196-53.205 264.205-149.985 360.468l0.001 0.001zM768.061 255.998h-219.44v-219.451c0-20.2-16.376-36.577-36.576-36.577s-36.577 16.377-36.577 36.576v219.453h-219.452c-20.2 0-36.576 16.376-36.576 36.576s16.376 36.577 36.576 36.577h219.451v219.441c0 20.2 16.376 36.576 36.576 36.576 20.202 0 36.577-16.376 36.577-36.576v-219.451h219.44c20.2 0 36.576-16.377 36.576-36.576s-16.376-36.578-36.576-36.578l0.001 0.011z" />
<glyph unicode="&#xe975;" glyph-name="s" d="M517.12-193.829c-133.12 0-247.040 53.76-328.96 139.52l71.68 80.64c66.56-70.4 161.28-116.48 258.56-116.48 122.88 0 197.12 61.44 197.12 153.6 0 96-67.84 126.72-156.16 166.4l-135.68 58.88c-87.040 37.12-190.72 103.68-190.72 240.64 0 144.64 125.44 249.6 295.68 249.6 111.36 0 209.92-47.36 276.48-116.48l-62.72-75.52c-57.6 53.76-126.72 88.32-213.76 88.32-106.24 0-175.36-53.76-175.36-138.24 0-90.88 81.92-125.44 154.88-156.16l134.4-57.6c108.8-47.36 193.28-111.36 193.28-250.88 0-148.48-122.88-266.24-318.72-266.24z" />
<glyph unicode="&#xe976;" glyph-name="c" d="M572.16-193.829c-232.96 0-408.32 180.48-408.32 485.12 0 303.36 177.92 487.68 416 487.68 113.92 0 203.52-56.32 257.28-116.48l-64-76.8c-48.64 52.48-111.36 89.6-192 89.6-177.92 0-295.68-145.92-295.68-380.16 0-236.8 112.64-385.28 291.84-385.28 89.6 0 157.44 39.68 217.6 104.96l65.28-74.24c-74.24-85.76-166.4-134.4-288-134.4z" />
<glyph unicode="&#xe977;" glyph-name="t" d="M453.146-171.935v829.022h-280.982v99.989h679.672v-99.989h-280.982v-829.022z" />
<glyph unicode="&#xe978;" glyph-name="guide" d="M517.732 775.192c-179.571 0-325.56-145.989-325.56-325.56 0-174.441 297.109-494.404 309.702-507.93 4.198-4.198 9.795-6.996 15.858-6.996s11.66 2.332 15.858 6.996c12.593 13.526 309.702 333.489 309.702 507.93 0 179.571-145.989 325.56-325.56 325.56zM517.732 311.572c-69.030 0-125 55.97-125 125s55.97 125 125 125c69.030 0 125-55.97 125-125 0-68.564-55.97-125-125-125zM512.090-190.051c-173.18 0-359.566 41.978-359.566 134.050 0 44.885 41.069 79.958 122.117 104.187v0c17.596 5.145 36.031-4.948 41.177-22.544 0.046-0.158 0.091-0.316 0.135-0.474v0c5.277-17.883-4.787-36.69-22.594-42.22-53.729-16.113-71.356-33.255-74.021-38.949 7.814-18.899 106.125-65.965 292.693-65.965s284.819 47.066 292.632 66.026c-2.726 5.452-22.049 24.714-84.198 41.796v0c-17.88 5.173-28.349 23.687-23.563 41.675v0c4.474 17.847 22.57 28.688 40.417 24.214 0.137-0.034 0.273-0.069 0.41-0.105 110.487-30.287 133.747-75.172 133.747-107.519 0.182-92.193-186.204-134.171-359.385-134.171h0.001zM528.671 520.782c-45.243 0-82.090-36.847-82.090-82.090s36.847-82.090 82.090-82.090c45.243 0 82.090 36.847 82.090 82.090 0.466 45.243-36.847 82.090-82.090 82.090v0z" />
<glyph unicode="&#xe979;" glyph-name="todo" d="M729.599 356.571l-294.4-294.4-108.8 115.2c-12.8 12.8-32 12.8-44.8 0s-12.8-32 0-44.8l134.4-134.4c12.8-12.8 32-12.8 44.8 0l313.6 313.6c12.8 12.8 12.8 32 0 44.8s-32 12.8-44.8 0v0zM832 676.572h-102.4l-12.8 76.8c-6.4 32-32 51.2-64 51.2h-281.6c-32 0-57.6-19.2-64-51.2l-12.8-76.8h-102.4c-70.4 0-128-57.6-128-128v-640.001c0-70.4 57.6-128 128-128h640.001c70.4 0 128 57.6 128 128v640.001c0 70.4-57.6 128-128 128zM371.199 740.572h281.6l38.4-192h-358.4l38.4 192zM896-91.429c0-38.4-25.6-64-64-64h-640.001c-38.4 0-64 25.6-64 64v640.001c0 38.4 25.6 64 64 64h89.6l-12.8-64h-44.8c-19.2 0-32-12.8-32-32s12.8-32 32-32h576.001c19.2 0 32 12.8 32 32s-12.8 32-32 32h-44.8l-12.8 64h89.6c38.4 0 64-25.6 64-64v-640.001z" />
</font>
</defs>
</svg>
