<svg width="23" height="22" viewBox="0 0 23 22" fill="none" xmlns="http://www.w3.org/2000/svg">
<rect width="23" height="22" rx="4" fill="#2E7FFF"/>
<path d="M15.067 7.00032C13.676 7 12.3788 7.68035 11.6177 8.80922C10.6185 7.32944 8.73546 6.66166 6.98732 7.16713C5.23917 7.67261 4.04102 9.2313 4.04102 11C4.04102 12.7687 5.23917 14.3274 6.98732 14.8329C8.73546 15.3383 10.6185 14.6706 11.6177 13.1908C12.6986 14.7907 14.7965 15.4245 16.6235 14.7033C18.4505 13.982 19.4949 12.1075 19.1157 10.2306C18.7364 8.35368 17.0396 6.99987 15.067 7.00032ZM10.1534 12.2589C9.57909 13.1112 8.49537 13.4964 7.48891 13.2059C6.48245 12.9154 5.79247 12.0183 5.79247 11.0001C5.79247 9.982 6.48245 9.08484 7.48891 8.79434C8.49537 8.50384 9.57909 8.88904 10.1534 9.74141L11.0054 11L10.1534 12.2589ZM15.067 13.3012C14.266 13.3015 13.5191 12.9093 13.0816 12.2589L12.2296 11L13.0816 9.74141C13.7029 8.82075 14.9096 8.45552 15.9607 8.86998C17.0119 9.28445 17.6132 10.3626 17.3954 11.4423C17.1776 12.5221 16.2018 13.3012 15.067 13.3012Z" fill="#FCFDFE"/>
</svg>
