<svg width="24" height="23" viewBox="0 0 24 23" fill="none" xmlns="http://www.w3.org/2000/svg">
<rect x="0.769226" y="0.566406" width="22.7692" height="22" rx="2" fill="#2E7FFF"/>
<path d="M12.4896 15.906H15.0512C15.287 15.906 15.4781 16.0881 15.4781 16.3128C15.4781 16.5375 15.287 16.7196 15.0512 16.7196H9.07425C8.83847 16.7196 8.64733 16.5375 8.64733 16.3128C8.64733 16.0881 8.83847 15.906 9.07425 15.906H11.6358V14.8213H6.93508C6.78412 14.8204 6.63972 14.7623 6.53377 14.6598C6.42782 14.5574 6.36904 14.4189 6.37038 14.2751V7.23172C6.37038 6.93016 6.62941 6.68555 6.93508 6.68555H17.1903C17.5023 6.68555 17.755 6.92908 17.755 7.23172V14.2751C17.755 14.5766 17.496 14.8213 17.1903 14.8213H12.4896V15.906Z" fill="white"/>
<rect x="8.64728" y="9.39844" width="6.83077" height="1.08476" fill="#2E7FFF"/>
</svg>
