<svg width="24" height="22" viewBox="0 0 24 22" fill="none" xmlns="http://www.w3.org/2000/svg">
<path fill-rule="evenodd" clip-rule="evenodd" d="M4.69232 0C2.48318 0 0.692322 1.79086 0.692322 4V18C0.692322 20.2091 2.48318 22 4.69232 22H19.4615C21.6707 22 23.4615 20.2091 23.4615 18V4C23.4615 1.79086 21.6707 0 19.4615 0H4.69232ZM16.456 14.6918H17.4497C17.5344 14.6918 17.6157 14.7243 17.6756 14.7822C17.7355 14.8401 17.7692 14.9187 17.7692 15.0005C17.7692 15.0824 17.7355 15.1609 17.6756 15.2188C17.6157 15.2767 17.5344 15.3093 17.4497 15.3093H13.4908C13.4173 15.6185 13.2375 15.8945 12.9807 16.0921C12.7239 16.2898 12.4052 16.3974 12.0769 16.3974C11.7485 16.3974 11.4299 16.2898 11.1731 16.0921C10.9163 15.8945 10.7364 15.6185 10.663 15.3093H6.7041C6.61936 15.3093 6.53809 15.2767 6.47817 15.2188C6.41825 15.1609 6.38458 15.0824 6.38458 15.0005C6.38458 14.9187 6.41825 14.8401 6.47817 14.7822C6.53809 14.7243 6.61936 14.6918 6.7041 14.6918H7.67546V10.4406C7.68143 9.51984 7.99599 8.62572 8.57202 7.89216C9.14804 7.15861 9.95453 6.62511 10.8707 6.37158V5.96714C10.8707 5.66091 10.9966 5.36723 11.2207 5.15069C11.4448 4.93415 11.7488 4.8125 12.0657 4.8125C12.3826 4.8125 12.6866 4.93415 12.9107 5.15069C13.1348 5.36723 13.2607 5.66091 13.2607 5.96714V6.37158C14.1769 6.62511 14.9834 7.15861 15.5594 7.89216C16.1354 8.62572 16.45 9.51984 16.456 10.4406V14.6918ZM13.7503 8.65605C14.0529 8.9091 14.2975 9.22039 14.4685 9.57001C14.4944 9.62254 14.5352 9.66694 14.586 9.69808C14.6369 9.72921 14.6959 9.74582 14.7561 9.74598C14.8037 9.74571 14.8506 9.73516 14.8935 9.71511C14.9696 9.67974 15.0281 9.61669 15.0563 9.53975C15.0844 9.4628 15.0799 9.37822 15.0437 9.3045C14.8352 8.87745 14.5369 8.49709 14.1677 8.18771C13.7985 7.87833 13.3667 7.64673 12.8997 7.5077C12.8183 7.48355 12.7304 7.49161 12.6552 7.53011C12.58 7.56861 12.5237 7.6344 12.4987 7.71301C12.4737 7.79161 12.482 7.87659 12.5218 7.94925C12.5617 8.02191 12.6298 8.0763 12.7111 8.10046C13.0938 8.21377 13.4477 8.40301 13.7503 8.65605ZM14.8369 10.9738C14.8968 11.0317 14.9781 11.0643 15.0628 11.0643C15.1064 11.0651 15.1497 11.0574 15.1901 11.0415C15.2305 11.0256 15.2671 11.0018 15.2976 10.9718C15.3281 10.9417 15.352 10.9059 15.3676 10.8666C15.3833 10.8273 15.3905 10.7853 15.3887 10.7432C15.3893 10.6224 15.3818 10.5018 15.3664 10.382C15.3575 10.3001 15.3153 10.225 15.2491 10.1732C15.1829 10.1213 15.098 10.0971 15.0133 10.1057C14.9286 10.1142 14.8508 10.155 14.7972 10.219C14.7436 10.283 14.7184 10.3649 14.7273 10.4468C14.7433 10.5579 14.7433 10.6567 14.7433 10.7555C14.7433 10.8374 14.777 10.9159 14.8369 10.9738Z" fill="#FF9F46"/>
</svg>
