<svg width="24" height="23" viewBox="0 0 24 23" fill="none" xmlns="http://www.w3.org/2000/svg">
<path fill-rule="evenodd" clip-rule="evenodd" d="M4.30768 0.566406C2.09854 0.566406 0.307678 2.35727 0.307678 4.56641V18.5664C0.307678 20.7755 2.09854 22.5664 4.30768 22.5664H19.0769C21.286 22.5664 23.0769 20.7755 23.0769 18.5664V4.56641C23.0769 2.35727 21.286 0.566406 19.0769 0.566406H4.30768ZM5.28845 8.91963C5.28845 9.16688 5.88813 9.33203 6.1334 9.33203H12.893V7.69922L6.1334 7.69922C5.88813 7.70108 5.28845 7.86437 5.28845 8.11162V8.91963ZM15.4279 6.06641H14.5829C14.1165 6.06641 13.738 6.43216 13.738 6.88281V10.1484C13.738 10.5991 14.1165 10.9648 14.5829 10.9648H15.4279C15.8943 10.9648 16.2728 10.5991 16.2728 10.1484V6.88281C16.2728 6.43216 15.8943 6.06641 15.4279 6.06641ZM12.893 16.293V13.0273C12.893 12.5767 12.5145 12.2109 12.0481 12.2109H11.2031C10.7367 12.2109 10.3582 12.5767 10.3582 13.0273V16.293C10.3582 16.7436 10.7367 17.1094 11.2031 17.1094H12.0481C12.5145 17.1094 12.893 16.7436 12.893 16.293ZM5.28845 15.0642C5.28845 15.3114 5.88813 15.4766 6.1334 15.4766H9.51321V13.8438H6.1334C5.88813 13.8456 5.28845 14.0089 5.28845 14.2562V15.0642ZM18.8077 14.2562C18.8077 14.0089 18.208 13.8456 17.9627 13.8437L13.738 13.8438V15.4766L17.9627 15.4766C18.208 15.4766 18.8077 15.3114 18.8077 15.0642V14.2562ZM18.8077 8.11162C18.8077 7.86437 18.208 7.70108 17.9627 7.69922H17.1178V9.33203H17.9627C18.208 9.33203 18.8077 9.16688 18.8077 8.91963V8.11162Z" fill="#A35FF9"/>
</svg>
