<svg width="24" height="23" viewBox="0 0 24 23" fill="none" xmlns="http://www.w3.org/2000/svg">
<path fill-rule="evenodd" clip-rule="evenodd" d="M4.53845 0.566406C2.32931 0.566406 0.538452 2.35727 0.538452 4.56641V18.5664C0.538452 20.7755 2.32931 22.5664 4.53845 22.5664H19.3077C21.5168 22.5664 23.3077 20.7755 23.3077 18.5664V4.56641C23.3077 2.35727 21.5168 0.566406 19.3077 0.566406H4.53845ZM11.5522 10.9129C11.6689 10.97 11.7952 11.0024 11.9262 11.0071C12.0557 11.0024 12.1835 10.97 12.2986 10.9113L17.0324 8.76028C17.2098 8.68461 17.352 8.54718 17.432 8.37423C17.6094 7.98973 17.4304 7.53882 17.0324 7.36742L12.5319 5.31056C12.3419 5.22437 12.1345 5.17969 11.9246 5.17969C11.7147 5.17969 11.5073 5.22437 11.3173 5.31056L6.81843 7.36742C6.64103 7.44308 6.49879 7.58051 6.41888 7.75346C6.24148 8.13797 6.42048 8.58887 6.81843 8.76028L11.5522 10.9129ZM10.3552 17.9096C10.4623 17.9652 10.5821 17.9945 10.7036 17.9945C10.8379 17.9899 10.9689 17.9513 11.084 17.8849C11.3285 17.7413 11.4787 17.4865 11.4819 17.2101V12.2625C11.4707 11.9799 11.3061 11.722 11.0488 11.5877L6.78007 9.65127C6.55153 9.52619 6.27185 9.52619 6.04331 9.65127C5.79719 9.79334 5.64376 10.0481 5.64217 10.3261V15.2675C5.63897 15.5624 5.80678 15.8342 6.07847 15.9716L10.3552 17.9096ZM12.7669 17.8972C12.8835 17.9606 13.0146 17.9945 13.1472 17.9945C13.2687 17.9961 13.3886 17.9667 13.4972 17.9111L17.7899 15.9716C18.0536 15.8311 18.2151 15.5593 18.2087 15.2675V10.3292C18.2071 10.0512 18.0552 9.79488 17.8075 9.65436C17.587 9.52774 17.3121 9.52156 17.0851 9.63737L12.7876 11.5861C12.5351 11.7236 12.3753 11.9799 12.3689 12.261V17.2224C12.3721 17.4988 12.5223 17.7536 12.7669 17.8972Z" fill="#FF8058"/>
</svg>
