<svg width="23" height="23" viewBox="0 0 23 23" fill="none" xmlns="http://www.w3.org/2000/svg">
<rect x="0.538574" y="0.566406" width="22" height="22" rx="4" fill="#A35FF9"/>
<path d="M14.8042 8.12891H7.58545C5.59205 8.12891 3.97607 9.74488 3.97607 11.7383C3.97607 13.7317 5.59205 15.3477 7.58545 15.3477H14.8042C16.7976 15.3477 18.4136 13.7317 18.4136 11.7383C18.4136 9.74488 16.7976 8.12891 14.8042 8.12891ZM7.58545 14.5894C6.41362 14.6048 5.3486 13.9107 4.88947 12.8325C4.43033 11.7542 4.66806 10.5054 5.49124 9.67131C6.31443 8.83718 7.55997 8.58298 8.64418 9.02783C9.72839 9.47268 10.4365 10.5284 10.4366 11.7004C10.4367 13.2812 9.16618 14.5686 7.58545 14.5894Z" fill="white"/>
</svg>
