<svg width="24" height="22" viewBox="0 0 24 22" fill="none" xmlns="http://www.w3.org/2000/svg">
<rect x="0.692322" width="22.7692" height="22" rx="4" fill="#FF9F46"/>
<path d="M17.4497 14.6918H16.456V10.4406C16.45 9.51984 16.1354 8.62572 15.5594 7.89216C14.9834 7.15861 14.1769 6.62511 13.2607 6.37158V5.96714C13.2607 5.66091 13.1348 5.36723 12.9107 5.15069C12.6866 4.93415 12.3826 4.8125 12.0657 4.8125C11.7488 4.8125 11.4448 4.93415 11.2207 5.15069C10.9966 5.36723 10.8707 5.66091 10.8707 5.96714V6.37158C9.95453 6.62511 9.14805 7.15861 8.57202 7.89216C7.99599 8.62572 7.68144 9.51984 7.67546 10.4406V14.6918H6.70411C6.61936 14.6918 6.53809 14.7243 6.47817 14.7822C6.41825 14.8401 6.38458 14.9187 6.38458 15.0005C6.38458 15.0824 6.41825 15.1609 6.47817 15.2188C6.53809 15.2767 6.61936 15.3093 6.70411 15.3093H10.663C10.7364 15.6185 10.9163 15.8945 11.1731 16.0921C11.4299 16.2898 11.7485 16.3974 12.0769 16.3974C12.4052 16.3974 12.7239 16.2898 12.9807 16.0921C13.2375 15.8945 13.4173 15.6185 13.4908 15.3093H17.4497C17.5344 15.3093 17.6157 15.2767 17.6756 15.2188C17.7355 15.1609 17.7692 15.0824 17.7692 15.0005C17.7692 14.9187 17.7355 14.8401 17.6756 14.7822C17.6157 14.7243 17.5344 14.6918 17.4497 14.6918V14.6918ZM14.4685 9.57001C14.2976 9.22039 14.0529 8.9091 13.7503 8.65605C13.4477 8.40301 13.0938 8.21377 12.7111 8.10046C12.6298 8.0763 12.5617 8.02191 12.5219 7.94925C12.482 7.87659 12.4737 7.79161 12.4987 7.71301C12.5237 7.6344 12.58 7.56861 12.6552 7.53011C12.7304 7.49161 12.8183 7.48355 12.8997 7.5077C13.3667 7.64673 13.7985 7.87833 14.1677 8.18771C14.5369 8.49709 14.8352 8.87745 15.0437 9.3045C15.0799 9.37822 15.0844 9.4628 15.0563 9.53975C15.0281 9.61669 14.9696 9.67974 14.8935 9.71511C14.8506 9.73516 14.8037 9.74571 14.7561 9.74598C14.6959 9.74582 14.6369 9.72921 14.586 9.69808C14.5352 9.66694 14.4944 9.62254 14.4685 9.57001V9.57001ZM15.0628 11.0643C14.9781 11.0643 14.8968 11.0317 14.8369 10.9738C14.777 10.9159 14.7433 10.8374 14.7433 10.7555C14.7433 10.6567 14.7433 10.5579 14.7273 10.4468C14.7184 10.3649 14.7436 10.283 14.7972 10.219C14.8508 10.155 14.9286 10.1142 15.0133 10.1057C15.0981 10.0971 15.1829 10.1213 15.2491 10.1732C15.3153 10.225 15.3575 10.3001 15.3664 10.382C15.3818 10.5018 15.3893 10.6224 15.3887 10.7432C15.3905 10.7853 15.3833 10.8273 15.3676 10.8666C15.352 10.9059 15.3281 10.9417 15.2976 10.9718C15.2671 11.0018 15.2305 11.0256 15.1901 11.0415C15.1497 11.0574 15.1064 11.0651 15.0628 11.0643V11.0643Z" fill="white"/>
</svg>
