<svg width="23" height="23" viewBox="0 0 23 23" fill="none" xmlns="http://www.w3.org/2000/svg">
<path fill-rule="evenodd" clip-rule="evenodd" d="M4.53845 0.566406C2.32931 0.566406 0.538452 2.35727 0.538452 4.56641V18.5664C0.538452 20.7755 2.32931 22.5664 4.53845 22.5664H18.5385C20.7476 22.5664 22.5385 20.7755 22.5385 18.5664V4.56641C22.5385 2.35727 20.7476 0.566406 18.5385 0.566406H4.53845ZM10.4021 8.70409C10.0893 8.57453 9.75409 8.50785 9.41553 8.50785C8.73177 8.50785 8.07601 8.77947 7.59252 9.26296C7.10903 9.74645 6.8374 10.4022 6.8374 11.086V11.9453C6.8374 12.6291 7.10903 13.2849 7.59252 13.7684C8.07601 14.2518 8.73177 14.5235 9.41553 14.5235C10.0993 14.5235 10.755 14.2518 11.2385 13.7684C11.722 13.2849 11.9937 12.6291 11.9937 11.9453V11.086C11.9937 10.7474 11.927 10.4122 11.7974 10.0994C11.6678 9.78657 11.4779 9.50236 11.2385 9.26296C10.9991 9.02356 10.7149 8.83366 10.4021 8.70409ZM8.03201 15.0932C7.59597 14.9016 7.20463 14.6212 6.88295 14.27C5.7015 14.8726 4.7719 15.8745 4.25928 17.0977V17.5313C4.25928 17.7592 4.34982 17.9778 4.51098 18.139C4.67215 18.3001 4.89073 18.3907 5.11865 18.3907H13.7124C13.9403 18.3907 14.1589 18.3001 14.3201 18.139C14.4812 17.9778 14.5718 17.7592 14.5718 17.5313V17.0973C14.0591 15.8743 13.1295 14.8725 11.9481 14.27C11.6264 14.6212 11.2351 14.9016 10.799 15.0932C10.363 15.2848 9.89182 15.3834 9.41553 15.3828C8.93924 15.3834 8.46806 15.2848 8.03201 15.0932ZM12.8522 12.0317C12.8401 12.5409 12.7144 13.0409 12.4844 13.4952C13.3533 13.9443 14.1048 14.5908 14.6788 15.3828H18.439C18.6669 15.3828 18.8855 15.2923 19.0466 15.1311C19.2078 14.97 19.2983 14.7514 19.2983 14.5235V14.2704C18.8394 13.2739 18.0494 12.4671 17.0627 11.9875C16.5053 12.5133 15.7677 12.8058 15.0015 12.8047C14.2352 12.8058 13.4976 12.5133 12.9403 11.9875C12.9106 12.0016 12.8814 12.0167 12.8522 12.0317ZM16.5206 7.41836C16.1177 7.01545 15.5713 6.7891 15.0015 6.7891C14.4317 6.7891 13.8852 7.01545 13.4823 7.41836C13.0794 7.82127 12.853 8.36773 12.853 8.93754V9.79691C12.8531 10.3667 13.0795 10.9131 13.4824 11.316C13.8853 11.7188 14.4317 11.9451 15.0015 11.9451C15.5712 11.9451 16.1177 11.7188 16.5206 11.316C16.9235 10.9131 17.1498 10.3667 17.1499 9.79691V8.93754C17.1499 8.36773 16.9236 7.82127 16.5206 7.41836ZM8.81912 6.38132C8.08822 6.57726 7.38654 6.88019 6.71279 7.29054C6.63354 7.33881 6.57247 7.41144 6.53792 7.49757C6.50338 7.5837 6.49765 7.6787 6.52158 7.76835L6.55123 7.87878C6.56393 7.92614 6.58743 7.9699 6.61987 8.00666C6.65231 8.04341 6.69282 8.07215 6.73823 8.09063C6.78364 8.10911 6.83271 8.11682 6.8816 8.11317C6.93049 8.10952 6.97786 8.09459 7.02002 8.06957C7.65114 7.69201 8.33129 7.40327 9.04127 7.21148C9.75212 7.02248 10.4856 6.9324 11.2211 6.94378C11.2701 6.9443 11.3185 6.93349 11.3627 6.91219C11.4068 6.89089 11.4454 6.85968 11.4755 6.82099C11.5055 6.78231 11.5263 6.73719 11.536 6.68918C11.5458 6.64116 11.5443 6.59153 11.5317 6.54418L11.5021 6.43375C11.478 6.34415 11.4255 6.26476 11.3526 6.20745C11.2796 6.15013 11.1901 6.11797 11.0973 6.11578C10.3093 6.09687 9.54959 6.18539 8.81912 6.38132Z" fill="#A35FF9"/>
</svg>
