<svg width="23" height="23" viewBox="0 0 23 23" fill="none" xmlns="http://www.w3.org/2000/svg">
<rect x="0.538452" y="0.566406" width="22" height="22" rx="4" fill="#29AA93"/>
<path d="M14.8041 8.12891H7.58533C5.59192 8.12891 3.97595 9.74488 3.97595 11.7383C3.97595 13.7317 5.59192 15.3477 7.58533 15.3477H14.8041C16.7975 15.3477 18.4135 13.7317 18.4135 11.7383C18.4135 9.74488 16.7975 8.12891 14.8041 8.12891ZM7.58533 14.5894C6.4135 14.6048 5.34848 13.9107 4.88935 12.8325C4.43021 11.7542 4.66794 10.5054 5.49112 9.67131C6.31431 8.83718 7.55984 8.58298 8.64406 9.02783C9.72827 9.47268 10.4363 10.5284 10.4364 11.7004C10.4366 13.2812 9.16606 14.5686 7.58533 14.5894Z" fill="white"/>
</svg>
