<svg width="26" height="26" viewBox="0 0 26 26" fill="none" xmlns="http://www.w3.org/2000/svg">
    <path d="M0 4C0 1.79086 1.79086 0 4 0H22C24.2091 0 26 1.79086 26 4V22C26 24.2091 24.2091 26 22 26H4C1.79086 26 0 24.2091 0 22V4Z" fill="#007AFF"/>
    <g clip-path="url(#clip0_650_1863)">
        <path d="M13 20.5C17.1421 20.5 20.5 17.1421 20.5 13C20.5 8.85786 17.1421 5.5 13 5.5C8.85786 5.5 5.5 8.85786 5.5 13C5.5 17.1421 8.85786 20.5 13 20.5Z" fill="white" stroke="white" stroke-width="1.5"/>
        <path d="M9.625 16.375L11.3125 11.3125L16.375 9.625L14.6875 14.6875L9.625 16.375Z" stroke="#007AFF" stroke-width="1.5"/>
        <path fill-rule="evenodd" clip-rule="evenodd" d="M13 13.75C13.4142 13.75 13.75 13.4142 13.75 13C13.75 12.5858 13.4142 12.25 13 12.25C12.5858 12.25 12.25 12.5858 12.25 13C12.25 13.4142 12.5858 13.75 13 13.75Z" fill="#007AFF"/>
    </g>
</svg>