<svg width="23" height="22" viewBox="0 0 23 22" fill="none" xmlns="http://www.w3.org/2000/svg">
<rect width="22.7692" height="22" rx="4" fill="#FF8058"/>
<path d="M13.0355 8.65994H14.5633C14.6031 8.65994 14.6444 8.66956 14.6785 8.69293C14.9403 8.87299 14.9374 9.16438 14.7696 9.32931L11.6741 12.3656C11.5162 12.5195 11.2587 12.5222 11.0994 12.3697L11.0951 12.3656L7.99969 9.32931C7.84179 9.174 7.84463 8.92522 8.00538 8.77402C8.08077 8.70255 8.1832 8.66131 8.28846 8.66131H9.73377V5.69655C9.73377 5.58797 9.82481 5.5 9.93719 5.5H12.8321C12.9444 5.5 13.0355 5.58797 13.0355 5.69655V8.65994ZM8.13198 12.7078V13.9105C8.13198 14.0191 8.22303 14.107 8.33541 14.107H14.4353C14.5477 14.107 14.6387 14.0191 14.6387 13.9105V12.7078C14.6387 12.5992 14.7297 12.5112 14.8421 12.5112H16.8749C16.9873 12.5112 17.0784 12.5992 17.0784 12.7078V16.3034C17.0784 16.412 16.9873 16.5 16.8749 16.5H5.89575C5.78336 16.5 5.69232 16.412 5.69232 16.3034V12.7078C5.69232 12.5992 5.78336 12.5112 5.89575 12.5112H7.92856C8.04094 12.5112 8.13198 12.5992 8.13198 12.7078Z" fill="#FCFDFE"/>
</svg>
