<svg width="24" height="22" viewBox="0 0 24 22" fill="none" xmlns="http://www.w3.org/2000/svg">
<rect x="0.461548" width="22.7692" height="22" rx="2" fill="#A35FF9"/>
<path d="M11.5476 3.58398C11.8525 3.58433 12.1528 3.65431 12.4235 3.78804C12.6941 3.92178 12.9272 4.11538 13.1031 4.35262C13.2791 4.58986 13.3928 4.86383 13.4347 5.15157C13.4766 5.43931 13.4456 5.73243 13.3441 6.00638H15.9933C16.16 6.00638 16.3251 6.03767 16.4792 6.09846C16.6332 6.15925 16.7731 6.24835 16.891 6.36067C17.0089 6.473 17.1024 6.60634 17.1662 6.7531C17.23 6.89986 17.2628 7.05716 17.2628 7.21601V9.74103C17.5507 9.64313 17.8591 9.61258 18.1619 9.65195C18.4648 9.69131 18.7532 9.79945 19.0031 9.96724C19.2529 10.135 19.4567 10.3576 19.5975 10.6161C19.7382 10.8746 19.8116 11.1616 19.8116 11.4528C19.8116 11.7441 19.7382 12.0311 19.5975 12.2896C19.4567 12.5481 19.2529 12.7707 19.0031 12.9385C18.7532 13.1062 18.4648 13.2144 18.1619 13.2537C17.8591 13.2931 17.5507 13.2626 17.2628 13.1647V15.6897C17.2633 15.8488 17.2308 16.0064 17.1672 16.1536C17.1036 16.3007 17.0101 16.4344 16.8922 16.547C16.7743 16.6597 16.6342 16.7491 16.4799 16.8101C16.3257 16.8711 16.1603 16.9024 15.9933 16.9024H13.3482C13.4503 16.6283 13.4818 16.3347 13.4401 16.0465C13.3984 15.7583 13.2847 15.4838 13.1086 15.2462C12.9324 15.0085 12.6989 14.8147 12.4278 14.6809C12.1567 14.547 11.8558 14.4772 11.5505 14.4772C11.2451 14.4772 10.9442 14.547 10.6731 14.6809C10.402 14.8147 10.1685 15.0085 9.99236 15.2462C9.81621 15.4838 9.70249 15.7583 9.66078 16.0465C9.61907 16.3347 9.65058 16.6283 9.75267 16.9024H7.10265C6.93565 16.9024 6.7703 16.8711 6.61606 16.8101C6.46182 16.7491 6.32173 16.6597 6.2038 16.547C6.08587 16.4344 5.99243 16.3007 5.92882 16.1536C5.86522 16.0064 5.8327 15.8488 5.83313 15.6897V13.1764C6.12007 13.2721 6.4269 13.3009 6.72793 13.2605C7.02896 13.22 7.31544 13.1114 7.56339 12.9438C7.81134 12.7762 8.01355 12.5544 8.15309 12.2971C8.29264 12.0397 8.36546 11.7543 8.36546 11.4646C8.36546 11.1749 8.29264 10.8895 8.15309 10.6321C8.01355 10.3748 7.81134 10.153 7.56339 9.98539C7.31544 9.81777 7.02896 9.70919 6.72793 9.66872C6.4269 9.62825 6.12007 9.65708 5.83313 9.75278V7.22776C5.83313 6.90695 5.96689 6.59927 6.20497 6.37242C6.44304 6.14557 6.76595 6.01813 7.10265 6.01813H9.75185C9.65039 5.74418 9.61942 5.45102 9.66155 5.1633C9.70367 4.87558 9.81766 4.60169 9.99393 4.36465C10.1702 4.12761 10.4036 3.93435 10.6745 3.80109C10.9454 3.66784 11.246 3.59849 11.5509 3.59887L11.5476 3.58398Z" fill="white"/>
</svg>
