<svg width="23" height="23" viewBox="0 0 23 23" fill="none" xmlns="http://www.w3.org/2000/svg">
<path fill-rule="evenodd" clip-rule="evenodd" d="M4.53845 0.566406C2.32931 0.566406 0.538452 2.35727 0.538452 4.56641V18.5664C0.538452 20.7755 2.32931 22.5664 4.53845 22.5664H18.5385C20.7476 22.5664 22.5385 20.7755 22.5385 18.5664V4.56641C22.5385 2.35727 20.7476 0.566406 18.5385 0.566406H4.53845ZM7.58533 8.12891H14.8041C16.7975 8.12891 18.4135 9.74488 18.4135 11.7383C18.4135 13.7317 16.7975 15.3477 14.8041 15.3477H7.58533C5.59192 15.3477 3.97595 13.7317 3.97595 11.7383C3.97595 9.74488 5.59192 8.12891 7.58533 8.12891ZM4.88935 12.8325C5.34848 13.9107 6.4135 14.6048 7.58533 14.5894C9.16606 14.5686 10.4366 13.2812 10.4364 11.7004C10.4363 10.5284 9.72827 9.47268 8.64406 9.02783C7.55984 8.58298 6.31431 8.83718 5.49112 9.67131C4.66794 10.5054 4.43021 11.7542 4.88935 12.8325Z" fill="#29AA93"/>
</svg>
