<svg width="24" height="23" viewBox="0 0 24 23" fill="none" xmlns="http://www.w3.org/2000/svg">
<rect x="0.307678" y="0.566406" width="22.7692" height="22" rx="4" fill="#A35FF9"/>
<path d="M6.1334 9.33203C5.88813 9.33203 5.28845 9.16688 5.28845 8.91963L5.28845 8.11162C5.28845 7.86437 5.88813 7.70108 6.1334 7.69922L12.893 7.69922L12.893 9.33203L6.1334 9.33203ZM14.5829 6.06641L15.4279 6.06641C15.8943 6.06641 16.2728 6.43216 16.2728 6.88281L16.2728 10.1484C16.2728 10.5991 15.8943 10.9648 15.4279 10.9648L14.5829 10.9648C14.1165 10.9648 13.738 10.5991 13.738 10.1484L13.738 6.88281C13.738 6.43216 14.1165 6.06641 14.5829 6.06641ZM12.893 13.0273L12.893 16.293C12.893 16.7436 12.5145 17.1094 12.0481 17.1094L11.2031 17.1094C10.7367 17.1094 10.3582 16.7436 10.3582 16.293L10.3582 13.0273C10.3582 12.5767 10.7367 12.2109 11.2031 12.2109L12.0481 12.2109C12.5145 12.2109 12.893 12.5767 12.893 13.0273ZM6.1334 15.4766C5.88813 15.4766 5.28845 15.3114 5.28845 15.0642L5.28845 14.2562C5.28845 14.0089 5.88813 13.8456 6.1334 13.8437L9.51321 13.8437L9.51321 15.4766L6.1334 15.4766ZM17.9627 13.8437C18.208 13.8456 18.8077 14.0089 18.8077 14.2562L18.8077 15.0642C18.8077 15.3114 18.208 15.4766 17.9627 15.4766L13.738 15.4766L13.738 13.8437L17.9627 13.8437ZM17.9627 7.69922C18.208 7.70108 18.8077 7.86437 18.8077 8.11162L18.8077 8.91963C18.8077 9.16688 18.208 9.33203 17.9627 9.33203L17.1178 9.33203L17.1178 7.69922L17.9627 7.69922Z" fill="white"/>
</svg>
