<svg width="24" height="23" viewBox="0 0 24 23" fill="none" xmlns="http://www.w3.org/2000/svg">
<rect x="0.538452" y="0.566406" width="22.7692" height="22" rx="4" fill="#FF8058"/>
<path d="M11.9262 11.0071C11.7952 11.0024 11.6689 10.97 11.5522 10.9129L6.81843 8.76028C6.42048 8.58887 6.24148 8.13797 6.41888 7.75346C6.49879 7.58052 6.64103 7.44308 6.81843 7.36742L11.3173 5.31056C11.5073 5.22437 11.7147 5.17969 11.9246 5.17969C12.1345 5.17969 12.3419 5.22437 12.5319 5.31056L17.0324 7.36742C17.4304 7.53882 17.6094 7.98973 17.432 8.37423C17.352 8.54718 17.2098 8.68461 17.0324 8.76028L12.2986 10.9113C12.1835 10.97 12.0557 11.0024 11.9262 11.0071ZM10.7036 17.9945C10.5821 17.9945 10.4623 17.9652 10.3552 17.9096L6.07847 15.9716C5.80678 15.8342 5.63897 15.5624 5.64217 15.2675V10.3261C5.64376 10.0481 5.79719 9.79334 6.04331 9.65127C6.27185 9.52619 6.55153 9.52619 6.78007 9.65127L11.0488 11.5877C11.3061 11.722 11.4707 11.9799 11.4819 12.2625V17.2101C11.4787 17.4865 11.3285 17.7413 11.084 17.8849C10.9689 17.9513 10.8379 17.9899 10.7036 17.9945ZM13.1472 17.9945C13.0146 17.9945 12.8835 17.9606 12.7669 17.8972C12.5223 17.7536 12.3721 17.4988 12.3689 17.2224V12.261C12.3753 11.9799 12.5351 11.7236 12.7876 11.5861L17.0851 9.63738C17.3121 9.52156 17.587 9.52774 17.8075 9.65436C18.0552 9.79488 18.2071 10.0512 18.2087 10.3292V15.2675C18.2151 15.5593 18.0536 15.8311 17.7899 15.9716L13.4972 17.9111C13.3886 17.9667 13.2687 17.9961 13.1472 17.9945Z" fill="white"/>
</svg>
