<svg width="24" height="23" viewBox="0 0 24 23" fill="none" xmlns="http://www.w3.org/2000/svg">
<path fill-rule="evenodd" clip-rule="evenodd" d="M2.76923 0.566406C1.66466 0.566406 0.769226 1.46184 0.769226 2.56641V20.5664C0.769226 21.671 1.66466 22.5664 2.76923 22.5664H21.5385C22.643 22.5664 23.5385 21.671 23.5385 20.5664V2.56641C23.5385 1.46184 22.643 0.566406 21.5385 0.566406H2.76923ZM12.4896 15.906H15.0511C15.2869 15.906 15.478 16.0881 15.478 16.3128C15.478 16.5375 15.2869 16.7196 15.0511 16.7196H9.07419C8.83841 16.7196 8.64727 16.5375 8.64727 16.3128C8.64727 16.0881 8.83841 15.906 9.07419 15.906H11.6357V14.8213H6.93502C6.78406 14.8204 6.63966 14.7623 6.53371 14.6598C6.42776 14.5574 6.36898 14.4189 6.37032 14.2751V7.23172C6.37032 6.93016 6.62935 6.68555 6.93502 6.68555H17.1903C17.5022 6.68555 17.755 6.92908 17.755 7.23172V14.2751C17.755 14.5766 17.496 14.8213 17.1903 14.8213H12.4896V15.906ZM8.64728 9.39844H15.478V10.4832H8.64728V9.39844Z" fill="#2E7FFF"/>
</svg>
