<svg width="23" height="23" viewBox="0 0 23 23" fill="none" xmlns="http://www.w3.org/2000/svg">
<rect x="0.538574" y="0.566406" width="22" height="22" rx="2" fill="#29AA93"/>
<path d="M9.41553 8.50785C9.75409 8.50785 10.0893 8.57453 10.4021 8.70409C10.7149 8.83366 10.9991 9.02356 11.2385 9.26296C11.4779 9.50236 11.6678 9.78657 11.7974 10.0994C11.927 10.4122 11.9937 10.7474 11.9937 11.086V11.9453C11.9937 12.6291 11.722 13.2849 11.2385 13.7684C10.755 14.2518 10.0993 14.5235 9.41553 14.5235C8.73177 14.5235 8.07601 14.2518 7.59252 13.7684C7.10903 13.2849 6.8374 12.6291 6.8374 11.9453V11.086C6.8374 10.4022 7.10903 9.74645 7.59252 9.26296C8.07601 8.77947 8.73177 8.50785 9.41553 8.50785ZM6.88295 14.27C7.20463 14.6212 7.59597 14.9016 8.03201 15.0932C8.46806 15.2848 8.93924 15.3834 9.41553 15.3828C9.89181 15.3834 10.363 15.2848 10.799 15.0932C11.2351 14.9016 11.6264 14.6212 11.9481 14.27C13.1295 14.8725 14.0591 15.8743 14.5718 17.0973V17.5313C14.5718 17.7592 14.4812 17.9778 14.3201 18.139C14.1589 18.3001 13.9403 18.3907 13.7124 18.3907H5.11865C4.89073 18.3907 4.67215 18.3001 4.51098 18.139C4.34982 17.9778 4.25928 17.7592 4.25928 17.5313V17.0977C4.7719 15.8745 5.7015 14.8726 6.88295 14.27ZM12.4844 13.4952C12.7144 13.0409 12.8401 12.5409 12.8522 12.0317C12.8814 12.0167 12.9106 12.0016 12.9403 11.9875C13.4976 12.5133 14.2352 12.8058 15.0015 12.8047C15.7677 12.8058 16.5053 12.5133 17.0627 11.9875C18.0494 12.4671 18.8394 13.2739 19.2983 14.2704V14.5235C19.2983 14.7514 19.2078 14.97 19.0466 15.1311C18.8855 15.2923 18.6669 15.3828 18.439 15.3828H14.6788C14.1048 14.5908 13.3533 13.9443 12.4844 13.4952ZM15.0015 6.7891C15.5713 6.7891 16.1177 7.01545 16.5206 7.41836C16.9236 7.82127 17.1499 8.36773 17.1499 8.93753V9.79691C17.1498 10.3667 16.9235 10.9131 16.5206 11.316C16.1177 11.7188 15.5712 11.9451 15.0015 11.9451C14.4317 11.9451 13.8853 11.7188 13.4824 11.316C13.0795 10.9131 12.8531 10.3667 12.853 9.79691V8.93753C12.853 8.36773 13.0794 7.82127 13.4823 7.41836C13.8852 7.01545 14.4317 6.7891 15.0015 6.7891ZM6.71279 7.29054C7.38654 6.88019 8.08822 6.57726 8.81912 6.38132C9.54959 6.18539 10.3093 6.09687 11.0973 6.11578C11.1901 6.11797 11.2796 6.15013 11.3526 6.20745C11.4255 6.26476 11.478 6.34415 11.5021 6.43375L11.5317 6.54418C11.5443 6.59153 11.5458 6.64116 11.536 6.68918C11.5263 6.73719 11.5055 6.78231 11.4755 6.82099C11.4454 6.85968 11.4068 6.89089 11.3627 6.91219C11.3185 6.93349 11.2701 6.9443 11.2211 6.94378C10.4856 6.9324 9.75212 7.02248 9.04127 7.21148C8.33129 7.40327 7.65114 7.69201 7.02002 8.06957C6.97786 8.09459 6.93049 8.10952 6.8816 8.11317C6.83271 8.11682 6.78364 8.10911 6.73823 8.09063C6.69282 8.07215 6.65231 8.04341 6.61987 8.00666C6.58743 7.9699 6.56393 7.92614 6.55123 7.87878L6.52158 7.76836C6.49765 7.6787 6.50338 7.5837 6.53792 7.49757C6.57247 7.41144 6.63354 7.33881 6.71279 7.29054Z" fill="white"/>
</svg>
