<svg width="24" height="22" viewBox="0 0 24 22" fill="none" xmlns="http://www.w3.org/2000/svg">
<path fill-rule="evenodd" clip-rule="evenodd" d="M2.46155 0C1.35698 0 0.461548 0.89543 0.461548 2V20C0.461548 21.1046 1.35698 22 2.46155 22H21.2308C22.3353 22 23.2308 21.1046 23.2308 20V2C23.2308 0.895431 22.3353 0 21.2308 0H2.46155ZM12.4235 3.78804C12.1528 3.65431 11.8525 3.58433 11.5476 3.58398L11.5509 3.59887C11.246 3.59849 10.9454 3.66784 10.6745 3.80109C10.4036 3.93435 10.1702 4.12761 9.99393 4.36465C9.81766 4.60169 9.70367 4.87558 9.66155 5.1633C9.61942 5.45102 9.65039 5.74418 9.75185 6.01813H7.10265C6.76595 6.01813 6.44304 6.14557 6.20497 6.37242C5.96689 6.59927 5.83313 6.90695 5.83313 7.22776V9.75278C6.12007 9.65708 6.4269 9.62825 6.72793 9.66872C7.02896 9.70919 7.31544 9.81777 7.56339 9.98539C7.81134 10.153 8.01355 10.3748 8.15309 10.6321C8.29264 10.8895 8.36546 11.1749 8.36546 11.4646C8.36546 11.7543 8.29264 12.0397 8.15309 12.2971C8.01355 12.5544 7.81134 12.7762 7.56339 12.9438C7.31544 13.1114 7.02896 13.22 6.72793 13.2605C6.4269 13.3009 6.12007 13.2721 5.83313 13.1764V15.6897C5.8327 15.8488 5.86522 16.0064 5.92882 16.1536C5.99243 16.3007 6.08587 16.4344 6.2038 16.5471C6.32173 16.6597 6.46182 16.7491 6.61606 16.8101C6.7703 16.8711 6.93565 16.9025 7.10265 16.9024H9.75267C9.65058 16.6283 9.61907 16.3347 9.66078 16.0465C9.70249 15.7583 9.81621 15.4838 9.99236 15.2462C10.1685 15.0085 10.402 14.8147 10.6731 14.6809C10.9442 14.547 11.2451 14.4772 11.5505 14.4772C11.8558 14.4772 12.1567 14.547 12.4278 14.6809C12.6989 14.8147 12.9324 15.0085 13.1086 15.2462C13.2847 15.4838 13.3984 15.7583 13.4401 16.0465C13.4818 16.3347 13.4503 16.6283 13.3482 16.9024H15.9933C16.1603 16.9025 16.3257 16.8711 16.4799 16.8101C16.6342 16.7491 16.7743 16.6597 16.8922 16.5471C17.0101 16.4344 17.1035 16.3007 17.1672 16.1536C17.2308 16.0064 17.2633 15.8488 17.2628 15.6897V13.1647C17.5507 13.2626 17.8591 13.2931 18.1619 13.2537C18.4648 13.2144 18.7532 13.1062 19.0031 12.9385C19.2529 12.7707 19.4567 12.5481 19.5975 12.2896C19.7382 12.0311 19.8116 11.7441 19.8116 11.4528C19.8116 11.1616 19.7382 10.8746 19.5975 10.6161C19.4567 10.3576 19.2529 10.135 19.0031 9.96724C18.7532 9.79945 18.4648 9.69131 18.1619 9.65195C17.8591 9.61258 17.5507 9.64314 17.2628 9.74103V7.21601C17.2628 7.05716 17.23 6.89986 17.1662 6.7531C17.1024 6.60634 17.0089 6.473 16.891 6.36067C16.7731 6.24835 16.6332 6.15925 16.4792 6.09846C16.3251 6.03767 16.16 6.00638 15.9933 6.00638H13.3441C13.4456 5.73243 13.4766 5.43931 13.4347 5.15157C13.3928 4.86383 13.2791 4.58986 13.1031 4.35262C12.9272 4.11538 12.6941 3.92178 12.4235 3.78804Z" fill="#A35FF9"/>
</svg>
