<svg width="24" height="24" viewBox="0 0 24 24" fill="none" xmlns="http://www.w3.org/2000/svg">
    <path d="M0 4C0 1.79086 1.79086 0 4 0H20C22.2091 0 24 1.79086 24 4V20C24 22.2091 22.2091 24 20 24H4C1.79086 24 0 22.2091 0 20V4Z" fill="#007AFF"/>
    <g clip-path="url(#clip0_650_1861)">
        <path d="M12 19.5C16.1421 19.5 19.5 16.1421 19.5 12C19.5 7.85786 16.1421 4.5 12 4.5C7.85786 4.5 4.5 7.85786 4.5 12C4.5 16.1421 7.85786 19.5 12 19.5Z" fill="white" stroke="white" stroke-width="1.5"/>
        <path d="M8.625 15.375L10.3125 10.3125L15.375 8.625L13.6875 13.6875L8.625 15.375Z" stroke="#007AFF" stroke-width="1.5"/>
        <path fill-rule="evenodd" clip-rule="evenodd" d="M12 12.75C12.4142 12.75 12.75 12.4142 12.75 12C12.75 11.5858 12.4142 11.25 12 11.25C11.5858 11.25 11.25 11.5858 11.25 12C11.25 12.4142 11.5858 12.75 12 12.75Z" fill="#007AFF"/>
    </g>
    <defs>
        <clipPath id="clip0_650_1861">
            <rect width="18" height="18" fill="white" transform="translate(3 3)"/>
        </clipPath>
    </defs>
</svg>
