<svg width="23" height="22" viewBox="0 0 23 22" fill="none" xmlns="http://www.w3.org/2000/svg">
<path fill-rule="evenodd" clip-rule="evenodd" d="M4 0C1.79086 0 0 1.79086 0 4V18C0 20.2091 1.79086 22 4 22H18.7692C20.9784 22 22.7692 20.2091 22.7692 18V4C22.7692 1.79086 20.9784 0 18.7692 0H4ZM4.98077 7.90625H17.7885V5.32812C17.7885 5.04453 17.5483 4.8125 17.2548 4.8125H5.51443C5.22092 4.8125 4.98077 5.04453 4.98077 5.32812V7.90625ZM5.51443 17.1875H8.1827V8.9375H4.98077V16.6719C4.98077 16.9555 5.22092 17.1875 5.51443 17.1875ZM9.25 17.1875H17.2548C17.5483 17.1875 17.7885 16.9555 17.7885 16.6719V8.9375H9.25V17.1875Z" fill="#29AA93"/>
</svg>
