<svg xmlns="http://www.w3.org/2000/svg" width="28" height="20">
    <defs>
        <linearGradient id="a" x1="-130%" x2="135%" y1="136.25%" y2="8.75%">
            <stop offset="0%" stop-color="#2E7FFF"></stop>
            <stop offset="100%" stop-color="#5DBDFF"></stop>
        </linearGradient>
        <linearGradient id="b" x1="-11.364%" x2="100.45%" y1="88.636%" y2="9.99%">
            <stop offset="0%" stop-color="#2E7FFF"></stop>
            <stop offset="100%" stop-color="#6CDCFF"></stop>
        </linearGradient>
        <linearGradient id="c" x1="-847.379%" x2="115.023%" y1="460.717%" y2="-128.435%">
            <stop offset="0%" stop-color="#2E7FFF"></stop>
            <stop offset="100%" stop-color="#6CDCFF"></stop>
        </linearGradient>
    </defs>
    <g fill="none" fill-rule="evenodd">
        <path fill="url(#a)"
            d="M24.281 7.75h1.172L22.778.433a.279.279 0 0 0-.262-.183H20.99a.279.279 0 0 0-.262.181L18 7.75h1.16a.837.837 0 0 0 .795-.577l.373-1.142h2.777l.382 1.146a.837.837 0 0 0 .794.573Zm-2.428-5.554.868 2.6h-2.038l.874-2.619a2.73 2.73 0 0 0 .133-.634h.044c.023.27.063.489.118.653h.001ZM28 6.913V.25h-1.628v7.5h.791A.837.837 0 0 0 28 6.913Z"></path>
        <path fill="url(#b)"
            d="M18.849 3.239A4.57 4.57 0 0 0 17.387 3H4.613C2.07 3 0 5.08 0 7.636v10.105c0 .773.355 1.486 1.005 1.902.355.238.77.357 1.183.357.355 0 .65-.119.946-.238l3.963-1.783a9.711 9.711 0 0 1 4.08-.892h6.21c2.543 0 4.613-2.08 4.613-4.636V7.636c0-.28-.025-.556-.073-.823h-1.032l-.198.603a1.618 1.618 0 0 1-1.538 1.115H18a.781.781 0 0 1-.732-1.054l1.58-4.238h.001Zm-13.64 7.47a1.015 1.015 0 0 1 .544-1.32 1 1 0 0 1 1.314.547 1.015 1.015 0 0 1-.544 1.32 1 1 0 0 1-1.314-.546v-.001Zm4.516 0a1.015 1.015 0 0 1 .544-1.32 1.001 1.001 0 0 1 1.314.547 1.016 1.016 0 0 1-.544 1.32 1 1 0 0 1-1.314-.546v-.001Zm4.94-.386a1.005 1.005 0 0 0 2.01 0c0-.268-.106-.525-.295-.715a1.003 1.003 0 0 0-1.716.715h.001Z"></path>
        <path fill="url(#c)" fill-rule="nonzero"
            d="M19.16 7.75a.837.837 0 0 0 .795-.577l.373-1.142h1.387-1.387l-.373 1.142a.837.837 0 0 1-.796.577h.001Z"></path>
    </g>
</svg>
