<svg width="17" height="17" viewBox="0 0 17 17" fill="none" xmlns="http://www.w3.org/2000/svg">
<path d="M3.42969 1.40625C3.42969 0.853965 3.8774 0.40625 4.42969 0.40625H15.4297C15.982 0.40625 16.4297 0.853965 16.4297 1.40625V11.4062C16.4297 11.9585 15.982 12.4062 15.4297 12.4062H4.42969C3.8774 12.4062 3.42969 11.9585 3.42969 11.4062V1.40625Z" fill="#FFE2E0"/>
<path fill-rule="evenodd" clip-rule="evenodd" d="M7.42969 5.30261H14.2868V4.07812H7.42969V5.30261ZM7.42969 8.36316H14.2868V7.13867H7.42969V8.36316Z" fill="white"/>
<path d="M0.429688 4.28711C0.429688 3.73482 0.877403 3.28711 1.42969 3.28711H8.57254C9.12483 3.28711 9.57254 3.73482 9.57254 4.28711V14.8585C9.57254 15.4108 9.12483 15.8585 8.57254 15.8585H0.429688V4.28711Z" fill="#FC918A"/>
<path d="M6.14453 3.28711H9.5731V6.71568L7.85882 5.00139L6.14453 3.28711Z" fill="#E6716A"/>
<path d="M6.82969 0.8125C5.5042 0.8125 4.42969 1.88702 4.42969 3.2125V10.4125C4.42969 10.9841 4.73465 11.5123 5.22969 11.7981C5.72473 12.084 6.33465 12.084 6.82969 11.7981C7.32473 11.5123 7.62969 10.9841 7.62969 10.4125V6.14583C7.62969 5.95529 7.52803 5.77922 7.36302 5.68395C7.19801 5.58868 6.9947 5.58868 6.82969 5.68395C6.66467 5.77922 6.56302 5.95529 6.56302 6.14583V10.4125C6.56302 10.603 6.46137 10.7791 6.29635 10.8744C6.13134 10.9697 5.92803 10.9697 5.76302 10.8744C5.59801 10.7791 5.49635 10.603 5.49635 10.4125V3.2125C5.49635 2.47612 6.09331 1.87917 6.82969 1.87917C7.56607 1.87917 8.16302 2.47612 8.16302 3.2125V3.32089H9.22969V3.2125C9.22969 1.88702 8.15517 0.8125 6.82969 0.8125Z" fill="white"/>
</svg>
