<svg width="14" height="14" viewBox="0 0 14 14" fill="none" xmlns="http://www.w3.org/2000/svg">
<path d="M13.6494 3.36914L-0.00015831 3.36914L2.53372 0.00097272L11.1098 0.000973661L13.6494 3.36914Z" fill="#FFE2E0"/>
<path d="M0.000976562 3.37109H13.6505V11.6519C13.6505 12.7564 12.7551 13.6519 11.6505 13.6519H2.00098C0.896408 13.6519 0.000976562 12.7564 0.000976562 11.6519V3.37109Z" fill="#FC918A"/>
<rect x="6.60254" y="0.580078" width="0.584982" height="2.00158" rx="0.292491" fill="white"/>
<path d="M5.45182 9.64949C5.37048 9.56815 5.38404 9.44615 5.45182 9.36481L6.8074 8.00924C6.90229 7.91435 6.91584 7.75168 6.8074 7.62967C6.69895 7.50767 6.50917 7.52123 6.40072 7.62967L4.76047 9.29704C4.39446 9.66304 4.39446 10.2731 4.76047 10.6391L4.77403 10.6526C5.14003 11.0186 5.75004 11.0186 6.11605 10.6526L9.05766 7.71101C9.42366 7.345 9.42366 6.73499 9.05766 6.36899L9.0441 6.35543C8.67809 5.98942 8.06808 5.98942 7.70208 6.35543L7.68852 6.36899C7.62074 6.43676 7.52585 6.45032 7.44452 6.3961C7.2954 6.31476 7.13273 6.24698 6.97006 6.20632C6.86162 6.17921 6.83451 6.0572 6.90229 5.97587C7.01073 5.86742 7.11918 5.77253 7.11918 5.77253C7.81052 5.08119 8.93565 5.08119 9.627 5.77253L9.627 5.79964C10.3183 6.49099 10.3183 7.61612 9.627 8.30746L6.69895 11.2491C6.0076 11.9404 4.88247 11.9404 4.19113 11.2491L4.16402 11.222C3.47267 10.5306 3.47267 9.41904 4.16402 8.72769L5.83138 7.04678C6.26516 6.61299 6.97006 6.62655 7.40385 7.07389C7.82408 7.50767 7.79697 8.21257 7.36318 8.6328L6.03472 9.96127C5.95338 10.0426 5.81782 10.0426 5.73649 9.96127L5.45182 9.64949Z" fill="white"/>
</svg>
