<svg width="17" height="16" viewBox="0 0 17 16" fill="none" xmlns="http://www.w3.org/2000/svg">
<path d="M5.09375 1.0957H15.6652C15.9413 1.0957 16.1652 1.31956 16.1652 1.5957V14.4528C16.1652 14.729 15.9413 14.9528 15.6652 14.9528H5.09375C4.81761 14.9528 4.59375 14.729 4.59375 14.4528V1.5957C4.59375 1.31956 4.81761 1.0957 5.09375 1.0957Z" stroke="#D5DBE9"/>
<path fill-rule="evenodd" clip-rule="evenodd" d="M13.24 5.49207H6.38281V4.26758H13.24V5.49207ZM13.24 8.55248H6.38281V7.32799H13.24V8.55248ZM6.38281 11.615H13.24V10.3905H6.38281V11.615Z" fill="#E6EAF1"/>
<path d="M0.667969 3.88086C0.667969 3.32857 1.11568 2.88086 1.66797 2.88086H8.81082C9.36311 2.88086 9.81083 3.32857 9.81083 3.88086V14.4523C9.81083 15.0046 9.36311 15.4523 8.81083 15.4523H0.667969V3.88086Z" fill="#9EA3B0"/>
<path fill-rule="evenodd" clip-rule="evenodd" d="M5.19057 6C6.05398 6 6.75391 6.69993 6.75391 7.56333L6.75391 11.1367C6.75391 12.0001 6.05398 12.7 5.19057 12.7C4.32717 12.7 3.62724 12.0001 3.62724 11.1367L3.62724 10.0944C3.62724 9.88887 3.79389 9.72222 3.99946 9.72222C4.20503 9.72222 4.37168 9.88887 4.37168 10.0944L4.37168 11.1367C4.37168 11.5889 4.73831 11.9556 5.19057 11.9556C5.64283 11.9556 6.00946 11.5889 6.00946 11.1367L6.00946 7.56333C6.00946 7.11107 5.64283 6.74444 5.19057 6.74444C4.73831 6.74444 4.37168 7.11107 4.37168 7.56333L4.37168 7.86111C4.37168 8.06668 4.20503 8.23333 3.99946 8.23333C3.79389 8.23333 3.62724 8.06668 3.62724 7.86111L3.62724 7.56333C3.62724 6.69993 4.32717 6 5.19057 6Z" fill="white"/>
<path fill-rule="evenodd" clip-rule="evenodd" d="M4.81806 9.44935C4.81806 9.326 4.71807 9.22601 4.59472 9.22601C4.47138 9.22601 4.37139 9.326 4.37139 9.44935L4.37139 10.3427L3.62694 10.3427L3.62694 9.44935C3.62694 8.91486 4.06023 8.48157 4.59472 8.48157C5.12921 8.48157 5.5625 8.91486 5.5625 9.44935L5.5625 10.3427C5.5625 10.5482 5.39585 10.7149 5.19028 10.7149C4.98471 10.7149 4.81806 10.5482 4.81806 10.3427L4.81806 9.44935Z" fill="white"/>
<path d="M6.38281 2.88086H9.81138V6.30943L8.0971 4.59514L6.38281 2.88086Z" fill="#838487"/>
</svg>
