<svg width="16" height="17" viewBox="0 0 16 17" fill="none" xmlns="http://www.w3.org/2000/svg">
<path d="M6.74219 1.14746H15.0007C15.2768 1.14746 15.5007 1.37132 15.5007 1.64746V11.7711C15.5007 12.0473 15.2768 12.2711 15.0007 12.2711H6.74219C6.46604 12.2711 6.24219 12.0473 6.24219 11.7711V1.64746C6.24219 1.37132 6.46605 1.14746 6.74219 1.14746Z" stroke="#D5E5FF"/>
<path d="M0 4.22925C0 3.67696 0.447715 3.22925 1 3.22925H12.3945V15.6475C12.3945 16.1998 11.9468 16.6475 11.3945 16.6475H0V4.22925Z" fill="#66A2FF"/>
<path d="M5.98438 5.31506V14.0382" stroke="#FCFDFE" stroke-linecap="round"/>
<path d="M8.76172 7.99829L6.01303 5.2496C5.97398 5.21055 5.91066 5.21055 5.87161 5.2496L3.23613 7.88508" stroke="#FCFDFE" stroke-linecap="round"/>
<path d="M8.66016 3.22925H12.3945V6.96362L10.5919 5.03189L8.66016 3.22925Z" fill="#2E7FFF"/>
</svg>
