<svg width="32" height="32" viewBox="0 0 32 32" fill="none" xmlns="http://www.w3.org/2000/svg">
<circle cx="16" cy="16" r="16" fill="#EEF6FF"/>
<circle cx="16" cy="16" r="13.5" fill="white" stroke="#D9EAFF"/>
<g opacity="0.9">
<path fill-rule="evenodd" clip-rule="evenodd" d="M11.7574 9.75931C12.8826 8.63409 14.4087 8.00195 16 8.00195C17.5913 8.00195 19.1174 8.63409 20.2426 9.75931C21.3679 10.8845 22 12.4107 22 14.002C22 15.313 21.4975 16.642 20.4695 17.5729L20.3409 17.7012C19.6341 18.4058 19.1283 18.9101 18.9903 19.6C18.9361 19.8708 18.6727 20.0464 18.4019 19.9922C18.1312 19.9381 17.9556 19.6747 18.0097 19.4039C18.2104 18.4002 18.9393 17.6799 19.5884 17.0384C19.6503 16.9772 19.7115 16.9167 19.7714 16.8567C19.7776 16.8505 19.784 16.8445 19.7905 16.8386C20.5891 16.12 21 15.07 21 14.002C21 12.6759 20.4732 11.4041 19.5355 10.4664C18.5979 9.52874 17.3261 9.00195 16 9.00195C14.6739 9.00195 13.4021 9.52874 12.4645 10.4664C11.5268 11.4041 11 12.6759 11 14.002C11 14.8207 11.1527 15.7808 12.2286 16.8567C12.2746 16.9028 12.3225 16.9503 12.3717 16.999C12.6513 17.2763 12.973 17.5954 13.2495 17.9403C13.5772 18.3491 13.8765 18.835 13.9903 19.4039C14.0444 19.6747 13.8688 19.9381 13.5981 19.9922C13.3273 20.0464 13.0639 19.8708 13.0097 19.6C12.9402 19.2523 12.7478 18.9132 12.4693 18.5657C12.2316 18.2692 11.9565 17.9962 11.6758 17.7174C11.6245 17.6666 11.5729 17.6153 11.5214 17.5638C10.214 16.2564 10 15.0165 10 14.002C10 12.4107 10.6321 10.8845 11.7574 9.75931Z" fill="#3382FF"/>
<path fill-rule="evenodd" clip-rule="evenodd" d="M13 21.502C13 21.2258 13.2239 21.002 13.5 21.002H18.5C18.7761 21.002 19 21.2258 19 21.502C19 21.7781 18.7761 22.002 18.5 22.002H13.5C13.2239 22.002 13 21.7781 13 21.502Z" fill="#3382FF"/>
<path fill-rule="evenodd" clip-rule="evenodd" d="M18 23.502C18 23.7781 17.7761 24.002 17.5 24.002H14.5C14.2239 24.002 14 23.7781 14 23.502C14 23.2258 14.2239 23.002 14.5 23.002H17.5C17.7761 23.002 18 23.2258 18 23.502Z" fill="#3382FF"/>
<path fill-rule="evenodd" clip-rule="evenodd" d="M16.8536 12.8555C17.0488 12.6602 17.0488 12.3437 16.8536 12.1484C16.6583 11.9531 16.3417 11.9531 16.1464 12.1484L14.1464 14.1484C14.0034 14.2914 13.9607 14.5065 14.0381 14.6933C14.1155 14.8801 14.2978 15.002 14.5 15.002H16.2929L15.1464 16.1484C14.9512 16.3437 14.9512 16.6602 15.1464 16.8555C15.3417 17.0508 15.6583 17.0508 15.8536 16.8555L17.8536 14.8555C17.9966 14.7125 18.0393 14.4974 17.9619 14.3106C17.8845 14.1238 17.7022 14.002 17.5 14.002H15.7071L16.8536 12.8555Z" fill="#3382FF"/>
</g>
</svg>
