<svg width="37" height="41" viewBox="0 0 37 41" fill="none" xmlns="http://www.w3.org/2000/svg">
<path d="M1.75698 1.21021C1.63701 1.01025 1.78104 0.755859 2.01423 0.755859H11.7761C11.8814 0.755859 11.9791 0.811149 12.0333 0.901511L19.5195 13.3784C19.6394 13.5784 19.4954 13.8328 19.2622 13.8328H9.50039C9.39501 13.8328 9.29735 13.7775 9.24314 13.6871L1.75698 1.21021Z" fill="#FFECDB"/>
<path d="M35.2118 1.21021C35.3317 1.01025 35.1877 0.755859 34.9545 0.755859H25.1927C25.0873 0.755859 24.9897 0.811149 24.9354 0.901511L17.4493 13.3784C17.3293 13.5784 17.4734 13.8328 17.7065 13.8328H27.4684C27.5737 13.8328 27.6714 13.7775 27.7256 13.6871L35.2118 1.21021Z" fill="#FFECDB"/>
<g filter="url(#filter0_d_1083_764)">
<circle cx="18.4853" cy="20.37" r="15.6923" fill="#FFF4EA"/>
</g>
<circle cx="18.4844" cy="20.7559" r="12.5" fill="white" stroke="#FFECDB"/>
<circle cx="18.4844" cy="20.7559" r="10" fill="#FFF4EA"/>
<g clip-path="url(#clip0_1083_764)">
<path d="M18.4844 27.7559C14.6183 27.7559 11.4844 24.622 11.4844 20.7559C11.4844 16.8898 14.6183 13.7559 18.4844 13.7559C22.3505 13.7559 25.4844 16.8898 25.4844 20.7559C25.4844 24.622 22.3505 27.7559 18.4844 27.7559ZM19.1844 20.7559V17.2559H17.7844V22.1559H21.9844V20.7559H19.1844Z" fill="#FFBC7E"/>
</g>
<defs>
<filter id="filter0_d_1083_764" x="0.792969" y="4.67773" width="35.3848" height="35.3848" filterUnits="userSpaceOnUse" color-interpolation-filters="sRGB">
<feFlood flood-opacity="0" result="BackgroundImageFix"/>
<feColorMatrix in="SourceAlpha" type="matrix" values="0 0 0 0 0 0 0 0 0 0 0 0 0 0 0 0 0 0 127 0" result="hardAlpha"/>
<feOffset dy="2"/>
<feGaussianBlur stdDeviation="1"/>
<feComposite in2="hardAlpha" operator="out"/>
<feColorMatrix type="matrix" values="0 0 0 0 0.67451 0 0 0 0 0.74902 0 0 0 0 0.862745 0 0 0 0.25 0"/>
<feBlend mode="normal" in2="BackgroundImageFix" result="effect1_dropShadow_1083_764"/>
<feBlend mode="normal" in="SourceGraphic" in2="effect1_dropShadow_1083_764" result="shape"/>
</filter>
<clipPath id="clip0_1083_764">
<rect width="16" height="16" fill="white" transform="translate(10.4844 12.7559)"/>
</clipPath>
</defs>
</svg>
