<svg width="32" height="32" viewBox="0 0 32 32" fill="none" xmlns="http://www.w3.org/2000/svg">
<circle cx="16" cy="16" r="16" fill="#E7F6FF"/>
<circle cx="16" cy="16" r="13.5" fill="white" stroke="#CDECFF"/>
<path fill-rule="evenodd" clip-rule="evenodd" d="M16.0006 10.0769C15.1084 10.0769 14.3852 10.8002 14.3852 11.6923V12.2308C14.3852 12.5282 14.1441 12.7692 13.8468 12.7692C13.5494 12.7692 13.3083 12.5282 13.3083 12.2308V11.6923C13.3083 10.2054 14.5137 9 16.0006 9C17.4875 9 18.6929 10.2054 18.6929 11.6923V12.2308C18.6929 12.5282 18.4518 12.7692 18.1544 12.7692C17.8571 12.7692 17.616 12.5282 17.616 12.2308V11.6923C17.616 10.8002 16.8928 10.0769 16.0006 10.0769Z" fill="#38B4FF"/>
<path fill-rule="evenodd" clip-rule="evenodd" d="M11.6929 14.9231H11.1544C10.2623 14.9231 9.53906 14.1998 9.53906 13.3077V12.7692C9.53906 12.4718 9.78014 12.2308 10.0775 12.2308C10.3749 12.2308 10.616 12.4718 10.616 12.7692V13.3077C10.616 13.6051 10.8571 13.8462 11.1544 13.8462H20.8468C21.1441 13.8462 21.3852 13.6051 21.3852 13.3077V12.7692C21.3852 12.4718 21.6263 12.2308 21.9237 12.2308C22.2211 12.2308 22.4621 12.4718 22.4621 12.7692V13.3077C22.4621 14.1998 21.7389 14.9231 20.8468 14.9231H20.3083V16.5385H21.9237C22.2211 16.5385 22.4621 16.7795 22.4621 17.0769C22.4621 17.3743 22.2211 17.6154 21.9237 17.6154H20.3083V18.6923C20.3083 18.8747 20.297 19.0544 20.275 19.2308H20.8468C21.7389 19.2308 22.4621 19.954 22.4621 20.8462V21.3846C22.4621 21.682 22.2211 21.9231 21.9237 21.9231C21.6263 21.9231 21.3852 21.682 21.3852 21.3846V20.8462C21.3852 20.5488 21.1441 20.3077 20.8468 20.3077H19.9952C19.3561 21.8864 17.8084 23 16.0006 23C14.1928 23 12.6451 21.8864 12.006 20.3077H11.1544C10.8571 20.3077 10.616 20.5488 10.616 20.8462V21.3846C10.616 21.682 10.3749 21.9231 10.0775 21.9231C9.78014 21.9231 9.53906 21.682 9.53906 21.3846V20.8462C9.53906 19.954 10.2623 19.2308 11.1544 19.2308H11.7262C11.7042 19.0544 11.6929 18.8747 11.6929 18.6923V17.6154H10.0775C9.78014 17.6154 9.53906 17.3743 9.53906 17.0769C9.53906 16.7795 9.78014 16.5385 10.0775 16.5385H11.6929V14.9231ZM12.7698 14.9231V18.6923C12.7698 20.4766 14.2163 21.9231 16.0006 21.9231C17.7849 21.9231 19.2314 20.4766 19.2314 18.6923V14.9231H12.7698Z" fill="#38B4FF"/>
</svg>
