<svg width="32" height="32" viewBox="0 0 32 32" fill="none" xmlns="http://www.w3.org/2000/svg">
<circle cx="16" cy="16" r="16" fill="#EEF6FF"/>
<circle cx="16" cy="16" r="13.5" fill="white" stroke="#D9EAFF"/>
<path opacity="0.9" fill-rule="evenodd" clip-rule="evenodd" d="M12 9.5C10.6193 9.5 9.5 10.6193 9.5 12L9.5 20C9.5 21.3807 10.6193 22.5 12 22.5H20C21.3807 22.5 22.5 21.3807 22.5 20V12C22.5 10.6193 21.3807 9.5 20 9.5L12 9.5ZM10.5 12C10.5 11.1716 11.1716 10.5 12 10.5L20 10.5C20.8284 10.5 21.5 11.1716 21.5 12V20C21.5 20.8284 20.8284 21.5 20 21.5H12C11.1716 21.5 10.5 20.8284 10.5 20L10.5 12ZM19.3536 14.3536C19.5488 14.1583 19.5488 13.8417 19.3536 13.6464C19.1583 13.4512 18.8417 13.4512 18.6464 13.6464L15 17.2929L13.3536 15.6464C13.1583 15.4512 12.8417 15.4512 12.6464 15.6464C12.4512 15.8417 12.4512 16.1583 12.6464 16.3536L14.6464 18.3536C14.8417 18.5488 15.1583 18.5488 15.3536 18.3536L19.3536 14.3536Z" fill="#3382FF"/>
</svg>
