<svg width="32" height="32" viewBox="0 0 32 32" fill="none" xmlns="http://www.w3.org/2000/svg">
<circle cx="16" cy="16" r="16" fill="#FFF4EA"/>
<circle cx="16" cy="16" r="13.5" fill="white" stroke="#FFECDB"/>
<path fill-rule="evenodd" clip-rule="evenodd" d="M13.7505 10.5C13.2864 10.5 12.8413 10.6844 12.5131 11.0125C12.185 11.3407 12.0006 11.7857 12.0006 12.2498C12.0006 12.7139 12.185 13.1589 12.5131 13.4871C12.8413 13.8152 13.2864 13.9996 13.7505 13.9996C14.2146 13.9996 14.6597 13.8152 14.9879 13.4871C15.3161 13.1589 15.5004 12.7139 15.5004 12.2498C15.5004 11.7857 15.3161 11.3407 14.9879 11.0125C14.6597 10.6844 14.2146 10.5 13.7505 10.5ZM11.806 10.3054C12.3218 9.7897 13.0212 9.5 13.7505 9.5C14.4798 9.5 15.1793 9.7897 15.695 10.3054C16.2107 10.8211 16.5004 11.5205 16.5004 12.2498C16.5004 12.9791 16.2107 13.6785 15.695 14.1942C15.1793 14.7099 14.4798 14.9996 13.7505 14.9996C13.0212 14.9996 12.3218 14.7099 11.806 14.1942C11.2903 13.6785 11.0006 12.9791 11.0006 12.2498C11.0006 11.5205 11.2903 10.8211 11.806 10.3054ZM19.7503 12.4998C19.4188 12.4998 19.1009 12.6315 18.8665 12.8659C18.632 13.1003 18.5004 13.4182 18.5004 13.7496C18.5004 14.0811 18.632 14.399 18.8665 14.6334C19.1009 14.8678 19.4188 14.9995 19.7503 14.9995C20.0818 14.9995 20.3997 14.8678 20.6342 14.6334C20.8686 14.399 21.0002 14.0811 21.0002 13.7496C21.0002 13.4182 20.8686 13.1003 20.6342 12.8659C20.3997 12.6315 20.0818 12.4998 19.7503 12.4998ZM18.1594 12.1588C18.5813 11.7368 19.1536 11.4998 19.7503 11.4998C20.347 11.4998 20.9193 11.7368 21.3412 12.1588C21.7632 12.5807 22.0002 13.1529 22.0002 13.7496C22.0002 14.3464 21.7632 14.9186 21.3412 15.3405C20.9193 15.7625 20.347 15.9995 19.7503 15.9995C19.1536 15.9995 18.5813 15.7625 18.1594 15.3405C17.7374 14.9186 17.5004 14.3464 17.5004 13.7496C17.5004 13.1529 17.7374 12.5807 18.1594 12.1588ZM15.2408 17.3062C14.4768 16.9752 13.6243 16.9078 12.8178 17.1148C12.0113 17.3217 11.2966 17.7912 10.7864 18.4491C10.3198 19.0509 10.0485 19.7791 10.0059 20.5361C11.1156 21.1495 12.3915 21.4989 13.7498 21.4989L13.7507 21.4989C15.0616 21.5011 16.3499 21.1691 17.4944 20.5365C17.4622 19.9607 17.3001 19.4202 17.0377 18.9437L17.0374 18.943C16.6369 18.2131 16.0048 17.6372 15.2408 17.3062ZM18.1572 21.3099C16.8204 22.0906 15.299 22.5014 13.7494 22.4989C12.1022 22.4988 10.5596 22.0427 9.24279 21.25C9.09394 21.1604 9.00228 21 9.00069 20.8262L9.00002 20.7536L9 20.7493C8.99943 19.6946 9.3499 18.6698 9.99616 17.8364C10.6424 17.0029 11.5477 16.4083 12.5693 16.1461C13.5909 15.884 14.6706 15.9693 15.6384 16.3886C16.39 16.7143 17.0409 17.2271 17.5318 17.8732C17.8669 17.5602 18.2664 17.3198 18.7058 17.1707C19.3751 16.9436 20.1002 16.9409 20.7712 17.1629C21.4422 17.385 22.0225 17.8197 22.4241 18.4012C22.8258 18.9828 23.027 19.6794 22.9971 20.3855C22.9893 20.5686 22.8821 20.7328 22.7175 20.8134C21.7938 21.2658 20.7787 21.5004 19.7502 21.499C19.2132 21.4995 18.6785 21.4359 18.1572 21.3099ZM19.7502 21.499C19.75 21.499 19.7498 21.499 19.7496 21.499L19.7503 20.999L19.7508 21.499C19.7506 21.499 19.7504 21.499 19.7502 21.499ZM18.064 18.7586C18.2922 19.2523 18.4384 19.7921 18.4846 20.3595C18.8995 20.4525 19.3238 20.4994 19.7498 20.499H19.751C20.5216 20.5001 21.2833 20.3456 21.9909 20.0461C21.9562 19.6613 21.8228 19.2902 21.6013 18.9696C21.3233 18.567 20.9215 18.266 20.457 18.1123C19.9925 17.9586 19.4905 17.9605 19.0271 18.1177C18.6541 18.2442 18.3226 18.4659 18.064 18.7586ZM13.7494 22.4989C13.7493 22.4989 13.7491 22.4989 13.749 22.4989L13.7498 21.9989V22.4989C13.7497 22.4989 13.7496 22.4989 13.7494 22.4989Z" fill="#FF9839"/>
</svg>
