<svg width="37" height="41" viewBox="0 0 37 41" fill="none" xmlns="http://www.w3.org/2000/svg">
<path d="M1.7228 1.43091C1.60283 1.23095 1.74686 0.976562 1.98005 0.976563L11.7419 0.976563C11.8473 0.976563 11.9449 1.03185 11.9991 1.12221L19.4853 13.5991C19.6053 13.7991 19.4612 14.0535 19.228 14.0535H9.46621C9.36083 14.0535 9.26318 13.9982 9.20896 13.9078L1.7228 1.43091Z" fill="#D5E5FF"/>
<path d="M35.1776 1.43091C35.2976 1.23095 35.1535 0.976562 34.9203 0.976562L25.1585 0.976562C25.0531 0.976562 24.9555 1.03185 24.9013 1.12221L17.4151 13.5991C17.2951 13.7991 17.4392 14.0535 17.6724 14.0535H27.4342C27.5396 14.0535 27.6372 13.9982 27.6914 13.9078L35.1776 1.43091Z" fill="#D5E5FF"/>
<g filter="url(#filter0_d_37_263)">
<circle cx="18.4501" cy="20.5907" r="15.6923" fill="#EEF5FF"/>
</g>
<circle cx="18.4502" cy="20.9766" r="12.5" fill="white" stroke="#D5E5FF"/>
<circle cx="18.4502" cy="20.9766" r="10" fill="#D5E5FF"/>
<path d="M15.0537 19.9492H21.8464V23.0996C21.8464 24.9795 20.5586 26.6147 18.7311 27.0553C16.5908 26.6182 15.0537 24.7353 15.0537 22.5509V19.9492Z" fill="#66A2FF"/>
<path fill-rule="evenodd" clip-rule="evenodd" d="M18.4502 15.5547C17.6218 15.5547 16.9502 16.2263 16.9502 17.0547V17.5547C16.9502 17.8308 16.7263 18.0547 16.4502 18.0547C16.1741 18.0547 15.9502 17.8308 15.9502 17.5547V17.0547C15.9502 15.674 17.0695 14.5547 18.4502 14.5547C19.8309 14.5547 20.9502 15.674 20.9502 17.0547V17.5547C20.9502 17.8308 20.7263 18.0547 20.4502 18.0547C20.1741 18.0547 19.9502 17.8308 19.9502 17.5547V17.0547C19.9502 16.2263 19.2786 15.5547 18.4502 15.5547Z" fill="#66A2FF"/>
<path fill-rule="evenodd" clip-rule="evenodd" d="M14.4502 20.0547H13.9502C13.1218 20.0547 12.4502 19.3831 12.4502 18.5547V18.0547C12.4502 17.7785 12.6741 17.5547 12.9502 17.5547C13.2263 17.5547 13.4502 17.7785 13.4502 18.0547V18.5547C13.4502 18.8308 13.6741 19.0547 13.9502 19.0547H22.9502C23.2263 19.0547 23.4502 18.8308 23.4502 18.5547V18.0547C23.4502 17.7785 23.6741 17.5547 23.9502 17.5547C24.2263 17.5547 24.4502 17.7785 24.4502 18.0547V18.5547C24.4502 19.3831 23.7786 20.0547 22.9502 20.0547H22.4502V21.5547H23.9502C24.2263 21.5547 24.4502 21.7785 24.4502 22.0547C24.4502 22.3308 24.2263 22.5547 23.9502 22.5547H22.4502V23.5547C22.4502 23.724 22.4397 23.8909 22.4192 24.0547H22.9502C23.7786 24.0547 24.4502 24.7263 24.4502 25.5547V26.0547C24.4502 26.3308 24.2263 26.5547 23.9502 26.5547C23.6741 26.5547 23.4502 26.3308 23.4502 26.0547V25.5547C23.4502 25.2785 23.2263 25.0547 22.9502 25.0547H22.1594C21.566 26.5206 20.1289 27.5547 18.4502 27.5547C16.7715 27.5547 15.3343 26.5206 14.741 25.0547H13.9502C13.6741 25.0547 13.4502 25.2785 13.4502 25.5547V26.0547C13.4502 26.3308 13.2263 26.5547 12.9502 26.5547C12.6741 26.5547 12.4502 26.3308 12.4502 26.0547V25.5547C12.4502 24.7263 13.1218 24.0547 13.9502 24.0547H14.4811C14.4607 23.8909 14.4502 23.724 14.4502 23.5547V22.5547H12.9502C12.6741 22.5547 12.4502 22.3308 12.4502 22.0547C12.4502 21.7785 12.6741 21.5547 12.9502 21.5547H14.4502V20.0547ZM15.4502 20.0547V23.5547C15.4502 25.2115 16.7933 26.5547 18.4502 26.5547C20.107 26.5547 21.4502 25.2115 21.4502 23.5547V20.0547H15.4502Z" fill="#66A2FF"/>
<defs>
<filter id="filter0_d_37_263" x="0.757812" y="4.89844" width="35.3848" height="35.3848" filterUnits="userSpaceOnUse" color-interpolation-filters="sRGB">
<feFlood flood-opacity="0" result="BackgroundImageFix"/>
<feColorMatrix in="SourceAlpha" type="matrix" values="0 0 0 0 0 0 0 0 0 0 0 0 0 0 0 0 0 0 127 0" result="hardAlpha"/>
<feOffset dy="2"/>
<feGaussianBlur stdDeviation="1"/>
<feComposite in2="hardAlpha" operator="out"/>
<feColorMatrix type="matrix" values="0 0 0 0 0.675625 0 0 0 0 0.749242 0 0 0 0 0.8625 0 0 0 0.25 0"/>
<feBlend mode="normal" in2="BackgroundImageFix" result="effect1_dropShadow_37_263"/>
<feBlend mode="normal" in="SourceGraphic" in2="effect1_dropShadow_37_263" result="shape"/>
</filter>
</defs>
</svg>
