<svg width="24" height="19" viewBox="0 0 24 19" fill="none" xmlns="http://www.w3.org/2000/svg">
<path fill-rule="evenodd" clip-rule="evenodd" d="M1.0625 18.375C1.4375 18.625 1.875 18.75 2.3125 18.75C2.6875 18.75 3 18.625 3.3125 18.5L7.5 16.625C8.875 16 10.3125 15.6875 11.8125 15.6875H18.375C21.0625 15.6875 23.25 13.5 23.25 10.8125V5.75C23.25 3.0625 21.0625 0.875 18.375 0.875H4.875C2.1875 0.875 0 3.0625 0 5.75V16.375C0 17.1875 0.375 17.9375 1.0625 18.375ZM6.89844 7.58887C6.7696 7.53554 6.63163 7.50781 6.49219 7.50781C6.35274 7.50781 6.21478 7.53554 6.08594 7.58887C5.95704 7.64226 5.83986 7.72068 5.74121 7.81934C5.64255 7.91802 5.56413 8.03513 5.51074 8.16406C5.45741 8.2929 5.42969 8.43087 5.42969 8.57031C5.42966 8.70986 5.45736 8.84861 5.51074 8.97754C5.56412 9.1063 5.64265 9.22369 5.74121 9.32227C5.8398 9.42077 5.95718 9.4994 6.08594 9.55273C6.21472 9.60601 6.35282 9.63281 6.49219 9.63281C6.63155 9.63281 6.76966 9.60601 6.89844 9.55273C7.02719 9.4994 7.14458 9.42077 7.24316 9.32227C7.34172 9.22369 7.42025 9.1063 7.47363 8.97754C7.52702 8.84861 7.55471 8.70986 7.55469 8.57031C7.55469 8.43087 7.52696 8.2929 7.47363 8.16406C7.42025 8.03513 7.34183 7.91802 7.24316 7.81934C7.14451 7.72068 7.02733 7.64226 6.89844 7.58887ZM11.668 7.58887C11.5391 7.53554 11.4012 7.50781 11.2617 7.50781C11.1223 7.50781 10.9843 7.53554 10.8555 7.58887C10.7266 7.64226 10.6094 7.72068 10.5107 7.81934C10.4121 7.91802 10.3337 8.03513 10.2803 8.16406C10.2269 8.2929 10.1992 8.43087 10.1992 8.57031C10.1992 8.70986 10.2269 8.84861 10.2803 8.97754C10.3337 9.1063 10.4122 9.22369 10.5107 9.32227C10.6093 9.42077 10.7267 9.4994 10.8555 9.55273C10.9842 9.60601 11.1224 9.63281 11.2617 9.63281C11.4011 9.63281 11.5392 9.60601 11.668 9.55273C11.7967 9.4994 11.9141 9.42077 12.0127 9.32227C12.1113 9.22369 12.1898 9.1063 12.2432 8.97754C12.2965 8.84861 12.3242 8.70986 12.3242 8.57031C12.3242 8.43087 12.2965 8.2929 12.2432 8.16406C12.1898 8.03513 12.1114 7.91802 12.0127 7.81934C11.914 7.72068 11.7969 7.64226 11.668 7.58887ZM17.3096 7.81934C17.1103 7.62008 16.8404 7.50781 16.5586 7.50781C16.2768 7.50781 16.0069 7.62008 15.8076 7.81934C15.6084 8.01859 15.4961 8.28852 15.4961 8.57031C15.4961 8.8521 15.6084 9.12203 15.8076 9.32129C16.0069 9.52055 16.2768 9.63281 16.5586 9.63281C16.8404 9.63281 17.1103 9.52055 17.3096 9.32129C17.5088 9.12203 17.6211 8.8521 17.6211 8.57031C17.6211 8.28852 17.5088 8.01859 17.3096 7.81934Z" fill="url(#paint0_linear_542_4027)"/>
<defs>
<linearGradient id="paint0_linear_542_4027" x1="-2.64205" y1="21.3787" x2="23.2354" y2="-2.29542" gradientUnits="userSpaceOnUse">
<stop stop-color="#2E7FFF"/>
<stop offset="1" stop-color="#6CDCFF"/>
</linearGradient>
</defs>
</svg>
