<svg xmlns="http://www.w3.org/2000/svg" xmlns:xlink="http://www.w3.org/1999/xlink" viewBox="0 0 456.01 262.12"><defs><linearGradient id="未命名的渐变_26" x1="1" y1="91.35" x2="1" y2="181.12" gradientUnits="userSpaceOnUse"><stop offset="0" stop-color="#81cfff"/><stop offset="1" stop-color="#5ecfff" stop-opacity="0"/></linearGradient><linearGradient id="未命名的渐变_26-2" x1="455.01" y1="72.11" x2="455.01" y2="161.88" xlink:href="#未命名的渐变_26"/><linearGradient id="未命名的渐变_26-3" x1="40.9" y1="143.88" x2="40.9" y2="199.51" xlink:href="#未命名的渐变_26"/><linearGradient id="未命名的渐变_26-4" x1="64.97" y1="95.36" x2="64.97" y2="123.17" xlink:href="#未命名的渐变_26"/><linearGradient id="未命名的渐变_26-5" x1="397.23" y1="104.2" x2="397.23" y2="132.02" xlink:href="#未命名的渐变_26"/><linearGradient id="未命名的渐变_26-6" x1="424.75" y1="133.49" x2="424.75" y2="189.13" xlink:href="#未命名的渐变_26"/><linearGradient id="未命名的渐变_26-7" x1="232.75" y1="224.43" x2="232.75" y2="262.12" xlink:href="#未命名的渐变_26"/><linearGradient id="未命名的渐变_26-8" x1="349.36" y1="26.68" x2="349.36" y2="204.03" xlink:href="#未命名的渐变_26"/><linearGradient id="未命名的渐变_26-9" x1="201.45" y1="55.61" x2="201.45" y2="204.03" xlink:href="#未命名的渐变_26"/><linearGradient id="未命名的渐变_26-10" x1="122.98" y1="26.68" x2="122.98" y2="204.03" xlink:href="#未命名的渐变_26"/><linearGradient id="未命名的渐变_26-11" x1="273.51" y1="0" x2="273.51" y2="209.54" xlink:href="#未命名的渐变_26"/><style>.cls-13{fill:#3ba7f5}.cls-16{fill:#7798b9}.cls-19{fill:#ffb056}.cls-23{fill:#e49056}.cls-26{fill:#ffeed2}</style></defs><g id="图层_2" data-name="图层 2"><g id="图层_1-2" data-name="图层 1"><path style="stroke:url(#未命名的渐变_26);stroke-width:2px;fill:none;stroke-miterlimit:10" d="M1 91.35v89.77"/><path style="stroke:url(#未命名的渐变_26-2);stroke-width:2px;fill:none;stroke-miterlimit:10" d="M455.01 72.11v89.77"/><path style="stroke:url(#未命名的渐变_26-3);stroke-width:2px;fill:none;stroke-miterlimit:10" d="M40.9 143.88v55.63"/><path style="stroke:url(#未命名的渐变_26-4);stroke-width:2px;fill:none;stroke-miterlimit:10" d="M64.97 95.36v27.81"/><path style="stroke:url(#未命名的渐变_26-5);stroke-width:2px;fill:none;stroke-miterlimit:10" d="M397.23 104.2v27.82"/><path style="stroke:url(#未命名的渐变_26-6);stroke-width:2px;fill:none;stroke-miterlimit:10" d="M424.75 133.49v55.64"/><path d="M412.28 262.12c-23-23-61-37.69-179.53-37.69S76.24 239.1 53.21 262.12z" style="fill:url(#未命名的渐变_26-7);opacity:.4"/><g style="opacity:.7"><path d="M380.66 26.68h-62.59a2.71 2.71 0 0 0-2.82 2.59v172.17a2.71 2.71 0 0 0 2.82 2.59h62.59a2.72 2.72 0 0 0 2.82-2.59V29.27a2.72 2.72 0 0 0-2.82-2.59zM328.3 147a.9.9 0 0 1-.95.87h-3.6a.9.9 0 0 1-.95-.87v-19.73a.91.91 0 0 1 .95-.87h3.6a.91.91 0 0 1 .95.87zm0-30.23a.91.91 0 0 1-.95.87h-3.6a.91.91 0 0 1-.95-.87V97a.91.91 0 0 1 .95-.87h3.6a.91.91 0 0 1 .95.87zm0-30.24a.91.91 0 0 1-.95.87h-3.6a.91.91 0 0 1-.95-.87V66.8a.91.91 0 0 1 .95-.87h3.6a.91.91 0 0 1 .95.87zm0-30.24a.91.91 0 0 1-.95.87h-3.6a.91.91 0 0 1-.95-.87V36.56a.91.91 0 0 1 .95-.87h3.6a.91.91 0 0 1 .95.87zM340 147a.9.9 0 0 1-.94.87h-3.61a.91.91 0 0 1-.95-.87v-19.73a.92.92 0 0 1 .95-.87h3.61a.91.91 0 0 1 .94.87zm0-30.23a.91.91 0 0 1-.94.87h-3.61a.92.92 0 0 1-.95-.87V97a.92.92 0 0 1 .95-.87h3.61a.91.91 0 0 1 .94.87zm0-30.24a.91.91 0 0 1-.94.87h-3.61a.92.92 0 0 1-.95-.87V66.8a.92.92 0 0 1 .95-.87h3.61a.91.91 0 0 1 .94.87zm0-30.24a.91.91 0 0 1-.94.87h-3.61a.92.92 0 0 1-.95-.87V36.56a.92.92 0 0 1 .95-.87h3.61a.91.91 0 0 1 .94.87zM351.7 147a.9.9 0 0 1-.94.87h-3.61a.9.9 0 0 1-.94-.87v-19.73a.91.91 0 0 1 .94-.87h3.61a.91.91 0 0 1 .94.87zm0-30.23a.91.91 0 0 1-.94.87h-3.61a.91.91 0 0 1-.94-.87V97a.91.91 0 0 1 .94-.87h3.61a.91.91 0 0 1 .94.87zm0-30.24a.91.91 0 0 1-.94.87h-3.61a.91.91 0 0 1-.94-.87V66.8a.91.91 0 0 1 .94-.87h3.61a.91.91 0 0 1 .94.87zm0-30.24a.91.91 0 0 1-.94.87h-3.61a.91.91 0 0 1-.94-.87V36.56a.91.91 0 0 1 .94-.87h3.61a.91.91 0 0 1 .94.87zM363.4 147a.9.9 0 0 1-.94.87h-3.61a.9.9 0 0 1-.94-.87v-19.73a.91.91 0 0 1 .94-.87h3.61a.91.91 0 0 1 .94.87zm0-30.23a.91.91 0 0 1-.94.87h-3.61a.91.91 0 0 1-.94-.87V97a.91.91 0 0 1 .94-.87h3.61a.91.91 0 0 1 .94.87zm0-30.24a.91.91 0 0 1-.94.87h-3.61a.91.91 0 0 1-.94-.87V66.8a.91.91 0 0 1 .94-.87h3.61a.91.91 0 0 1 .94.87zm0-30.24a.91.91 0 0 1-.94.87h-3.61a.91.91 0 0 1-.94-.87V36.56a.91.91 0 0 1 .94-.87h3.61a.91.91 0 0 1 .94.87zM375.11 147a.91.91 0 0 1-.95.87h-3.61a.9.9 0 0 1-.94-.87v-19.73a.91.91 0 0 1 .94-.87h3.61a.92.92 0 0 1 .95.87zm0-30.23a.92.92 0 0 1-.95.87h-3.61a.91.91 0 0 1-.94-.87V97a.91.91 0 0 1 .94-.87h3.61a.92.92 0 0 1 .95.87zm0-30.24a.92.92 0 0 1-.95.87h-3.61a.91.91 0 0 1-.94-.87V66.8a.91.91 0 0 1 .94-.87h3.61a.92.92 0 0 1 .95.87zm0-30.24a.92.92 0 0 1-.95.87h-3.61a.91.91 0 0 1-.94-.87V36.56a.91.91 0 0 1 .94-.87h3.61a.92.92 0 0 1 .95.87z" style="fill:url(#未命名的渐变_26-8);opacity:.4"/><path d="M231.1 55.61h-59.3a2.71 2.71 0 0 0-2.8 2.59v143.24a2.71 2.71 0 0 0 2.8 2.56h59.3a2.71 2.71 0 0 0 2.82-2.59V58.2a2.71 2.71 0 0 0-2.82-2.59zm-48.63 103.76a1.16 1.16 0 0 1-1.2 1.11h-5.4a1.16 1.16 0 0 1-1.2-1.11v-5.22a1.15 1.15 0 0 1 1.2-1.1h5.4a1.15 1.15 0 0 1 1.2 1.1zm0-12.88a1.15 1.15 0 0 1-1.2 1.1h-5.4a1.15 1.15 0 0 1-1.2-1.1v-5.22a1.16 1.16 0 0 1 1.2-1.11h5.4a1.16 1.16 0 0 1 1.2 1.11zm0-12.89a1.16 1.16 0 0 1-1.2 1.11h-5.4a1.16 1.16 0 0 1-1.2-1.11v-5.22a1.15 1.15 0 0 1 1.2-1.1h5.4a1.15 1.15 0 0 1 1.2 1.1zm0-12.88a1.15 1.15 0 0 1-1.2 1.1h-5.4a1.15 1.15 0 0 1-1.2-1.1v-5.22a1.16 1.16 0 0 1 1.2-1.11h5.4a1.16 1.16 0 0 1 1.2 1.11zm0-12.89a1.16 1.16 0 0 1-1.2 1.11h-5.4a1.16 1.16 0 0 1-1.2-1.11v-5.21a1.15 1.15 0 0 1 1.2-1.11h5.4a1.15 1.15 0 0 1 1.2 1.11zm0-12.88a1.15 1.15 0 0 1-1.2 1.1h-5.4a1.15 1.15 0 0 1-1.2-1.1v-5.22a1.16 1.16 0 0 1 1.2-1.11h5.4a1.16 1.16 0 0 1 1.2 1.11zm0-12.89a1.16 1.16 0 0 1-1.2 1.11h-5.4a1.16 1.16 0 0 1-1.2-1.11v-5.21a1.15 1.15 0 0 1 1.2-1.11h5.4a1.15 1.15 0 0 1 1.2 1.11zm0-12.88a1.15 1.15 0 0 1-1.2 1.1h-5.4a1.15 1.15 0 0 1-1.2-1.1V64a1.16 1.16 0 0 1 1.2-1.11h5.4a1.16 1.16 0 0 1 1.2 1.11zm10.08 90.19a1.16 1.16 0 0 1-1.2 1.11H186a1.16 1.16 0 0 1-1.21-1.11v-5.22a1.16 1.16 0 0 1 1.21-1.1h5.4a1.15 1.15 0 0 1 1.2 1.1zm0-12.88a1.15 1.15 0 0 1-1.2 1.1H186a1.16 1.16 0 0 1-1.21-1.1v-5.22a1.16 1.16 0 0 1 1.21-1.11h5.4a1.16 1.16 0 0 1 1.2 1.11zm0-12.89a1.16 1.16 0 0 1-1.2 1.11H186a1.16 1.16 0 0 1-1.21-1.11v-5.22a1.16 1.16 0 0 1 1.21-1.1h5.4a1.15 1.15 0 0 1 1.2 1.1zm0-12.88a1.15 1.15 0 0 1-1.2 1.1H186a1.16 1.16 0 0 1-1.21-1.1v-5.22a1.16 1.16 0 0 1 1.21-1.11h5.4a1.16 1.16 0 0 1 1.2 1.11zm0-12.89a1.16 1.16 0 0 1-1.2 1.11H186a1.16 1.16 0 0 1-1.21-1.11v-5.21a1.16 1.16 0 0 1 1.21-1.11h5.4a1.15 1.15 0 0 1 1.2 1.11zm0-12.88a1.15 1.15 0 0 1-1.2 1.1H186a1.16 1.16 0 0 1-1.21-1.1v-5.22a1.16 1.16 0 0 1 1.21-1.11h5.4a1.16 1.16 0 0 1 1.2 1.11zm0-12.89a1.16 1.16 0 0 1-1.2 1.11H186a1.16 1.16 0 0 1-1.21-1.11v-5.21a1.16 1.16 0 0 1 1.21-1.11h5.4a1.15 1.15 0 0 1 1.2 1.11zm0-12.88a1.15 1.15 0 0 1-1.2 1.1H186a1.16 1.16 0 0 1-1.21-1.1V64a1.16 1.16 0 0 1 1.21-1.15h5.4a1.16 1.16 0 0 1 1.2 1.11zm10.08 90.19a1.16 1.16 0 0 1-1.21 1.11H196a1.16 1.16 0 0 1-1.2-1.11v-5.22a1.15 1.15 0 0 1 1.2-1.1h5.4a1.16 1.16 0 0 1 1.21 1.1zm0-12.88a1.16 1.16 0 0 1-1.21 1.1H196a1.15 1.15 0 0 1-1.2-1.1v-5.22a1.16 1.16 0 0 1 1.2-1.11h5.4a1.16 1.16 0 0 1 1.21 1.11zm0-12.89a1.16 1.16 0 0 1-1.21 1.11H196a1.16 1.16 0 0 1-1.2-1.11v-5.22a1.15 1.15 0 0 1 1.2-1.1h5.4a1.16 1.16 0 0 1 1.21 1.1zm0-12.88a1.16 1.16 0 0 1-1.21 1.1H196a1.15 1.15 0 0 1-1.2-1.1v-5.22a1.16 1.16 0 0 1 1.2-1.11h5.4a1.16 1.16 0 0 1 1.21 1.11zm0-12.89a1.16 1.16 0 0 1-1.21 1.11H196a1.16 1.16 0 0 1-1.2-1.11v-5.21a1.15 1.15 0 0 1 1.2-1.11h5.4a1.16 1.16 0 0 1 1.21 1.11zm0-12.88a1.16 1.16 0 0 1-1.21 1.1H196a1.15 1.15 0 0 1-1.2-1.1v-5.22a1.16 1.16 0 0 1 1.2-1.11h5.4a1.16 1.16 0 0 1 1.21 1.11zm0-12.89a1.16 1.16 0 0 1-1.21 1.11H196a1.16 1.16 0 0 1-1.2-1.11v-5.21a1.15 1.15 0 0 1 1.2-1.11h5.4a1.16 1.16 0 0 1 1.21 1.11zm0-12.88a1.16 1.16 0 0 1-1.21 1.1H196a1.15 1.15 0 0 1-1.2-1.1V64a1.16 1.16 0 0 1 1.2-1.11h5.4a1.16 1.16 0 0 1 1.23 1.11zm25.21 90.19a1.16 1.16 0 0 1-1.2 1.11H206.1a1.16 1.16 0 0 1-1.2-1.11v-5.22a1.15 1.15 0 0 1 1.2-1.1h20.54a1.15 1.15 0 0 1 1.2 1.1zm0-12.88a1.15 1.15 0 0 1-1.2 1.1H206.1a1.15 1.15 0 0 1-1.2-1.1v-5.22a1.16 1.16 0 0 1 1.2-1.11h20.54a1.16 1.16 0 0 1 1.2 1.11zm0-12.89a1.16 1.16 0 0 1-1.2 1.11H206.1a1.16 1.16 0 0 1-1.2-1.11v-5.22a1.15 1.15 0 0 1 1.2-1.1h20.54a1.15 1.15 0 0 1 1.2 1.1zm0-12.88a1.15 1.15 0 0 1-1.2 1.1H206.1a1.15 1.15 0 0 1-1.2-1.1v-5.22a1.16 1.16 0 0 1 1.2-1.11h20.54a1.16 1.16 0 0 1 1.2 1.11zm0-12.89a1.16 1.16 0 0 1-1.2 1.11H206.1a1.16 1.16 0 0 1-1.2-1.11v-5.21a1.15 1.15 0 0 1 1.2-1.11h20.54a1.15 1.15 0 0 1 1.2 1.11zm0-12.88a1.15 1.15 0 0 1-1.2 1.1H206.1a1.15 1.15 0 0 1-1.2-1.1v-5.22a1.16 1.16 0 0 1 1.2-1.11h20.54a1.16 1.16 0 0 1 1.2 1.11zm0-12.89a1.16 1.16 0 0 1-1.2 1.11H206.1a1.16 1.16 0 0 1-1.2-1.11v-5.21a1.15 1.15 0 0 1 1.2-1.11h20.54a1.15 1.15 0 0 1 1.2 1.11zm0-12.88a1.15 1.15 0 0 1-1.2 1.1H206.1a1.15 1.15 0 0 1-1.2-1.1V64a1.16 1.16 0 0 1 1.2-1.11h20.54a1.16 1.16 0 0 1 1.2 1.11z" style="fill:url(#未命名的渐变_26-9);opacity:.4"/><path d="M161.13 26.68h-76.3A2.71 2.71 0 0 0 82 29.27v172.17a2.71 2.71 0 0 0 2.83 2.56h76.3a2.71 2.71 0 0 0 2.82-2.59V29.27a2.71 2.71 0 0 0-2.82-2.59zM154.34 161a1.16 1.16 0 0 1-1.2 1.11H92.83a1.16 1.16 0 0 1-1.21-1.11v-5.21a1.16 1.16 0 0 1 1.21-1.11h60.31a1.15 1.15 0 0 1 1.2 1.11zm0-14.67a1.15 1.15 0 0 1-1.2 1.1H92.83a1.16 1.16 0 0 1-1.21-1.1v-5.22a1.16 1.16 0 0 1 1.21-1.11h60.31a1.16 1.16 0 0 1 1.2 1.11zm0-14.68a1.16 1.16 0 0 1-1.2 1.11H92.83a1.16 1.16 0 0 1-1.21-1.11v-5.22a1.16 1.16 0 0 1 1.21-1.1h60.31a1.15 1.15 0 0 1 1.2 1.1zm0-14.68a1.16 1.16 0 0 1-1.2 1.11H92.83a1.16 1.16 0 0 1-1.21-1.11v-5.21a1.16 1.16 0 0 1 1.21-1.11h60.31a1.15 1.15 0 0 1 1.2 1.11zm0-14.67a1.15 1.15 0 0 1-1.2 1.1H92.83a1.16 1.16 0 0 1-1.21-1.1V97a1.16 1.16 0 0 1 1.21-1.11h60.31a1.16 1.16 0 0 1 1.2 1.11zm0-14.68a1.16 1.16 0 0 1-1.2 1.11H92.83a1.16 1.16 0 0 1-1.21-1.11v-5.27a1.16 1.16 0 0 1 1.21-1.1h60.31a1.15 1.15 0 0 1 1.2 1.1zm0-14.68a1.16 1.16 0 0 1-1.2 1.11H92.83a1.16 1.16 0 0 1-1.21-1.11v-5.26a1.16 1.16 0 0 1 1.21-1.11h60.31a1.15 1.15 0 0 1 1.2 1.11zm0-14.67a1.15 1.15 0 0 1-1.2 1.1H92.83a1.16 1.16 0 0 1-1.21-1.1V53a1.16 1.16 0 0 1 1.21-1.11h60.31a1.16 1.16 0 0 1 1.2 1.11zm0-14.68a1.16 1.16 0 0 1-1.2 1.11H92.83a1.16 1.16 0 0 1-1.21-1.11v-5.27a1.16 1.16 0 0 1 1.21-1.1h60.31a1.15 1.15 0 0 1 1.2 1.1z" style="fill:url(#未命名的渐变_26-10);opacity:.4"/><path d="M306.21 0h-65.39a2.51 2.51 0 0 0-2.42 2.59v204.35a2.51 2.51 0 0 0 2.42 2.6h65.39a2.51 2.51 0 0 0 2.41-2.6V2.59A2.51 2.51 0 0 0 306.21 0zm-5.82 134.28a1.06 1.06 0 0 1-1 1.1h-51.72a1.06 1.06 0 0 1-1-1.1v-5.22a1.07 1.07 0 0 1 1-1.11h51.69a1.07 1.07 0 0 1 1 1.11zm0-14.68a1.07 1.07 0 0 1-1 1.11h-51.72a1.07 1.07 0 0 1-1-1.11v-5.22a1.06 1.06 0 0 1 1-1.1h51.69a1.06 1.06 0 0 1 1 1.1zm0-14.68a1.07 1.07 0 0 1-1 1.11h-51.72a1.07 1.07 0 0 1-1-1.11v-5.21a1.07 1.07 0 0 1 1-1.11h51.69a1.07 1.07 0 0 1 1 1.11zm0-14.67a1.06 1.06 0 0 1-1 1.1h-51.72a1.06 1.06 0 0 1-1-1.1V85a1.07 1.07 0 0 1 1-1.11h51.69a1.07 1.07 0 0 1 1 1.11zm0-14.68a1.07 1.07 0 0 1-1 1.11h-51.72a1.07 1.07 0 0 1-1-1.11v-5.22a1.06 1.06 0 0 1 1-1.1h51.69a1.06 1.06 0 0 1 1 1.1zm0-14.68a1.07 1.07 0 0 1-1 1.11h-51.72a1.07 1.07 0 0 1-1-1.11v-5.21a1.07 1.07 0 0 1 1-1.11h51.69a1.07 1.07 0 0 1 1 1.11zm0-14.67a1.06 1.06 0 0 1-1 1.1h-51.72a1.06 1.06 0 0 1-1-1.1V41a1.07 1.07 0 0 1 1-1.11h51.69a1.07 1.07 0 0 1 1 1.11zm0-14.68a1.07 1.07 0 0 1-1 1.11h-51.72a1.07 1.07 0 0 1-1-1.11v-5.22a1.06 1.06 0 0 1 1-1.1h51.69a1.06 1.06 0 0 1 1 1.1zm0-14.68a1.07 1.07 0 0 1-1 1.11h-51.72a1.07 1.07 0 0 1-1-1.11v-5.21a1.07 1.07 0 0 1 1-1.11h51.69a1.07 1.07 0 0 1 1 1.11z" style="fill:url(#未命名的渐变_26-11);opacity:.4"/></g><path class="cls-13" d="M183.16 83.07a36 36 0 1 0 36 36 36 36 0 0 0-36-36zm1.52 8.36a27.65 27.65 0 0 1 21.65 12.5l-10 5.75a16.19 16.19 0 0 0-11.69-6.75zm-3 0v11.5a16.19 16.19 0 0 0-11.68 6.75l-10-5.75a27.68 27.68 0 0 1 21.64-12.5zm-26.15 27.63a27.59 27.59 0 0 1 3-12.5l10 5.75a16.23 16.23 0 0 0 0 13.5l-10 5.75a27.59 27.59 0 0 1-3.04-12.5zm26.15 27.63a27.68 27.68 0 0 1-21.68-12.5l10-5.75a16.19 16.19 0 0 0 11.69 6.75zm0-19.76a8 8 0 0 1-4.53-2.62 8.23 8.23 0 0 1-1.52-2.63 8 8 0 0 1 0-5.24 8.23 8.23 0 0 1 1.52-2.63 8 8 0 0 1 4.53-2.61 7.78 7.78 0 0 1 3 0 8 8 0 0 1 4.53 2.61 8 8 0 0 1 0 10.5 8 8 0 0 1-4.53 2.62 8.42 8.42 0 0 1-1.52.14 8.51 8.51 0 0 1-1.52-.14zm3 19.76v-11.5a16.19 16.19 0 0 0 11.69-6.75l10 5.75a27.65 27.65 0 0 1-21.69 12.5zm23.17-15.13-10-5.75a16.23 16.23 0 0 0 0-13.5l10-5.75a27.71 27.71 0 0 1 0 25z"/><path class="cls-13" d="M152.32 151.4a46.16 46.16 0 0 0 4.35 3.65l5.59-6.66a36.17 36.17 0 0 1-4.35-3.66zm12.92 8.6a45.84 45.84 0 0 0 5.34 1.94l3-8.18a35 35 0 0 1-5.34-1.94zm-17.93-37.5-8.56 1.5a45.19 45.19 0 0 0 1 5.6l8.56-1.51a35.83 35.83 0 0 1-1-5.59zm6.18-23.85L146 94.3a45.28 45.28 0 0 0-2.85 4.92l7.53 4.35a37.49 37.49 0 0 1 2.81-4.92zM180.32 155v8.7c.94.06 1.89.09 2.84.09s1.9 0 2.84-.09V155c-.93.08-1.88.11-2.84.11s-1.9-.11-2.84-.11zm-32.03-45-8.56-1.51a44.55 44.55 0 0 0-1 5.6l8.56 1.51a35.42 35.42 0 0 1 1-5.6zm70.71 5.63 8.57-1.51a44.55 44.55 0 0 0-1-5.6L218 110a35.42 35.42 0 0 1 1 5.63zm-26.23 38.14 3 8.18a46.52 46.52 0 0 0 5.34-1.94l-3-8.18a34.66 34.66 0 0 1-5.34 1.94zM218 128.1l8.57 1.51a45.19 45.19 0 0 0 1-5.6L219 122.5a35.83 35.83 0 0 1-1 5.6zm-5.17 11.37 7.54 4.35a44.28 44.28 0 0 0 2.84-4.92l-7.53-4.35a34.8 34.8 0 0 1-2.85 4.92zm-8.77 8.92 5.59 6.66a46.16 46.16 0 0 0 4.35-3.65l-5.59-6.67a35.41 35.41 0 0 1-4.35 3.66zm-53.42-13.84-7.53 4.35a44.35 44.35 0 0 0 2.85 4.92l7.53-4.35a36.85 36.85 0 0 1-2.85-4.92zm50.45-56.43a44.75 44.75 0 0 0-5.34-2l-3 8.18a35.73 35.73 0 0 1 5.34 1.94zm-38.83 11.61-5.59-6.66a44.79 44.79 0 0 0-4.35 3.66l5.59 6.66a37.12 37.12 0 0 1 4.35-3.66zm51.74-3a44.79 44.79 0 0 0-4.35-3.66l-5.59 6.66a36.31 36.31 0 0 1 4.35 3.66zm1.68 16.84 7.53-4.35a45.2 45.2 0 0 0-2.84-4.92l-7.54 4.35a35.37 35.37 0 0 1 2.85 4.92zm-42.13-19.22-3-8.18a44.13 44.13 0 0 0-5.34 2l3 8.17a36.14 36.14 0 0 1 5.34-1.99zM186 83.16v-8.7c-.94 0-1.88-.08-2.84-.08s-1.9 0-2.84.08v8.7c.94-.07 1.89-.11 2.84-.11s1.91.04 2.84.11z"/><path d="M315 95.08c0-.78 0-1.56-.07-2.33l13.18-2.67a52.88 52.88 0 0 0-1.46-8.31l-13.3 2a38.88 38.88 0 0 0-1.59-4.39l11.47-7a52.22 52.22 0 0 0-4.23-7.31l-11.81 6.42a39.35 39.35 0 0 0-3-3.57l8.38-10.52a53.13 53.13 0 0 0-6.44-5.4l-8.9 10.07a40.34 40.34 0 0 0-4-2.33L297.46 47a51.91 51.91 0 0 0-7.92-2.89l-4.92 12.49a38.62 38.62 0 0 0-4.59-.81l-.35-13.44c-1.39-.11-2.8-.16-4.21-.16s-2.83.05-4.22.16l-.35 13.44a38.62 38.62 0 0 0-4.59.81l-4.92-12.52a52.3 52.3 0 0 0-7.92 2.92l4.27 12.75a40.34 40.34 0 0 0-4 2.33L244.8 52a53.13 53.13 0 0 0-6.46 5.42l8.38 10.52a39.35 39.35 0 0 0-3 3.57l-11.81-6.42a52.22 52.22 0 0 0-4.23 7.29l11.47 7a38.88 38.88 0 0 0-1.59 4.39l-13.3-2a52.88 52.88 0 0 0-1.46 8.31l13.2 2.67c0 .77-.07 1.55-.07 2.33s0 1.56.07 2.33l-13.18 2.68a52.75 52.75 0 0 0 1.46 8.3l13.3-2a38.72 38.72 0 0 0 1.59 4.38l-11.47 7a52.92 52.92 0 0 0 4.23 7.3l11.81-6.42a39.35 39.35 0 0 0 3 3.57l-8.38 10.51a53.21 53.21 0 0 0 6.46 5.43l8.9-10.08a38.57 38.57 0 0 0 4 2.34l-4.27 12.75a52.27 52.27 0 0 0 7.92 2.88l4.92-12.51a40.74 40.74 0 0 0 4.59.8l.35 13.44c1.39.11 2.8.17 4.22.17s2.82-.06 4.21-.17l.35-13.44a40.74 40.74 0 0 0 4.59-.8l4.92 12.51a51.88 51.88 0 0 0 7.92-2.88l-4.27-12.75a38.57 38.57 0 0 0 4-2.34l8.9 10.08a53.21 53.21 0 0 0 6.46-5.43l-8.38-10.51a39.35 39.35 0 0 0 3-3.57L319 125.1a52.92 52.92 0 0 0 4.23-7.3l-11.47-7a38.72 38.72 0 0 0 1.59-4.38l13.3 2a52.75 52.75 0 0 0 1.46-8.3L315 97.41v-2.33zM275.47 109a13.92 13.92 0 1 1 13.92-13.92A13.92 13.92 0 0 1 275.47 109z" style="fill:#53bef5"/><path d="m255.6 166.39-2.67-1.56a1.87 1.87 0 0 1-.83-2.23 16.84 16.84 0 0 0 .56-2 1.89 1.89 0 0 1 1.87-1.51h3.08c0-.42.06-.85.07-1.27v-.73c0-.44 0-.88-.06-1.31h-3.1a1.88 1.88 0 0 1-1.83-1.52 18.52 18.52 0 0 0-.54-2.07 1.86 1.86 0 0 1 .85-2.22l2.69-1.54c-.18-.39-.38-.79-.59-1.17l-.36-.63a28.4 28.4 0 0 0-.68-1.08l-2.67 1.45a1.91 1.91 0 0 1-2.37-.41 17.8 17.8 0 0 0-1.5-1.51 1.88 1.88 0 0 1-.37-2.35l1.56-2.67c-.45-.31-.91-.61-1.4-.89s-1-.55-1.46-.79l-1.56 2.67a1.87 1.87 0 0 1-2.24.83 16.22 16.22 0 0 0-2-.56 1.9 1.9 0 0 1-1.52-1.87v-3.08c-.42 0-.85-.06-1.27-.07h-.73c-.44 0-.88 0-1.32.05v3.1a1.88 1.88 0 0 1-1.52 1.83 16.62 16.62 0 0 0-2.07.55 1.88 1.88 0 0 1-2.22-.86l-1.54-2.69c-.4.18-.79.38-1.17.59l-.63.36q-.56.33-1.08.69l1.52 2.68a1.9 1.9 0 0 1-.4 2.37 16.33 16.33 0 0 0-1.51 1.49 1.88 1.88 0 0 1-2.35.37l-2.67-1.56c-.32.45-.61.92-.9 1.4-.28.48-.54 1-.78 1.46l2.67 1.56a1.87 1.87 0 0 1 .83 2.24 16.36 16.36 0 0 0-.56 2.05 1.91 1.91 0 0 1-1.87 1.51h-3.08c0 .43-.06.85-.07 1.27v.73q0 .66.06 1.32h3.1a1.87 1.87 0 0 1 1.83 1.52 17.8 17.8 0 0 0 .54 2.06 1.88 1.88 0 0 1-.85 2.23l-2.69 1.53c.18.4.38.79.59 1.18l.36.63c.22.36.45.72.68 1.07l2.68-1.52a1.89 1.89 0 0 1 2.37.4 16.44 16.44 0 0 0 1.5 1.51 1.88 1.88 0 0 1 .37 2.35l-1.56 2.67c.45.32.91.62 1.4.9s1 .54 1.46.78l1.56-2.67a1.89 1.89 0 0 1 2.24-.83 15.07 15.07 0 0 0 2 .56 1.91 1.91 0 0 1 1.52 1.87v3.09c.42 0 .85.06 1.27.07h.76c.44 0 .88 0 1.32-.06v-3.09a1.88 1.88 0 0 1 1.52-1.84 16.57 16.57 0 0 0 2.07-.54 1.9 1.9 0 0 1 2.23.85l1.53 2.7q.6-.28 1.17-.6l.63-.36c.37-.22.73-.44 1.08-.68l-1.55-2.66a1.89 1.89 0 0 1 .4-2.37 15.26 15.26 0 0 0 1.51-1.5 1.88 1.88 0 0 1 2.35-.37l2.67 1.57c.32-.46.61-.92.9-1.4.27-.49.53-.97.77-1.47zM241 150.18a1.4 1.4 0 1 1 1.81-.47 1.4 1.4 0 0 1-1.81.47zm-3 7.73a1.4 1.4 0 1 1-.47-1.8 1.4 1.4 0 0 1 .47 1.8zm-11.54.59a1.4 1.4 0 1 1 1.81-.48 1.4 1.4 0 0 1-1.84.48zm3.1-5.44a4.81 4.81 0 1 1 6.59-1.72 4.87 4.87 0 0 1-6.62 1.72zm-.09 16.77a4.82 4.82 0 1 1 6.58-1.72 4.82 4.82 0 0 1-6.61 1.72zm11.46-2.83a1.39 1.39 0 1 1 1.8-.47 1.39 1.39 0 0 1-1.8.47zm3.12-5.47a4.82 4.82 0 0 1-1.73-6.59 4.88 4.88 0 0 1 6.59-1.73 4.82 4.82 0 0 1-4.86 8.32z" style="fill:#2d8ce9"/><path class="cls-16" d="m318.66 225.37.99 3.37-16.7 1.08-.86-3.22 16.57-1.23zm-5.52-18.76 1.06 3.61h-16.49l-.97-3.61h16.4zM308.26 190l.8 2.72-16.38-1.33-.75-2.79 16.33 1.4zm-4.82-16.39.82 2.79-16.24-2.41-.76-2.86 16.18 2.48zm-4.33-14.74.9 3.06-16.16-3.53-.64-2.4 15.9 2.87zm-4.06-13.81.93 3.19-15.92-4.04-.6-2.22 15.59 3.07z"/><path style="fill:#728cb9" d="m290.44 120.62 35.01 115.22h-3.71l-2.09-7.1-.99-3.37-4.46-15.15-1.06-3.61-4.08-13.89-.8-2.72-4-13.6-.82-2.79-3.43-11.68-.9-3.06-3.13-10.62-.93-3.19-3.01-10.24-.58-1.98-3.6-12.22h2.58z"/><path class="cls-16" d="m291.46 132.84.58 1.98-15.54-3.92-.65-2.42 15.61 4.36z"/><path style="fill:#a4c0d9" d="m297.71 210.22 4.38 16.38.86 3.22 1.61 6.02h-3.71l-29.68-115.22h2.58l2.1 7.86.65 2.42 2.96 11.09.6 2.22 3.15 11.79.64 2.4 3.41 12.73.76 2.86 3.91 14.61.75 2.79 4.06 15.22.97 3.61z"/><path class="cls-19" d="M321.9 225.09c.37.56 1.1 1.95.75 2.94a1.46 1.46 0 0 1-.9.87c-1.84.73-3.15 1.16-3.81-.17a4.4 4.4 0 0 0-2.05-2.32c-1-.63-3.84-.21-4.13-.54a1.84 1.84 0 0 1-.42-1.4 2.47 2.47 0 0 1 .3-1c.63-1.22 1.48-2 2.14-2.09a3.61 3.61 0 0 1 1.51.34l.19.64.3-.07c.16.19.53.21.7.83s.91 1 1.25.64.06-.79.38-.89 1.1-.14 1.88-.2l1.13-.08a9.32 9.32 0 0 0 .78 2.5z"/><path d="M317.94 228.74c.66 1.33 2 .9 3.81.17a1.46 1.46 0 0 0 .9-.87c-.1.66-.26 1.2-.82 1.45a7.12 7.12 0 0 1-3.63.33c-.82-.34-1.24-1.18-1.94-2.06a4 4 0 0 0-2.35-1.34c-.42 0-2.18.24-2.72-.09s0-1.26.14-1.85a1.84 1.84 0 0 0 .42 1.4c.29.33 3.11-.09 4.13.54a4.4 4.4 0 0 1 2.06 2.32zm-13.85-18.35a2.37 2.37 0 0 1-2.4-.89c-.53-.48-1.95-2.78-2.57-3s-.6 0-1.3.14-.42-.37-.43-1a2.86 2.86 0 0 0 0 .3c.09.29.38.49 1 0s.91-.58 1.43-.13 2.26 3.41 3.14 3.94 1.9 0 3.09-.77c.75-.52.94-1 .9-1.49a2.56 2.56 0 0 1-.2 1.69 6.74 6.74 0 0 1-2.66 1.21z" style="fill:#ebfcff"/><path class="cls-19" d="M298.38 205.9c-.58.54-.87.34-1 0a2.86 2.86 0 0 1 0-.3c-.05-.85.13-3.07 2.28-3l1 2.15.73-.34.28.61a1.39 1.39 0 0 1 1.46-.08c0-.55-.13-1-.14-1.29a.56.56 0 0 1 .09-.4 5.92 5.92 0 0 1 1.28-.77 1.69 1.69 0 0 1 .72-.22c.37.59.34 1.78.74 2s.6 1.21.87 2.15a4.52 4.52 0 0 1 .21.93c0 .51-.15 1-.9 1.49-1.19.81-2.2 1.31-3.09.77s-2.62-3.5-3.14-3.94-.77-.3-1.39.24z"/><path style="fill:#257fba" d="m315.29 221.75-6.23-21.43-1.32-16.31 7.78-3.46-.31 19.77 4.44 21.18-3.87.82-.3.07-.19-.64z"/><path d="m315 175 .52 5.55a2 2 0 0 1-1.58 2.15l-6.2 1.31-9.05 1.91 5.71 16.65a5.92 5.92 0 0 0-1.28.77.56.56 0 0 0-.09.4l-1.6.76-.73.34-1-2.15-8.86-18.49a1.71 1.71 0 0 1 .77-2.36l13.82-6.65.11-1c1.51.81 4.34 1.55 9.46.81z" style="fill:#398eed"/><path class="cls-23" d="M310.63 148c1.28-.16 3.5 2.18 3.34 5.77a21 21 0 0 0-3.34-5.77z"/><path d="M309.21 151.24c3 4.95-.18 5.31-2.06 5.92a35 35 0 0 1-4.08.45l-2.17.15-.42-2.45-.85-4.88a25.9 25.9 0 0 1 4.82-.6c1.94-.04 3.92.25 4.76 1.41z" style="fill:#ffbf76"/><path class="cls-19" d="M309.21 151.24c-.84-1.16-2.82-1.45-4.76-1.41l.13-.42a6.12 6.12 0 0 0 5.18-1.62l.39-.35s.17.19.46.55a21 21 0 0 1 3.34 5.77 13.81 13.81 0 0 1 .75 3.12 117.36 117.36 0 0 1 1 18l-.7.12c-5.12.74-7.95 0-9.49-.85a3.67 3.67 0 0 1-1.76-1.78l-.13-2.94-.31-6.58-.24-5.17v-.07a35 35 0 0 0 4.08-.45c1.85-.61 5.08-.97 2.06-5.92z"/><path d="M320 222.7c-.78.06-1.68.15-1.88.2s-.15.49-.38.89-1.08 0-1.25-.64-.54-.64-.7-.83l3.87-.82zm-18.57-18.2 1.6-.76c0 .31.13.74.14 1.29a1.39 1.39 0 0 0-1.46.08z" style="fill:#f0dabc"/><path class="cls-26" d="m299.63 150.43.85 4.88-6.91-1.52-9.46-9.79c-.56-1.1-2.48-1.8-3.41-2-.48-3.37 4.61-2.59 5.1-2.32s.1 1.73.11 2.32l8.8 8.1z"/><path d="m303.31 162.85.31 6.58s-5-7.55-5.38-8c-.62.21-1.25-.15-2.17-.59s-1.7-.31-1.7-1.2c0-.47.87-.33 1.38-.1a6.38 6.38 0 0 0-1.54-1.64c.24-1.49 3.44-2 4.77-1.24a7.42 7.42 0 0 0 .76 3c.13.54 3.57 3.19 3.57 3.19z" style="fill:#fae6d2"/><path class="cls-26" d="M308.34 144.67a5.4 5.4 0 0 0 1.11 2.78l.33.35a6.12 6.12 0 0 1-5.18 1.62l.43-1.26c.4-.17-.13-1.36-.45-1.83.16 0 .32 0 .48-.06a4.74 4.74 0 0 0 3-1.62z"/><path class="cls-26" d="M305 146.26c-.16 0-.32.05-.48.06a4.08 4.08 0 0 1-1.39-.06 3 3 0 0 1-2.16-2.52c-.34-.49-1-.2-1-.93.06-.89 1.13-1.23 1.28-2.88a4.18 4.18 0 0 1 3.8-3.33c2.21 0 4 2.21 4 4.94a4.47 4.47 0 0 1-4 4.72z"/><path d="M297.39 205.65c0 .64-.27 1.14.43 1s.69-.35 1.3-.14 2 2.5 2.57 3a2.37 2.37 0 0 0 2.4.89 6.74 6.74 0 0 0 2.65-1.25 2.56 2.56 0 0 0 .2-1.69m4.39 17.02c-.13.59-.68 1.52-.14 1.85s2.3 0 2.72.09a4 4 0 0 1 2.35 1.34c.7.88 1.12 1.72 1.94 2.06a7.12 7.12 0 0 0 3.63-.33c.56-.25.72-.79.82-1.45" style="stroke:#4986d9;stroke-width:.12px;fill:none;stroke-miterlimit:10"/><path d="M300.9 138.55c-.08.49-.21 1.21.34 1.41 1 .46 1.79-.42 2.31-.21s1 .24 1 .72.84 1.08.82 1.31a1 1 0 0 0 .15.79c.28.53.76.3 1.17.73s.23.73.47.81.66 0 .78.1.09.64.66.49.64-.64.72-1.14 1-.9 1.32-1.23 2.05-1.75.83-4.89a4.68 4.68 0 0 0-6-2.76 3 3 0 0 0-2.94-.29c-1.38.92-.87 2.11-1.39 2.55s-.69.25-1.15.09-.79-.1-.88.16a1 1 0 0 0 .23 1.2 1.27 1.27 0 0 0 1.56.16z"/><ellipse class="cls-26" cx="305.48" cy="141.34" rx="1.37" ry=".94" transform="rotate(-82.77 305.474 141.343)"/><ellipse class="cls-26" cx="305.47" cy="141.44" rx=".61" ry="1.17" transform="rotate(-12.47 305.484 141.466)"/><ellipse cx="305.47" cy="141.44" rx=".36" ry=".69" transform="rotate(-12.47 305.484 141.466)" style="fill:#e55c5c;opacity:.2"/><path class="cls-23" d="M310.17 147.45a4.24 4.24 0 0 0-.72 0l.33.35z"/></g></g></svg>