<svg width="17" height="16" viewBox="0 0 17 16" fill="none" xmlns="http://www.w3.org/2000/svg">
<path d="M4.35742 0.999999C4.35742 0.723857 4.58128 0.5 4.85742 0.5H15.4289C15.705 0.5 15.9289 0.723857 15.9289 1V13.8571C15.9289 14.1333 15.705 14.3571 15.4288 14.3571H4.85742C4.58128 14.3571 4.35742 14.1333 4.35742 13.8571V0.999999Z" stroke="#B1ECD6"/>
<path fill-rule="evenodd" clip-rule="evenodd" d="M12.9997 4.89636H6.14258V3.67188H12.9997V4.89636ZM12.9997 7.95678H6.14258V6.73229H12.9997V7.95678ZM6.14258 11.0193H12.9997V9.79479H6.14258V11.0193Z" fill="#D0F6E8"/>
<path d="M0.429688 3.28516C0.429688 2.73287 0.877403 2.28516 1.42969 2.28516H8.57254C9.12483 2.28516 9.57254 2.73287 9.57254 3.28516V13.8566C9.57254 14.4089 9.12483 14.8566 8.57254 14.8566H0.429688V3.28516Z" fill="#7ADFBA"/>
<path d="M8.21237 3.64589L7.35164 2.78516H9.0731V4.50662L8.21237 3.64589Z" fill="#FDFDFD" stroke="#22C98D"/>
<path d="M4.25952 9.26697L2.90045 11.4291H1.57227L3.57999 8.46388L1.69582 5.71484H3.20933L4.38308 7.66079L5.6186 5.71484H6.91589L5.03172 8.46388L7.03945 11.4291H5.52593L4.25952 9.26697Z" fill="white"/>
</svg>
