<svg width="14" height="14" viewBox="0 0 14 14" fill="none" xmlns="http://www.w3.org/2000/svg">
<path d="M4.59378 13.3004C3.76253 11.5504 4.20003 10.5441 4.85628 9.62539C5.55628 8.57539 5.73128 7.56914 5.73128 7.56914C5.73128 7.56914 6.30003 8.26914 6.08128 9.40664C7.04378 8.31289 7.21878 6.56289 7.08753 5.90664C9.27503 7.43789 10.2375 10.8066 8.96878 13.2566C15.7063 9.40664 10.6313 3.67539 9.75628 3.06289C10.0625 3.71914 10.1063 4.81289 9.49378 5.33789C8.48753 1.48789 5.99378 0.744141 5.99378 0.744141C6.30003 2.71289 4.94378 4.85664 3.63128 6.47539C3.58753 5.68789 3.54378 5.16289 3.10628 4.37539C3.01878 5.81914 1.92503 6.95664 1.61878 8.40039C1.22503 10.3691 1.92503 11.7691 4.59378 13.3004Z" fill="#FF7C7C"/>
</svg>
