<svg width="17" height="16" viewBox="0 0 17 16" fill="none" xmlns="http://www.w3.org/2000/svg">
<path d="M3.42969 1C3.42969 0.447715 3.8774 0 4.42969 0H15.4297C15.982 0 16.4297 0.447715 16.4297 1V11C16.4297 11.5523 15.982 12 15.4297 12H4.42969C3.8774 12 3.42969 11.5523 3.42969 11V1Z" fill="#D0F2FA"/>
<path fill-rule="evenodd" clip-rule="evenodd" d="M7.42969 4.89636H14.2868V3.67188H7.42969V4.89636ZM7.42969 7.95691H14.2868V6.73242H7.42969V7.95691Z" fill="white"/>
<path d="M0.429688 3.88086C0.429688 3.32857 0.877403 2.88086 1.42969 2.88086H8.57254C9.12483 2.88086 9.57254 3.32857 9.57254 3.88086V14.4523C9.57254 15.0046 9.12483 15.4523 8.57254 15.4523H0.429688V3.88086Z" fill="#64D7F0"/>
<path d="M6.14453 2.88086H9.5731V6.30943L7.85882 4.59514L6.14453 2.88086Z" fill="#4DBDD6"/>
<path fill-rule="evenodd" clip-rule="evenodd" d="M3.37694 8.0572L6.62306 8.0572L6.62306 8.40996C6.62306 9.08028 6.03413 9.62369 5.30766 9.62369L4.69234 9.62369C3.96587 9.62369 3.37694 9.08028 3.37694 8.40996L3.37694 8.0572ZM7.5 7.24805L7.5 8.40996C7.5 9.52717 6.51845 10.4328 5.30766 10.4328L4.69234 10.4328C3.48155 10.4328 2.5 9.52717 2.5 8.40996L2.5 7.24805L7.5 7.24805Z" fill="white"/>
<path fill-rule="evenodd" clip-rule="evenodd" d="M4.35449 6.42196L4.35449 7.45312L3.41736 7.45312L3.41736 6.42196L4.35449 6.42196Z" fill="white"/>
<path fill-rule="evenodd" clip-rule="evenodd" d="M6.58203 6.42196L6.58203 7.45312L5.6449 7.45312L5.6449 6.42196L6.58203 6.42196Z" fill="white"/>
<path fill-rule="evenodd" clip-rule="evenodd" d="M4.53161 12.1973L4.53161 10.2453L5.46875 10.2453L5.46875 12.1973L4.53161 12.1973Z" fill="white"/>
</svg>
