<svg width="14" height="15" viewBox="0 0 14 15" fill="none" xmlns="http://www.w3.org/2000/svg">
<path d="M13.6494 3.81836L-0.00015831 3.81836L2.53372 0.450191L11.1098 0.450192L13.6494 3.81836Z" fill="#D0F2FA"/>
<path d="M0.000976562 3.82031H13.6505V12.1011C13.6505 13.2057 12.7551 14.1011 11.6505 14.1011H2.00098C0.896408 14.1011 0.000976562 13.2057 0.000976562 12.1011V3.82031Z" fill="#64D7F0"/>
<rect x="6.3252" y="1.0293" width="1" height="2.00158" rx="0.5" fill="white"/>
<path fill-rule="evenodd" clip-rule="evenodd" d="M5.09352 7.72671L8.5574 7.72671L8.5574 8.10314C8.5574 8.81843 7.92897 9.39829 7.15375 9.39829L6.49717 9.39829C5.72195 9.39829 5.09352 8.81843 5.09352 8.10314L5.09352 7.72671ZM9.49316 6.86328L9.49316 8.10314C9.49316 9.29529 8.44577 10.2617 7.15375 10.2617L6.49717 10.2617C5.20515 10.2617 4.15776 9.29529 4.15776 8.10314L4.15776 6.86328L9.49316 6.86328Z" fill="white"/>
<path fill-rule="evenodd" clip-rule="evenodd" d="M6.13672 5.98365L6.13672 7.08398L5.13672 7.08398L5.13672 5.98365L6.13672 5.98365Z" fill="white"/>
<path fill-rule="evenodd" clip-rule="evenodd" d="M8.51367 5.98365L8.51367 7.08398L7.51367 7.08398L7.51367 5.98365L8.51367 5.98365Z" fill="white"/>
<path fill-rule="evenodd" clip-rule="evenodd" d="M6.3252 12.1465L6.3252 10.0636L7.3252 10.0636L7.3252 12.1465L6.3252 12.1465Z" fill="white"/>
</svg>
