<svg xmlns="http://www.w3.org/2000/svg" xmlns:xlink="http://www.w3.org/1999/xlink" viewBox="0 0 456.01 262.12"><defs><linearGradient id="未命名的渐变_26" x1="1" y1="91.35" x2="1" y2="181.12" gradientUnits="userSpaceOnUse"><stop offset="0" stop-color="#81cfff"/><stop offset="1" stop-color="#5ecfff" stop-opacity="0"/></linearGradient><linearGradient id="未命名的渐变_26-2" x1="455.01" y1="72.11" x2="455.01" y2="161.88" xlink:href="#未命名的渐变_26"/><linearGradient id="未命名的渐变_26-3" x1="40.9" y1="143.88" x2="40.9" y2="199.51" xlink:href="#未命名的渐变_26"/><linearGradient id="未命名的渐变_26-4" x1="64.97" y1="95.36" x2="64.97" y2="123.17" xlink:href="#未命名的渐变_26"/><linearGradient id="未命名的渐变_26-5" x1="397.23" y1="104.2" x2="397.23" y2="132.02" xlink:href="#未命名的渐变_26"/><linearGradient id="未命名的渐变_26-6" x1="424.75" y1="133.49" x2="424.75" y2="189.13" xlink:href="#未命名的渐变_26"/><linearGradient id="未命名的渐变_26-7" x1="232.75" y1="224.43" x2="232.75" y2="262.12" xlink:href="#未命名的渐变_26"/><linearGradient id="未命名的渐变_26-8" x1="349.36" y1="26.68" x2="349.36" y2="204.03" xlink:href="#未命名的渐变_26"/><linearGradient id="未命名的渐变_26-9" x1="201.45" y1="55.61" x2="201.45" y2="204.03" xlink:href="#未命名的渐变_26"/><linearGradient id="未命名的渐变_26-10" x1="122.98" y1="26.68" x2="122.98" y2="204.03" xlink:href="#未命名的渐变_26"/><linearGradient id="未命名的渐变_26-11" x1="273.51" y1="0" x2="273.51" y2="209.54" xlink:href="#未命名的渐变_26"/><style>.cls-13{fill:#40a8f5}.cls-14{fill:#53b9f5}.cls-17{fill:#ffeed2}.cls-20{fill:#ebfcff}.cls-21{fill:#ffb056}.cls-23{fill:#fae6d2}</style></defs><g id="图层_2" data-name="图层 2"><g id="图层_1-2" data-name="图层 1"><path style="stroke:url(#未命名的渐变_26);stroke-width:2px;fill:none;stroke-miterlimit:10" d="M1 91.35v89.77"/><path style="stroke:url(#未命名的渐变_26-2);stroke-width:2px;fill:none;stroke-miterlimit:10" d="M455.01 72.11v89.77"/><path style="stroke:url(#未命名的渐变_26-3);stroke-width:2px;fill:none;stroke-miterlimit:10" d="M40.9 143.88v55.63"/><path style="stroke:url(#未命名的渐变_26-4);stroke-width:2px;fill:none;stroke-miterlimit:10" d="M64.97 95.36v27.81"/><path style="stroke:url(#未命名的渐变_26-5);stroke-width:2px;fill:none;stroke-miterlimit:10" d="M397.23 104.2v27.82"/><path style="stroke:url(#未命名的渐变_26-6);stroke-width:2px;fill:none;stroke-miterlimit:10" d="M424.75 133.49v55.64"/><path d="M412.28 262.12c-23-23-61-37.69-179.53-37.69S76.24 239.1 53.21 262.12z" style="fill:url(#未命名的渐变_26-7);opacity:.4"/><g style="opacity:.7"><path d="M380.66 26.68h-62.59a2.71 2.71 0 0 0-2.82 2.59v172.17a2.71 2.71 0 0 0 2.82 2.59h62.59a2.72 2.72 0 0 0 2.82-2.59V29.27a2.72 2.72 0 0 0-2.82-2.59zM328.3 147a.9.9 0 0 1-.95.87h-3.6a.9.9 0 0 1-.95-.87v-19.73a.91.91 0 0 1 .95-.87h3.6a.91.91 0 0 1 .95.87zm0-30.23a.91.91 0 0 1-.95.87h-3.6a.91.91 0 0 1-.95-.87V97a.91.91 0 0 1 .95-.87h3.6a.91.91 0 0 1 .95.87zm0-30.24a.91.91 0 0 1-.95.87h-3.6a.91.91 0 0 1-.95-.87V66.8a.91.91 0 0 1 .95-.87h3.6a.91.91 0 0 1 .95.87zm0-30.24a.91.91 0 0 1-.95.87h-3.6a.91.91 0 0 1-.95-.87V36.56a.91.91 0 0 1 .95-.87h3.6a.91.91 0 0 1 .95.87zM340 147a.9.9 0 0 1-.94.87h-3.61a.91.91 0 0 1-.95-.87v-19.73a.92.92 0 0 1 .95-.87h3.61a.91.91 0 0 1 .94.87zm0-30.23a.91.91 0 0 1-.94.87h-3.61a.92.92 0 0 1-.95-.87V97a.92.92 0 0 1 .95-.87h3.61a.91.91 0 0 1 .94.87zm0-30.24a.91.91 0 0 1-.94.87h-3.61a.92.92 0 0 1-.95-.87V66.8a.92.92 0 0 1 .95-.87h3.61a.91.91 0 0 1 .94.87zm0-30.24a.91.91 0 0 1-.94.87h-3.61a.92.92 0 0 1-.95-.87V36.56a.92.92 0 0 1 .95-.87h3.61a.91.91 0 0 1 .94.87zM351.7 147a.9.9 0 0 1-.94.87h-3.61a.9.9 0 0 1-.94-.87v-19.73a.91.91 0 0 1 .94-.87h3.61a.91.91 0 0 1 .94.87zm0-30.23a.91.91 0 0 1-.94.87h-3.61a.91.91 0 0 1-.94-.87V97a.91.91 0 0 1 .94-.87h3.61a.91.91 0 0 1 .94.87zm0-30.24a.91.91 0 0 1-.94.87h-3.61a.91.91 0 0 1-.94-.87V66.8a.91.91 0 0 1 .94-.87h3.61a.91.91 0 0 1 .94.87zm0-30.24a.91.91 0 0 1-.94.87h-3.61a.91.91 0 0 1-.94-.87V36.56a.91.91 0 0 1 .94-.87h3.61a.91.91 0 0 1 .94.87zM363.4 147a.9.9 0 0 1-.94.87h-3.61a.9.9 0 0 1-.94-.87v-19.73a.91.91 0 0 1 .94-.87h3.61a.91.91 0 0 1 .94.87zm0-30.23a.91.91 0 0 1-.94.87h-3.61a.91.91 0 0 1-.94-.87V97a.91.91 0 0 1 .94-.87h3.61a.91.91 0 0 1 .94.87zm0-30.24a.91.91 0 0 1-.94.87h-3.61a.91.91 0 0 1-.94-.87V66.8a.91.91 0 0 1 .94-.87h3.61a.91.91 0 0 1 .94.87zm0-30.24a.91.91 0 0 1-.94.87h-3.61a.91.91 0 0 1-.94-.87V36.56a.91.91 0 0 1 .94-.87h3.61a.91.91 0 0 1 .94.87zM375.11 147a.91.91 0 0 1-.95.87h-3.61a.9.9 0 0 1-.94-.87v-19.73a.91.91 0 0 1 .94-.87h3.61a.92.92 0 0 1 .95.87zm0-30.23a.92.92 0 0 1-.95.87h-3.61a.91.91 0 0 1-.94-.87V97a.91.91 0 0 1 .94-.87h3.61a.92.92 0 0 1 .95.87zm0-30.24a.92.92 0 0 1-.95.87h-3.61a.91.91 0 0 1-.94-.87V66.8a.91.91 0 0 1 .94-.87h3.61a.92.92 0 0 1 .95.87zm0-30.24a.92.92 0 0 1-.95.87h-3.61a.91.91 0 0 1-.94-.87V36.56a.91.91 0 0 1 .94-.87h3.61a.92.92 0 0 1 .95.87z" style="fill:url(#未命名的渐变_26-8);opacity:.4"/><path d="M231.1 55.61h-59.3a2.71 2.71 0 0 0-2.8 2.59v143.24a2.71 2.71 0 0 0 2.8 2.56h59.3a2.71 2.71 0 0 0 2.82-2.59V58.2a2.71 2.71 0 0 0-2.82-2.59zm-48.63 103.76a1.16 1.16 0 0 1-1.2 1.11h-5.4a1.16 1.16 0 0 1-1.2-1.11v-5.22a1.15 1.15 0 0 1 1.2-1.1h5.4a1.15 1.15 0 0 1 1.2 1.1zm0-12.88a1.15 1.15 0 0 1-1.2 1.1h-5.4a1.15 1.15 0 0 1-1.2-1.1v-5.22a1.16 1.16 0 0 1 1.2-1.11h5.4a1.16 1.16 0 0 1 1.2 1.11zm0-12.89a1.16 1.16 0 0 1-1.2 1.11h-5.4a1.16 1.16 0 0 1-1.2-1.11v-5.22a1.15 1.15 0 0 1 1.2-1.1h5.4a1.15 1.15 0 0 1 1.2 1.1zm0-12.88a1.15 1.15 0 0 1-1.2 1.1h-5.4a1.15 1.15 0 0 1-1.2-1.1v-5.22a1.16 1.16 0 0 1 1.2-1.11h5.4a1.16 1.16 0 0 1 1.2 1.11zm0-12.89a1.16 1.16 0 0 1-1.2 1.11h-5.4a1.16 1.16 0 0 1-1.2-1.11v-5.21a1.15 1.15 0 0 1 1.2-1.11h5.4a1.15 1.15 0 0 1 1.2 1.11zm0-12.88a1.15 1.15 0 0 1-1.2 1.1h-5.4a1.15 1.15 0 0 1-1.2-1.1v-5.22a1.16 1.16 0 0 1 1.2-1.11h5.4a1.16 1.16 0 0 1 1.2 1.11zm0-12.89a1.16 1.16 0 0 1-1.2 1.11h-5.4a1.16 1.16 0 0 1-1.2-1.11v-5.21a1.15 1.15 0 0 1 1.2-1.11h5.4a1.15 1.15 0 0 1 1.2 1.11zm0-12.88a1.15 1.15 0 0 1-1.2 1.1h-5.4a1.15 1.15 0 0 1-1.2-1.1V64a1.16 1.16 0 0 1 1.2-1.11h5.4a1.16 1.16 0 0 1 1.2 1.11zm10.08 90.19a1.16 1.16 0 0 1-1.2 1.11H186a1.16 1.16 0 0 1-1.21-1.11v-5.22a1.16 1.16 0 0 1 1.21-1.1h5.4a1.15 1.15 0 0 1 1.2 1.1zm0-12.88a1.15 1.15 0 0 1-1.2 1.1H186a1.16 1.16 0 0 1-1.21-1.1v-5.22a1.16 1.16 0 0 1 1.21-1.11h5.4a1.16 1.16 0 0 1 1.2 1.11zm0-12.89a1.16 1.16 0 0 1-1.2 1.11H186a1.16 1.16 0 0 1-1.21-1.11v-5.22a1.16 1.16 0 0 1 1.21-1.1h5.4a1.15 1.15 0 0 1 1.2 1.1zm0-12.88a1.15 1.15 0 0 1-1.2 1.1H186a1.16 1.16 0 0 1-1.21-1.1v-5.22a1.16 1.16 0 0 1 1.21-1.11h5.4a1.16 1.16 0 0 1 1.2 1.11zm0-12.89a1.16 1.16 0 0 1-1.2 1.11H186a1.16 1.16 0 0 1-1.21-1.11v-5.21a1.16 1.16 0 0 1 1.21-1.11h5.4a1.15 1.15 0 0 1 1.2 1.11zm0-12.88a1.15 1.15 0 0 1-1.2 1.1H186a1.16 1.16 0 0 1-1.21-1.1v-5.22a1.16 1.16 0 0 1 1.21-1.11h5.4a1.16 1.16 0 0 1 1.2 1.11zm0-12.89a1.16 1.16 0 0 1-1.2 1.11H186a1.16 1.16 0 0 1-1.21-1.11v-5.21a1.16 1.16 0 0 1 1.21-1.11h5.4a1.15 1.15 0 0 1 1.2 1.11zm0-12.88a1.15 1.15 0 0 1-1.2 1.1H186a1.16 1.16 0 0 1-1.21-1.1V64a1.16 1.16 0 0 1 1.21-1.15h5.4a1.16 1.16 0 0 1 1.2 1.11zm10.08 90.19a1.16 1.16 0 0 1-1.21 1.11H196a1.16 1.16 0 0 1-1.2-1.11v-5.22a1.15 1.15 0 0 1 1.2-1.1h5.4a1.16 1.16 0 0 1 1.21 1.1zm0-12.88a1.16 1.16 0 0 1-1.21 1.1H196a1.15 1.15 0 0 1-1.2-1.1v-5.22a1.16 1.16 0 0 1 1.2-1.11h5.4a1.16 1.16 0 0 1 1.21 1.11zm0-12.89a1.16 1.16 0 0 1-1.21 1.11H196a1.16 1.16 0 0 1-1.2-1.11v-5.22a1.15 1.15 0 0 1 1.2-1.1h5.4a1.16 1.16 0 0 1 1.21 1.1zm0-12.88a1.16 1.16 0 0 1-1.21 1.1H196a1.15 1.15 0 0 1-1.2-1.1v-5.22a1.16 1.16 0 0 1 1.2-1.11h5.4a1.16 1.16 0 0 1 1.21 1.11zm0-12.89a1.16 1.16 0 0 1-1.21 1.11H196a1.16 1.16 0 0 1-1.2-1.11v-5.21a1.15 1.15 0 0 1 1.2-1.11h5.4a1.16 1.16 0 0 1 1.21 1.11zm0-12.88a1.16 1.16 0 0 1-1.21 1.1H196a1.15 1.15 0 0 1-1.2-1.1v-5.22a1.16 1.16 0 0 1 1.2-1.11h5.4a1.16 1.16 0 0 1 1.21 1.11zm0-12.89a1.16 1.16 0 0 1-1.21 1.11H196a1.16 1.16 0 0 1-1.2-1.11v-5.21a1.15 1.15 0 0 1 1.2-1.11h5.4a1.16 1.16 0 0 1 1.21 1.11zm0-12.88a1.16 1.16 0 0 1-1.21 1.1H196a1.15 1.15 0 0 1-1.2-1.1V64a1.16 1.16 0 0 1 1.2-1.11h5.4a1.16 1.16 0 0 1 1.23 1.11zm25.21 90.19a1.16 1.16 0 0 1-1.2 1.11H206.1a1.16 1.16 0 0 1-1.2-1.11v-5.22a1.15 1.15 0 0 1 1.2-1.1h20.54a1.15 1.15 0 0 1 1.2 1.1zm0-12.88a1.15 1.15 0 0 1-1.2 1.1H206.1a1.15 1.15 0 0 1-1.2-1.1v-5.22a1.16 1.16 0 0 1 1.2-1.11h20.54a1.16 1.16 0 0 1 1.2 1.11zm0-12.89a1.16 1.16 0 0 1-1.2 1.11H206.1a1.16 1.16 0 0 1-1.2-1.11v-5.22a1.15 1.15 0 0 1 1.2-1.1h20.54a1.15 1.15 0 0 1 1.2 1.1zm0-12.88a1.15 1.15 0 0 1-1.2 1.1H206.1a1.15 1.15 0 0 1-1.2-1.1v-5.22a1.16 1.16 0 0 1 1.2-1.11h20.54a1.16 1.16 0 0 1 1.2 1.11zm0-12.89a1.16 1.16 0 0 1-1.2 1.11H206.1a1.16 1.16 0 0 1-1.2-1.11v-5.21a1.15 1.15 0 0 1 1.2-1.11h20.54a1.15 1.15 0 0 1 1.2 1.11zm0-12.88a1.15 1.15 0 0 1-1.2 1.1H206.1a1.15 1.15 0 0 1-1.2-1.1v-5.22a1.16 1.16 0 0 1 1.2-1.11h20.54a1.16 1.16 0 0 1 1.2 1.11zm0-12.89a1.16 1.16 0 0 1-1.2 1.11H206.1a1.16 1.16 0 0 1-1.2-1.11v-5.21a1.15 1.15 0 0 1 1.2-1.11h20.54a1.15 1.15 0 0 1 1.2 1.11zm0-12.88a1.15 1.15 0 0 1-1.2 1.1H206.1a1.15 1.15 0 0 1-1.2-1.1V64a1.16 1.16 0 0 1 1.2-1.11h20.54a1.16 1.16 0 0 1 1.2 1.11z" style="fill:url(#未命名的渐变_26-9);opacity:.4"/><path d="M161.13 26.68h-76.3A2.71 2.71 0 0 0 82 29.27v172.17a2.71 2.71 0 0 0 2.83 2.56h76.3a2.71 2.71 0 0 0 2.82-2.59V29.27a2.71 2.71 0 0 0-2.82-2.59zM154.34 161a1.16 1.16 0 0 1-1.2 1.11H92.83a1.16 1.16 0 0 1-1.21-1.11v-5.21a1.16 1.16 0 0 1 1.21-1.11h60.31a1.15 1.15 0 0 1 1.2 1.11zm0-14.67a1.15 1.15 0 0 1-1.2 1.1H92.83a1.16 1.16 0 0 1-1.21-1.1v-5.22a1.16 1.16 0 0 1 1.21-1.11h60.31a1.16 1.16 0 0 1 1.2 1.11zm0-14.68a1.16 1.16 0 0 1-1.2 1.11H92.83a1.16 1.16 0 0 1-1.21-1.11v-5.22a1.16 1.16 0 0 1 1.21-1.1h60.31a1.15 1.15 0 0 1 1.2 1.1zm0-14.68a1.16 1.16 0 0 1-1.2 1.11H92.83a1.16 1.16 0 0 1-1.21-1.11v-5.21a1.16 1.16 0 0 1 1.21-1.11h60.31a1.15 1.15 0 0 1 1.2 1.11zm0-14.67a1.15 1.15 0 0 1-1.2 1.1H92.83a1.16 1.16 0 0 1-1.21-1.1V97a1.16 1.16 0 0 1 1.21-1.11h60.31a1.16 1.16 0 0 1 1.2 1.11zm0-14.68a1.16 1.16 0 0 1-1.2 1.11H92.83a1.16 1.16 0 0 1-1.21-1.11v-5.27a1.16 1.16 0 0 1 1.21-1.1h60.31a1.15 1.15 0 0 1 1.2 1.1zm0-14.68a1.16 1.16 0 0 1-1.2 1.11H92.83a1.16 1.16 0 0 1-1.21-1.11v-5.26a1.16 1.16 0 0 1 1.21-1.11h60.31a1.15 1.15 0 0 1 1.2 1.11zm0-14.67a1.15 1.15 0 0 1-1.2 1.1H92.83a1.16 1.16 0 0 1-1.21-1.1V53a1.16 1.16 0 0 1 1.21-1.11h60.31a1.16 1.16 0 0 1 1.2 1.11zm0-14.68a1.16 1.16 0 0 1-1.2 1.11H92.83a1.16 1.16 0 0 1-1.21-1.11v-5.27a1.16 1.16 0 0 1 1.21-1.1h60.31a1.15 1.15 0 0 1 1.2 1.1z" style="fill:url(#未命名的渐变_26-10);opacity:.4"/><path d="M306.21 0h-65.39a2.51 2.51 0 0 0-2.42 2.59v204.35a2.51 2.51 0 0 0 2.42 2.6h65.39a2.51 2.51 0 0 0 2.41-2.6V2.59A2.51 2.51 0 0 0 306.21 0zm-5.82 134.28a1.06 1.06 0 0 1-1 1.1h-51.72a1.06 1.06 0 0 1-1-1.1v-5.22a1.07 1.07 0 0 1 1-1.11h51.69a1.07 1.07 0 0 1 1 1.11zm0-14.68a1.07 1.07 0 0 1-1 1.11h-51.72a1.07 1.07 0 0 1-1-1.11v-5.22a1.06 1.06 0 0 1 1-1.1h51.69a1.06 1.06 0 0 1 1 1.1zm0-14.68a1.07 1.07 0 0 1-1 1.11h-51.72a1.07 1.07 0 0 1-1-1.11v-5.21a1.07 1.07 0 0 1 1-1.11h51.69a1.07 1.07 0 0 1 1 1.11zm0-14.67a1.06 1.06 0 0 1-1 1.1h-51.72a1.06 1.06 0 0 1-1-1.1V85a1.07 1.07 0 0 1 1-1.11h51.69a1.07 1.07 0 0 1 1 1.11zm0-14.68a1.07 1.07 0 0 1-1 1.11h-51.72a1.07 1.07 0 0 1-1-1.11v-5.22a1.06 1.06 0 0 1 1-1.1h51.69a1.06 1.06 0 0 1 1 1.1zm0-14.68a1.07 1.07 0 0 1-1 1.11h-51.72a1.07 1.07 0 0 1-1-1.11v-5.21a1.07 1.07 0 0 1 1-1.11h51.69a1.07 1.07 0 0 1 1 1.11zm0-14.67a1.06 1.06 0 0 1-1 1.1h-51.72a1.06 1.06 0 0 1-1-1.1V41a1.07 1.07 0 0 1 1-1.11h51.69a1.07 1.07 0 0 1 1 1.11zm0-14.68a1.07 1.07 0 0 1-1 1.11h-51.72a1.07 1.07 0 0 1-1-1.11v-5.22a1.06 1.06 0 0 1 1-1.1h51.69a1.06 1.06 0 0 1 1 1.1zm0-14.68a1.07 1.07 0 0 1-1 1.11h-51.72a1.07 1.07 0 0 1-1-1.11v-5.21a1.07 1.07 0 0 1 1-1.11h51.69a1.07 1.07 0 0 1 1 1.11z" style="fill:url(#未命名的渐变_26-11);opacity:.4"/></g><path class="cls-13" d="M295.06 98.88V177c-4.93-3.84-14.28-5.29-15.66-5.42v-72.7a7.83 7.83 0 0 1 11.71-6.8 7.94 7.94 0 0 1 1.66 1.27 7.77 7.77 0 0 1 2.29 5.53z"/><path class="cls-14" d="M279.4 171.6v22.27a7.84 7.84 0 0 1-15.67 0v-78.58a7.85 7.85 0 0 0-2.29-5.54 7.53 7.53 0 0 0-1.11-.92c-1.44-1.29-19.11-10.25-34.35-17.38V73.66a7.85 7.85 0 0 1 9.89-7.56l.18.05c4.45-.54 52.62 23.75 55.06 25.93a7.83 7.83 0 0 0-11.71 6.8z"/><path class="cls-13" d="M263.73 193.87a7.83 7.83 0 0 0 4.86 7.24c-1.81-.29-10.49-4.09-20.48-8.73v-77.09a7.83 7.83 0 0 1 12.26-6.46 7.53 7.53 0 0 1 1.11.92 7.85 7.85 0 0 1 2.29 5.54z"/><path d="M226 91.45c15.24 7.13 32.91 16.09 34.35 17.38a7.83 7.83 0 0 0-12.26 6.46v94.83a7.85 7.85 0 0 1-7.83 7.83 7.61 7.61 0 0 1-2.25-.33h-.08a7.83 7.83 0 0 1-5.5-7.48v-8.44c-9.92-2-25.82-9.21-37.84-15.63a7.68 7.68 0 0 0 .09-1.17V90.07a7.82 7.82 0 0 1 7.83-7.83 6.88 6.88 0 0 1 1.29.11h.19c1.94.03 11.38 4.12 22.01 9.1zm15.09 98.41v-5.15a.37.37 0 0 0-.2-.33L203 166.1a.37.37 0 0 0-.53.33v5.15a.36.36 0 0 0 .21.33l37.85 18.28a.36.36 0 0 0 .54-.33zm0-22.38v-5.15a.37.37 0 0 0-.2-.33L203 143.72a.37.37 0 0 0-.53.33v5.15a.36.36 0 0 0 .21.33l37.85 18.28a.37.37 0 0 0 .54-.33zm0-22.39V140a.36.36 0 0 0-.2-.33L203 121.34a.37.37 0 0 0-.53.33v5.15a.36.36 0 0 0 .21.33l37.85 18.27a.36.36 0 0 0 .54-.33zm0-22.38v-5.15a.37.37 0 0 0-.2-.33L203 99a.36.36 0 0 0-.53.32v5.15a.36.36 0 0 0 .21.33l37.87 18.2a.36.36 0 0 0 .52-.29z" style="fill:#8cd7ff"/><path class="cls-13" d="M241.07 184.71v5.15a.36.36 0 0 1-.52.33l-37.85-18.28a.36.36 0 0 1-.21-.33v-5.15a.37.37 0 0 1 .53-.33l37.85 18.28a.37.37 0 0 1 .2.33zm0-22.38v5.15a.37.37 0 0 1-.52.33l-37.85-18.28a.36.36 0 0 1-.21-.33v-5.15a.37.37 0 0 1 .53-.33L240.87 162a.37.37 0 0 1 .2.33zm0-22.33v5.14a.36.36 0 0 1-.52.33l-37.85-18.32a.36.36 0 0 1-.21-.33v-5.15a.37.37 0 0 1 .53-.33l37.85 18.28a.36.36 0 0 1 .2.38zm0-22.44v5.15a.36.36 0 0 1-.52.33l-37.85-18.28a.36.36 0 0 1-.21-.33v-5.15A.36.36 0 0 1 203 99l37.85 18.27a.37.37 0 0 1 .22.29z"/><path class="cls-14" d="M232.41 210.12a7.83 7.83 0 0 0 5.5 7.48c-4.9-.95-50.65-22.79-55.32-26.12l-.09-.06a7.8 7.8 0 0 1-3.5-6.52v-8.42c2.09 1.89 8.08 5.58 15.58 9.59 12 6.42 27.92 13.66 37.84 15.63z"/><path d="M218.37 121.59c.32 0 .42 0 .38.2s.19 1-.18 1.09a17.78 17.78 0 0 1-4.14-.24c-.74-.08-3.1-.51-3.57-.49s-2.58-.08-3.14-.05a20.86 20.86 0 0 1-2.72-.1c-.57-.1-2.36-.85-1.68-2.35m29.1-5.03c.32 0 1.28 1.42 1.25 1.87a2.56 2.56 0 0 1-.92 1.64c-.48.27-2.58.21-3.18.83a9.7 9.7 0 0 0-1.87 2.59 2.29 2.29 0 0 1-2 1.21c-1 0-2.36-.1-3.41 0s-1.76-.07-1.73-1.16" style="stroke:#4986d9;stroke-width:.11px;fill:none;stroke-miterlimit:10"/><ellipse class="cls-17" cx="237.51" cy="60.25" rx="1.08" ry=".74" transform="rotate(-89.23 237.519 60.252)"/><ellipse cx="237.51" cy="60.25" rx=".63" ry=".43" transform="rotate(-89.23 237.519 60.252)" style="fill:#e55c5c;opacity:.2"/><path d="m240 66.35.33.44a2.85 2.85 0 0 0 .09-.44c-.18-.1-.42 0-.42 0zm-4.85.82a.62.62 0 0 0 .3.48c.08-.22.16-.42.23-.59 0 0-.42-.06-.53.11z" style="fill:#e49056"/><path class="cls-20" d="M203.32 119.6c-.68 1.5 1.11 2.25 1.68 2.35a20.86 20.86 0 0 0 2.72.15c.56 0 2.66.06 3.14.05s2.83.41 3.57.49a17.78 17.78 0 0 0 4.14.24c.37 0 .13-.92.18-1.09s-.06-.15-.38-.2a20.73 20.73 0 0 1-4.39-.17c-.65-.11-2.71-.4-3.45-.43s-4 .06-4.83.09a3.51 3.51 0 0 1-1.67-.49 1.7 1.7 0 0 1-.69-1z"/><path class="cls-21" d="M205.65 118.21c-2 .18-2.42.81-2.31 1.38a1.7 1.7 0 0 0 .69 1 3.51 3.51 0 0 0 1.67.49c.8 0 4.1-.11 4.83-.09s2.8.32 3.45.43a20.73 20.73 0 0 0 4.39.17 9 9 0 0 0-.11-3.42c0-.39.06-1 .32-1.08s-.18-.55-.49-.94a1.49 1.49 0 0 1-.61.63 5.16 5.16 0 0 1-1.72.36 2.7 2.7 0 0 1-2.37-.81c-.22-.21-.38-.41-.52-.52a4.93 4.93 0 0 1-2 1.72c-.76.37-3.74.47-5.22.68z"/><path d="m215 92.8-2.22 22.48.81.15 3.89.72h.17l2.09-14.61.55-3.81 4.56.1 15.31.34a1.58 1.58 0 0 0 1.61-1.41l.38-3.25c-2.33.3-6.45-1-7.89-3.05l-17.82.94a1.52 1.52 0 0 0-1.44 1.4z" style="fill:#398eed"/><path class="cls-23" d="m213.54 115.43-.15.89a2.7 2.7 0 0 0 2.37.81 5.16 5.16 0 0 0 1.72-.36v-.63z"/><path d="M216.56 90.26a1 1 0 0 0-.77 1.23v.08a1.54 1.54 0 0 1 .57-.14l17.82-.94a2.6 2.6 0 0 1-.51-1.38zm12.52 21.52-.17-.53-4.1-13.39-4.57-.1-.55 3.81 4.65 13.47 1.27-.8 3.54-2.21-.07-.25z" style="fill:#257fba"/><path class="cls-21" d="M221.62 119.06c-.3.18-1.18 1.26-1.13 1.79a4.27 4.27 0 0 0 0 .72.41.41 0 0 0 .25.25 25.52 25.52 0 0 0 4.65.06 1.82 1.82 0 0 0 1.52-1.07 8.42 8.42 0 0 1 1.41-2.12c1.47-1.64 3.84-1 4.19-1.86a2.48 2.48 0 0 0-.13-2.22.65.65 0 0 0-.25-.22 4.4 4.4 0 0 1-1.46-1.42 7.94 7.94 0 0 1-.48-1.73 3.32 3.32 0 0 0-1.32 0l.17.53c.34 0 .86.2.77.63a1.24 1.24 0 0 1-.36.78 2.64 2.64 0 0 0-.68.89c-.12.32-.16 1.15-.52 1.3s-.93.12-1-.24-.05-.59-.5-.67a6.64 6.64 0 0 0-1.05-.12c-.09.08.06.56.27.91a1 1 0 0 1 .05 1.14c-.23.37-1.4 2.18-2 2.3a16.34 16.34 0 0 0-2.4.37z"/><path class="cls-20" d="M220.53 121.58c0 1.09.68 1.25 1.73 1.16s2.4 0 3.41 0a2.29 2.29 0 0 0 2-1.21 9.7 9.7 0 0 1 1.87-2.59c.6-.62 2.7-.56 3.18-.83a2.56 2.56 0 0 0 .92-1.64c0-.45-.93-1.87-1.25-1.87a2.48 2.48 0 0 1 .13 2.22c-.35.81-2.72.22-4.19 1.86a8.42 8.42 0 0 0-1.41 2.12 1.82 1.82 0 0 1-1.52 1.07 25.52 25.52 0 0 1-4.65-.06.41.41 0 0 1-.22-.23z"/><path class="cls-23" d="m225.61 114.24.06.11a6.64 6.64 0 0 1 1.05.12c.45.08.38.31.5.67s.68.39 1 .24.4-1 .52-1.3a2.64 2.64 0 0 1 .68-.89 1.24 1.24 0 0 0 .36-.78c.09-.43-.43-.61-.77-.63l.07.25z"/><path class="cls-17" d="M232.16 59.7c.32 1.48-.53 2.08-.34 2.87s.73.2 1.17.53a2.75 2.75 0 0 0 2.57 1.63 2.82 2.82 0 0 0 .57-.09 5.3 5.3 0 0 0 .67-.23l.4-.19a4.58 4.58 0 0 0 1.86-1.57 3.48 3.48 0 0 0 .35-.66 4.41 4.41 0 0 0 0-3c-.74-2.39-2.92-3.84-4.87-3.24a3.83 3.83 0 0 0-2.38 3.95z"/><path class="cls-21" d="M234.78 75.13c-.13 1 .71 2.22 1.62 3.15l-1.9 2a1.52 1.52 0 0 1-.68.4s.37 7.15-.14 8.34a2.6 2.6 0 0 0 .51 1.38c1.44 2 5.56 3.35 7.89 3.05a3.18 3.18 0 0 0 .75-.17c.59-3.16.49-18.93.49-18.93v-.38a8.32 8.32 0 0 0-1.65-5.42l-.14-.18s-.65-1.31-1.16-2.11a2.85 2.85 0 0 1-.09.44 1.8 1.8 0 0 1-1.52 1.46 5.44 5.44 0 0 1-3.32-.6.62.62 0 0 1-.3-.48c-.35 1.31-.65 2.9-.65 2.9a22.06 22.06 0 0 0-1 5.65c0 .34.1 1 .13 1.37z"/><path class="cls-17" d="M235.68 67.06c-.07.17-.15.37-.23.59a5.44 5.44 0 0 0 3.32.6 1.8 1.8 0 0 0 1.52-1.46l-.33-.44-.49-.66a13 13 0 0 1-.41-3 4.58 4.58 0 0 1-1.86 1.57l-.4.19a5.3 5.3 0 0 1-.67.23 3 3 0 0 1-.2 1.77c-.04.08-.13.31-.25.61z"/><path class="cls-23" d="M219.65 89.54a.47.47 0 0 0-.15.4h.09c.41-.1 2.57-1.56 3.1-1.4a20.86 20.86 0 0 0 3.45-.12l4.9-6.64 2.1-3.72.53-.93c0-.37-.13-1-.13-1.37l-3 6.16-4.54 6.3s-2.83 0-3.12-.06a22.33 22.33 0 0 0-3.23 1.38z"/><path class="cls-13" d="m226.45 89.96-10.69.54.78-.66 9.08-.43.83.55z"/><path class="cls-13" d="m210.32 80.69 6.22 9.15-.78.66-6.45-9.95 1.01.14z"/><path class="cls-14" d="M226.45 89.96v.94l-11.52.68-6.59-10.64.97-.39 6.45 9.95 10.69-.54z"/><path class="cls-17" d="m231 81.74-4.9 6.64a20.86 20.86 0 0 1-3.45.12c-.53-.16-2.69 1.3-3.1 1.4h-.09c-.35.21-.43 1.09.51.77a14 14 0 0 1 2.75-1c.62 0 2.54.18 3 .19a2.06 2.06 0 0 0 1.25-.25l5.72-6.24c.15-.12 3.66-5.17 3.66-5.17-.91-.93-1.75-2.15-1.62-3.15z"/><path d="M230.93 58a1.76 1.76 0 0 1 .4-.37c.09 0 .11-.06.2-.45a4.22 4.22 0 0 1 4.07-2.68 4 4 0 0 1 3.82 2.13s1.32 2.72.83 4a9.55 9.55 0 0 1-.7 1.46 3.49 3.49 0 0 0-.34.71c.21.28.36.31.36.31h.34l-.3.16a.41.41 0 0 1-.23.06.79.79 0 0 1-.37-.1.92.92 0 0 1-.47-.67c-.07-.16-.32-.3-.55-.43s-.49-.28-.51-.47a1.39 1.39 0 0 1 0-.39c0-.46.13-1.24-.3-1.41a1.2 1.2 0 0 0-.41-.11 2.41 2.41 0 0 1 0 1.26l-.16.37-.05-.4a2.34 2.34 0 0 0-1.64-2 1.32 1.32 0 0 0-.74.16 1.36 1.36 0 0 1-.65.16 1.83 1.83 0 0 1-.44-.12.7.7 0 0 0-.55-.05 1.69 1.69 0 0 0-.45.19 1 1 0 0 1-.75.15.89.89 0 0 1-.61-.57 1 1 0 0 1 .2-.9z"/><path d="m234.78 75.13 3.32-4.61m2.79 5-2.58 4.2a6.44 6.44 0 0 1-1.91-1.44" style="stroke:#e49056;stroke-width:.22px;fill:none;stroke-miterlimit:10"/></g></g></svg>