<svg width="17" height="16" viewBox="0 0 17 16" fill="none" xmlns="http://www.w3.org/2000/svg">
<path d="M4.35742 0.999999C4.35742 0.723857 4.58128 0.5 4.85742 0.5H15.4289C15.705 0.5 15.9289 0.723857 15.9289 1V13.8571C15.9289 14.1333 15.705 14.3571 15.4288 14.3571H4.85742C4.58128 14.3571 4.35742 14.1333 4.35742 13.8571V0.999999Z" stroke="#FFD2A9"/>
<path fill-rule="evenodd" clip-rule="evenodd" d="M12.9997 4.89636H6.14258V3.67188H12.9997V4.89636ZM12.9997 7.95678H6.14258V6.73229H12.9997V7.95678ZM6.14258 11.0193H12.9997V9.79479H6.14258V11.0193Z" fill="#FFECDB"/>
<path d="M0.429688 3.28516C0.429688 2.73287 0.877403 2.28516 1.42969 2.28516H8.57254C9.12483 2.28516 9.57254 2.73287 9.57254 3.28516V13.8566C9.57254 14.4089 9.12483 14.8566 8.57254 14.8566H0.429688V3.28516Z" fill="#FFBC7E"/>
<path d="M8.21237 3.64589L7.35164 2.78516H9.0731V4.50662L8.21237 3.64589Z" fill="#FDFDFD" stroke="#FF9F46"/>
<path d="M4.16741 11.4291H2.96289V5.71537H4.72335C6.26761 5.69478 7.03974 6.2816 7.03974 7.47582C6.99856 8.58769 6.33967 9.17451 5.06308 9.23628H4.16741V11.4291ZM4.16741 6.67281V8.27884C4.22918 8.27884 4.35272 8.28913 4.53804 8.30972C5.36164 8.39208 5.76315 8.11412 5.74256 7.47582C5.74256 6.91989 5.34105 6.65222 4.53804 6.67281C4.35272 6.6934 4.22918 6.6934 4.16741 6.67281Z" fill="white"/>
</svg>
