<?xml version="1.0" encoding="UTF-8"?>
<svg width="14px" height="14px" viewBox="0 0 14 14" version="1.1" xmlns="http://www.w3.org/2000/svg" xmlns:xlink="http://www.w3.org/1999/xlink">
    <title>相机_o</title>
    <g id="页面-1" stroke="none" stroke-width="1" fill="none" fill-rule="evenodd">
        <g id="相机_o" fill-rule="nonzero">
            <rect id="矩形" fill="#000000" opacity="0" x="0" y="0" width="14" height="14"></rect>
            <path d="M5.66666667,3 L5.66666667,3.66666667 L2.33333333,3.66666667 L2.33333333,11 L12.3333333,11 L12.3333333,3.66666667 L9,3.66666667 L9,3 L5.66666667,3 Z M5,3 L5,2.33333333 L9.66666667,2.33333333 L9.66666667,3 L13,3 L13,11.6666667 L1.66666667,11.6666667 L1.66666667,3 L5,3 Z M7.33333333,9.66666667 C6.06666667,9.66666667 5,8.6 5,7.33333333 C5,6.06666666 6.06666667,5 7.33333333,5 C8.59999998,5 9.66666667,6.06666667 9.66666667,7.33333333 C9.66666667,8.59999998 8.6,9.66666667 7.33333333,9.66666667 L7.33333333,9.66666667 Z M7.33333333,9 C8.26666666,9 9,8.26666667 9,7.33333333 C9,6.39999998 8.26666667,5.66666667 7.33333333,5.66666667 C6.39999998,5.66666667 5.66666667,6.4 5.66666667,7.33333333 C5.66666667,8.26666666 6.4,9 7.33333333,9 Z" id="形状" fill="#ffffff"></path>
        </g>
    </g>
</svg>
