<svg width="15" height="14" viewBox="0 0 15 14" fill="none" xmlns="http://www.w3.org/2000/svg">
<path fill-rule="evenodd" clip-rule="evenodd" d="M8.05146 4.42084L7.09332 2.11719L6.13517 4.42084C5.84716 5.11331 5.19594 5.58645 4.44836 5.64638L1.96138 5.84576L3.85619 7.46887C4.42577 7.95678 4.67451 8.72233 4.5005 9.45184L3.9216 11.8787L6.05081 10.5782C6.69084 10.1873 7.49579 10.1873 8.13582 10.5782L10.265 11.8787L9.68613 9.45184C9.51211 8.72233 9.76086 7.95678 10.3304 7.46887L12.2253 5.84576L9.73827 5.64638C8.99069 5.58645 8.33947 5.11331 8.05146 4.42084ZM8.01664 1.73316C7.67504 0.911864 6.51159 0.911865 6.16999 1.73316L5.21185 4.03681C5.06785 4.38304 4.74223 4.61961 4.36844 4.64958L1.88146 4.84896C0.994808 4.92004 0.635283 6.02655 1.31082 6.60522L3.20564 8.22833C3.49043 8.47228 3.6148 8.85506 3.52779 9.21982L2.94889 11.6467C2.7425 12.5119 3.68376 13.1958 4.44286 12.7321L6.57206 11.4316C6.89208 11.2361 7.29455 11.2361 7.61457 11.4316L9.74377 12.7321C10.5029 13.1958 11.4441 12.5119 11.2377 11.6467L10.6588 9.21982C10.5718 8.85506 10.6962 8.47228 10.981 8.22833L12.8758 6.60522C13.5513 6.02655 13.1918 4.92004 12.3052 4.84896L9.81818 4.64958C9.4444 4.61961 9.11878 4.38304 8.97478 4.0368L8.01664 1.73316Z" fill="#9EA3B0"/>
</svg>
