<svg width="14" height="14" viewBox="0 0 14 14" fill="none" xmlns="http://www.w3.org/2000/svg">
<path fill-rule="evenodd" clip-rule="evenodd" d="M8.0915 4.30365L7.13335 2L6.17521 4.30365C5.8872 4.99612 5.23598 5.46926 4.4884 5.52919L2.00141 5.72857L3.89623 7.35169C4.46581 7.83959 4.71455 8.60515 4.54054 9.33466L3.96164 11.7615L6.09085 10.461C6.73088 10.0701 7.53583 10.0701 8.17586 10.461L10.3051 11.7615L9.72617 9.33465C9.55215 8.60514 9.8009 7.83959 10.3705 7.35169L12.2653 5.72857L9.77831 5.52919C9.03073 5.46926 8.37951 4.99612 8.0915 4.30365ZM8.05667 1.61597C7.71508 0.794676 6.55163 0.794678 6.21003 1.61597L5.25189 3.91962C5.10788 4.26585 4.78227 4.50242 4.40848 4.53239L1.9215 4.73177C1.03485 4.80285 0.675322 5.90936 1.35086 6.48803L3.24568 8.11114C3.53047 8.3551 3.65484 8.73787 3.56783 9.10263L2.98893 11.5295C2.78254 12.3947 3.7238 13.0786 4.4829 12.6149L6.6121 11.3144C6.93212 11.119 7.33459 11.119 7.65461 11.3144L9.78381 12.6149C10.5429 13.0786 11.4842 12.3947 11.2778 11.5295L10.6989 9.10263C10.6119 8.73787 10.7362 8.3551 11.021 8.11114L12.9159 6.48803C13.5914 5.90936 13.2319 4.80285 12.3452 4.73177L9.85822 4.53239C9.48443 4.50242 9.15882 4.26585 9.01482 3.91962L8.05667 1.61597Z" fill="#C4C4C4"/>
</svg>
