<svg width="15" height="14" viewBox="0 0 15 14" fill="none" xmlns="http://www.w3.org/2000/svg">
<path fill-rule="evenodd" clip-rule="evenodd" d="M8.18476 4.30365L7.22662 2L6.26847 4.30365C5.98046 4.99612 5.32924 5.46926 4.58166 5.52919L2.09468 5.72857L3.9895 7.35169C4.55907 7.83959 4.80782 8.60515 4.6338 9.33466L4.0549 11.7615L6.18411 10.461C6.82414 10.0701 7.62909 10.0701 8.26912 10.461L10.3983 11.7615L9.81943 9.33465C9.64542 8.60514 9.89416 7.83959 10.4637 7.35169L12.3586 5.72857L9.87157 5.52919C9.12399 5.46926 8.47277 4.99612 8.18476 4.30365ZM8.14994 1.61597C7.80834 0.794676 6.64489 0.794678 6.3033 1.61597L5.34515 3.91962C5.20115 4.26585 4.87554 4.50242 4.50175 4.53239L2.01476 4.73177C1.12811 4.80285 0.768584 5.90936 1.44412 6.48803L3.33894 8.11114C3.62373 8.3551 3.7481 8.73787 3.66109 9.10263L3.08219 11.5295C2.87581 12.3947 3.81706 13.0786 4.57616 12.6149L6.70536 11.3144C7.02538 11.119 7.42785 11.119 7.74787 11.3144L9.87708 12.6149C10.6362 13.0786 11.5774 12.3947 11.371 11.5295L10.7921 9.10263C10.7051 8.73787 10.8295 8.3551 11.1143 8.11114L13.0091 6.48803C13.6846 5.90936 13.3251 4.80285 12.4385 4.73177L9.95149 4.53239C9.5777 4.50242 9.25209 4.26585 9.10808 3.91962L8.14994 1.61597Z" fill="#9EA3B0"/>
</svg>
