<svg width="17" height="16" viewBox="0 0 17 16" fill="none" xmlns="http://www.w3.org/2000/svg">
<path d="M3.42969 1C3.42969 0.447715 3.8774 0 4.42969 0H15.4297C15.982 0 16.4297 0.447715 16.4297 1V11C16.4297 11.5523 15.982 12 15.4297 12H4.42969C3.8774 12 3.42969 11.5523 3.42969 11V1Z" fill="#E6E6FF"/>
<path fill-rule="evenodd" clip-rule="evenodd" d="M7.42969 4.89636H14.2868V3.67188H7.42969V4.89636ZM7.42969 7.95691H14.2868V6.73242H7.42969V7.95691Z" fill="white"/>
<path d="M0.429688 3.88086C0.429688 3.32857 0.877403 2.88086 1.42969 2.88086H8.57254C9.12483 2.88086 9.57254 3.32857 9.57254 3.88086V14.4523C9.57254 15.0046 9.12483 15.4523 8.57254 15.4523H0.429688V3.88086Z" fill="#9394F9"/>
<path d="M3.46481 12.0394H2.42969L4.25477 7H5.53506L7.30566 12.0394H6.21606L5.8347 10.9771H3.84617L3.46481 12.0394ZM4.11857 10.1326H5.5623L4.8813 7.98064H4.85406L4.11857 10.1326Z" fill="white"/>
<path d="M6.14453 2.88086H9.5731V6.30943L7.85882 4.59514L6.14453 2.88086Z" fill="#7475EE"/>
</svg>
