<svg width="17" height="16" viewBox="0 0 17 16" fill="none" xmlns="http://www.w3.org/2000/svg">
<path d="M4.35742 1.5957C4.35742 1.31956 4.58128 1.0957 4.85742 1.0957H15.4289C15.705 1.0957 15.9289 1.31956 15.9289 1.5957V14.4528C15.9289 14.729 15.705 14.9528 15.4288 14.9528H4.85742C4.58128 14.9528 4.35742 14.729 4.35742 14.4528V1.5957Z" stroke="#A4C7FF"/>
<path fill-rule="evenodd" clip-rule="evenodd" d="M12.9997 5.49207H6.14258V4.26758H12.9997V5.49207ZM12.9997 8.55248H6.14258V7.32799H12.9997V8.55248ZM6.14258 11.615H12.9997V10.3905H6.14258V11.615Z" fill="#E6F0FF"/>
<path d="M0.429688 3.88086C0.429688 3.32857 0.877403 2.88086 1.42969 2.88086H8.57254C9.12483 2.88086 9.57254 3.32857 9.57254 3.88086V14.4523C9.57254 15.0046 9.12483 15.4523 8.57254 15.4523H0.429688V3.88086Z" fill="#66A2FF"/>
<path d="M3.72167 10.365L4.54453 6.78711H5.5731L6.30453 10.365H6.32739L7.0131 6.78711H7.85882L6.78453 11.549H5.77882L5.02453 7.91967L4.20167 11.549H3.1731L2.14453 6.78711H3.08167L3.72167 10.365Z" fill="#FDFDFD"/>
<path d="M8.21237 4.24159L7.35164 3.38086H9.0731V5.10232L8.21237 4.24159Z" fill="#66A2FF" stroke="#3785FF"/>
</svg>
