<?xml version="1.0" encoding="UTF-8"?>
<svg width="19px" height="20px" viewBox="0 0 19 20" version="1.1" xmlns="http://www.w3.org/2000/svg" xmlns:xlink="http://www.w3.org/1999/xlink">
    <title>新</title>
    <g id="升级" stroke="none" stroke-width="1" fill="none" fill-rule="evenodd">
        <g id="版本升级备份-3" transform="translate(-1075.000000, -466.000000)" fill="#2CB360" fill-rule="nonzero">
            <g id="编组" transform="translate(1060.000000, 405.000000)">
                <g id="新" transform="translate(15.000000, 61.000000)">
                    <path d="M1.93553545,7.68993082 L3.18552323,7.68993082 L5.07550395,11.6298963 L5.65549876,7.68993082 L6.85548649,7.68993082 L5.99549525,13.5798791 L4.85550565,13.5798791 L2.8955229,9.50991341 L2.28552805,13.5798791 L1.07554031,13.5798791 L1.93553155,7.68993082 L1.93553545,7.68993082 Z M7.67548354,7.68992496 L10.8654482,7.68992496 L10.7154496,8.7199203 C10.6454503,8.7299202 8.86546695,8.7199203 8.74546681,8.7199203 L8.54546853,10.0299082 L10.4154492,10.0299082 L10.245451,11.0898977 L8.3854703,11.0898977 C8.37547041,11.159897 8.165472,12.4698837 8.17547201,12.5298837 L10.0754527,12.5298837 L9.91545431,13.5798732 L6.78548973,13.5798732 L7.675481,7.68992496 L7.67548354,7.68992496 Z M12.0254495,13.5798791 L11.1054582,7.68993082 C11.2054572,7.67993093 12.1554477,7.67993093 12.2154478,7.68993082 L12.7754426,11.2398959 L14.1554286,7.68993082 L14.8454216,7.68993082 L15.4054164,11.2698959 L16.8254024,7.68993082 L17.9853901,7.68993082 L15.6654069,13.5798791 L14.7754156,13.5798791 L14.2454209,10.2199142 L12.925433,13.5798791 L12.0254417,13.5798791 L12.0254495,13.5798791 Z M0.305572617,0.770000896 L0.305572617,18.4098261 C0.305572617,19.749812 1.59556045,20.2198087 2.74555593,19.8398121 C3.87554552,19.4498156 5.02553905,19.0898191 6.16552084,18.7198226 C7.28551043,18.339826 8.40550392,17.9798295 9.5354857,17.609833 C9.605485,17.5898332 9.59548519,17.5998331 9.66548449,17.6198329 C11.9254676,18.399826 14.2254312,19.109819 16.4954143,19.879816 C17.6054039,20.2598125 18.7853974,19.7298174 18.7853974,18.4198299 L18.7853974,0.780004697 C18.7853974,0.330010032 18.4254009,1.1601576e-05 17.9854063,1.1601576e-05 L1.07558191,1.1601576e-05 C0.655585329,1.1601576e-05 0.305572617,0.360008114 0.305572617,0.770004685 L0.305572617,0.770000896 Z" id="形状"></path>
                </g>
            </g>
        </g>
    </g>
</svg>