<svg width="141" height="72" viewBox="0 0 141 72" fill="none" xmlns="http://www.w3.org/2000/svg">
<g filter="url(#filter0_d_11022_2796)">
<mask id="path-1-outside-1_11022_2796" maskUnits="userSpaceOnUse" x="44.001" y="12.6875" width="38" height="29" fill="black">
<rect fill="white" x="44.001" y="12.6875" width="38" height="29"/>
<path fill-rule="evenodd" clip-rule="evenodd" d="M67.4592 39.7657H71.4507L62.3124 14.318C62.1766 13.9398 61.818 13.6875 61.4161 13.6875H56.2164C55.8167 13.6875 55.4595 13.9371 55.3221 14.3124L46.001 39.7657H49.9476C51.1889 39.7657 52.2882 38.9642 52.6679 37.7824L53.9509 33.7891H63.4334L64.7434 37.7962C65.1274 38.971 66.2233 39.7657 67.4592 39.7657ZM59.1553 20.4554L62.1197 29.496H55.1636L58.1448 20.388C58.3806 19.6809 58.5321 18.9458 58.5995 18.1826H58.7511C58.8297 19.1254 58.9644 19.883 59.1553 20.4554ZM80.1295 36.9084V13.6875H74.5713V39.7657H77.2722C78.8502 39.7657 80.1295 38.4864 80.1295 36.9084Z"/>
</mask>
<path fill-rule="evenodd" clip-rule="evenodd" d="M67.4592 39.7657H71.4507L62.3124 14.318C62.1766 13.9398 61.818 13.6875 61.4161 13.6875H56.2164C55.8167 13.6875 55.4595 13.9371 55.3221 14.3124L46.001 39.7657H49.9476C51.1889 39.7657 52.2882 38.9642 52.6679 37.7824L53.9509 33.7891H63.4334L64.7434 37.7962C65.1274 38.971 66.2233 39.7657 67.4592 39.7657ZM59.1553 20.4554L62.1197 29.496H55.1636L58.1448 20.388C58.3806 19.6809 58.5321 18.9458 58.5995 18.1826H58.7511C58.8297 19.1254 58.9644 19.883 59.1553 20.4554ZM80.1295 36.9084V13.6875H74.5713V39.7657H77.2722C78.8502 39.7657 80.1295 38.4864 80.1295 36.9084Z" fill="url(#paint0_linear_11022_2796)"/>
<path d="M71.4507 39.7657V40.7657H72.8723L72.3919 39.4277L71.4507 39.7657ZM62.3124 14.318L61.3713 14.656L61.3713 14.656L62.3124 14.318ZM55.3221 14.3124L56.2611 14.6563L56.2611 14.6563L55.3221 14.3124ZM46.001 39.7657L45.062 39.4218L44.5698 40.7657H46.001V39.7657ZM52.6679 37.7824L51.7159 37.4765L51.7159 37.4765L52.6679 37.7824ZM53.9509 33.7891V32.7891H53.2218L52.9988 33.4832L53.9509 33.7891ZM63.4334 33.7891L64.3839 33.4784L64.1586 32.7891H63.4334V33.7891ZM64.7434 37.7962L63.7929 38.107L63.7929 38.107L64.7434 37.7962ZM62.1197 29.496V30.496H63.5L63.0699 29.1845L62.1197 29.496ZM59.1553 20.4554L60.1056 20.1438L60.104 20.139L59.1553 20.4554ZM55.1636 29.496L54.2132 29.185L53.784 30.496H55.1636V29.496ZM58.1448 20.388L57.1961 20.0717L57.1944 20.077L58.1448 20.388ZM58.5995 18.1826V17.1826H57.6839L57.6034 18.0946L58.5995 18.1826ZM58.7511 18.1826L59.7476 18.0995L59.6712 17.1826H58.7511V18.1826ZM80.1295 13.6875H81.1295V12.6875H80.1295V13.6875ZM74.5713 13.6875V12.6875H73.5713V13.6875H74.5713ZM74.5713 39.7657H73.5713V40.7657H74.5713V39.7657ZM71.4507 38.7657H67.4592V40.7657H71.4507V38.7657ZM61.3713 14.656L70.5095 40.1037L72.3919 39.4277L63.2536 13.9801L61.3713 14.656ZM61.4161 14.6875C61.396 14.6875 61.3781 14.6749 61.3713 14.656L63.2536 13.9801C62.9751 13.2047 62.2399 12.6875 61.4161 12.6875V14.6875ZM56.2164 14.6875H61.4161V12.6875H56.2164V14.6875ZM56.2611 14.6563C56.2542 14.675 56.2364 14.6875 56.2164 14.6875V12.6875C55.397 12.6875 54.6648 13.1991 54.3831 13.9685L56.2611 14.6563ZM46.94 40.1096L56.2611 14.6563L54.3831 13.9685L45.062 39.4218L46.94 40.1096ZM49.9476 38.7657H46.001V40.7657H49.9476V38.7657ZM51.7159 37.4765C51.4691 38.2447 50.7545 38.7657 49.9476 38.7657V40.7657C51.6234 40.7657 53.1074 39.6837 53.62 38.0882L51.7159 37.4765ZM52.9988 33.4832L51.7159 37.4765L53.62 38.0882L54.9029 34.095L52.9988 33.4832ZM63.4334 32.7891H53.9509V34.7891H63.4334V32.7891ZM65.6939 37.4855L64.3839 33.4784L62.4829 34.0998L63.7929 38.107L65.6939 37.4855ZM67.4592 38.7657C66.6559 38.7657 65.9435 38.2491 65.6939 37.4855L63.7929 38.107C64.3114 39.6929 65.7907 40.7657 67.4592 40.7657V38.7657ZM63.0699 29.1845L60.1056 20.1438L58.2051 20.7669L61.1695 29.8076L63.0699 29.1845ZM55.1636 30.496H62.1197V28.496H55.1636V30.496ZM57.1944 20.077L54.2132 29.185L56.1139 29.8071L59.0951 20.6991L57.1944 20.077ZM57.6034 18.0946C57.5427 18.7823 57.4065 19.4407 57.1961 20.0717L59.0934 20.7044C59.3546 19.9212 59.5216 19.1093 59.5956 18.2705L57.6034 18.0946ZM58.7511 17.1826H58.5995V19.1826H58.7511V17.1826ZM60.104 20.139C59.9483 19.6722 59.8229 19.0023 59.7476 18.0995L57.7546 18.2657C57.8365 19.2484 57.9806 20.0937 58.2067 20.7717L60.104 20.139ZM79.1295 13.6875V36.9084H81.1295V13.6875H79.1295ZM74.5713 14.6875H80.1295V12.6875H74.5713V14.6875ZM75.5713 39.7657V13.6875H73.5713V39.7657H75.5713ZM77.2722 38.7657H74.5713V40.7657H77.2722V38.7657ZM79.1295 36.9084C79.1295 37.9342 78.2979 38.7657 77.2722 38.7657V40.7657C79.4025 40.7657 81.1295 39.0387 81.1295 36.9084H79.1295Z" fill="white" mask="url(#path-1-outside-1_11022_2796)"/>
</g>
<path d="M93.55 11.3118L90.1687 13.0303L88.3211 16.1731L86.4735 13.0303L83.0947 11.3118L86.4735 9.5932L88.3211 6.44805L90.1687 9.5932L93.55 11.3118ZM93.6291 7.11031L94.9995 6.73764L94.5988 8.01232L94.9995 9.287L93.6291 8.91195L92.2587 9.287L92.6619 8.01232L92.2587 6.73764L93.6291 7.11031ZM84.9908 6.13947L86.0167 5.85938L85.7156 6.8136L86.0167 7.76783L84.9908 7.48773L83.9649 7.76783L84.2661 6.8136L83.9649 5.85938L84.9908 6.13947Z" fill="white"/>
<path d="M93.55 11.3118L90.1687 13.0303L88.3211 16.1731L86.4735 13.0303L83.0947 11.3118L86.4735 9.5932L88.3211 6.44805L90.1687 9.5932L93.55 11.3118ZM93.6291 7.11031L94.9995 6.73764L94.5988 8.01232L94.9995 9.287L93.6291 8.91195L92.2587 9.287L92.6619 8.01232L92.2587 6.73764L93.6291 7.11031ZM84.9908 6.13947L86.0167 5.85938L85.7156 6.8136L86.0167 7.76783L84.9908 7.48773L83.9649 7.76783L84.2661 6.8136L83.9649 5.85938L84.9908 6.13947Z" fill="url(#paint1_linear_11022_2796)"/>
<path d="M0.5 68L3.916 57.682H5.792L9.208 68H7.486L6.618 65.074H3.034L2.166 68H0.5ZM3.426 63.786H6.226L5.82 62.4C5.484 61.28 5.176 60.132 4.854 58.97H4.798C4.49 60.146 4.168 61.28 3.832 62.4L3.426 63.786ZM10.567 68V57.682H12.191V68H10.567ZM19.8013 56.184H21.2433C21.2293 57.332 21.2153 58.69 21.0473 60.09H26.7453V61.462H21.5793C22.5453 64.402 24.3233 66.796 27.0113 67.902C26.6753 68.196 26.2273 68.756 26.0173 69.134C23.3713 67.902 21.6633 65.62 20.5573 62.652C19.8293 65.2 18.3033 67.636 15.0973 69.148C14.8873 68.798 14.4673 68.322 14.0893 68.042C17.4633 66.558 18.8353 64.024 19.3953 61.462H14.3693V60.09H19.6333C19.8013 58.676 19.7873 57.318 19.8013 56.184ZM34.3753 62.246V63.072H38.8133V62.246H34.3753ZM34.3753 60.51V61.336H38.8133V60.51H34.3753ZM37.7073 56.184H38.9813V57.248H40.7873V58.354H38.9813V59.306H37.7073V58.354H35.7753V59.306H34.5293V58.354H32.6533V57.248H34.5293V56.184H35.7753V57.248H37.7073V56.184ZM33.1433 59.558H40.0873V64.024H37.2313C37.1893 64.388 37.1473 64.724 37.0773 65.046H40.7873V66.138H37.9313C38.5893 67.104 39.6953 67.776 41.1373 68.07C40.8573 68.336 40.4933 68.84 40.3253 69.162C38.6173 68.7 37.4273 67.72 36.7133 66.292C36.1393 67.664 35.0053 68.616 32.6113 69.176C32.4993 68.868 32.1773 68.378 31.9253 68.126C33.8713 67.72 34.8513 67.076 35.3693 66.138H32.3733V65.046H35.7613C35.8313 64.724 35.8873 64.388 35.9293 64.024H33.1433V59.558ZM29.8253 56.184H31.0853V58.844H32.4573V60.076H31.0853V60.608C31.4493 61.112 32.5413 62.834 32.7793 63.282L31.9673 64.22C31.7993 63.772 31.4353 63.002 31.0853 62.316V69.162H29.8253V63.562C29.4613 64.71 29.0273 65.746 28.5653 66.46C28.4253 66.082 28.1173 65.494 27.8933 65.158C28.6913 64.038 29.4333 62.022 29.8253 60.244V60.076H28.1873V58.844H29.8253V56.184ZM50.2793 56.982H51.4973V61.7H50.2793V56.982ZM52.8693 56.296H54.1293V62.456C54.1293 63.128 54.0033 63.436 53.5273 63.646C53.0653 63.828 52.3653 63.856 51.3853 63.856C51.3153 63.506 51.1473 63.002 50.9653 62.666C51.6933 62.694 52.3793 62.694 52.5893 62.68C52.8133 62.666 52.8693 62.624 52.8693 62.428V56.296ZM46.8213 57.892H45.3233V59.614H46.8213V57.892ZM43.6293 64.78H47.8853V63.66H46.8213V60.79H45.2393C45.0433 61.98 44.4833 63.198 43.0693 64.024C42.9013 63.772 42.4393 63.296 42.2013 63.1C43.3493 62.456 43.8113 61.63 43.9933 60.79H42.3973V59.614H44.1053V57.892H42.8733V56.716H49.2293V57.892H48.0533V59.614H49.5233V60.79H48.0533V63.408H49.2433V64.78H53.4153V65.984H49.2433V67.482H54.8573V68.7H42.1873V67.482H47.8853V65.984H43.6293V64.78ZM56.8173 57.024H67.1493V63.702H65.7633V63.016H58.8333V66.418C58.8333 67.3 59.1273 67.468 60.6673 67.468C61.3953 67.468 64.7973 67.468 65.6793 67.468C67.1773 67.468 67.4153 67.034 67.6113 64.878C67.9613 65.102 68.5633 65.326 68.9553 65.41C68.6613 68.014 68.1293 68.784 65.7073 68.784C65.0913 68.784 61.2693 68.784 60.7093 68.784C58.2313 68.784 57.4753 68.322 57.4753 66.404V59.586H58.8333V61.714H65.7633V58.326H56.8173V57.024ZM76.3473 56.03L77.5233 56.59L77.2713 56.954C78.9793 58.872 80.9953 60.23 83.2633 61.336C82.9413 61.616 82.5493 62.078 82.3673 62.47C81.8493 62.176 81.3593 61.882 80.8693 61.574V62.484H77.2293V64.416H80.8133V65.578H77.2293V67.622H82.5493V68.812H70.5933V67.622H75.8293V65.578H72.3993V64.416H75.8293V62.484H72.2733V61.56C71.7693 61.868 71.2653 62.148 70.7473 62.4C70.5513 62.064 70.1733 61.602 69.8233 61.308C72.3853 60.202 74.9333 58.242 76.3473 56.03ZM72.6793 61.294H80.4493C79.0353 60.356 77.7613 59.292 76.5293 57.92C75.4373 59.208 74.1073 60.356 72.6793 61.294ZM89.1433 63.436V64.794H91.7473V63.436H89.1433ZM89.1433 62.386H91.7473V61.084H89.1433V62.386ZM89.1433 65.844V67.23H91.7473V65.844H89.1433ZM84.2993 57.052H96.8153V58.312H91.1173L90.6273 59.852H96.1433V69.176H94.7993V68.448H86.1893V69.176H84.9013V59.852H89.2553C89.3813 59.362 89.4933 58.816 89.5773 58.312H84.2993V57.052ZM86.1893 67.23H87.9393V61.084H86.1893V67.23ZM94.7993 67.23V61.084H92.9513V67.23H94.7993ZM99.6433 56.198H100.861V58.928H102.163V60.16H100.861V62.652L102.009 62.302L102.191 63.506L100.861 63.926V67.664C100.861 68.322 100.721 68.658 100.357 68.868C99.9933 69.078 99.4333 69.134 98.5933 69.12C98.5513 68.798 98.3973 68.238 98.2293 67.888C98.7613 67.902 99.2513 67.902 99.4053 67.902C99.5733 67.902 99.6433 67.846 99.6433 67.664V64.304L98.1873 64.752L97.8793 63.478C98.3693 63.366 98.9853 63.198 99.6433 63.002V60.16H98.0753V58.928H99.6433V56.198ZM105.439 56.478L106.671 56.296C106.937 56.674 107.189 57.15 107.371 57.556H110.563V58.69H102.891V57.556H105.999C105.831 57.192 105.621 56.8 105.439 56.478ZM108.169 58.746L109.387 59.096C109.065 59.684 108.701 60.3 108.379 60.804H110.899V61.952H102.429V60.804H104.753C104.585 60.328 104.235 59.642 103.871 59.124L104.893 58.718C105.285 59.25 105.691 59.964 105.859 60.426L104.977 60.804H107.105C107.469 60.23 107.931 59.362 108.169 58.746ZM103.045 66.152C103.409 65.676 103.815 65.102 104.207 64.472H102.233V63.352H104.851C105.117 62.876 105.355 62.4 105.537 61.952L106.755 62.19C106.601 62.568 106.405 62.96 106.195 63.352H111.053V64.472H109.415C109.135 65.452 108.729 66.236 108.155 66.866C109.149 67.314 110.045 67.776 110.689 68.196L109.863 69.204C109.205 68.742 108.225 68.224 107.147 67.72C106.041 68.434 104.543 68.868 102.541 69.148C102.443 68.784 102.219 68.308 102.023 68.042C103.633 67.888 104.865 67.608 105.803 67.146C104.865 66.754 103.913 66.418 103.045 66.152ZM108.085 64.472H105.565C105.327 64.864 105.089 65.256 104.865 65.592C105.537 65.816 106.251 66.082 106.951 66.362C107.469 65.858 107.833 65.242 108.085 64.472ZM115.519 57.528L116.331 56.38C120.811 59.614 120.503 64.724 125.109 67.538C124.885 67.902 124.535 68.63 124.465 69.05C121.399 67.328 120.307 64.262 118.823 61.532C117.745 64.976 115.967 67.468 113.265 69.05C113.027 68.784 112.397 68.224 112.047 67.986C115.127 66.418 116.863 63.632 117.745 59.754C117.143 58.914 116.429 58.144 115.519 57.528ZM128.455 64.528L128.133 59.376L128.091 57.528H129.967L129.925 59.376L129.603 64.528H128.455ZM129.029 68.098C128.441 68.098 127.979 67.664 127.979 67.034C127.979 66.404 128.441 65.97 129.029 65.97C129.617 65.97 130.079 66.404 130.079 67.034C130.079 67.664 129.617 68.098 129.029 68.098Z" fill="url(#paint2_linear_11022_2796)"/>
<defs>
<filter id="filter0_d_11022_2796" x="32.5703" y="0.6875" width="60.5596" height="52.0781" filterUnits="userSpaceOnUse" color-interpolation-filters="sRGB">
<feFlood flood-opacity="0" result="BackgroundImageFix"/>
<feColorMatrix in="SourceAlpha" type="matrix" values="0 0 0 0 0 0 0 0 0 0 0 0 0 0 0 0 0 0 127 0" result="hardAlpha"/>
<feOffset/>
<feGaussianBlur stdDeviation="6"/>
<feComposite in2="hardAlpha" operator="out"/>
<feColorMatrix type="matrix" values="0 0 0 0 1 0 0 0 0 1 0 0 0 0 1 0 0 0 1 0"/>
<feBlend mode="normal" in2="BackgroundImageFix" result="effect1_dropShadow_11022_2796"/>
<feBlend mode="normal" in="SourceGraphic" in2="effect1_dropShadow_11022_2796" result="shape"/>
</filter>
<linearGradient id="paint0_linear_11022_2796" x1="45.8109" y1="37.2126" x2="81.1382" y2="12.0551" gradientUnits="userSpaceOnUse">
<stop stop-color="#2E7FFF"/>
<stop offset="0.543687" stop-color="#70D4FF"/>
<stop offset="1" stop-color="#D39BFF"/>
</linearGradient>
<linearGradient id="paint1_linear_11022_2796" x1="83.0287" y1="15.1634" x2="96.3204" y2="6.853" gradientUnits="userSpaceOnUse">
<stop stop-color="#2E7FFF"/>
<stop offset="0.543687" stop-color="#70D4FF"/>
<stop offset="1" stop-color="#D39BFF"/>
</linearGradient>
<linearGradient id="paint2_linear_11022_2796" x1="154.327" y1="29.9999" x2="-2.31759" y2="51.4199" gradientUnits="userSpaceOnUse">
<stop stop-color="#00B3FF"/>
<stop offset="1" stop-color="#2E7FFF"/>
</linearGradient>
</defs>
</svg>
