<svg width="91" height="107" viewBox="0 0 91 107" fill="none" xmlns="http://www.w3.org/2000/svg">
<path d="M76.093 74.3421C76.0534 74.3333 75.9465 74.5214 75.923 74.7066C75.8761 75.0535 75.8776 75.4136 75.8468 75.7619C75.8352 75.8923 75.8131 76.0216 75.7808 76.1484C75.7808 76.1675 75.7295 76.1484 75.7193 76.1484C75.6994 76.1225 75.6877 76.0913 75.6855 76.0588C75.7119 75.609 75.6855 75.221 75.7383 74.7507C75.7698 74.5183 75.8487 74.295 75.9703 74.0947C76.0919 73.8944 76.2534 73.7214 76.4448 73.5867C76.6339 73.4397 76.823 73.4294 77.1044 73.4221C77.3858 73.4147 77.8798 73.3824 78.1729 73.3589C78.4661 73.3354 78.7006 73.303 78.9688 73.2825C79.6695 73.2281 80.354 73.181 81.0517 73.1355C81.1504 73.1287 81.2485 73.1139 81.3448 73.0914C82.0777 72.9077 82.7124 73.0649 83.4248 73.2589C83.6373 73.3104 83.8578 73.3204 84.0741 73.2883C84.5842 73.2325 85.0327 73.2222 85.4856 73.4867C85.5379 73.5102 85.594 73.5242 85.6512 73.5279C86.6392 73.619 87.2914 73.6587 87.8499 73.8013C88.6018 73.9938 89.2673 74.6757 89.5033 75.4356C89.7715 76.3042 89.4124 77.0758 89.3039 77.3095C88.9243 78.1252 88.2105 78.622 87.7971 78.9086C87.674 78.9938 87.3735 79.1922 87.1082 79.3612C86.8151 79.5494 86.6685 79.639 86.5908 79.6772C86.2053 79.8742 85.8403 79.783 85.3918 79.7375C84.9325 79.6851 84.4697 79.6713 84.0081 79.6963C83.3632 79.7389 82.6802 79.8257 82.0147 79.9168C81.6952 79.9609 81.3419 79.9829 81.0019 80.027C80.6538 80.0654 80.3031 80.0723 79.9538 80.0476C79.9406 80.0476 79.9216 80.0976 79.9333 80.1343C79.97 80.2592 80.3555 80.2475 80.6457 80.2372C81.0707 80.221 81.3976 80.1593 81.4035 80.1902C81.4093 80.221 81.3595 80.221 81.3463 80.2269C81.0821 80.3279 80.8035 80.386 80.5211 80.3989C80.1822 80.4184 79.8422 80.4071 79.5053 80.365C79.4379 80.3548 79.2767 80.3312 78.919 80.2445C78.0938 80.0417 77.6804 79.9418 77.3624 79.714C77.0919 79.538 76.8725 79.2937 76.7262 79.0056C76.5051 78.5898 76.3231 78.1544 76.1824 77.7049C76.1181 77.4156 76.0954 77.1187 76.115 76.823C76.1297 76.5688 76.1018 76.338 76.1048 76.1469C76.115 75.9787 76.139 75.8116 76.1766 75.6472C76.1942 75.5341 76.2352 75.5194 76.2191 75.4709C76.1701 75.2416 76.1363 75.0094 76.1179 74.7757C76.096 74.4759 76.1238 74.3539 76.093 74.3421Z" fill="#285EAF"/>
<path d="M82.4271 72.8521C82.5317 72.8339 82.6376 72.8246 82.7437 72.8242C83.8506 72.8296 84.9563 72.9003 86.0549 73.0359C86.3116 73.083 86.5622 73.1584 86.8024 73.2607C86.8332 73.2725 86.8024 73.346 86.754 73.3533C86.6441 73.3616 86.5336 73.3586 86.4242 73.3445C85.8262 73.2534 85.1989 73.1505 84.5979 73.0506C84.4424 73.0192 84.2825 73.0162 84.1259 73.0417C83.566 73.1623 83.0691 72.9389 82.5136 72.9565C82.477 72.9565 82.4066 72.9212 82.4051 72.9036C82.4037 72.8859 82.3714 72.8639 82.4271 72.8521Z" fill="#285EAF"/>
<path d="M86.7209 80.026C86.6389 80.0741 86.5482 80.1056 86.4541 80.1186C86.0012 80.1465 85.5497 80.1612 85.0836 80.2067C84.8041 80.2214 84.524 80.1912 84.254 80.1171C84.0092 80.0377 83.7502 80.0126 83.4947 80.0436C83.4309 80.0495 83.3666 80.0495 83.3027 80.0436C83.4454 79.9217 83.6268 79.855 83.8143 79.8555C84.0034 79.8555 84.1836 79.901 84.3581 79.9084C85.091 79.9407 85.8077 80.0554 86.5259 79.9907C86.5881 79.975 86.6513 79.9637 86.715 79.9569C86.7224 79.9588 86.7289 79.9629 86.7338 79.9687C86.7387 79.9746 86.7417 79.9818 86.7423 79.9893C86.743 79.9969 86.7413 80.0045 86.7374 80.0111C86.7336 80.0176 86.7278 80.0228 86.7209 80.026Z" fill="#285EAF"/>
<path d="M76.7695 73.1771C77.2752 72.9861 77.6856 72.723 78.2441 72.7715C78.4097 72.7862 78.6017 72.8068 78.763 72.8244C78.8084 72.8244 78.889 72.8758 78.889 72.8993C78.889 72.9229 78.8113 72.9684 78.7659 72.9743C78.3438 73.0155 77.904 73.0419 77.4775 73.0845C77.3574 73.1091 77.239 73.141 77.1228 73.1801C77.0151 73.2078 76.906 73.2294 76.7959 73.2447C76.771 73.2447 76.7886 73.1771 76.7695 73.1771Z" fill="#285EAF"/>
<path d="M79.2988 72.873L80.0405 72.8995C79.9248 72.9587 79.796 72.9873 79.6662 72.9827C79.5365 72.9781 79.41 72.9403 79.2988 72.873Z" fill="#285EAF"/>
<path d="M79.2575 74.7797C79.2262 74.7538 79.1923 74.7311 79.1564 74.7121C79.1218 74.6917 79.0842 74.6769 79.045 74.668H79.0201L78.9893 74.6768L78.9615 74.6886C78.9333 74.7022 78.9038 74.713 78.8735 74.7209C78.7894 74.7488 78.7037 74.7718 78.617 74.79L78.5818 74.7973L78.5965 74.7635C78.6401 74.6681 78.6773 74.5699 78.7079 74.4696L78.7357 74.4005C78.7434 74.3857 78.7503 74.3705 78.7563 74.3549C78.7581 74.3428 78.7581 74.3304 78.7563 74.3182C78.7556 74.3044 78.7521 74.2909 78.7461 74.2785C78.74 74.2662 78.7315 74.2552 78.7211 74.2462C78.6943 74.2209 78.6629 74.201 78.6287 74.1874C78.5967 74.1737 78.5624 74.1662 78.5276 74.1653C78.5041 74.1653 78.4983 74.1653 78.4968 74.1653C78.4954 74.1653 78.4866 74.1653 78.4866 74.18C78.4866 74.1947 78.4866 74.2006 78.4866 74.2138C78.4878 74.228 78.4878 74.2423 78.4866 74.2565C78.4785 74.3666 78.4583 74.4755 78.4265 74.5813C78.3872 74.7313 78.3382 74.8786 78.2799 75.0222L78.2667 75.0545L78.2476 75.0266C78.2358 75.009 78.2215 74.9931 78.2051 74.9796C78.1868 74.961 78.1622 74.95 78.1362 74.9487H78.1143L78.082 74.959H78.0586V74.934C78.0586 74.909 78.0586 74.8929 78.038 74.8855C78.0155 74.8704 77.9908 74.859 77.9647 74.8517C77.9279 74.8421 77.89 74.8366 77.8519 74.8355C77.8482 74.8338 77.8442 74.8329 77.8402 74.8329C77.8361 74.8329 77.8321 74.8338 77.8284 74.8355C77.8261 74.8412 77.8261 74.8475 77.8284 74.8532V75.0295H77.8152C77.7642 75.0484 77.7118 75.0631 77.6584 75.0736H77.6232L77.6408 75.0442C77.6775 74.9796 77.7273 74.8855 77.7874 74.7738L77.8621 74.7518L77.9369 74.7312L78.1905 74.6606C78.2081 74.6606 78.211 74.6503 78.211 74.6386C78.2101 74.6278 78.206 74.6176 78.1993 74.6092C78.1768 74.5783 78.1507 74.5502 78.1216 74.5254C78.102 74.5102 78.0774 74.5029 78.0527 74.5048C78.0362 74.5017 78.0193 74.5017 78.0029 74.5048L77.9442 74.5225L77.8988 74.5387L77.9237 74.496C77.9589 74.4328 77.9823 74.3917 77.9999 74.3667C78.0144 74.3473 78.0271 74.3266 78.038 74.305C78.0446 74.2944 78.0481 74.2822 78.0483 74.2697C78.0485 74.2578 78.0455 74.2461 78.0395 74.2359C78.023 74.2066 78.0011 74.1806 77.975 74.1595C77.9418 74.1308 77.9054 74.1062 77.8665 74.086C77.856 74.0792 77.8439 74.0752 77.8314 74.0742C77.824 74.0742 77.805 74.0742 77.7991 74.1242C77.7933 74.1742 77.7991 74.1977 77.7859 74.2403C77.7727 74.2829 77.7727 74.3167 77.7669 74.3373C77.7361 74.4314 77.7053 74.5181 77.6745 74.5989V74.6077H77.6657L77.5661 74.6371L77.4092 74.6812H77.3916C77.412 74.7241 77.4447 74.7599 77.4854 74.7841C77.4973 74.7899 77.5095 74.7948 77.5221 74.7988C77.5338 74.8004 77.5456 74.8004 77.5573 74.7988H77.5895L77.5749 74.8282C77.5309 74.9191 77.4778 75.0052 77.4166 75.0854C77.4148 75.0911 77.4148 75.0973 77.4166 75.103C77.4162 75.1094 77.4162 75.1158 77.4166 75.1221C77.4391 75.1725 77.4739 75.2165 77.5177 75.25C77.5248 75.2567 77.5343 75.2604 77.5441 75.2603C77.5567 75.2586 77.5691 75.2552 77.5807 75.25C77.6555 75.2265 77.7038 75.2133 77.7273 75.2059L77.8167 75.178V75.203C77.8167 75.3205 77.8167 75.3955 77.8167 75.4469V75.4602H77.805C77.6693 75.5129 77.5274 75.548 77.3828 75.5645C77.3682 75.5645 77.3359 75.5645 77.3359 75.5807C77.3373 75.5904 77.3403 75.5998 77.3447 75.6086C77.3447 75.6086 77.3594 75.638 77.3814 75.6777C77.4007 75.7139 77.4266 75.7463 77.4576 75.7732C77.4913 75.7967 77.5221 75.7953 77.569 75.7629L77.8138 75.5924V75.6733C77.8138 75.7982 77.805 75.8879 77.7976 75.9481C77.7929 75.9829 77.7991 76.0183 77.8152 76.0495C77.8304 76.0793 77.852 76.1054 77.8783 76.126C77.934 76.1656 77.9794 76.1612 78.0043 76.1157C78.0208 76.0798 78.0283 76.0405 78.0263 76.001V75.8202C78.0263 75.713 78.0263 75.6057 78.0263 75.5028V75.494L78.2432 75.347L78.0263 75.4234L78.0424 75.1574H78.0556L78.2095 75.1207H78.2432L78.23 75.1515C78.2213 75.1736 78.1993 75.2177 78.167 75.2809C78.1658 75.2867 78.1658 75.2927 78.167 75.2985C78.1742 75.3007 78.1818 75.3007 78.189 75.2985C78.3108 75.2136 78.4112 75.1014 78.4822 74.9707L78.491 74.9561L78.5349 74.981C78.5506 74.9879 78.5677 74.9909 78.5848 74.9899H78.639L78.7592 74.9605C78.8354 74.9399 78.8911 74.9267 78.9058 74.9237C78.9133 74.9201 78.9216 74.9182 78.93 74.9182C78.9383 74.9182 78.9466 74.9201 78.9541 74.9237C78.9609 74.9275 78.9666 74.933 78.9704 74.9398C78.9743 74.9465 78.9763 74.9542 78.9761 74.9619V74.9752L78.9556 75.0222C78.9371 75.065 78.916 75.1068 78.8926 75.1471V75.1559C78.909 75.1555 78.925 75.1499 78.938 75.1398C78.9849 75.1089 79.0406 75.0751 79.111 75.0369C79.1643 75.0062 79.2196 74.9792 79.2766 74.9561C79.3132 74.9414 79.3176 74.9237 79.3176 74.9105C79.3176 74.8973 79.3206 74.8458 79.2575 74.7797ZM79.4261 76.0789C79.3178 76.0177 79.2191 75.941 79.133 75.8511C79.078 75.7998 79.0261 75.7454 78.9776 75.688C78.9268 75.6292 78.8779 75.5675 78.831 75.5028L78.8164 75.4852C78.7797 75.4352 78.7577 75.4073 78.7519 75.397L78.7284 75.369V75.3602C78.7376 75.314 78.7493 75.2684 78.7636 75.2235C78.7706 75.2011 78.775 75.1779 78.7768 75.1545C78.7764 75.1444 78.774 75.1346 78.7697 75.1255C78.7654 75.1164 78.7593 75.1082 78.7519 75.1016C78.7275 75.0809 78.7015 75.0622 78.6742 75.0457C78.641 75.0297 78.6053 75.0197 78.5686 75.0163H78.554C78.5483 75.0144 78.5421 75.0144 78.5364 75.0163C78.532 75.0277 78.532 75.0402 78.5364 75.0516C78.5382 75.0736 78.5382 75.0957 78.5364 75.1177C78.5343 75.1602 78.5289 75.2025 78.5203 75.2441C78.4964 75.3547 78.464 75.4633 78.4235 75.5689C78.377 75.693 78.3165 75.8114 78.2432 75.9217C78.1759 76.0276 78.0882 76.1191 77.9853 76.1906C77.9822 76.1924 77.9796 76.195 77.9778 76.1981C77.976 76.2012 77.975 76.2047 77.975 76.2083C77.9743 76.2099 77.974 76.2116 77.974 76.2134C77.974 76.2152 77.9743 76.2169 77.975 76.2185C77.975 76.2185 77.975 76.2185 77.9897 76.2185C78.1429 76.166 78.2815 76.0779 78.3942 75.9613C78.5098 75.851 78.6038 75.7199 78.6712 75.5748L78.6874 75.5381L78.7137 75.5924C78.7416 75.6468 78.7738 75.713 78.8076 75.785C78.8506 75.8874 78.9026 75.9857 78.9629 76.0789C78.993 76.1103 79.0296 76.1347 79.0701 76.1502C79.1107 76.1657 79.1542 76.172 79.1975 76.1686C79.2687 76.161 79.3384 76.1427 79.4041 76.1142C79.4162 76.1105 79.4273 76.1039 79.4364 76.0951C79.4403 76.0927 79.4434 76.0891 79.4452 76.0848C79.4452 76.0848 79.4349 76.0819 79.4246 76.0789H79.4261Z" fill="white"/>
<path d="M80.4166 74.3361C80.4118 74.3253 80.4054 74.3154 80.3975 74.3067C80.354 74.2645 80.3046 74.2289 80.251 74.2008C80.2063 74.1732 80.1564 74.1551 80.1044 74.1479C80.1001 74.1465 80.0955 74.1465 80.0912 74.1479C80.09 74.1505 80.0894 74.1532 80.0894 74.156C80.0894 74.1588 80.09 74.1616 80.0912 74.1641C80.0935 74.1905 80.0935 74.2171 80.0912 74.2435C80.0934 74.2743 80.0934 74.3052 80.0912 74.3361C80.0574 74.5415 79.9906 74.74 79.8933 74.924C79.7875 75.1259 79.6493 75.3091 79.4844 75.4663C79.6667 75.4061 79.8314 75.3016 79.9637 75.162L79.993 75.1312V75.1738C79.993 75.1988 79.993 75.2399 79.993 75.3046C79.9947 75.5173 79.9825 75.7299 79.9564 75.941C79.9546 75.9728 79.9606 76.0046 79.9739 76.0336C79.9883 76.0703 80.0076 76.1049 80.0311 76.1365C80.0459 76.1594 80.0667 76.1777 80.0912 76.1894C80.1019 76.1914 80.1128 76.1914 80.1234 76.1894C80.1425 76.1894 80.1982 76.1894 80.2114 76.0424C80.2114 75.9924 80.2114 75.919 80.2114 75.822C80.2114 75.725 80.2114 75.6426 80.2114 75.5883V75.3516C80.2114 75.2826 80.2114 75.2194 80.2114 75.1576C80.2114 75.068 80.2114 75.0489 80.2114 75.0415C80.2114 75.0121 80.2114 75.0018 80.1953 74.996C80.1711 74.9852 80.1454 74.9783 80.1191 74.9754H80.0912L80.1073 74.9519C80.1605 74.8697 80.2094 74.7848 80.2539 74.6976C80.2753 74.6508 80.2993 74.6051 80.3257 74.5609C80.3536 74.5183 80.38 74.4757 80.4049 74.4301C80.4182 74.4106 80.4259 74.3877 80.4269 74.364C80.4248 74.3542 80.4213 74.3448 80.4166 74.3361ZM81.6112 75.2737C81.5818 75.2085 81.5297 75.1562 81.4646 75.1268C81.4311 75.114 81.3941 75.114 81.3605 75.1268C81.2799 75.1488 81.192 75.1679 81.0982 75.1856H81.0777V75.1635C81.0777 75.0827 81.0777 74.971 81.0777 74.8284V74.8123H81.0923C81.2316 74.7858 81.3254 74.7652 81.3855 74.7491C81.3935 74.7468 81.4006 74.7422 81.406 74.7358C81.4105 74.7305 81.4131 74.7237 81.4133 74.7167C81.4149 74.711 81.4149 74.7048 81.4133 74.6991C81.3836 74.6544 81.344 74.6171 81.2975 74.5903C81.2822 74.5829 81.2654 74.5791 81.2484 74.5791C81.2314 74.5791 81.2146 74.5829 81.1993 74.5903C81.1861 74.5903 81.1597 74.6021 81.1128 74.6153H81.085V74.5859C81.0859 74.5756 81.0859 74.5653 81.085 74.555C81.085 74.4272 81.0967 74.3155 81.107 74.2258C81.107 74.2082 81.0923 74.192 81.063 74.1759C81.0241 74.1566 80.9826 74.1432 80.9399 74.1362C80.9039 74.1317 80.8674 74.1317 80.8314 74.1362C80.8211 74.1362 80.8153 74.1362 80.8153 74.1597V74.1759C80.826 74.2303 80.8338 74.2852 80.8387 74.3405C80.8387 74.4095 80.8475 74.4683 80.8475 74.5242V74.6991L80.701 74.7476L80.7464 74.6697C80.7549 74.6569 80.7604 74.6423 80.7625 74.6271C80.7629 74.6224 80.7621 74.6178 80.76 74.6136C80.7579 74.6095 80.7547 74.606 80.7508 74.6036C80.7281 74.5768 80.7019 74.553 80.6731 74.533C80.6409 74.5104 80.6053 74.493 80.5676 74.4816H80.55C80.55 74.4816 80.5383 74.4816 80.5368 74.5007C80.5232 74.6228 80.4916 74.7421 80.443 74.8549C80.3985 74.9756 80.3389 75.0902 80.2656 75.1958C80.2628 75.1984 80.2605 75.2016 80.259 75.2052C80.2574 75.2087 80.2567 75.2126 80.2568 75.2164C80.2568 75.2164 80.2568 75.2282 80.3037 75.2047C80.371 75.1627 80.4334 75.1134 80.4899 75.0577C80.5569 74.987 80.6173 74.9103 80.6702 74.8284L80.6834 74.8078L80.6995 74.8284C80.714 74.8447 80.7314 74.8581 80.7508 74.8681C80.7741 74.8836 80.8021 74.8904 80.8299 74.8872H80.849V74.9063C80.849 74.971 80.849 75.0724 80.849 75.2399H80.8329C80.6775 75.2605 80.5119 75.2767 80.3418 75.284C80.3342 75.2815 80.326 75.2815 80.3184 75.284C80.3144 75.2873 80.3117 75.2921 80.3111 75.2973L80.3184 75.3134C80.3313 75.3348 80.346 75.3549 80.3624 75.3737C80.3752 75.3888 80.39 75.4021 80.4063 75.4134C80.418 75.4205 80.4288 75.4289 80.4386 75.4384C80.4618 75.4516 80.4881 75.4582 80.5148 75.4575H80.5427C80.6218 75.4413 80.7127 75.4251 80.8358 75.4075H80.8563V75.4295C80.8607 75.6081 80.8538 75.7868 80.8358 75.9645C80.8296 75.9886 80.8257 76.0132 80.8241 76.038C80.8227 76.0497 80.8227 76.0616 80.8241 76.0733C80.8423 76.1266 80.8695 76.1763 80.9047 76.2202C80.9208 76.2408 80.9516 76.2732 80.9736 76.2629C80.9967 76.2525 81.0173 76.2371 81.0337 76.2177C81.0502 76.1984 81.0622 76.1757 81.0689 76.1512C81.0923 76.0671 81.1012 75.9796 81.0952 75.8925L81.0777 75.3869H81.0952L81.2418 75.3752C81.3136 75.3752 81.3679 75.3752 81.406 75.3752H81.4881H81.5379C81.5636 75.3773 81.5893 75.3711 81.6112 75.3575C81.6162 75.3552 81.6204 75.3515 81.6233 75.3467C81.6261 75.342 81.6275 75.3366 81.6273 75.3311C81.6269 75.3109 81.6214 75.2911 81.6112 75.2737Z" fill="white"/>
<path d="M82.5842 75.67C82.4999 75.3502 82.4999 75.0139 82.5842 74.6941C82.6384 74.5215 82.719 74.3584 82.8231 74.2105C82.8465 74.1738 82.848 74.162 82.848 74.1591C82.848 74.1562 82.8246 74.1429 82.7894 74.1429H82.7205C82.6999 74.1413 82.6792 74.1451 82.6604 74.1538C82.6417 74.1626 82.6255 74.1761 82.6135 74.1929C82.4076 74.4817 82.2969 74.8278 82.2969 75.1828C82.2969 75.5378 82.4076 75.8839 82.6135 76.1726C82.6255 76.1895 82.6417 76.2029 82.6604 76.2117C82.6792 76.2204 82.6999 76.2242 82.7205 76.2226H82.7894C82.8304 76.2226 82.848 76.2138 82.848 76.2064C82.844 76.187 82.8355 76.1689 82.8231 76.1535C82.719 76.0057 82.6384 75.8426 82.5842 75.67Z" fill="white"/>
<path d="M85.1633 74.8465C85.1334 74.825 85.0975 74.8136 85.0607 74.8142C85.0322 74.8146 85.0037 74.8176 84.9757 74.823L84.9112 74.8348C84.8027 74.8524 84.618 74.8759 84.363 74.9053H84.3263L84.3439 74.8744V74.7818H84.3601C84.492 74.7686 84.5711 74.7613 84.6019 74.7613C84.6247 74.7625 84.6476 74.7595 84.6693 74.7524C84.6693 74.7524 84.6811 74.7524 84.6796 74.7319C84.6781 74.7113 84.6796 74.7128 84.6532 74.6819C84.6374 74.6613 84.6174 74.6442 84.5946 74.6319C84.573 74.6237 84.5502 74.6188 84.5272 74.6172H84.4964L84.3498 74.6393V74.5232H84.3659C84.4787 74.5082 84.5922 74.4988 84.706 74.4952C84.7188 74.4962 84.7316 74.4931 84.7426 74.4864C84.7457 74.4834 84.7481 74.4797 84.7497 74.4757C84.7512 74.4716 84.7518 74.4672 84.7514 74.4629V74.4512C84.7357 74.415 84.7133 74.3821 84.6855 74.3542C84.6737 74.343 84.6597 74.3344 84.6444 74.3292C84.6219 74.319 84.5973 74.3139 84.5726 74.3145C84.5096 74.3199 84.447 74.3288 84.385 74.3409H84.3615V74.2351C84.3635 74.2175 84.3635 74.1998 84.3615 74.1822C84.3569 74.1717 84.3486 74.1633 84.3381 74.1587C84.3027 74.1336 84.2621 74.117 84.2194 74.1102C84.1715 74.0979 84.1221 74.0925 84.0728 74.094C84.0479 74.094 84.042 74.1028 84.0405 74.1058C84.0371 74.1158 84.0371 74.1266 84.0405 74.1366C84.0527 74.1703 84.0606 74.2053 84.064 74.241C84.064 74.2821 84.0669 74.3071 84.0728 74.3159V74.3924H84.0581C83.8661 74.4247 83.7386 74.4423 83.655 74.4497C83.6465 74.4503 83.6384 74.4533 83.6316 74.4585C83.6301 74.4628 83.6301 74.4674 83.6316 74.4717C83.6887 74.5496 83.7371 74.5893 83.7782 74.5893H83.7928C83.8819 74.5704 83.9719 74.5562 84.0625 74.5467H84.083V74.6701H84.0684L83.7957 74.7113C83.7767 74.7113 83.7591 74.7186 83.7591 74.7275L83.8045 74.7995C83.8155 74.8116 83.8278 74.8225 83.8412 74.8318C83.8497 74.838 83.86 74.8411 83.8705 74.8406H83.891C83.9509 74.8377 84.0106 74.8313 84.0698 74.8215H84.0904V74.9244L84.1021 74.9479H84.0757C83.6785 74.995 83.4337 75.017 83.3311 75.0185C83.2901 75.0185 83.2637 75.0288 83.2637 75.0405C83.2674 75.0558 83.2756 75.0696 83.2871 75.0802L83.3179 75.114C83.332 75.1289 83.3478 75.1422 83.3648 75.1537C83.3837 75.1639 83.4049 75.1689 83.4264 75.1684H83.4601C83.6389 75.1434 83.9482 75.1111 84.3791 75.0699C84.6521 75.0382 84.9266 75.0205 85.2014 75.017C85.2118 75.0164 85.2216 75.0122 85.2293 75.0052C85.2337 75.0009 85.2372 74.9956 85.2395 74.9898C85.2418 74.9839 85.2428 74.9777 85.2424 74.9714C85.241 74.9288 85.2146 74.8906 85.1633 74.8465ZM84.7763 75.2771C84.7763 75.2668 84.7675 75.2433 84.7016 75.2051C84.6482 75.1735 84.5917 75.1474 84.533 75.1272C84.5177 75.1206 84.5013 75.1171 84.4847 75.1169C84.4779 75.1153 84.4709 75.1153 84.4641 75.1169C84.3786 75.1452 84.29 75.1634 84.2003 75.1713C84.0974 75.1864 83.9936 75.1943 83.8896 75.1948C83.8577 75.1868 83.8254 75.1804 83.7928 75.1757C83.7894 75.1755 83.7859 75.1761 83.7828 75.1777C83.7797 75.1792 83.7771 75.1816 83.7752 75.1845C83.7693 75.1926 83.7662 75.2024 83.7664 75.2125C83.7656 75.2173 83.7656 75.2223 83.7664 75.2272C83.7796 75.28 83.7846 75.3345 83.7811 75.3888C83.7811 75.4947 83.7811 75.624 83.7635 75.7827C83.7578 75.8813 83.7461 75.9795 83.7283 76.0767C83.7277 76.0872 83.7294 76.0978 83.7332 76.1077C83.737 76.1176 83.7428 76.1265 83.7503 76.134C83.7711 76.1595 83.7965 76.1809 83.8251 76.1972C83.8477 76.212 83.8732 76.222 83.8998 76.2266C83.9123 76.2275 83.9248 76.2252 83.9362 76.2198C83.9475 76.2143 83.9572 76.2061 83.9643 76.1957C83.9807 76.1572 83.9887 76.1156 83.9878 76.0737C83.9878 76.0296 83.9878 75.965 83.9878 75.8768V75.7857L84.0171 75.8136C84.024 75.8216 84.0325 75.8282 84.0421 75.8327C84.0517 75.8373 84.0622 75.8398 84.0728 75.84H84.0933C84.2076 75.8298 84.2765 75.8253 84.3058 75.8253C84.3242 75.8273 84.3428 75.8232 84.3586 75.8136C84.3625 75.8111 84.3657 75.8077 84.3678 75.8035C84.3699 75.7993 84.3707 75.7947 84.3703 75.7901C84.3697 75.7818 84.3672 75.7737 84.363 75.7666C84.3558 75.7492 84.345 75.7335 84.3314 75.7206C84.3178 75.7077 84.3016 75.6978 84.2838 75.6916H84.2706L84.1768 75.7019C84.1232 75.7172 84.0682 75.7275 84.0127 75.7328H83.9922L84.001 75.5784L84.0244 75.5887C84.0394 75.5947 84.0552 75.5982 84.0713 75.599H84.0977C84.1294 75.5908 84.1618 75.5859 84.1944 75.5843L84.3102 75.5755C84.3703 75.5755 84.3703 75.5505 84.3703 75.5402C84.3722 75.5325 84.3722 75.5244 84.3703 75.5167C84.3549 75.4857 84.331 75.4597 84.3014 75.4417H84.2604C84.2381 75.4438 84.216 75.4477 84.1944 75.4535L84.0376 75.4814V75.4564C84.039 75.4273 84.0424 75.3984 84.0478 75.3697C84.0468 75.3619 84.0468 75.354 84.0478 75.3462V75.33H84.0654H84.0948C84.1974 75.3124 84.3088 75.2904 84.4216 75.2683C84.4216 75.2683 84.4392 75.2683 84.4583 75.2786C84.4631 75.2828 84.4671 75.288 84.4698 75.2938C84.4726 75.2996 84.4742 75.306 84.4744 75.3124C84.4744 75.43 84.4744 75.6284 84.4744 75.9547C84.4745 75.9681 84.4699 75.9812 84.4612 75.9914C84.4556 75.9976 84.4488 76.0026 84.4413 76.0061C84.4337 76.0097 84.4255 76.0117 84.4172 76.012H84.2369C84.2794 76.0342 84.3188 76.0619 84.3542 76.0943C84.3917 76.1254 84.423 76.1633 84.4465 76.206C84.4759 76.2472 84.492 76.2516 84.4964 76.2516C84.5301 76.2493 84.5629 76.2403 84.5931 76.2251C84.6363 76.2036 84.6732 76.1712 84.7001 76.131C84.7337 76.0765 84.7496 76.0128 84.7456 75.9488C84.7456 75.8783 84.7456 75.8018 84.7456 75.6975C84.7456 75.6696 84.7456 75.6358 84.7456 75.5975V75.5549C84.7456 75.4976 84.7456 75.4344 84.7456 75.3624C84.7481 75.3415 84.7551 75.3215 84.7661 75.3036C84.771 75.2955 84.7745 75.2865 84.7763 75.2771Z" fill="white"/>
<path d="M87.3745 75.258C87.3473 75.2215 87.3168 75.1876 87.2836 75.1566C87.2479 75.1229 87.2085 75.0933 87.1663 75.0684C87.1545 75.0621 87.1415 75.0581 87.1282 75.0566C87.1002 75.0608 87.073 75.0692 87.0476 75.0816C86.9839 75.0974 86.9193 75.1092 86.8541 75.1169L86.794 75.1257L86.8395 75.0845C86.8551 75.0707 86.8689 75.0549 86.8805 75.0375C86.8944 75.0136 86.9034 74.9871 86.9069 74.9596C86.9069 74.9405 86.9201 74.8758 86.9347 74.7627C86.9435 74.6818 86.9509 74.6319 86.9552 74.6157C86.9596 74.5995 86.9553 74.5937 86.967 74.576V74.5672C86.9733 74.5518 86.9768 74.5354 86.9772 74.5187C86.9772 74.5118 86.9758 74.505 86.973 74.4986C86.9702 74.4923 86.9662 74.4866 86.9611 74.482C86.9383 74.4596 86.9127 74.4404 86.8849 74.4246C86.8512 74.4055 86.8165 74.3883 86.7808 74.3732C86.7759 74.3683 86.7701 74.3643 86.7637 74.3617C86.7573 74.359 86.7504 74.3576 86.7435 74.3576C86.7365 74.3576 86.7296 74.359 86.7232 74.3617C86.7168 74.3643 86.711 74.3683 86.7061 74.3732C86.6972 74.3851 86.6857 74.3946 86.6724 74.4011C86.6496 74.4108 86.626 74.4187 86.602 74.4246L86.2927 74.4878L86.3616 74.4379C86.414 74.4 86.463 74.3577 86.5082 74.3115C86.5314 74.2913 86.5512 74.2675 86.5668 74.2409C86.5769 74.2242 86.581 74.2045 86.5786 74.1851C86.5762 74.172 86.5712 74.1595 86.5639 74.1484C86.5566 74.1373 86.5471 74.1277 86.536 74.1204C86.5098 74.0946 86.4796 74.0733 86.4466 74.0572C86.415 74.0441 86.3812 74.0366 86.347 74.0352C86.3323 74.0352 86.3294 74.0352 86.3294 74.0352C86.3278 74.0429 86.3278 74.0509 86.3294 74.0587V74.0954C86.298 74.2287 86.2346 74.3524 86.1447 74.4555L86.1359 74.4658H86.1227C86.076 74.4467 86.0265 74.4357 85.9761 74.4335C85.9644 74.4335 85.9512 74.4335 85.9512 74.4423C85.9501 74.4476 85.9501 74.4531 85.9512 74.4584C85.9554 74.4679 85.9589 74.4778 85.9615 74.4878C85.9702 74.5155 85.9756 74.5441 85.9776 74.5731C85.9815 74.622 85.9815 74.6711 85.9776 74.72C85.9776 74.7994 85.9776 74.8832 85.9688 74.967C85.9664 75.0287 85.9566 75.0899 85.9395 75.1492C85.9355 75.1692 85.9286 75.1885 85.919 75.2065C85.9107 75.2225 85.9003 75.2374 85.8882 75.2506C85.8829 75.2556 85.8797 75.2624 85.8794 75.2697C85.8779 75.277 85.8779 75.2845 85.8794 75.2918C85.8826 75.2995 85.8865 75.3068 85.8911 75.3138C85.8993 75.3277 85.9091 75.3405 85.9204 75.352C85.9319 75.365 85.9441 75.3773 85.9571 75.3888C85.9734 75.402 85.9933 75.4102 86.0142 75.4123C86.0274 75.4111 86.0403 75.4076 86.0523 75.402L86.0802 75.3932V75.4123C86.0825 75.4175 86.0854 75.4225 86.089 75.427C86.1067 75.4538 86.1173 75.4846 86.1198 75.5166C86.1198 75.5651 86.1198 75.6357 86.1198 75.7195V75.7356L85.8545 75.7709V75.7489C85.8526 75.7239 85.8526 75.6988 85.8545 75.6739C85.8567 75.6495 85.8611 75.6254 85.8677 75.6019C85.8697 75.5843 85.8697 75.5665 85.8677 75.549C85.8676 75.5421 85.8662 75.5352 85.8634 75.5289C85.8607 75.5226 85.8566 75.5169 85.8515 75.5122C85.8246 75.4879 85.7932 75.4689 85.7592 75.4564C85.7205 75.4408 85.6792 75.4328 85.6375 75.4329C85.6303 75.4311 85.6228 75.4311 85.6156 75.4329C85.6156 75.4329 85.6156 75.4329 85.6156 75.4417V75.4858C85.6261 75.542 85.6315 75.5991 85.6317 75.6563C85.635 75.6905 85.635 75.7249 85.6317 75.7591C85.6255 75.7774 85.6161 75.7943 85.6038 75.8091C85.5921 75.8227 85.5836 75.8388 85.5789 75.8561C85.5779 75.862 85.5779 75.8679 85.5789 75.8738C85.601 75.9162 85.6308 75.9541 85.6668 75.9855C85.6765 75.9916 85.6874 75.9957 85.6988 75.9975C85.7101 75.9993 85.7217 75.9987 85.7328 75.9958C85.8656 75.9584 86.0008 75.9299 86.1374 75.9105C86.2755 75.8876 86.4151 75.8749 86.5551 75.8723C86.6137 75.9282 86.6738 75.9414 86.7207 75.8899C86.7437 75.8596 86.7579 75.8235 86.7618 75.7856C86.7721 75.7287 86.7789 75.6713 86.7823 75.6136V75.5622C86.7828 75.5544 86.7828 75.5465 86.7823 75.5387C86.781 75.5265 86.781 75.5142 86.7823 75.5019C86.7832 75.4946 86.7832 75.4872 86.7823 75.4799C86.7823 75.4743 86.7811 75.4689 86.7788 75.4638C86.7765 75.4587 86.7732 75.4542 86.7691 75.4505C86.7399 75.4302 86.707 75.4157 86.6724 75.4079C86.6245 75.395 86.5753 75.3881 86.5258 75.3873C86.5137 75.3848 86.5012 75.3848 86.4891 75.3873C86.4891 75.3873 86.4891 75.3873 86.4891 75.4035C86.5021 75.4166 86.5103 75.4337 86.5126 75.452C86.5159 75.4862 86.5159 75.5206 86.5126 75.5549C86.5126 75.6048 86.5126 75.6372 86.5126 75.6621V75.6783H86.4965C86.4613 75.6783 86.3939 75.6783 86.2957 75.693H86.2751V75.621L86.2898 75.5357C86.2915 75.5162 86.2915 75.4965 86.2898 75.477C86.2898 75.4652 86.2898 75.4593 86.2898 75.4578C86.2898 75.4211 86.2517 75.3961 86.1901 75.38L86.1036 75.3564L86.1931 75.3447C86.303 75.3285 86.4334 75.3123 86.6049 75.2932C86.7764 75.2741 86.86 75.2683 86.8981 75.2683C86.9083 75.2675 86.9186 75.269 86.9282 75.2725C86.9378 75.2761 86.9465 75.2816 86.9538 75.2888C86.9597 75.2962 86.9641 75.3047 86.9666 75.3138C86.9691 75.3229 86.9697 75.3324 86.9684 75.3417C86.9637 75.4471 86.9534 75.552 86.9377 75.6563C86.9212 75.7516 86.8942 75.8448 86.857 75.934C86.8449 75.9561 86.8251 75.9729 86.8013 75.9811C86.7741 75.993 86.7446 75.9986 86.7149 75.9972C86.6761 75.9985 86.6372 75.9955 86.5991 75.9884H86.5654C86.5729 75.9968 86.5818 76.0038 86.5917 76.009C86.6533 76.0478 86.7038 76.102 86.7383 76.1663C86.748 76.1834 86.7568 76.2011 86.7647 76.2192C86.7714 76.2352 86.7814 76.2498 86.794 76.2618C86.811 76.2726 86.8312 76.2773 86.8512 76.275C86.9141 76.2734 86.9743 76.2494 87.0212 76.2074C87.086 76.1487 87.132 76.0719 87.1531 75.9869C87.1872 75.8669 87.2127 75.7446 87.2294 75.621L87.2411 75.5519C87.2411 75.5416 87.2411 75.5255 87.2411 75.5034C87.2411 75.4814 87.2411 75.4505 87.2543 75.424C87.2619 75.3929 87.2732 75.3628 87.288 75.3344L87.2997 75.3138C87.3046 75.3043 87.3071 75.2937 87.307 75.283C87.3319 75.2838 87.3561 75.2748 87.3745 75.258ZM86.687 74.7921C86.6829 74.8453 86.676 74.8983 86.6665 74.9508C86.6562 74.9802 86.6504 74.9875 86.6445 74.9919C86.6326 74.9991 86.6188 75.0027 86.6049 75.0022C86.5698 75.0022 86.5346 75.0022 86.4965 75.0022C86.5518 75.0302 86.604 75.0642 86.6518 75.1036L86.6841 75.1316L86.1901 75.1889V75.0257C86.1901 74.9949 86.1901 74.9714 86.1901 74.9523L86.1989 74.7039L86.2253 74.7215C86.3076 74.7705 86.3821 74.8314 86.4466 74.9023C86.4789 74.9346 86.495 74.9376 86.4994 74.9376C86.5038 74.9376 86.5111 74.9376 86.5243 74.9243C86.5366 74.912 86.5461 74.8973 86.5524 74.8811C86.5587 74.865 86.5616 74.8476 86.561 74.8303C86.5617 74.8114 86.558 74.7927 86.5501 74.7755C86.5422 74.7584 86.5303 74.7434 86.5155 74.7318C86.473 74.7014 86.421 74.6873 86.3689 74.6921C86.3236 74.6937 86.2785 74.6992 86.2341 74.7083H86.2077L86.218 74.6348V74.6128H86.2385H86.2707H86.3015C86.3543 74.6006 86.4076 74.5913 86.4613 74.5848C86.52 74.5745 86.5792 74.5676 86.6386 74.5643C86.6469 74.562 86.6557 74.5618 86.6641 74.5636C86.6725 74.5653 86.6803 74.5691 86.687 74.5745C86.6929 74.5808 86.6974 74.5882 86.7001 74.5963C86.7029 74.6044 86.7039 74.613 86.7031 74.6216C86.6987 74.6554 86.6944 74.7083 86.687 74.7921Z" fill="white"/>
<path d="M88.0573 74.1931C88.0458 74.176 88.0299 74.1623 88.0113 74.1536C87.9928 74.1448 87.9722 74.1411 87.9517 74.1431H87.8829C87.8462 74.1431 87.8242 74.1431 87.8242 74.1593C87.8279 74.1784 87.836 74.1965 87.8477 74.2122C87.9526 74.3595 88.0332 74.5228 88.0866 74.6957C88.1726 75.0148 88.1726 75.351 88.0866 75.6701C88.0333 75.8435 87.9526 76.0073 87.8477 76.1551C87.8359 76.1702 87.8279 76.1878 87.8242 76.2066C87.8242 76.2154 87.8477 76.2227 87.8829 76.2227H87.9517C87.9722 76.2245 87.9927 76.2208 88.0112 76.2121C88.0298 76.2033 88.0457 76.1897 88.0573 76.1728C88.264 75.8843 88.3752 75.5381 88.3752 75.1829C88.3752 74.8277 88.264 74.4815 88.0573 74.1931Z" fill="white"/>
<path d="M79.2976 77.3499C79.2833 77.3199 79.2661 77.2913 79.2463 77.2646C79.2277 77.2436 79.2076 77.224 79.1862 77.2058C79.1779 77.1984 79.1681 77.1927 79.1575 77.1892C79.147 77.1857 79.1358 77.1843 79.1246 77.1853H79.0909L78.9443 77.2088L78.7978 77.2308C78.7001 77.2475 78.5828 77.2651 78.446 77.2837H78.4137L78.4328 77.2396C78.4973 77.0927 78.5207 77.0398 78.5251 77.0309V77.0221C78.5274 77.0155 78.5304 77.0091 78.5339 77.003C78.5352 76.9938 78.5352 76.9844 78.5339 76.9751C78.5339 76.9648 78.5339 76.9501 78.5017 76.9339C78.4256 76.882 78.3399 76.846 78.2496 76.8281H78.2217C78.2129 76.8281 78.2129 76.8281 78.2129 76.8355C78.2116 76.8423 78.2116 76.8493 78.2129 76.856C78.222 76.8779 78.2264 76.9014 78.2261 76.9251C78.2208 76.996 78.2075 77.066 78.1866 77.1338C78.1587 77.2264 78.1411 77.2808 78.1279 77.3161V77.3264H78.1177C77.8465 77.3675 77.6618 77.391 77.5548 77.3984C77.546 77.3984 77.5152 77.3984 77.5152 77.4145C77.5162 77.4259 77.5197 77.437 77.5255 77.4469C77.5447 77.4794 77.569 77.5087 77.5973 77.5336C77.6204 77.5537 77.6454 77.5714 77.6721 77.5865C77.6777 77.5915 77.6851 77.5941 77.6926 77.5939H77.7116L77.7424 77.5865C77.8274 77.5645 77.9183 77.5468 78.018 77.5307H78.0502L78.037 77.5615C77.956 77.7467 77.8536 77.9218 77.7322 78.0833C77.6178 78.2349 77.4919 78.3774 77.3555 78.5095H77.3672C77.4915 78.4524 77.6099 78.383 77.7204 78.3023C77.8292 78.2256 77.9278 78.1352 78.0136 78.0333L78.0473 77.9936V78.0451C78.0473 78.1479 78.0473 78.2449 78.04 78.339C78.0326 78.4331 78.0297 78.5168 78.0239 78.5977L78.0107 78.7843C78.0091 78.8201 78.0156 78.8558 78.0297 78.8887C78.0418 78.9217 78.0608 78.9518 78.0854 78.9769C78.1027 78.9953 78.1244 79.009 78.1484 79.0165C78.1568 79.019 78.1657 79.0192 78.1742 79.0172C78.1827 79.0151 78.1905 79.0108 78.1968 79.0048C78.2207 78.9834 78.2392 78.9567 78.251 78.9269C78.2674 78.8884 78.2754 78.8468 78.2745 78.8049V78.7432C78.2686 78.6756 78.2657 78.605 78.2657 78.5315V78.5065H78.2892C78.3047 78.5086 78.3205 78.5086 78.3361 78.5065C78.4475 78.4977 78.5339 78.4874 78.6014 78.4772C78.6174 78.4793 78.6337 78.4793 78.6497 78.4772V78.458C78.6451 78.4295 78.634 78.4024 78.6175 78.3787C78.6114 78.3672 78.6029 78.3572 78.5926 78.3493C78.5819 78.3471 78.571 78.3471 78.5603 78.3493H78.512C78.4369 78.3637 78.361 78.3736 78.2848 78.3787H78.2642V78.3566C78.2642 78.3331 78.2642 78.2978 78.2642 78.2405V78.2244H78.3155L78.5823 78.1906C78.5972 78.1891 78.6119 78.1861 78.6263 78.1817C78.6272 78.1764 78.6272 78.1709 78.6263 78.1656C78.6229 78.1495 78.618 78.1337 78.6116 78.1185L78.5896 78.0877C78.5832 78.0764 78.5742 78.0668 78.5633 78.0598C78.5517 78.057 78.5396 78.057 78.5281 78.0598H78.49C78.4035 78.0774 78.3346 78.0891 78.2921 78.0965H78.2701V78.0745C78.2712 78.0223 78.2751 77.9703 78.2818 77.9187V77.8966L78.3023 77.904C78.3151 77.9086 78.3291 77.9086 78.3419 77.904C78.3863 77.8927 78.4313 77.8843 78.4768 77.879C78.6233 77.8555 78.6659 77.8628 78.6776 77.8687C78.6848 77.8733 78.6906 77.88 78.6942 77.8878C78.6978 77.8956 78.6992 77.9042 78.6981 77.9128V78.1597C78.6981 78.3067 78.6981 78.4037 78.6981 78.4816C78.6981 78.5595 78.6981 78.6535 78.6981 78.7094C78.6997 78.7194 78.699 78.7297 78.6961 78.7394C78.6931 78.7491 78.6879 78.758 78.681 78.7654C78.6741 78.7728 78.6655 78.7784 78.656 78.782C78.6465 78.7855 78.6364 78.7868 78.6263 78.7858H78.4665H78.4753C78.5537 78.8435 78.6237 78.9117 78.6834 78.9886C78.6948 79.0058 78.7081 79.0216 78.723 79.0356C78.7293 79.0393 78.7363 79.0412 78.7435 79.0412C78.7507 79.0412 78.7578 79.0393 78.7641 79.0356C78.7846 79.0309 78.8037 79.0213 78.8198 79.0077C78.8455 78.9866 78.869 78.9629 78.8901 78.9372C78.9162 78.9041 78.9366 78.8668 78.9502 78.8269C78.9642 78.7914 78.9712 78.7535 78.9707 78.7152C78.9707 78.6403 78.9605 78.5433 78.9575 78.4345C78.9546 78.3258 78.9575 78.2008 78.9575 78.1097C78.9575 78.0186 78.9575 77.9892 78.9575 77.9628C78.9603 77.913 78.9686 77.8637 78.9825 77.8158C78.9885 77.7982 78.9919 77.7799 78.9927 77.7614C78.9929 77.7514 78.9898 77.7416 78.9839 77.7335C78.9514 77.701 78.9143 77.6732 78.874 77.6512L78.7817 77.5983C78.7715 77.592 78.7598 77.5887 78.7479 77.5887C78.736 77.5887 78.7244 77.592 78.7142 77.5983C78.6988 77.6157 78.6791 77.6289 78.6571 77.6365L78.616 77.6512C78.5624 77.6679 78.5075 77.6802 78.4519 77.6879C78.3756 77.7011 78.3053 77.7114 78.2393 77.7188H78.2027L78.2217 77.6879C78.2625 77.6158 78.2987 77.5412 78.3302 77.4645V77.4557H78.3405C78.487 77.4351 78.6233 77.4219 78.7421 77.4116C78.8608 77.4013 78.9678 77.3954 79.0352 77.3954C79.0808 77.3945 79.1264 77.397 79.1715 77.4028C79.2551 77.4028 79.2741 77.4145 79.2888 77.394C79.2973 77.3836 79.3019 77.3706 79.302 77.3572C79.3007 77.3547 79.2992 77.3522 79.2976 77.3499Z" fill="white"/>
<path d="M80.2665 77.3637C80.3037 77.3125 80.3439 77.2634 80.3866 77.2167C80.3941 77.2091 80.3987 77.1993 80.3998 77.1888C80.3976 77.1751 80.3915 77.1623 80.3823 77.152C80.3609 77.1321 80.3384 77.1135 80.3148 77.0962C80.2931 77.0785 80.2689 77.0641 80.243 77.0536C80.234 77.0485 80.224 77.0459 80.2137 77.0459C80.2034 77.0459 80.1933 77.0485 80.1844 77.0536C80.1726 77.0536 80.1433 77.0756 80.0979 77.1035C80.0675 77.1184 80.0356 77.1298 80.0026 77.1373H79.9806V77.1138C79.9806 77.1138 79.9806 77.1035 79.9396 77.0903C79.9008 77.0785 79.8611 77.0702 79.8209 77.0653C79.7868 77.0612 79.7523 77.0612 79.7183 77.0653C79.7183 77.0653 79.7183 77.0653 79.7183 77.0771C79.7352 77.1538 79.7436 77.2322 79.7432 77.3108C79.7432 77.3945 79.7432 77.5165 79.7432 77.6708C79.7432 77.8619 79.7432 78.0515 79.7344 78.2352C79.7311 78.3627 79.7198 78.4898 79.7007 78.6159C79.6987 78.6339 79.6987 78.6522 79.7007 78.6702C79.6987 78.6834 79.6987 78.6968 79.7007 78.7099C79.7137 78.7575 79.7378 78.8013 79.771 78.8378C79.7989 78.8687 79.8238 78.8819 79.8443 78.876C79.8654 78.8674 79.8841 78.8541 79.8991 78.837C79.9141 78.8199 79.925 78.7995 79.9308 78.7775C79.9519 78.7036 79.9599 78.6265 79.9542 78.5497L79.9425 77.9618V77.8399C79.9425 77.6547 79.9425 77.4886 79.9557 77.346C79.9564 77.3382 79.9564 77.3303 79.9557 77.3225C79.955 77.3132 79.955 77.3039 79.9557 77.2946V77.2828H79.966C80.0217 77.2593 80.0598 77.2446 80.0818 77.2373L80.117 77.2255L80.0613 77.3828L80.0056 77.5474V77.5709C80.005 77.5777 80.005 77.5846 80.0056 77.5915C80.0037 77.5962 80.0037 77.6014 80.0056 77.6062C80.0464 77.6405 80.0802 77.6824 80.1052 77.7296C80.1298 77.788 80.147 77.8492 80.1565 77.9119C80.1585 77.9343 80.154 77.9567 80.1433 77.9765C80.1357 77.9845 80.1261 77.9902 80.1155 77.993C80.1049 77.9959 80.0938 77.9958 80.0832 77.9927L80.0143 77.9809L79.9557 77.9721L79.9733 77.9898C80.0129 78.0294 80.0569 78.0779 80.1023 78.1367L80.1477 78.1896C80.1529 78.1969 80.1597 78.2029 80.1676 78.2069C80.1755 78.211 80.1843 78.2132 80.1932 78.2132C80.2014 78.2148 80.2099 78.2148 80.2181 78.2132C80.2601 78.1944 80.2957 78.1637 80.3207 78.125C80.3533 78.0798 80.3698 78.0249 80.3676 77.9692C80.364 77.9165 80.3463 77.8657 80.3163 77.8222C80.2599 77.7419 80.1967 77.6666 80.1272 77.5973L80.1184 77.5856L80.1257 77.5738C80.1756 77.4915 80.2195 77.4269 80.2665 77.3637ZM81.697 78.7114C81.5964 78.6739 81.5063 78.6123 81.4347 78.5321C81.3337 78.4222 81.2438 78.3026 81.1664 78.1749L81.1518 78.1529H81.1782C81.288 78.1279 81.3962 78.096 81.5021 78.0574C81.5255 78.0456 81.5549 78.025 81.5549 78.0015C81.5529 77.9876 81.5473 77.9744 81.5387 77.9633C81.5242 77.9381 81.5059 77.9153 81.4845 77.8957C81.4521 77.8634 81.4162 77.8348 81.3775 77.8105C81.3277 77.9265 81.249 78.0278 81.1488 78.1044L81.1327 78.1206L81.0668 78.0162L80.9949 77.8928L80.9803 77.8663L80.9949 77.856C80.9969 77.8547 80.9992 77.854 81.0015 77.854C81.0039 77.854 81.0062 77.8547 81.0081 77.856H81.055H81.0624C81.0675 77.8597 81.0719 77.8641 81.0756 77.8692L81.0638 77.8854L81.0785 77.8751C81.0824 77.8813 81.0878 77.8863 81.0942 77.8896C81.1007 77.893 81.1079 77.8946 81.1151 77.8942C81.1409 77.8926 81.1655 77.8828 81.1855 77.8663C81.2136 77.8462 81.2379 77.8214 81.2573 77.7928C81.2761 77.7653 81.2877 77.7334 81.291 77.7002C81.291 77.6517 81.3042 77.5885 81.3189 77.5018C81.3335 77.4151 81.3423 77.3548 81.3541 77.3063C81.3595 77.2784 81.3684 77.2513 81.3804 77.2255C81.3907 77.202 81.3966 77.1858 81.3995 77.1785C81.4008 77.1722 81.4008 77.1657 81.3995 77.1594C81.3996 77.1492 81.3975 77.1391 81.3935 77.1297C81.3894 77.1203 81.3835 77.1119 81.376 77.105C81.3287 77.0555 81.2732 77.0147 81.2119 76.9845C81.2019 76.9792 81.1909 76.9762 81.1796 76.9757C81.1744 76.9736 81.1687 76.9736 81.1635 76.9757C81.113 77.0074 81.0575 77.0302 80.9993 77.0433C80.9275 77.0646 80.8546 77.0823 80.7809 77.0962H80.7619V77.0771C80.7607 77.0623 80.7557 77.0481 80.7472 77.0359C80.7308 77.0178 80.7094 77.005 80.6857 76.9992C80.6519 76.9889 80.6036 76.9771 80.5391 76.9639L80.4907 76.9551H80.4761C80.4756 76.9585 80.4756 76.962 80.4761 76.9654C80.5334 77.2238 80.5546 77.4889 80.5391 77.7531C80.5391 78.003 80.5391 78.2602 80.5186 78.5159C80.5186 78.5464 80.5105 78.5763 80.4951 78.6026C80.483 78.6251 80.4647 78.6434 80.4423 78.6555L80.413 78.6732C80.394 78.682 80.391 78.6908 80.391 78.6996C80.3935 78.7102 80.397 78.7206 80.4013 78.7305C80.4154 78.7575 80.4326 78.7826 80.4526 78.8055C80.4766 78.836 80.5026 78.865 80.5303 78.8922C80.539 78.901 80.5503 78.9067 80.5625 78.9083C80.5728 78.9083 80.5948 78.9083 80.6285 78.8569C80.6622 78.8055 80.7604 78.6938 80.8953 78.5424L81.0052 78.4145V78.4042H80.9891C80.9197 78.4426 80.8477 78.476 80.7736 78.5042C80.7689 78.5067 80.7636 78.5081 80.7582 78.5081C80.7528 78.5081 80.7475 78.5067 80.7428 78.5042C80.7386 78.5016 80.7353 78.4979 80.7332 78.4934C80.7311 78.489 80.7304 78.484 80.7311 78.4792C80.7311 78.3175 80.7311 78.125 80.7311 77.8913V77.8766L80.8176 77.8575L80.8249 77.8692C80.8777 77.9707 80.9466 78.1279 81.0389 78.3498C81.0836 78.4685 81.1355 78.5844 81.1943 78.6967C81.2122 78.731 81.236 78.7619 81.2646 78.7878C81.2857 78.8028 81.3104 78.8119 81.3362 78.8142C81.3619 78.8165 81.3878 78.812 81.4112 78.8011C81.5114 78.7731 81.6094 78.7378 81.7044 78.6952C81.7007 78.7 81.6982 78.7055 81.697 78.7114ZM80.7765 77.734H80.7619H80.7399V77.5268H80.7604C80.7741 77.5283 80.7878 77.5283 80.8015 77.5268L80.9671 77.5092C81.0081 77.5092 81.0287 77.4945 81.0287 77.4768C81.0307 77.4686 81.0307 77.46 81.0287 77.4518C81.0227 77.4372 81.0158 77.423 81.0081 77.4092C80.9987 77.399 80.9884 77.3896 80.9774 77.3813C80.9706 77.3798 80.9636 77.3798 80.9568 77.3813H80.9158L80.7502 77.4107V77.2329L80.8747 77.2123L80.9803 77.1946H81.0243H81.0565C81.0623 77.1921 81.0685 77.1908 81.0748 77.1908C81.0811 77.1908 81.0874 77.1921 81.0931 77.1946C81.099 77.2006 81.1034 77.2078 81.1062 77.2156C81.109 77.2235 81.1101 77.2319 81.1093 77.2402C81.1093 77.3034 81.1093 77.3695 81.1005 77.4371C81.0917 77.5048 81.0902 77.568 81.0844 77.612C81.0822 77.6314 81.0756 77.65 81.0653 77.6664C81.0537 77.6785 81.039 77.6872 81.0228 77.6914L80.9935 77.7002C80.9205 77.7064 80.848 77.7177 80.7765 77.734Z" fill="white"/>
<path d="M82.7036 77.1903C82.6452 77.1163 82.5691 77.0581 82.4823 77.0213C82.4697 77.0155 82.4564 77.0116 82.4427 77.0095H82.4339C82.4326 77.0115 82.4319 77.0138 82.4319 77.0162C82.4319 77.0185 82.4326 77.0208 82.4339 77.0228C82.4354 77.0819 82.4275 77.141 82.4105 77.1977C82.3598 77.3786 82.2911 77.5539 82.2053 77.7209C82.1195 77.8746 82.0085 78.0128 81.877 78.1295C81.9896 78.1086 82.0965 78.064 82.1906 77.9987C82.2694 77.9437 82.3391 77.8768 82.3973 77.8003C82.4471 77.7297 82.4999 77.6533 82.5585 77.5431L82.6318 77.4064C82.6318 77.3946 82.6435 77.3799 82.6509 77.3652L82.6597 77.352C82.6627 77.3447 82.6666 77.3378 82.6714 77.3314C82.6929 77.2925 82.7059 77.2494 82.7095 77.205C82.708 77.1962 82.7051 77.1918 82.7036 77.1903ZM83.5508 78.5792C83.5258 78.5179 83.4878 78.4627 83.4395 78.4175C83.3844 78.3638 83.3222 78.3178 83.2548 78.2809C83.2056 78.2503 83.1498 78.2321 83.0921 78.2279C83.0834 78.2256 83.0743 78.2256 83.0657 78.2279C83.0634 78.2293 83.0615 78.2312 83.0602 78.2335C83.0589 78.2359 83.0583 78.2385 83.0584 78.2412C83.0573 78.247 83.0573 78.253 83.0584 78.2588C83.1012 78.3161 83.1362 78.3789 83.1624 78.4455L83.1712 78.4675L82.4838 78.5733L82.5204 78.5336C82.5981 78.4543 82.6802 78.3617 82.7725 78.2515C82.8337 78.1821 82.8905 78.1089 82.9426 78.0325C82.9492 78.0181 82.9571 78.0044 82.966 77.9913C82.9777 77.9722 82.9865 77.9546 82.9968 77.9369C83.0035 77.9232 83.007 77.9081 83.0071 77.8929C83.0082 77.887 83.0082 77.881 83.0071 77.8752C82.9852 77.8368 82.9551 77.8037 82.9191 77.7782C82.8672 77.7412 82.8105 77.7116 82.7505 77.69H82.7271C82.7175 77.6898 82.7082 77.6929 82.7007 77.6988C82.6943 77.7054 82.6898 77.7135 82.6875 77.7224C82.6875 77.7224 82.6875 77.7224 82.6875 77.7341V77.7488C82.6875 77.7635 82.6875 77.7826 82.6773 77.815C82.6683 77.8529 82.6571 77.8902 82.6435 77.9267C82.5923 78.0497 82.5274 78.1665 82.4501 78.275C82.3889 78.3639 82.3187 78.4462 82.2405 78.5204L82.2067 78.5498C82.1929 78.5613 82.1796 78.5736 82.1672 78.5866C82.1635 78.5899 82.1605 78.594 82.1585 78.5985C82.1565 78.6031 82.1554 78.608 82.1555 78.613C82.1547 78.662 82.1685 78.7101 82.195 78.7512C82.2207 78.8017 82.256 78.8467 82.2991 78.8834C82.3058 78.8853 82.3129 78.8853 82.3196 78.8834C82.3446 78.8812 82.3687 78.8731 82.39 78.8599C82.5015 78.8108 82.618 78.7739 82.7374 78.7497C82.9235 78.7012 83.0862 78.6645 83.2211 78.6409H83.2357L83.287 78.7967C83.2911 78.818 83.3007 78.8377 83.3149 78.854C83.3193 78.8598 83.3252 78.8643 83.3318 78.8671C83.3385 78.8699 83.3458 78.871 83.353 78.8702C83.4085 78.8604 83.4596 78.8337 83.4996 78.7938C83.5187 78.7746 83.5337 78.7516 83.5436 78.7263C83.5534 78.701 83.5579 78.674 83.5567 78.6468C83.5585 78.6241 83.5565 78.6013 83.5508 78.5792ZM83.9349 77.8752C83.8246 77.8176 83.7209 77.7482 83.6256 77.668C83.5341 77.5964 83.4505 77.5151 83.3764 77.4255C83.2817 77.3104 83.1969 77.1875 83.1228 77.058C83.1047 77.025 83.0765 76.9987 83.0422 76.9831C83.0045 76.9642 82.9628 76.9546 82.9206 76.9552C82.9007 76.9545 82.8808 76.9575 82.8619 76.964C82.8522 76.9682 82.8436 76.9748 82.837 76.9831C82.8706 77.0302 82.9015 77.0793 82.9294 77.1301C82.9616 77.1859 83.0071 77.277 83.0833 77.424C83.1404 77.5431 83.1888 77.6356 83.2298 77.7062C83.2643 77.7692 83.3067 77.8274 83.3559 77.8796C83.4071 77.9363 83.4778 77.9715 83.5538 77.9781C83.5679 77.9802 83.5822 77.9802 83.5963 77.9781C83.6458 77.9703 83.6947 77.9595 83.7429 77.9458L83.7971 77.9311L83.866 77.9134H83.8763L83.9041 77.9046H83.929C83.951 77.8973 83.9569 77.8914 83.9569 77.8899C83.9569 77.8884 83.9481 77.8811 83.9349 77.8811V77.8752Z" fill="white"/>
<path d="M85.2343 77.5328C85.2237 77.5132 85.2109 77.495 85.1961 77.4784C85.1815 77.4608 85.1659 77.4441 85.1492 77.4284C85.1195 77.4111 85.0853 77.4034 85.051 77.4064H85.0115C84.9059 77.4196 84.7681 77.4431 84.5996 77.4725H84.5849L84.4384 77.499C84.3961 77.5061 84.3536 77.511 84.3108 77.5137C84.2945 77.5123 84.2782 77.5159 84.2639 77.524C84.2639 77.524 84.2507 77.5343 84.2507 77.5416C84.2498 77.5464 84.2498 77.5514 84.2507 77.5563C84.3211 77.643 84.3783 77.6886 84.4208 77.6886H84.4398C84.555 77.6557 84.6726 77.6326 84.7916 77.6195C84.9261 77.5994 85.0617 77.5876 85.1976 77.5842C85.2387 77.5842 85.2387 77.5651 85.2387 77.5548C85.2386 77.5473 85.2371 77.5398 85.2343 77.5328ZM85.1947 77.8723C85.1701 77.8501 85.1441 77.8295 85.117 77.8106C85.0919 77.7923 85.0649 77.7771 85.0364 77.765C85.0238 77.7595 85.0105 77.756 84.9968 77.7547C84.9804 77.7559 84.9645 77.7604 84.9499 77.7679C84.9002 77.791 84.8473 77.8063 84.7931 77.8135C84.7007 77.8311 84.6142 77.8444 84.5307 77.8546H84.5234C84.4981 77.8358 84.4699 77.8214 84.4398 77.812C84.4083 77.8006 84.3751 77.7946 84.3416 77.7944C84.327 77.7944 84.302 77.7944 84.302 77.8076C84.3008 77.8164 84.3008 77.8253 84.302 77.8341C84.3092 77.8494 84.3136 77.8658 84.3152 77.8826C84.3168 77.9021 84.3168 77.9218 84.3152 77.9414C84.3182 77.9996 84.3182 78.058 84.3152 78.1163C84.3172 78.1968 84.3128 78.2774 84.302 78.3573C84.3003 78.3719 84.3003 78.3867 84.302 78.4014C84.3041 78.4265 84.3133 78.4504 84.3284 78.4705C84.3485 78.496 84.3728 78.5179 84.4002 78.5351C84.453 78.5719 84.494 78.5778 84.5263 78.5351C84.5411 78.5157 84.5493 78.492 84.5498 78.4675V78.4264L84.8429 78.394L84.8693 78.4293C84.8758 78.4447 84.8853 78.4587 84.8971 78.4705C84.9055 78.4768 84.9159 78.48 84.9265 78.4793C84.9699 78.4779 85.0121 78.4642 85.0481 78.4396C85.0649 78.4314 85.0796 78.4195 85.091 78.4047C85.1024 78.3899 85.1103 78.3727 85.1141 78.3544C85.1141 78.3397 85.1141 78.3264 85.1141 78.3132C85.1141 78.3 85.1141 78.2867 85.1229 78.2735C85.1273 78.2473 85.1303 78.2208 85.1317 78.1942C85.1404 78.128 85.1478 78.0736 85.1551 78.0369C85.1595 78.0064 85.1684 77.9766 85.1815 77.9487C85.1882 77.9354 85.1922 77.9209 85.1932 77.9061C85.1979 77.8954 85.1984 77.8833 85.1947 77.8723ZM84.9015 78.2353V78.2485L84.538 78.2823V77.9884H84.5527C84.6582 77.9722 84.7652 77.9605 84.8795 77.9517C84.8876 77.9505 84.8959 77.9523 84.9028 77.9566C84.9098 77.9608 84.915 77.9674 84.9177 77.9752C84.9197 77.9873 84.9197 77.9997 84.9177 78.0119C84.9199 78.0865 84.9165 78.1612 84.9074 78.2353H84.9015ZM85.8469 77.0889C85.821 77.0561 85.7898 77.0278 85.7546 77.0051C85.7118 76.9777 85.6667 76.954 85.6198 76.9346C85.6071 76.9288 85.5934 76.9258 85.5794 76.9258C85.5655 76.9258 85.5518 76.9288 85.5391 76.9346L85.4996 76.9464C85.3315 76.9821 85.1618 77.0091 84.9909 77.0272C84.6846 77.0698 84.5014 77.0904 84.4296 77.0904C84.4017 77.0904 84.3871 77.0904 84.3871 77.108C84.3855 77.1158 84.3855 77.1238 84.3871 77.1315C84.4071 77.1713 84.4327 77.2079 84.4633 77.2403C84.4871 77.2678 84.5208 77.2847 84.5571 77.2873H84.5732C84.6831 77.2638 84.8297 77.2374 85.0129 77.2094C85.1488 77.1867 85.2858 77.1715 85.4233 77.1639C85.4362 77.1627 85.4491 77.1658 85.46 77.1727C85.4649 77.1777 85.4686 77.1837 85.4709 77.1903C85.4732 77.1969 85.474 77.204 85.4732 77.2109V77.3109C85.4732 77.5416 85.4644 77.7944 85.4453 78.0634C85.438 78.2529 85.4105 78.4411 85.3632 78.6248C85.3632 78.6483 85.3354 78.6792 85.265 78.6792H85.2181C85.2005 78.6792 85.1595 78.6792 85.0936 78.6792C85.0834 78.6768 85.0729 78.6768 85.0628 78.6792C85.0685 78.6857 85.0749 78.6916 85.0818 78.6968C85.1736 78.7626 85.2497 78.8479 85.3046 78.9467C85.3237 78.9893 85.3486 79.0099 85.3838 79.0099C85.4023 79.0094 85.4206 79.0059 85.438 78.9996C85.4998 78.9736 85.5541 78.9327 85.5963 78.8805C85.646 78.8264 85.6826 78.7615 85.7033 78.6909C85.7298 78.5821 85.745 78.4708 85.7487 78.3588C85.7605 78.1927 85.7693 77.9899 85.7751 77.7547V77.6856C85.7751 77.4799 85.7869 77.3314 85.7971 77.255C85.7991 77.2326 85.8061 77.211 85.8176 77.1918L85.8323 77.1624C85.841 77.1497 85.8465 77.1351 85.8484 77.1198C85.8555 77.1111 85.8592 77.1001 85.8587 77.0889H85.8469Z" fill="white"/>
<path d="M12.2271 73.9766H1.92578V76.2017H12.2271V73.9766Z" fill="black"/>
<path d="M49.3969 73.9766H40.1875V76.2017H49.3969V73.9766Z" fill="black"/>
<path d="M1.92578 81.0342H10.0373V82.7465H2.01079V102.229H4.22849V84.9716H6.05189V102.229H8.27105V89.4675H10.0373V102.229H12.255V87.2424H8.27105V84.9716H12.255V78.8105H1.92578V81.0342Z" fill="black"/>
<path d="M25.9785 81.0336H35.9926V73.4102H25.9785V81.0336ZM28.1977 75.6338H33.7749V78.8099H28.1977V75.6338Z" fill="black"/>
<path d="M23.8149 73.4102H13.8008V81.0336H23.8149V73.4102ZM21.5957 78.8099H16.0258V75.6338H21.5957V78.8099Z" fill="black"/>
<path d="M13.8008 95.2597H23.6932V96.9999H13.8154V99.2251H23.6932V102.226H25.908V99.2251H35.9733V96.9999H25.908V95.2597H35.9968V82.3262H13.8008V95.2597ZM16.0199 93.0346V89.907H23.6932V93.0346H16.0199ZM25.9109 93.0346V89.907H33.782V93.0346H25.9109ZM33.782 87.6833H25.908V84.5543H33.7791L33.782 87.6833ZM23.6932 84.5543V87.6833H16.0199V84.5543H23.6932Z" fill="black"/>
<path fill-rule="evenodd" clip-rule="evenodd" d="M62.5067 99.6975C59.9402 100.187 54.083 103.426 54.083 103.426C47.2379 106.113 43.6996 101.023 43.6996 101.023L42.3555 102.123C47.5545 108.561 55.8405 104.493 55.8405 104.493C72.6 94.6461 81.4575 102.227 83.5125 104.296C74.2475 94.9665 62.5067 99.6975 62.5067 99.6975Z" fill="black"/>
<path fill-rule="evenodd" clip-rule="evenodd" d="M51.6065 101.516C52.6017 101.868 55.372 100.642 55.372 100.642C68.9288 92.0162 80.52 100.541 82.7582 102.772C68.857 88.9092 53.896 99.6308 53.896 99.6308C52.9696 101.633 51.6035 101.519 51.6035 101.519L51.6065 101.516Z" fill="black"/>
<path fill-rule="evenodd" clip-rule="evenodd" d="M35.8845 100.09C36.9589 102.735 40.1015 102.575 40.1015 102.575C43.4024 102.575 42.7531 99.1653 42.7531 99.1653C42.0085 97.3414 40.2847 97.9028 40.2847 97.9028C40.0722 97.9372 39.8817 98.0541 39.7545 98.2282C39.6272 98.4023 39.5734 98.6196 39.6046 98.8332C39.9505 99.765 40.8608 99.3975 40.8608 99.3975L41.1378 99.3138C41.7021 100.742 40.358 101.138 40.358 101.138C37.1641 101.242 37.0132 98.6392 37.0132 98.6392C36.7449 94.9149 40.3199 95.5777 40.3199 95.5777C40.9473 90.5513 44.2701 90.7938 44.2701 90.7938C49.0265 90.2823 48.4475 94.9663 48.4475 94.9663C53.5088 95.4072 52.1852 98.5627 52.1852 98.5627C51.3732 101.185 49.0148 99.2124 49.0148 99.2124C48.5839 98.8214 49.629 98.4775 49.629 98.4775C50.9071 98.1836 50.3164 97.4281 50.3164 97.4281C49.67 96.5463 48.213 97.556 48.213 97.556C45.6729 99.2403 48.9811 101.036 48.9811 101.036C52.6323 102.672 53.6964 99.2212 53.6964 99.2212C54.7738 94.5328 49.8855 93.892 49.8855 93.892C49.5762 89.1036 44.4079 89.3799 44.4079 89.3799C42.7956 89.4255 41.6391 89.9178 40.8329 90.5939C39.3393 91.8446 38.86 94.1712 38.86 94.1712C34.3631 95.4704 35.8845 100.09 35.8845 100.09Z" fill="black"/>
<path d="M50.7148 97.9266H50.7591L50.7148 97.9023V97.9266Z" fill="black"/>
<path d="M50.7148 80.9065V94.8277C51.4375 95.0658 53.0879 97.1455 53.6669 97.9244H58.2855C61.4369 97.3263 64.194 95.3201 67.917 96.1137L66.7371 95.7007H52.9325V83.1302H72.0783V90.8139H57.8033V88.0479H69.2699V85.8168H55.5856V93.0332H74.296V80.9065H63.5959V78.333H74.2491V76.1079H71.1988V73.48H68.9782V76.1079H55.9828V73.4785H53.7651V76.1079H50.7207V78.333H61.3782V80.9065H50.7148Z" fill="black"/>
<path d="M47.1244 85.4125H40.2984V93.424C40.8583 92.9831 41.5809 90.9652 42.497 90.7462L42.5131 87.6377H49.3421V78.8105H40.2852V81.0342H47.1244V85.4125Z" fill="black"/>
<g clip-path="url(#clip0_11000_2307)">
<path d="M39.4982 59.9963C56.0657 59.9963 69.4963 46.5657 69.4963 29.9982C69.4963 13.4306 56.0657 0 39.4982 0C22.9306 0 9.5 13.4306 9.5 29.9982C9.5 46.5657 22.9306 59.9963 39.4982 59.9963Z" fill="url(#paint0_linear_11000_2307)"/>
<path d="M17.5205 21.4275C18.3912 20.5192 19.454 19.8174 20.6312 19.3734C21.8084 18.9295 23.07 18.7546 24.3236 18.8616C24.7698 18.882 25.2064 18.9983 25.6037 19.2026C26.0009 19.4069 26.3494 19.6944 26.6255 20.0456C26.8369 20.3145 26.9901 20.6244 27.0753 20.9557C27.1604 21.287 27.1758 21.6324 27.1204 21.9699C27.1204 21.9699 27.0251 23.1576 24.9504 25.2285C25.2952 24.7847 25.538 24.2703 25.6615 23.722C25.7262 23.3648 25.7163 22.998 25.6324 22.6447C25.5485 22.2915 25.3925 21.9594 25.174 21.6694C24.8883 21.2907 24.5243 20.9781 24.1068 20.753C23.6893 20.5278 23.2281 20.3952 22.7548 20.3645C20.9423 20.1738 19.115 20.5449 17.5205 21.4275Z" fill="url(#paint1_linear_11000_2307)"/>
<path d="M58.6669 22.949C61.7569 22.1792 62.6072 19.4485 62.4056 17.3005C62.281 15.9259 61.3573 14.885 60.7049 14.3095C60.5288 14.1548 60.344 14.0104 60.1514 13.877C60.6842 14.5393 61.0196 15.3383 61.1191 16.1825C61.3353 18.5284 60.408 21.5048 57.0394 22.3442C56.3007 22.5053 55.5352 22.4978 54.7998 22.3222C56.156 22.9307 57.5122 23.2386 58.6669 22.949Z" fill="url(#paint2_linear_11000_2307)"/>
<path d="M60.0779 13.8335C60.3089 13.9875 62.2149 15.2997 62.4055 17.3084C62.6034 19.46 61.753 22.1871 58.6631 22.9568C55.5731 23.7266 51.0682 20.2444 48.8799 18.1368C47.1572 16.4763 41.67 8.18135 29.5446 8.93277C17.4192 9.68419 11.2503 20.4313 13.05 30.9256C13.05 30.9256 14.9451 18.2504 24.2737 18.8992C24.72 18.9209 25.1564 19.0382 25.5535 19.2431C25.9507 19.448 26.2992 19.7357 26.5756 20.0868C26.7862 20.3561 26.9389 20.6661 27.024 20.9973C27.1092 21.3284 27.125 21.6736 27.0704 22.0112C27.0704 22.0112 26.9678 23.2941 24.6512 25.5153C23.262 26.8422 20.4249 29.1258 21.7188 36.3211C21.9463 37.4237 22.3005 38.4963 22.7745 39.5174C23.2457 40.4357 23.4765 41.4584 23.4453 42.4901C23.328 44.4365 21.7372 45.5764 20.6558 45.5948C19.6513 45.6149 18.6631 45.3382 17.8151 44.7993C17.8151 44.7993 21.4806 52.1559 29.4273 54.6594C29.4273 54.6594 39.4743 58.3982 49.4554 53.2153C49.701 53.0906 50.2801 52.7937 50.5184 52.6654C51.0865 52.3539 52.5527 51.7967 54.8583 48.8277C55.7783 47.6401 56.5224 46.0016 56.922 43.7877C57.3838 41.2219 56.8926 37.7067 55.2615 35.1628C54.3226 33.6578 53.0712 32.3722 51.5919 31.3932C50.1127 30.4143 48.4402 29.7647 46.688 29.4887C46.688 29.4887 41.7176 28.4184 37.4034 31.7393C37.1834 31.9079 36.8059 32.1608 36.597 32.3624C35.6786 33.1498 34.9378 34.123 34.4233 35.2178L34.1961 35.8043C33.8875 36.8598 33.8236 37.9717 34.0091 39.0556C35.0685 36.728 37.7003 35.0749 40.7866 35.0749C44.8186 35.0749 48.0662 37.8716 48.0662 41.3282C48.061 42.4381 47.7226 43.521 47.0948 44.4365C46.9227 44.7129 46.7355 44.9796 46.534 45.2355C45.5328 46.5002 44.2548 47.5184 42.7983 48.2117C41.3418 48.905 39.7457 49.2549 38.1328 49.2346C37.6745 49.2301 37.2167 49.1995 36.7619 49.1429C33.6206 48.7764 30.5819 47.2039 28.6979 44.6601C27.2407 42.6586 26.4833 40.233 26.5426 37.758C26.6012 32.4834 30.2594 27.9529 35.3397 26.527C37.4535 25.9276 39.6725 25.7962 41.8422 26.1421C42.7881 26.2917 43.7199 26.5198 44.628 26.8239C47.9489 28.0299 57.1419 31.5634 60.9796 28.8619C60.9796 28.8619 64.5058 26.9119 65.1106 22.7882C65.1106 22.7736 66.4778 16.6632 60.0779 13.8335Z" fill="url(#paint3_linear_11000_2307)"/>
<path d="M55.2647 35.1589C54.3242 33.6553 53.0723 32.3708 51.5933 31.392C50.1144 30.4132 48.4428 29.7628 46.6912 29.4847C46.2641 29.4045 45.8316 29.3567 45.3973 29.3418C42.5325 29.1671 39.6989 30.0168 37.4029 31.739C37.183 31.9076 36.8054 32.1605 36.6002 32.3584L36.5342 32.4244C37.4049 31.6532 38.4368 31.0859 39.5545 30.764C41.2542 30.2671 43.0712 30.3531 44.7164 31.0081C46.3616 31.6631 47.7405 32.8495 48.6336 34.3786C49.5267 35.9077 49.8827 37.6916 49.6449 39.4463C49.4072 41.2011 48.5894 42.8259 47.3217 44.0623C47.263 44.1649 47.2044 44.2675 47.1421 44.3665C46.9578 44.6666 46.7558 44.9554 46.5373 45.2316C45.5362 46.4967 44.2583 47.5155 42.8019 48.2094C41.3454 48.9033 39.7492 49.2539 38.136 49.2342C37.6998 49.2342 37.2416 49.1976 36.7651 49.1426C35.5589 48.9972 34.3799 48.6787 33.2646 48.1969C31.4734 47.4599 29.9138 46.2541 28.7496 44.7061C27.5854 43.1581 26.8596 41.3252 26.6484 39.3998C26.7122 41.6403 27.2392 43.8433 28.1962 45.8701C29.1533 47.8969 30.5197 49.7036 32.2093 51.1763C33.899 52.649 35.8753 53.7559 38.0138 54.4272C40.1523 55.0986 42.4067 55.3198 44.6349 55.077C46.31 54.6311 47.9313 54.003 49.4696 53.204C49.7152 53.0757 50.2907 52.7824 50.5326 52.6505C51.1008 52.3462 52.5633 51.7854 54.8725 48.8164C55.7926 47.6288 56.533 45.9866 56.9325 43.7727C57.387 41.2362 56.8959 37.7064 55.2647 35.1589Z" fill="url(#paint4_linear_11000_2307)"/>
<path d="M40.7778 35.0827C44.8098 35.0827 48.0574 37.8794 48.0574 41.3359C48.0549 42.2968 47.8022 43.2404 47.3243 44.074C48.5847 42.8353 49.3955 41.2114 49.6283 39.4596C49.8611 37.7078 49.5025 35.9284 48.6094 34.4036C47.7163 32.8787 46.3397 31.6956 44.6979 31.0417C43.0562 30.3878 41.2431 30.3007 39.5462 30.7941C38.4285 31.116 37.3966 31.6832 36.5259 32.4545C36.3206 32.6488 36.1263 32.821 35.9357 33.0336C34.8898 34.1634 34.1957 35.5734 33.9381 37.0913C33.9395 37.0973 33.9395 37.1036 33.9381 37.1097C33.8719 37.7647 33.8953 38.4256 34.0077 39.0743C35.0634 36.7321 37.6915 35.0827 40.7778 35.0827Z" fill="url(#paint5_linear_11000_2307)"/>
</g>
<defs>
<linearGradient id="paint0_linear_11000_2307" x1="39.4982" y1="0" x2="39.4982" y2="60" gradientUnits="userSpaceOnUse">
<stop stop-color="#5CD1F5"/>
<stop offset="0.484375" stop-color="#188FF7"/>
<stop offset="1" stop-color="#0A6AFA"/>
</linearGradient>
<linearGradient id="paint1_linear_11000_2307" x1="24.309" y1="17.8829" x2="20.134" y2="26.1559" gradientUnits="userSpaceOnUse">
<stop stop-color="#A2DCFF"/>
<stop offset="0.96" stop-color="#A2DCFF"/>
</linearGradient>
<linearGradient id="paint2_linear_11000_2307" x1="53.9494" y1="20.3135" x2="65.1364" y2="16.4464" gradientUnits="userSpaceOnUse">
<stop stop-color="#A2DCFF"/>
<stop offset="0.96" stop-color="#A2DCFF"/>
</linearGradient>
<linearGradient id="paint3_linear_11000_2307" x1="50.3901" y1="2.98005" x2="13.2223" y2="76.6083" gradientUnits="userSpaceOnUse">
<stop offset="0.4" stop-color="white"/>
<stop offset="0.51" stop-color="white"/>
<stop offset="0.94" stop-color="#80CCF5"/>
</linearGradient>
<linearGradient id="paint4_linear_11000_2307" x1="34.7345" y1="52.8887" x2="51.9731" y2="27.7839" gradientUnits="userSpaceOnUse">
<stop offset="0.34" stop-color="#B6E2FF"/>
<stop offset="1" stop-color="white"/>
</linearGradient>
<linearGradient id="paint5_linear_11000_2307" x1="34.8654" y1="40.3059" x2="49.7582" y2="35.2916" gradientUnits="userSpaceOnUse">
<stop stop-color="white"/>
<stop offset="0.87" stop-color="#A2D7FF"/>
</linearGradient>
<clipPath id="clip0_11000_2307">
<rect width="60" height="60" fill="white" transform="translate(9.5)"/>
</clipPath>
</defs>
</svg>
