<svg xmlns="http://www.w3.org/2000/svg" viewBox="0 0 984 330.6" xml:space="preserve"><style>@media (prefers-color-scheme:dark){.zentao path,.zentao polygon,.zentao rect{fill:#221714;stroke:#fff;stroke-width:5}}</style><path fill="#08447F" d="M859.8 74.9c-.3-.1-.9 1.2-1.1 2.4-.3 2.2-.3 4.6-.5 6.8-.1.8-.2 1.7-.4 2.5 0 .1-.3 0-.4 0-.1-.1-.2-.4-.2-.6.2-2.9 0-5.4.3-8.4s2-5.5 4.6-7.5c1.2-.9 2.4-1 4.3-1.1 1.8 0 5-.3 6.9-.4 1.9-.2 3.4-.4 5.1-.5 4.5-.3 9-.7 13.5-1 .6 0 1.3-.1 1.9-.3 4.8-1.2 8.8-.2 13.4 1.1 1.4.4 2.8.3 4.2.2 3.3-.4 6.2-.4 9.1 1.3.3.2.7.2 1.1.3 6.4.6 10.6.8 14.2 1.8 4.9 1.2 9.2 5.6 10.7 10.5 1.7 5.6-.6 10.6-1.3 12.1-2.4 5.3-7.1 8.5-9.7 10.3-.8.5-2.7 1.8-4.4 2.9-1.9 1.2-2.9 1.8-3.3 2-2.5 1.3-4.8.7-7.7.4-2.9-.3-5.8-.5-8.9-.3-4.2.3-8.6.8-12.9 1.4-2.1.3-4.3.4-6.5.7-2.2.3-4.6.3-6.8.1-.1 0-.2.3-.1.6.2.8 2.7.7 4.6.7 2.8-.1 4.9-.5 4.9-.3 0 .1-.3.2-.4.2-2.6 1-5.3 1.1-5.3 1.1-2.9.1-4.4.1-6.6-.2-.4-.1-1.5-.2-3.8-.8-5.3-1.3-8-1.9-10.1-3.4-2-1.4-3.3-2.8-4.1-4.6-1.3-2.7-2.8-5.5-3.5-8.4-.5-1.8-.5-4.1-.4-5.7.1-1.6-.1-3.1-.1-4.4 0-1.2.3-2.5.5-3.2.1-.7.4-.8.3-1.1-.2-.5-.5-2.9-.7-4.5-.4-1.9-.2-2.7-.4-2.7zM900.7 65.2c.4-.1 1.3-.2 2-.2 7.1 0 14.3.5 21.4 1.4 1.6.2 3.5.9 4.8 1.5.2.1 0 .5-.3.6-.3.1-1.5 0-2.1-.1-3.9-.6-7.9-1.2-11.8-1.9-1-.2-2.1-.3-3.1-.1-3.6.8-6.8-.7-10.4-.5-.2 0-.7-.2-.7-.3 0-.1-.2-.3.2-.4z"/><path fill="#08447F" d="M928.4 111.5c-.2.2-1.1.6-1.7.6-2.9.2-5.8.3-8.8.6-1.7.2-3.7-.2-5.4-.6-1.7-.4-3.1-.8-4.9-.5h-1.2c1-.8 2.1-1.2 3.3-1.2 1.2 0 2.4.3 3.5.3 4.7.2 9.4 1 14 .5.4 0 1-.3 1.2-.2.2.1.3.3 0 .5zM864.2 67.3c3.3-1.2 5.9-2.9 9.5-2.6 1.1.1 2.3.2 3.4.3.3 0 .8.3.8.5s-.5.4-.8.5c-2.7.3-5.6.4-8.3.7-.8.1-1.6.4-2.3.6-.7.2-1.4.4-2.1.4-.2.1-.1-.3-.2-.4zM880.5 65.4c1.6.1 3.2.1 4.8.2-1.5.8-3.4.6-4.8-.2z"/><path fill="#FFF" d="M880.2 77.7c-.2-.1-.4-.3-.7-.4-.2-.1-.5-.2-.7-.3h-.2c-.1 0-.1 0-.2.1-.1 0-.2.1-.2.1-.2.1-.4.2-.6.2-.5.2-1.1.3-1.7.4h-.2l.1-.2c.3-.7.6-1.4.7-1.9 0-.1.1-.2.2-.4 0-.1.1-.2.1-.3v-.2c0-.2-.1-.3-.2-.5-.2-.2-.4-.3-.6-.4-.2-.1-.5-.1-.7-.1h-.2s-.1 0-.1.1v.5c0 .4-.1 1.1-.4 2.1-.2 1-.6 1.9-.9 2.9l-.1.2-.1-.2-.3-.3c-.2-.1-.3-.2-.4-.2h-.1s-.1 0-.2.1h-.2v-.2c0-.2 0-.3-.1-.3-.1-.1-.3-.2-.5-.2-.2-.1-.4-.1-.7-.1h-.2V79.4h-.1c-.7.2-.9.3-1 .3h-.2l.1-.2c.2-.4.6-1 .9-1.7.2 0 .3-.1.5-.1s.3-.1.5-.1c.8-.2 1.4-.4 1.6-.5.1 0 .1-.1.1-.1 0-.1 0-.1-.1-.2-.2-.2-.3-.4-.5-.5-.1-.1-.3-.1-.4-.1h-.3s-.2 0-.4.1l-.3.1.2-.3c.2-.4.4-.7.5-.8.1-.2.2-.3.2-.4 0-.1.1-.2.1-.2 0-.1 0-.2-.1-.2-.1-.2-.2-.3-.4-.5s-.4-.3-.7-.5c-.1 0-.2-.1-.2-.1s-.2 0-.2.3c0 .2 0 .5-.1.7 0 .3-.1.5-.1.6-.2.6-.4 1.2-.6 1.7v.1h-.1c-.2.1-.5.1-.6.2l-1 .3h-.1c.1.3.3.5.6.7.1 0 .2.1.2.1h.4l-.1.2c-.4.7-.7 1.2-1 1.7v.2c.2.4.4.6.7.8.1 0 .1.1.2.1 0 0 .1 0 .2-.1.5-.2.8-.2 1-.3l.6-.2V82.4h-.1c-1.2.4-2.1.6-2.7.7-.1 0-.3 0-.3.1 0 0 0 .1.1.2l.2.4c.1.3.3.5.5.6.2.2.4.1.7-.1l1.6-1.1v.2c0 .8-.1 1.4-.1 1.8 0 .2 0 .5.1.7.1.2.2.4.4.5.4.3.7.2.8-.1.1-.2.1-.4.1-.7V82.3l1.4-1-1.4.5.1-1.7h.1c.5-.1.8-.2 1-.2h.2l-.1.2c-.1.1-.2.4-.4.8v.1h.1c.7-.4 1.3-1.1 1.9-2.1l.1-.1.3.2c.1 0 .2.1.3.1h.4l.8-.2c.5-.1.9-.2 1-.2h.3c.1.1.1.1.1.2v.1l-.1.3-.4.8v.1c.1 0 .2 0 .3-.1.3-.2.7-.4 1.1-.7.5-.3.8-.4 1.1-.5.2-.1.3-.2.3-.3.1-.3 0-.5-.4-.9zm1.1 8.4c-.5-.3-1.1-.7-1.9-1.5-.3-.3-.6-.6-1-1.1-.3-.4-.7-.8-1-1.2l-.1-.1c-.2-.3-.4-.5-.4-.6l-.2-.2v-.1c0-.2.1-.5.2-.9.1-.2.1-.4.1-.4 0-.1-.1-.2-.2-.3-.2-.1-.3-.3-.5-.4-.1-.1-.4-.1-.7-.2h-.2V79.7c0 .2 0 .4-.1.8-.1.6-.3 1.3-.6 2.1s-.7 1.5-1.2 2.3c-.5.7-1 1.3-1.7 1.7l-.1.1v.1h.1c1-.4 1.9-.9 2.6-1.7.7-.7 1.3-1.6 1.7-2.5l.1-.2.2.4.6 1.2c.5 1 .8 1.6 1 1.9.3.4.8.6 1.5.6.3 0 .8-.1 1.4-.3.1 0 .2-.1.2-.1l.1-.1c.2.1.2.1.1.1zM887.7 74.8c0-.1-.1-.2-.1-.2-.2-.2-.5-.4-1-.7-.4-.2-.8-.3-1-.3h-.1v1.2c-.2 1.3-.6 2.6-1.3 3.8-.6 1.2-1.5 2.4-2.6 3.5 1.2-.4 2.3-1.1 3.1-2l.2-.2V81c0 1.5-.1 2.9-.2 4.1 0 .2 0 .4.1.6.1.2.2.5.4.7.2.2.3.3.4.3h.2c.1 0 .5 0 .6-.9V79.5c0-.2 0-.3-.1-.3 0 0-.2-.1-.5-.1h-.2l.1-.2c.2-.4.6-.9.9-1.6.2-.4.4-.7.5-.9.2-.3.4-.5.5-.8.1-.2.1-.3.1-.4.1-.2.1-.3 0-.4zm7.7 6c-.2-.4-.5-.7-1-.9-.2-.1-.4-.1-.7 0-.5.1-1.1.3-1.7.4h-.1V77.9h.1c.9-.2 1.5-.3 1.9-.4.1 0 .1 0 .1-.1v-.2c-.2-.3-.4-.5-.7-.7-.2-.1-.4-.1-.6 0-.1 0-.3.1-.6.2h-.2v-.2h-.1.1v-.2c0-.8.1-1.5.1-2.1 0-.1-.1-.2-.3-.3-.2-.1-.5-.2-.8-.3-.3 0-.5-.1-.7 0-.1 0-.1 0-.1.2v.1c.1.3.1.6.2 1.1 0 .4.1.8.1 1.2v1.1l-.9.3.3-.5c.1-.2.1-.2.1-.3 0-.1 0-.1-.1-.2-.1-.2-.3-.3-.5-.5s-.4-.3-.7-.3h-.1s-.1 0-.1.1c0 .6-.2 1.4-.6 2.3-.4.9-.7 1.6-1.1 2.2l-.1.1s0 .1.3-.1c.4-.2.8-.6 1.2-1 .4-.4.8-.9 1.2-1.5l.1-.1.1.1.3.3c.2.1.3.1.5.1h.1V80.6h-.1c-1 .1-2.1.2-3.2.3h-.2v.2c.1.2.2.3.3.4l.3.3c.1.1.2.1.2.2.2.1.3.1.5.1h.2c.5-.1 1.1-.2 1.8-.3h.1v.1c0 1.7 0 2.8-.1 3.4-.1.3-.1.4-.1.5v.2c.1.4.3.7.5 1 .1.1.3.3.4.3.3-.1.5-.4.6-.7.1-.4.2-.9.2-1.7l-.1-3.3h.1c.5 0 .8-.1.9-.1H894.6c.2 0 .4 0 .5-.1.1 0 .1-.1.1-.2.3-.1.3-.2.2-.4zM901.7 83.4c-.3-.9-.4-2-.4-3.1s.1-2.2.4-3.1c.3-1 .8-2 1.5-3.1.2-.2.2-.3.2-.3 0-.1-.2-.1-.4-.1h-.4c-.3 0-.5.1-.7.3-1.4 2-2 4.1-2 6.4 0 2.3.7 4.4 2 6.4.2.2.4.3.7.3h.4c.3 0 .4-.1.4-.1s0-.1-.2-.3c-.7-1.3-1.2-2.4-1.5-3.3zM918.4 78.1c-.2-.1-.4-.2-.7-.2-.2 0-.3 0-.5.1-.2 0-.4.1-.4.1-.7.1-1.9.3-3.5.5h-.2l.1-.2v-.6h.1c.9-.1 1.4-.1 1.6-.1.2 0 .4 0 .4-.1 0 0 .1 0 .1-.1 0 0 0-.1-.2-.3-.1-.1-.2-.3-.4-.3-.2-.1-.3-.1-.4-.1h-.2l-.9.1v-.7h.1c1.1-.1 1.8-.2 2.2-.2.1 0 .2 0 .2-.1 0 0 .1-.1.1-.2v-.1c-.1-.2-.2-.4-.4-.6 0 0-.1-.1-.3-.2-.1-.1-.3-.1-.5-.1-.1 0-.5.1-1.2.2h-.2v-1c0-.1-.1-.1-.2-.2-.2-.1-.4-.2-.8-.3-.4-.1-.7-.1-1-.1-.2 0-.2.1-.2.1v.2c.1.2.1.4.2.7 0 .3 0 .4.1.5v.5h-.1c-1.2.2-2.1.3-2.6.4-.1 0-.1 0-.2.1v.1c.4.5.7.8.9.8h.1c.2-.1.8-.2 1.7-.3h.1v.6h-.1c-.8.1-1.4.2-1.8.3-.1 0-.2 0-.2.1l.3.3.2.2s.1.1.2.1h.1c.2 0 .5 0 1.2-.1h.1v.7l.1.2h-.2c-2.6.3-4.1.4-4.8.5-.3 0-.4.1-.4.1s0 .1.2.3l.2.2.3.3c.1.1.2.1.4.1h.2c1.2-.2 3.2-.4 5.9-.6 2.9-.3 4.6-.4 5.3-.3.1 0 .1 0 .2-.1s.1-.1.1-.2c.1-.5-.1-.7-.4-1zm-2.5 2.8c0-.1-.1-.2-.5-.5-.4-.2-.7-.4-1.1-.5-.1 0-.2-.1-.3-.1h-.1c-.3.1-.8.2-1.7.4-.9.1-1.5.2-2 .2-.2-.1-.4-.1-.6-.1 0 0-.1 0-.1.1 0 0-.1.1-.1.2v.1c.1.2.1.5.1 1 0 .7 0 1.5-.1 2.5s-.2 1.6-.2 1.9c0 .1 0 .2.1.4s.3.3.5.4c.2.1.4.2.5.2.2 0 .3-.1.4-.2.1-.1.1-.4.2-.8v-1.9l.2.2c.1.1.2.2.4.2h.1c.7-.1 1.2-.1 1.4-.1.2 0 .3 0 .3-.1.1 0 .1-.1.1-.2V84c-.1-.3-.3-.4-.5-.5h-.1c-.1 0-.4 0-.6.1-.4.1-.7.2-1.1.2h-.1l.1-1 .2.1c.1 0 .2.1.3.1h.1c.1 0 .3-.1.6-.1s.6 0 .7-.1c.4 0 .4-.2.4-.2v-.2c-.1-.2-.3-.4-.4-.5h-.3c-.2 0-.3 0-.4.1l-1 .2V82c0-.3 0-.5.1-.6V81.1H911.7c.7-.1 1.4-.3 2.1-.4 0 0 .1 0 .2.1s.1.2.1.2v4.1c0 .1 0 .2-.1.2-.1.1-.2.1-.3.1h-1.1c.2.1.5.3.8.5.3.2.5.5.6.7.2.3.3.3.3.3.2 0 .4-.1.6-.2.3-.1.5-.3.7-.6.2-.3.3-.7.3-1.2v-3.7c0-.1 0-.1.1-.4l-.1.1zM932.6 80.8c-.1-.2-.3-.4-.6-.7-.3-.2-.5-.4-.8-.6-.1 0-.2-.1-.2-.1s-.2 0-.5.2c-.1 0-.3.1-1.2.2l-.4.1.3-.3.3-.3c0-.1.1-.2.2-.5 0-.1.1-.5.2-1.3.1-.5.1-.8.1-1 0-.1 0-.1.1-.3v-.1c0-.1.1-.2.1-.3 0-.1 0-.2-.1-.2-.1-.1-.3-.3-.5-.4-.2-.1-.4-.2-.7-.3-.2-.1-.3-.1-.5 0 0 .1-.1.1-.2.2-.1 0-.2.1-.5.2l-2 .4.4-.3c.3-.2.6-.5.9-.8.2-.2.3-.3.4-.5.1-.1.1-.2.1-.4 0-.1-.1-.3-.3-.4s-.4-.3-.6-.4c-.2-.1-.5-.1-.6-.1h-.1v.4c-.1.6-.5 1.4-1.2 2.3l-.1.1h-.1c-.4-.1-.7-.2-.9-.2-.1 0-.2 0-.2.1v.1l.1.2c0 .1.1.3.1.5v1c0 .5 0 1.1-.1 1.6 0 .5-.1.9-.2 1.2 0 .2-.1.3-.1.4 0 .1-.1.2-.2.3l-.1.1v.1c0 .1.1.1.1.1l.2.2.2.2c.1.1.3.2.4.2 0 0 .1 0 .2-.1l.2-.1v.1l.1.1c.1.1.2.3.2.6V83.7l-1.7.2v.1-.5c0-.2 0-.4.1-.5v-.3c0-.1 0-.2-.1-.2-.1-.1-.3-.3-.6-.4-.3-.1-.5-.2-.8-.2h-.1v.4c.1.4.1.7.1 1.1v.7s0 .1-.2.3c-.1.2-.2.3-.2.3v.1c.1.3.3.5.6.7.1.1.3.1.4.1.7-.2 1.6-.4 2.6-.5s2-.2 2.7-.2c.4.4.8.4 1.1.1.1-.2.2-.4.3-.7.1-.5.1-.8.1-1.1V82.4c0-.1 0-.1-.1-.2s-.3-.2-.6-.3c-.3-.1-.7-.1-.9-.1h-.2v.1c.1.1.1.2.2.3v1.5h-.1c-.2 0-.7 0-1.3.1h-.1v-.5l.1-.5v-.5c0-.2-.2-.4-.6-.5l-.6-.2.6-.1c.7-.1 1.6-.2 2.7-.3 1.1-.1 1.6-.2 1.9-.2.2 0 .3 0 .4.1s.1.2.1.3c0 .7-.1 1.4-.2 2-.1.6-.3 1.2-.5 1.8-.1.1-.2.2-.4.3-.2.1-.3.1-.6.1-.4 0-.6 0-.7-.1H927.6s.1.1.2.1c.5.3.8.7 1 1 0 .1.1.2.2.3.1.1.1.2.2.3 0 0 .1.1.4.1.4 0 .7-.1 1.1-.4.4-.3.7-.8.9-1.4.2-.6.4-1.4.5-2.4l.1-.4v-.3c0-.2 0-.3.1-.5 0-.2.1-.4.2-.6 0 0 0-.1.1-.1V81c.1 0 .1-.1 0-.2zm-4.4-3c0 .5-.1.9-.1 1-.1.2-.1.2-.1.3 0 0-.1.1-.3.1h-.7c.4.2.7.4 1 .7l.2.2-3.2.4v-1.6l.1-1.6.2.1c.5.3 1 .7 1.4 1.1.2.2.3.2.3.2s.1 0 .2-.1c.2-.2.2-.4.2-.6 0-.3-.1-.5-.3-.6-.2-.2-.5-.3-.9-.3-.2 0-.5 0-.9.1h-.2l.1-.5v-.1h.5c.2 0 .5-.1 1-.2s.9-.1 1.1-.1c.1 0 .2 0 .3.1.1.1.1.2.1.3.1.2 0 .5 0 1.1zM937.1 73.9c-.1-.2-.4-.3-.7-.3h-.4c-.2 0-.4 0-.4.1 0 0 0 .1.2.3.7 1.1 1.3 2.1 1.5 3.1.3.9.4 2 .4 3.1s-.1 2.2-.4 3.1c-.3 1-.8 2-1.5 3.1-.1.2-.2.3-.2.3 0 .1.2.1.4.1h.4c.3 0 .5-.1.7-.3 1.4-2 2.1-4.1 2.1-6.4 0-2.1-.7-4.2-2.1-6.2zM880.5 94.2c-.1-.2-.2-.4-.3-.5l-.4-.4c-.1-.1-.2-.1-.4-.1h-.2l-.9.2c-.3 0-.6.1-.9.1-.6.1-1.4.2-2.3.3h-.2l.1-.3c.4-1 .6-1.3.6-1.3v-.1s0-.1.1-.1v-.2c0-.1 0-.2-.2-.3-.5-.4-1.1-.6-1.6-.7H873.6v.1c.1.1.1.3.1.4 0 .3-.1.7-.3 1.3l-.4 1.2v.1h-.1c-1.8.3-2.9.4-3.6.5-.1 0-.3 0-.3.1 0 0 0 .1.1.2.1.2.3.4.5.6.2.2.4.3.5.3h.4c.5-.1 1.1-.3 1.8-.4h.2l-.1.2c-.6 1.2-1.2 2.4-2 3.4-.7 1-1.5 1.9-2.4 2.7h.1c.8-.4 1.6-.8 2.3-1.3.7-.5 1.3-1.1 1.8-1.7l.2-.3V100.4c0 .6-.1 1.1-.1 1.7l-.1 1.2c0 .2 0 .4.1.7.1.2.2.4.4.6.1.1.3.2.4.3.1 0 .2 0 .3-.1.1-.1.2-.3.4-.5.1-.2.2-.5.2-.8v-.4c0-.4-.1-.9-.1-1.4v-.2h.5c.7-.1 1.3-.1 1.7-.2h.3v-.1c0-.2-.1-.4-.2-.5-.1-.1-.1-.2-.2-.2h-.5c-.4.1-.9.1-1.5.2h-.1V99.8h.3l1.7-.2c.2 0 .2 0 .3-.1v-.1c0-.2-.1-.3-.1-.3 0-.1-.1-.1-.1-.2l-.2-.2h-.4c-.6.1-1 .2-1.3.2h-.1v-.1c0-.4 0-.7.1-1v-.1h.1c.1.1.2 0 .3 0 .1 0 .4-.1.9-.2 1-.2 1.2-.1 1.3-.1.1 0 .1.1.1.3v5.2c0 .4-.3.5-.5.5h-1.1.1c.7.5 1.1.9 1.3 1.3l.3.3s.1.1.3 0c.1 0 .3-.1.4-.2.1-.1.3-.2.5-.5.2-.2.3-.4.4-.7.1-.3.1-.5.1-.7 0-.5-.1-1.1-.1-1.8v-3c0-.3.1-.6.2-.9.1-.2.1-.3.1-.4 0-.1 0-.1-.1-.2-.2-.2-.4-.4-.7-.5l-.6-.3c-.1-.1-.3-.1-.4 0-.1.1-.2.2-.4.2s-.2.1-.3.1c-.2.1-.5.2-1.1.2-.5.1-1 .2-1.4.2h-.2l.1-.2c.2-.4.5-.9.7-1.4v-.1h.1c1-.1 1.8-.2 2.6-.3.8-.1 1.5-.1 1.9-.1h.9c.5 0 .7.1.8-.1.1-.1.1-.2.1-.2-.3.3-.3.2-.3.1zM886.7 94.3c.3-.4.6-.7.8-1 .1-.1.1-.2.1-.2s0-.1-.1-.2l-.4-.4c-.2-.2-.4-.2-.5-.3-.1-.1-.3-.1-.4 0-.1 0-.3.1-.6.3-.3.1-.5.2-.6.2h-.1v-.2s0-.1-.3-.2c-.2-.1-.5-.1-.8-.2h-.7v.1c.1.5.2 1 .2 1.5V96c0 1.2 0 2.5-.1 3.6 0 1.2-.1 2-.2 2.4v.7c.1.3.2.6.5.8.2.2.3.3.5.2.3-.1.4-.3.6-.6.1-.3.2-.8.2-1.5l-.1-3.8V97c0-1.2 0-2.3.1-3.2v-.5h.1c.4-.2.6-.2.7-.3l.2-.1-.4 1-.4 1.1v.4c.3.3.5.5.6.8.1.2.2.6.3 1.2 0 .2 0 .3-.1.4-.1.1-.2.1-.4.1l-.4-.1c-.2 0-.3 0-.4-.1l.1.1c.3.3.5.6.8.9l.3.3c.1.1.2.2.3.2h.2c.2-.1.5-.3.7-.6.2-.3.3-.6.3-1 0-.3-.1-.6-.3-1-.2-.4-.6-.9-1.2-1.4l-.1-.1V95c.4.1.7-.3 1-.7zm9.3 8.7c-.6-.2-1.1-.6-1.7-1.2-.6-.6-1.2-1.3-1.8-2.3l-.1-.1h.2l2.1-.6c.2-.1.3-.2.3-.4 0 0 0-.1-.1-.2 0-.1-.1-.2-.4-.4-.2-.2-.4-.4-.7-.5-.1.4-.6 1.1-1.5 1.9l-.1.1-.4-.7c-.2-.4-.4-.7-.5-.8l-.1-.2.1-.1h.4l.1.1-.1.1.1-.1c.1.1.1.1.2.1s.3-.1.5-.2.3-.3.5-.5c.1-.2.2-.4.2-.6 0-.3.1-.7.2-1.3.1-.5.2-.9.2-1.3 0-.2.1-.4.2-.5.1-.2.1-.3.1-.3v-.1c0-.1 0-.2-.2-.4s-.5-.5-1.1-.8c-.1 0-.2-.1-.2-.1h-.1c-.2.1-.5.3-1.1.4-.5.2-1 .3-1.4.3h-.1v-.1c0-.1 0-.2-.1-.3-.1-.1-.2-.2-.4-.2-.2-.1-.5-.1-.9-.2l-.3-.1h-.1v.1c.3.7.4 2.4.4 5.1 0 1.6 0 3.3-.1 4.9 0 .2-.1.4-.2.6-.1.2-.2.3-.3.3-.1.1-.2.1-.2.1-.1.1-.1.1-.1.2 0 0 0 .1.1.2s.2.3.3.5c.2.2.3.4.5.6.1.1.2.1.2.1.1 0 .2 0 .4-.3.3-.4.9-1.1 1.7-2l.7-.8v-.1h-.1c-.3.2-.8.4-1.4.6h-.2s-.1-.1-.1-.2v-3.9l.6-.1v.1c.3.7.8 1.7 1.4 3.1.5 1.2.8 1.9 1 2.2.2.3.3.5.5.6.2.2.5.2 1 .1.8-.2 1.4-.5 1.9-.7.2.3.1.3.1.3zm-6-6.3h-.2v-1.3h.4l1.1-.1c.3 0 .4-.1.4-.2v-.2c-.1-.2-.1-.2-.1-.3l-.2-.2h-.4l-1.1.2v-1.1l.8-.1c.3 0 .5-.1.7-.1h.7c.1.1.1.2.1.3 0 .4 0 .8-.1 1.3 0 .5-.1.8-.1 1.1 0 .2-.1.3-.1.4-.1.1-.2.1-.3.2l-.2.1c-.6-.1-1-.1-1.4 0zM902.5 93.2c-.2-.4-.7-.7-1.4-1.1-.2-.1-.3-.1-.3-.1h-.1v.1c0 .3 0 .7-.2 1.1-.4 1.3-.8 2.5-1.3 3.4-.5.9-1.2 1.8-2.1 2.6.8-.2 1.5-.4 2-.8s1-.8 1.3-1.3c.3-.5.7-1 1-1.7l.5-.9c0-.1.1-.2.1-.3l.1-.1s0-.1.1-.1c.2-.3.2-.6.2-.8h.1zm5.5 9c-.1-.3-.4-.7-.7-1-.4-.4-.8-.7-1.2-.9-.4-.2-.8-.3-1.1-.3h-.2v.2c.2.2.4.6.7 1.2l.1.1-4.4.7.2-.3c.5-.5 1-1.1 1.6-1.8.7-.8 1-1.2 1.1-1.4 0-.1.1-.1.2-.3l.2-.4c0-.1.1-.2.1-.3v-.1c-.1-.2-.3-.4-.6-.6-.3-.2-.7-.4-1.1-.6h-.2c-.1 0-.1 0-.2.1 0 0-.1.1-.1.2v.2c0 .1 0 .2-.1.4 0 .2-.1.4-.2.7-.3.8-.8 1.6-1.2 2.2-.5.7-.9 1.2-1.4 1.6l-.2.2c-.1.1-.2.2-.3.2-.1.1-.1.1-.1.2 0 .2.1.5.3.9.2.4.4.7.7.9h.1c.1 0 .2 0 .5-.2s1-.4 2.2-.7c1.2-.3 2.3-.5 3.1-.7h.1l.3 1c0 .2.1.3.2.4.1.1.1.1.2.1.4-.1.7-.2 1-.5.2-.3.4-.6.4-.9.1-.2 0-.4 0-.5zm2.4-4.6c-.5-.2-1.1-.7-2-1.3-.6-.4-1.1-1-1.6-1.6-.5-.6-1.1-1.4-1.6-2.4-.1-.2-.3-.4-.5-.5-.2-.1-.5-.2-.8-.2-.2 0-.3 0-.4.1-.1 0-.1.1-.2.1.1.1.3.4.6 1 .2.4.5.9 1 1.9l.9 1.8c.3.5.5.8.8 1.1.4.4.9.6 1.3.6h.3c.2 0 .5-.1.9-.2l.4-.1c.2-.1.4-.1.4-.1h.1c.1 0 .1 0 .2-.1h.2c.1 0 .2-.1.2-.1 0 .1 0 .1-.2 0zM918.8 95.4c-.1-.1-.1-.2-.2-.4l-.3-.3c-.1-.1-.3-.1-.6-.1h-.3c-.7.1-1.6.2-2.7.4h-.1c-.3.1-.7.1-1 .2-.3 0-.6.1-.8.1-.1 0-.2 0-.3.1l-.1.1v.1c.5.6.8.9 1.1.9h.1c.4-.1 1.1-.3 2.3-.4 1.1-.2 2-.2 2.6-.2.3 0 .3-.1.3-.2v-.3zm-.3 2.2c-.1-.1-.3-.2-.5-.4s-.4-.2-.5-.3c-.1 0-.2-.1-.3-.1-.1 0-.2 0-.3.1-.1.1-.5.2-1 .3-.6.1-1.2.2-1.7.3-.2-.1-.3-.2-.5-.3-.2-.1-.4-.1-.6-.1-.1 0-.3 0-.3.1v.2c0 .1.1.2.1.3v1.5c0 .7 0 1.2-.1 1.6v.3c0 .1.1.3.2.4.1.2.3.3.5.4.3.2.6.3.8 0 .1-.1.2-.3.2-.4v-.3l1.9-.2.2.2c.1.1.1.2.2.3 0 0 .1.1.2.1.2 0 .5-.1.8-.3.3-.2.4-.4.4-.5v-.3c0-.1 0-.2.1-.3s0-.3.1-.5c.1-.4.1-.8.2-1 0-.2.1-.4.2-.6 0-.1.1-.2.1-.3-.3-.1-.3-.2-.4-.2zm-1.8 2.3-2.4.3v-1.9h.1c.7-.1 1.4-.2 2.1-.2.1 0 .2 0 .2.2v.2c.1.5.1 1 0 1.4zm6.1-7.4c-.1-.2-.3-.4-.6-.5-.3-.2-.6-.3-.9-.5-.2-.1-.3-.1-.5 0-.1 0-.2.1-.3.1-.2.1-1.3.3-3.3.5-2 .3-3.2.4-3.6.4-.2 0-.3 0-.3.1v.2c.1.2.3.5.5.7.2.2.4.3.6.3h.1c.7-.2 1.7-.3 2.8-.5s2.1-.3 2.7-.3c.1 0 .2 0 .2.1.1.1.1.2.1.2v.6c0 1.5-.1 3.1-.2 4.8-.1 1.8-.3 2.9-.5 3.6 0 .2-.2.4-.6.4h-1.3l.1.1c.7.6 1.2 1.1 1.4 1.6.1.3.3.4.5.4.1 0 .2 0 .4-.1.4-.1.7-.4 1-.8.3-.4.6-.8.7-1.2.1-.4.2-1.1.3-2.1.1-1.1.1-2.4.2-3.9v-.4c0-1.3.1-2.3.1-2.8 0-.2.1-.3.1-.4l.1-.2c.1-.1.1-.2.1-.3.2 0 .1 0 .1-.1z"/><g><linearGradient id="SVGID_1_" gradientUnits="userSpaceOnUse" x1="163.484" y1="311.188" x2="163.484" y2="21.313"><stop offset="0" style="stop-color:#2975fe"/><stop offset="1" style="stop-color:#0cd5ff"/></linearGradient><path fill="url(#SVGID_1_)" d="M163.5 21.3c-80 0-144.9 64.9-144.9 144.9s64.9 144.9 144.9 144.9c80.1 0 144.9-64.9 144.9-144.9S243.5 21.3 163.5 21.3z"/><path fill-rule="evenodd" clip-rule="evenodd" fill="#FFF" d="M272.2 84.6s23.8 35.4 13.2 65.5c-7.1 20.2-32.7 27.3-53.2 20.7-31.9-10.1-71.4-44-114.5-12.9-36.5 26.3-21.3 72.3 4.8 87.6 19.5 11.5 46.8 15.1 62.7 1.5 12.8-10.9 19.7-39.2-1.8-48.9-7.3-3.3-21.7-4-29.7 5.2-10.4 12.1-6.4 29 7.9 34.3 0 0-25.7-1.3-29.1-27.8-5.8-45.2 52-52.6 79.4-35.7 49.3 30.5 31.8 99.4-41.5 112-37.2 6.4-98.5-6.4-122.9-56.1-9.1-18.6-6.6-15.4-6.6-15.4s3.2 3.6 8.6 7.5c17.4 12.7 33.7 1.2 29.7-15.5-13.6-57.4 9.3-67.1 23.2-77.9 14-10.7 8.5-30.8-19-26.4-38.5 6.2-48.7 62.1-48.7 62.1s-6.4-95 76.9-103.4c84.9-8.5 97.1 66.2 134.2 77.5 51.6 15.8 26.4-53.9 26.4-53.9z"/></g><g class="zentao"><g fill="#221714"><path d="M380.7 72.5h66.5v14.3h-66.5zM627.9 72.5h59.5v14.3h-59.5zM380.7 118h52.4v11h-51.8v125.5h14.3V143.3h11.8v111.2h14.3v-82.2h11.4v82.2h14.4v-96.6h-25.8v-14.6h25.8v-39.7h-66.8zM536.1 118h64.7V68.9h-64.7V118zm14.3-34.8h36v20.5h-36V83.2zM522.1 68.9h-64.7V118h64.7V68.9zm-14.3 34.7h-36V83.2h36v20.4zM457.4 209.6h63.9v11.2h-63.8v14.3h63.8v19.3h14.3v-19.3h65v-14.3h-65v-11.2h65.2v-83.3H457.4v83.3zm14.3-14.3v-20.2h49.6v20.2h-49.6zm63.9 0v-20.2h50.8v20.2h-50.8zm50.9-34.5h-50.8v-20.2h50.8v20.2zm-65.2-20.1v20.2h-49.6v-20.2h49.6z"/></g><g fill-rule="evenodd" clip-rule="evenodd" fill="#221714"><path d="M772 238.2c-16.6 3.2-54.4 24-54.4 24-44.2 17.3-67.1-15.5-67.1-15.5l-8.7 7.1c33.6 41.5 87.1 15.3 87.1 15.3 108.3-63.4 165.5-14.6 178.7-1.3-59.7-60.1-135.6-29.6-135.6-29.6z"/><path d="M701.7 249.9c6.4 2.3 24.3-5.6 24.3-5.6 87.6-55.6 162.4-.7 176.9 13.7-89.8-89.3-186.4-20.3-186.4-20.3-6 13-14.8 12.2-14.8 12.2z"/><path d="M600.1 240.7c6.9 17 27.2 16 27.2 16 21.3 0 17.1-22 17.1-22-4.8-11.8-15.9-8.1-15.9-8.1-5.2 1.2-4.4 6-4.4 6 2.2 6 8.1 3.6 8.1 3.6l1.8-.5c3.6 9.2-5 11.7-5 11.7-20.6.7-21.6-16.1-21.6-16.1-1.7-24 21.4-19.7 21.4-19.7 4.1-32.4 25.5-30.8 25.5-30.8 30.7-3.3 27 26.9 27 26.9 32.7 2.8 24.1 23.2 24.1 23.2-5.2 16.9-20.5 4.2-20.5 4.2-2.8-2.5 4-4.8 4-4.8 8.3-1.9 4.4-6.8 4.4-6.8-4.2-5.7-13.6.8-13.6.8-16.4 10.8 5 22.4 5 22.4 23.6 10.5 30.5-11.7 30.5-11.7 7-30.2-24.6-34.3-24.6-34.3-2-30.8-35.4-29.1-35.4-29.1-10.4.3-17.9 3.5-23.1 7.8-9.6 8.1-12.7 23-12.7 23-29.2 8.5-19.3 38.3-19.3 38.3z"/></g><g fill="#221714"><path d="M695.8 226.8h.3c-.1 0-.2-.1-.3-.2v.2zM695.8 117.2v89.7c4.7 1.5 15.3 14.9 19.1 19.9h29.8c20.4-3.9 38.2-16.8 62.2-11.7l-7.6-2.7h-89.2v-81h123.7V181h-92.2v-17.8h74.1v-14.3h-88.4v46.5h120.9v-78.2H779v-16.6h68.8V86.2h-19.7V69.3h-14.3v16.9h-83.9V69.3h-14.3v16.9h-19.7v14.3h68.8v16.6h-68.9z"/></g><path fill="#221714" d="M672.7 146.2h-44.1v51.6c3.6-2.9 8.3-15.8 14.2-17.3l.1-20H687v-56.9h-58.5V118h44.2v28.2z"/></g></svg>