<?xml version="1.0" encoding="utf-8"?>
<svg version="1.1" xmlns="http://www.w3.org/2000/svg" xmlns:xlink="http://www.w3.org/1999/xlink" x="0px" y="0px"
     viewBox="0 0 984 330.6" enable-background="new 0 0 984 330.6" xml:space="preserve">
   <style>
    @media (prefers-color-scheme: dark) {
      .zentao path, .zentao rect, .zentao polygon {
        fill: #FFFFFF;
      }
    }
  </style>
    <g>
	<path fill="#08447F" d="M859.8,74.9c-0.3-0.1-0.9,1.2-1.1,2.4c-0.3,2.2-0.3,4.6-0.5,6.8c-0.1,0.8-0.2,1.7-0.4,2.5
		c0,0.1-0.3,0-0.4,0c-0.1-0.1-0.2-0.4-0.2-0.6c0.2-2.9,0-5.4,0.3-8.4c0.3-3,2-5.5,4.6-7.5c1.2-0.9,2.4-1,4.3-1.1
		c1.8,0,5-0.3,6.9-0.4c1.9-0.2,3.4-0.4,5.1-0.5c4.5-0.3,9-0.7,13.5-1c0.6,0,1.3-0.1,1.9-0.3c4.8-1.2,8.8-0.2,13.4,1.1
		c1.4,0.4,2.8,0.3,4.2,0.2c3.3-0.4,6.2-0.4,9.1,1.3c0.3,0.2,0.7,0.2,1.1,0.3c6.4,0.6,10.6,0.8,14.2,1.8c4.9,1.2,9.2,5.6,10.7,10.5
		c1.7,5.6-0.6,10.6-1.3,12.1c-2.4,5.3-7.1,8.5-9.7,10.3c-0.8,0.5-2.7,1.8-4.4,2.9c-1.9,1.2-2.9,1.8-3.3,2c-2.5,1.3-4.8,0.7-7.7,0.4
		c-2.9-0.3-5.8-0.5-8.9-0.3c-4.2,0.3-8.6,0.8-12.9,1.4c-2.1,0.3-4.3,0.4-6.5,0.7c-2.2,0.3-4.6,0.3-6.8,0.1c-0.1,0-0.2,0.3-0.1,0.6
		c0.2,0.8,2.7,0.7,4.6,0.7c2.8-0.1,4.9-0.5,4.9-0.3c0,0.1-0.3,0.2-0.4,0.2c-2.6,1-5.3,1.1-5.3,1.1c-2.9,0.1-4.4,0.1-6.6-0.2
		c-0.4-0.1-1.5-0.2-3.8-0.8c-5.3-1.3-8-1.9-10.1-3.4c-2-1.4-3.3-2.8-4.1-4.6c-1.3-2.7-2.8-5.5-3.5-8.4c-0.5-1.8-0.5-4.1-0.4-5.7
		c0.1-1.6-0.1-3.1-0.1-4.4c0-1.2,0.3-2.5,0.5-3.2c0.1-0.7,0.4-0.8,0.3-1.1c-0.2-0.5-0.5-2.9-0.7-4.5C859.8,75.7,860,74.9,859.8,74.9
		z"/>
        <path fill="#08447F" d="M900.7,65.2c0.4-0.1,1.3-0.2,2-0.2c7.1,0,14.3,0.5,21.4,1.4c1.6,0.2,3.5,0.9,4.8,1.5c0.2,0.1,0,0.5-0.3,0.6
		c-0.3,0.1-1.5,0-2.1-0.1c-3.9-0.6-7.9-1.2-11.8-1.9c-1-0.2-2.1-0.3-3.1-0.1c-3.6,0.8-6.8-0.7-10.4-0.5c-0.2,0-0.7-0.2-0.7-0.3
		C900.5,65.5,900.3,65.3,900.7,65.2z"/>
        <path fill="#08447F" d="M928.4,111.5c-0.2,0.2-1.1,0.6-1.7,0.6c-2.9,0.2-5.8,0.3-8.8,0.6c-1.7,0.2-3.7-0.2-5.4-0.6
		c-1.7-0.4-3.1-0.8-4.9-0.5c-0.3,0-0.9,0-1.2,0c1-0.8,2.1-1.2,3.3-1.2c1.2,0,2.4,0.3,3.5,0.3c4.7,0.2,9.4,1,14,0.5
		c0.4,0,1-0.3,1.2-0.2C928.6,111.1,928.7,111.3,928.4,111.5z"/>
        <path fill="#08447F" d="M864.2,67.3c3.3-1.2,5.9-2.9,9.5-2.6c1.1,0.1,2.3,0.2,3.4,0.3c0.3,0,0.8,0.3,0.8,0.5c0,0.2-0.5,0.4-0.8,0.5
		c-2.7,0.3-5.6,0.4-8.3,0.7c-0.8,0.1-1.6,0.4-2.3,0.6c-0.7,0.2-1.4,0.4-2.1,0.4C864.2,67.8,864.3,67.4,864.2,67.3z"/>
        <path fill="#08447F" d="M880.5,65.4c1.6,0.1,3.2,0.1,4.8,0.2C883.8,66.4,881.9,66.2,880.5,65.4z"/>
        <g>
		<g>
			<path fill="#FFFFFF" d="M880.2,77.7c-0.2-0.1-0.4-0.3-0.7-0.4c-0.2-0.1-0.5-0.2-0.7-0.3c0,0-0.1,0-0.2,0c-0.1,0-0.1,0-0.2,0.1
				c-0.1,0-0.2,0.1-0.2,0.1c-0.2,0.1-0.4,0.2-0.6,0.2c-0.5,0.2-1.1,0.3-1.7,0.4l-0.2,0l0.1-0.2c0.3-0.7,0.6-1.4,0.7-1.9
				c0-0.1,0.1-0.2,0.2-0.4c0-0.1,0.1-0.2,0.1-0.3c0-0.1,0-0.2,0-0.2c0-0.2-0.1-0.3-0.2-0.5c-0.2-0.2-0.4-0.3-0.6-0.4
				c-0.2-0.1-0.5-0.1-0.7-0.1c-0.2,0-0.2,0-0.2,0c0,0-0.1,0-0.1,0.1c0,0.1,0,0.1,0,0.2c0,0.1,0,0.2,0,0.3c0,0.4-0.1,1.1-0.4,2.1
				c-0.2,1-0.6,1.9-0.9,2.9l-0.1,0.2l-0.1-0.2c-0.1-0.1-0.2-0.2-0.3-0.3c-0.2-0.1-0.3-0.2-0.4-0.2c0,0-0.1,0-0.1,0l0,0
				c0,0-0.1,0-0.2,0.1l-0.2,0v-0.2c0-0.2,0-0.3-0.1-0.3c-0.1-0.1-0.3-0.2-0.5-0.2c-0.2-0.1-0.4-0.1-0.7-0.1c-0.1,0-0.1,0-0.2,0
				c0,0,0,0.1,0,0.1v1.1l-0.1,0c-0.7,0.2-0.9,0.3-1,0.3l-0.2,0l0.1-0.2c0.2-0.4,0.6-1,0.9-1.7l0,0l0,0c0.2,0,0.3-0.1,0.5-0.1
				c0.2,0,0.3-0.1,0.5-0.1c0.8-0.2,1.4-0.4,1.6-0.5c0.1,0,0.1-0.1,0.1-0.1c0-0.1,0-0.1-0.1-0.2c-0.2-0.2-0.3-0.4-0.5-0.5
				c-0.1-0.1-0.3-0.1-0.4-0.1c-0.1,0-0.2,0-0.3,0c0,0-0.2,0-0.4,0.1l-0.3,0.1l0.2-0.3c0.2-0.4,0.4-0.7,0.5-0.8
				c0.1-0.2,0.2-0.3,0.2-0.4c0-0.1,0.1-0.2,0.1-0.2c0-0.1,0-0.2-0.1-0.2c-0.1-0.2-0.2-0.3-0.4-0.5c-0.2-0.2-0.4-0.3-0.7-0.5
				c-0.1,0-0.2-0.1-0.2-0.1c0,0-0.2,0-0.2,0.3c0,0.2,0,0.5-0.1,0.7c0,0.3-0.1,0.5-0.1,0.6c-0.2,0.6-0.4,1.2-0.6,1.7l0,0.1l-0.1,0
				c-0.2,0.1-0.5,0.1-0.6,0.2l-1,0.3c-0.1,0-0.1,0-0.1,0l0,0c0.1,0.3,0.3,0.5,0.6,0.7c0.1,0,0.2,0.1,0.2,0.1c0.1,0,0.1,0,0.2,0
				l0.2,0l-0.1,0.2c-0.4,0.7-0.7,1.2-1,1.7c0,0,0,0.1,0,0.1c0,0,0,0.1,0,0.1c0.2,0.4,0.4,0.6,0.7,0.8c0.1,0,0.1,0.1,0.2,0.1
				c0,0,0.1,0,0.2-0.1c0.5-0.2,0.8-0.2,1-0.3l0.6-0.2v0.2c0,0.8,0,1.2,0,1.6v0.1l-0.1,0c-1.2,0.4-2.1,0.6-2.7,0.7
				c-0.1,0-0.3,0-0.3,0.1c0,0,0,0.1,0.1,0.2c0,0,0.1,0.2,0.2,0.4c0.1,0.3,0.3,0.5,0.5,0.6c0.2,0.2,0.4,0.1,0.7-0.1l1.6-1.1l0,0.2
				c0,0.8-0.1,1.4-0.1,1.8c0,0.2,0,0.5,0.1,0.7c0.1,0.2,0.2,0.4,0.4,0.5c0.4,0.3,0.7,0.2,0.8-0.1c0.1-0.2,0.1-0.4,0.1-0.7l0-1.2
				c0-0.7,0-1.4,0-2l0-0.1l1.4-1l-1.4,0.5l0.1-1.7l0.1,0c0.5-0.1,0.8-0.2,1-0.2l0.2,0l-0.1,0.2c-0.1,0.1-0.2,0.4-0.4,0.8
				c0,0.1,0,0.1,0,0.1c0.1,0,0.1,0,0.1,0c0.7-0.4,1.3-1.1,1.9-2.1l0.1-0.1l0.3,0.2c0.1,0,0.2,0.1,0.3,0.1c0,0,0.2,0,0.4,0l0.8-0.2
				c0.5-0.1,0.9-0.2,1-0.2c0.1,0,0.2,0,0.3,0c0.1,0.1,0.1,0.1,0.1,0.2l0,0.1l-0.1,0.3c-0.2,0.4-0.3,0.6-0.4,0.8c0,0,0,0,0,0.1
				c0.1,0,0.2,0,0.3-0.1c0.3-0.2,0.7-0.4,1.1-0.7c0.5-0.3,0.8-0.4,1.1-0.5c0.2-0.1,0.3-0.2,0.3-0.3
				C880.7,78.3,880.6,78.1,880.2,77.7z M881.3,86.1c-0.5-0.3-1.1-0.7-1.9-1.5c-0.3-0.3-0.6-0.6-1-1.1c-0.3-0.4-0.7-0.8-1-1.2
				l-0.1-0.1c-0.2-0.3-0.4-0.5-0.4-0.6l-0.2-0.2l0-0.1c0-0.2,0.1-0.5,0.2-0.9c0.1-0.2,0.1-0.4,0.1-0.4c0-0.1-0.1-0.2-0.2-0.3
				c-0.2-0.1-0.3-0.3-0.5-0.4c-0.1-0.1-0.4-0.1-0.7-0.2h-0.1c-0.1,0-0.1,0-0.1,0c0,0,0,0.1,0,0.2c0,0.2,0,0.3,0,0.4
				c0,0.2,0,0.4-0.1,0.8c-0.1,0.6-0.3,1.3-0.6,2.1c-0.3,0.8-0.7,1.5-1.2,2.3c-0.5,0.7-1,1.3-1.7,1.7c0,0-0.1,0.1-0.1,0.1
				c0,0,0,0,0,0.1c0,0,0,0,0.1,0c1-0.4,1.9-0.9,2.6-1.7c0.7-0.7,1.3-1.6,1.7-2.5l0.1-0.2l0.2,0.4c0.2,0.4,0.4,0.8,0.6,1.2
				c0.5,1,0.8,1.6,1,1.9c0.3,0.4,0.8,0.6,1.5,0.6c0.3,0,0.8-0.1,1.4-0.3c0.1,0,0.2-0.1,0.2-0.1c0,0,0.1-0.1,0.1-0.1
				C881.4,86.1,881.4,86.1,881.3,86.1z"/>
		</g>
            <g>
			<path fill="#FFFFFF" d="M887.7,74.8c0-0.1-0.1-0.2-0.1-0.2c-0.2-0.2-0.5-0.4-1-0.7c-0.4-0.2-0.8-0.3-1-0.3c0,0-0.1,0-0.1,0
				c0,0,0,0,0,0.1c0,0.2,0,0.3,0,0.5c0,0.2,0,0.4,0,0.6c-0.2,1.3-0.6,2.6-1.3,3.8c-0.6,1.2-1.5,2.4-2.6,3.5l0,0c0,0,0,0,0,0
				c1.2-0.4,2.3-1.1,3.1-2l0.2-0.2l0,0.3c0,0.2,0,0.4,0,0.8c0,1.5-0.1,2.9-0.2,4.1c0,0.2,0,0.4,0.1,0.6c0.1,0.2,0.2,0.5,0.4,0.7
				c0.2,0.2,0.3,0.3,0.4,0.3c0.1,0,0.1,0,0.2,0c0.1,0,0.5,0,0.6-0.9c0-0.3,0-0.8,0-1.4c0-0.7,0-1.2,0-1.5l0-1.5c0-0.4,0-0.9,0-1.2
				c0-0.6,0-0.7,0-0.7c0-0.2,0-0.3-0.1-0.3c0,0-0.2-0.1-0.5-0.1l-0.2,0l0.1-0.2c0.2-0.4,0.6-0.9,0.9-1.6c0.2-0.4,0.4-0.7,0.5-0.9
				c0.2-0.3,0.4-0.5,0.5-0.8c0.1-0.2,0.1-0.3,0.1-0.4C887.8,75,887.8,74.9,887.7,74.8z M895.4,80.8c-0.2-0.4-0.5-0.7-1-0.9
				c-0.2-0.1-0.4-0.1-0.7,0c-0.5,0.1-1.1,0.3-1.7,0.4l-0.1,0v-0.1c0-0.5,0-1.2,0-2.2v-0.1l0.1,0c0.9-0.2,1.5-0.3,1.9-0.4
				c0.1,0,0.1,0,0.1-0.1c0,0,0-0.1,0-0.1c0-0.1,0-0.1,0-0.1c-0.2-0.3-0.4-0.5-0.7-0.7c-0.2-0.1-0.4-0.1-0.6,0v0
				c-0.1,0-0.3,0.1-0.6,0.2l-0.2,0l0-0.2v0h-0.1l0.1,0c0,0,0-0.1,0-0.2c0-0.8,0.1-1.5,0.1-2.1c0-0.1-0.1-0.2-0.3-0.3
				c-0.2-0.1-0.5-0.2-0.8-0.3c-0.3,0-0.5-0.1-0.7,0c-0.1,0-0.1,0-0.1,0.2l0,0.1c0.1,0.3,0.1,0.6,0.2,1.1c0,0.4,0.1,0.8,0.1,1.2
				l0,1.1l-0.9,0.3l0.3-0.5c0.1-0.2,0.1-0.2,0.1-0.3c0-0.1,0-0.1-0.1-0.2l0,0c-0.1-0.2-0.3-0.3-0.5-0.5s-0.4-0.3-0.7-0.3
				c-0.1,0-0.1,0-0.1,0c0,0-0.1,0-0.1,0.1c0,0.6-0.2,1.4-0.6,2.3c-0.4,0.9-0.7,1.6-1.1,2.2c0,0-0.1,0.1-0.1,0.1c0,0,0,0.1,0.3-0.1
				c0.4-0.2,0.8-0.6,1.2-1c0.4-0.4,0.8-0.9,1.2-1.5l0.1-0.1l0.1,0.1c0.1,0.1,0.2,0.2,0.3,0.3c0.2,0.1,0.3,0.1,0.5,0.1l0.1,0l0,0.1
				c0,0.4,0,1.1,0,2.1v0.1l-0.1,0c-1,0.1-2.1,0.2-3.2,0.3c-0.1,0-0.1,0-0.2,0c0,0,0,0.1,0,0.1c0,0,0,0,0,0.1
				c0.1,0.2,0.2,0.3,0.3,0.4c0.1,0.1,0.2,0.2,0.3,0.3c0.1,0.1,0.2,0.1,0.2,0.2c0.2,0.1,0.3,0.1,0.5,0.1c0.1,0,0.2,0,0.2,0
				c0.5-0.1,1.1-0.2,1.8-0.3l0.1,0v0.1c0,1.7,0,2.8-0.1,3.4c-0.1,0.3-0.1,0.4-0.1,0.5c0,0.1,0,0.2,0,0.2c0.1,0.4,0.3,0.7,0.5,1
				c0.1,0.1,0.3,0.3,0.4,0.3c0.3-0.1,0.5-0.4,0.6-0.7c0.1-0.4,0.2-0.9,0.2-1.7l-0.1-3.3l0.1,0c0.5,0,0.8-0.1,0.9-0.1
				c0.5,0,0.8,0,1.1,0l0.5,0c0.1,0,0.2,0,0.3,0c0.2,0,0.4,0,0.5-0.1c0.1,0,0.1-0.1,0.1-0.2C895.5,81.1,895.5,81,895.4,80.8z"/>
		</g>
            <g>
			<path fill="#FFFFFF" d="M901.7,83.4c-0.3-0.9-0.4-2-0.4-3.1c0-1.1,0.1-2.2,0.4-3.1c0.3-1,0.8-2,1.5-3.1c0.2-0.2,0.2-0.3,0.2-0.3
				c0-0.1-0.2-0.1-0.4-0.1h-0.4c-0.3,0-0.5,0.1-0.7,0.3c-1.4,2-2,4.1-2,6.4c0,2.3,0.7,4.4,2,6.4c0.2,0.2,0.4,0.3,0.7,0.3h0.4
				c0.3,0,0.4-0.1,0.4-0.1c0,0,0-0.1-0.2-0.3C902.5,85.4,902,84.3,901.7,83.4z"/>
		</g>
            <g>
			<path fill="#FFFFFF" d="M918.4,78.1c-0.2-0.1-0.4-0.2-0.7-0.2c-0.2,0-0.3,0-0.5,0.1c-0.2,0-0.4,0.1-0.4,0.1
				c-0.7,0.1-1.9,0.3-3.5,0.5l-0.2,0l0.1-0.2c0,0,0,0,0,0l0-0.6l0.1,0c0.9-0.1,1.4-0.1,1.6-0.1c0.2,0,0.4,0,0.4-0.1
				c0,0,0.1,0,0.1-0.1c0,0,0-0.1-0.2-0.3c-0.1-0.1-0.2-0.3-0.4-0.3c-0.2-0.1-0.3-0.1-0.4-0.1c0,0-0.1,0-0.2,0l-0.9,0.1l0-0.7l0.1,0
				c1.1-0.1,1.8-0.2,2.2-0.2c0.1,0,0.2,0,0.2-0.1c0,0,0.1-0.1,0.1-0.2v-0.1c-0.1-0.2-0.2-0.4-0.4-0.6c0,0-0.1-0.1-0.3-0.2
				c-0.1-0.1-0.3-0.1-0.5-0.1c-0.1,0-0.5,0.1-1.2,0.2l-0.2,0l0-0.7c0-0.2,0-0.3,0-0.3c0-0.1-0.1-0.1-0.2-0.2
				c-0.2-0.1-0.4-0.2-0.8-0.3c-0.4-0.1-0.7-0.1-1-0.1c-0.2,0-0.2,0.1-0.2,0.1c0,0.1,0,0.1,0,0.2c0.1,0.2,0.1,0.4,0.2,0.7
				c0,0.3,0,0.4,0.1,0.5v0.5l-0.1,0c-1.2,0.2-2.1,0.3-2.6,0.4c-0.1,0-0.1,0-0.2,0.1c0,0,0,0.1,0,0.1c0,0,0,0,0,0
				c0.4,0.5,0.7,0.8,0.9,0.8c0.1,0,0.1,0,0.1,0c0.2-0.1,0.8-0.2,1.7-0.3l0.1,0V77l-0.1,0c-0.8,0.1-1.4,0.2-1.8,0.3
				c-0.1,0-0.2,0-0.2,0.1c0,0,0,0,0,0l0.3,0.3c0.1,0.1,0.2,0.2,0.2,0.2c0,0,0.1,0.1,0.2,0.1c0.1,0,0.1,0,0.1,0h0
				c0.2,0,0.5,0,1.2-0.1l0.1,0v0.6c0,0,0,0.1,0,0.1l0.1,0.2l-0.2,0c-2.6,0.3-4.1,0.4-4.8,0.5c-0.3,0-0.4,0.1-0.4,0.1
				c0,0,0,0.1,0.2,0.3c0,0,0.1,0.1,0.2,0.2c0.1,0.1,0.2,0.2,0.3,0.3c0.1,0.1,0.2,0.1,0.4,0.1c0.1,0,0.2,0,0.2,0
				c1.2-0.2,3.2-0.4,5.9-0.6c2.9-0.3,4.6-0.4,5.3-0.3c0.1,0,0.1,0,0.2-0.1c0.1-0.1,0.1-0.1,0.1-0.2
				C918.9,78.6,918.7,78.4,918.4,78.1z M915.9,80.9c0-0.1-0.1-0.2-0.5-0.5c-0.4-0.2-0.7-0.4-1.1-0.5c-0.1,0-0.2-0.1-0.3-0.1
				c-0.1,0-0.1,0-0.1,0c-0.3,0.1-0.8,0.2-1.7,0.4c-0.9,0.1-1.5,0.2-2,0.2c-0.2-0.1-0.4-0.1-0.6-0.1c0,0-0.1,0-0.1,0.1
				c0,0-0.1,0.1-0.1,0.2c0,0,0,0,0,0.1c0.1,0.2,0.1,0.5,0.1,1c0,0.7,0,1.5-0.1,2.5c-0.1,1-0.2,1.6-0.2,1.9c0,0.1,0,0.2,0.1,0.4
				c0.1,0.2,0.3,0.3,0.5,0.4c0.2,0.1,0.4,0.2,0.5,0.2c0.2,0,0.3-0.1,0.4-0.2c0.1-0.1,0.1-0.4,0.2-0.8c0-0.3,0-0.7,0-1.3l0-0.6
				l0.2,0.2c0.1,0.1,0.2,0.2,0.4,0.2c0,0,0,0,0.1,0c0.7-0.1,1.2-0.1,1.4-0.1c0.2,0,0.3,0,0.3-0.1c0.1,0,0.1-0.1,0.1-0.2
				c0,0,0-0.1,0-0.2c-0.1-0.3-0.3-0.4-0.5-0.5c0,0,0,0-0.1,0c-0.1,0-0.4,0-0.6,0.1c-0.4,0.1-0.7,0.2-1.1,0.2l-0.1,0l0.1-1l0.2,0.1
				c0.1,0,0.2,0.1,0.3,0.1h0.1c0.1,0,0.3-0.1,0.6-0.1c0.3,0,0.6,0,0.7-0.1c0.4,0,0.4-0.2,0.4-0.2c0,0,0-0.1,0-0.2
				c-0.1-0.2-0.3-0.4-0.4-0.5h0c0,0-0.1,0-0.3,0c-0.2,0-0.3,0-0.4,0.1l-1,0.2l0-0.2c0-0.3,0-0.5,0.1-0.6c0,0,0-0.1,0-0.2l0-0.1
				l0.1,0c0,0,0.1,0,0.2,0c0.7-0.1,1.4-0.3,2.1-0.4c0,0,0.1,0,0.2,0.1c0.1,0.1,0.1,0.2,0.1,0.2c0,0.8,0,2,0,4.1c0,0.1,0,0.2-0.1,0.2
				c-0.1,0.1-0.2,0.1-0.3,0.1c-0.2,0-0.6,0-1.1,0h0c0,0,0,0,0,0c0.2,0.1,0.5,0.3,0.8,0.5c0.3,0.2,0.5,0.5,0.6,0.7
				c0.2,0.3,0.3,0.3,0.3,0.3c0.2,0,0.4-0.1,0.6-0.2c0.3-0.1,0.5-0.3,0.7-0.6c0.2-0.3,0.3-0.7,0.3-1.2c0-0.5,0-1,0-1.6
				c0-0.2,0-0.4,0-0.6l0-0.3c0-0.4,0-0.8,0-1.2c0-0.1,0-0.1,0.1-0.4C915.8,81,915.9,80.9,915.9,80.9z"/>
		</g>
            <g>
			<path fill="#FFFFFF" d="M932.6,80.8c-0.1-0.2-0.3-0.4-0.6-0.7c-0.3-0.2-0.5-0.4-0.8-0.6c-0.1,0-0.2-0.1-0.2-0.1
				c0,0-0.2,0-0.5,0.2c-0.1,0-0.3,0.1-1.2,0.2l-0.4,0.1l0.3-0.3c0.1-0.1,0.2-0.2,0.3-0.3c0-0.1,0.1-0.2,0.2-0.5
				c0-0.1,0.1-0.5,0.2-1.3c0.1-0.5,0.1-0.8,0.1-1c0-0.1,0-0.1,0.1-0.3l0-0.1c0-0.1,0.1-0.2,0.1-0.3c0-0.1,0-0.2-0.1-0.2
				c-0.1-0.1-0.3-0.3-0.5-0.4c-0.2-0.1-0.4-0.2-0.7-0.3c-0.2-0.1-0.3-0.1-0.5,0c0,0.1-0.1,0.1-0.2,0.2c-0.1,0-0.2,0.1-0.5,0.2
				l-2,0.4l0.4-0.3c0.3-0.2,0.6-0.5,0.9-0.8c0.2-0.2,0.3-0.3,0.4-0.5c0.1-0.1,0.1-0.2,0.1-0.4c0-0.1-0.1-0.3-0.3-0.4
				s-0.4-0.3-0.6-0.4c-0.2-0.1-0.5-0.1-0.6-0.1c-0.1,0-0.1,0-0.1,0s0,0,0,0.2v0.2c-0.1,0.6-0.5,1.4-1.2,2.3l-0.1,0.1l-0.1,0
				c-0.4-0.1-0.7-0.2-0.9-0.2c-0.1,0-0.2,0-0.2,0.1c0,0,0,0.1,0,0.1c0,0,0,0,0.1,0.2c0,0.1,0.1,0.3,0.1,0.5c0,0.2,0,0.5,0,1
				c0,0.5,0,1.1-0.1,1.6c0,0.5-0.1,0.9-0.2,1.2c0,0.2-0.1,0.3-0.1,0.4c0,0.1-0.1,0.2-0.2,0.3c0,0-0.1,0.1-0.1,0.1c0,0,0,0.1,0,0.1
				c0,0.1,0.1,0.1,0.1,0.1c0,0,0.1,0.1,0.2,0.2c0.1,0.1,0.2,0.2,0.2,0.2c0.1,0.1,0.3,0.2,0.4,0.2c0,0,0.1,0,0.2-0.1l0.2-0.1l0,0.1
				c0,0,0,0,0.1,0.1c0.1,0.1,0.2,0.3,0.2,0.6c0,0.3,0,0.8,0,1.3v0.1l-1.7,0.2V84c0-0.1,0-0.3,0-0.5c0-0.2,0-0.4,0.1-0.5
				c0-0.2,0-0.3,0-0.3c0-0.1,0-0.2-0.1-0.2c-0.1-0.1-0.3-0.3-0.6-0.4c-0.3-0.1-0.5-0.2-0.8-0.2c-0.1,0-0.1,0-0.1,0s0,0,0,0.1l0,0.3
				c0.1,0.4,0.1,0.7,0.1,1.1c0,0.3,0,0.5,0,0.7c0,0,0,0.1-0.2,0.3c-0.1,0.2-0.2,0.3-0.2,0.3c0,0,0,0.1,0,0.1
				c0.1,0.3,0.3,0.5,0.6,0.7c0.1,0.1,0.3,0.1,0.4,0.1c0.7-0.2,1.6-0.4,2.6-0.5s2-0.2,2.7-0.2h0l0,0c0.4,0.4,0.8,0.4,1.1,0.1
				c0.1-0.2,0.2-0.4,0.3-0.7c0.1-0.5,0.1-0.8,0.1-1.1l0-0.3c0-0.1,0-0.1,0-0.2c0-0.1,0-0.2,0-0.2c0-0.1,0-0.1,0-0.1
				c0-0.1,0-0.1-0.1-0.2c-0.1-0.1-0.3-0.2-0.6-0.3c-0.3-0.1-0.7-0.1-0.9-0.1c-0.2,0-0.2,0-0.2,0c0,0,0,0,0,0.1
				c0.1,0.1,0.1,0.2,0.2,0.3c0,0.1,0,0.3,0,0.7c0,0.3,0,0.5,0,0.7l0,0.1l-0.1,0c-0.2,0-0.7,0-1.3,0.1l-0.1,0l0-0.5l0.1-0.5
				c0-0.2,0-0.3,0-0.4c0-0.1,0-0.1,0-0.1c0-0.2-0.2-0.4-0.6-0.5l-0.6-0.2l0.6-0.1c0.7-0.1,1.6-0.2,2.7-0.3c1.1-0.1,1.6-0.2,1.9-0.2
				c0.2,0,0.3,0,0.4,0.1s0.1,0.2,0.1,0.3c0,0.7-0.1,1.4-0.2,2c-0.1,0.6-0.3,1.2-0.5,1.8c-0.1,0.1-0.2,0.2-0.4,0.3
				c-0.2,0.1-0.3,0.1-0.6,0.1c-0.4,0-0.6,0-0.7-0.1c0,0-0.1,0-0.2,0h-0.1c0,0,0.1,0.1,0.2,0.1c0.5,0.3,0.8,0.7,1,1
				c0,0.1,0.1,0.2,0.2,0.3c0.1,0.1,0.1,0.2,0.2,0.3c0,0,0.1,0.1,0.4,0.1c0.4,0,0.7-0.1,1.1-0.4c0.4-0.3,0.7-0.8,0.9-1.4
				c0.2-0.6,0.4-1.4,0.5-2.4l0.1-0.4c0-0.1,0-0.2,0-0.3c0-0.2,0-0.3,0.1-0.5c0-0.2,0.1-0.4,0.2-0.6c0,0,0-0.1,0.1-0.1
				c0-0.1,0-0.1,0-0.2C932.7,81,932.7,80.9,932.6,80.8z M928.2,77.8c0,0.5-0.1,0.9-0.1,1c-0.1,0.2-0.1,0.2-0.1,0.3
				c0,0-0.1,0.1-0.3,0.1c-0.2,0-0.5,0-0.7,0c0,0,0,0,0,0c0.4,0.2,0.7,0.4,1,0.7l0.2,0.2l-3.2,0.4l0-1.1c0-0.2,0-0.4,0-0.5l0.1-1.6
				l0.2,0.1c0.5,0.3,1,0.7,1.4,1.1c0.2,0.2,0.3,0.2,0.3,0.2c0,0,0.1,0,0.2-0.1c0.2-0.2,0.2-0.4,0.2-0.6c0-0.3-0.1-0.5-0.3-0.6
				c-0.2-0.2-0.5-0.3-0.9-0.3c-0.2,0-0.5,0-0.9,0.1h-0.2l0.1-0.5v-0.1l0.1,0c0.1,0,0.2,0,0.2,0l0.2,0c0.2,0,0.5-0.1,1-0.2
				c0.5-0.1,0.9-0.1,1.1-0.1c0.1,0,0.2,0,0.3,0.1c0.1,0.1,0.1,0.2,0.1,0.3C928.3,76.9,928.2,77.2,928.2,77.8z"/>
		</g>
            <g>
			<path fill="#FFFFFF" d="M937.1,73.9c-0.1-0.2-0.4-0.3-0.7-0.3H936c-0.2,0-0.4,0-0.4,0.1c0,0,0,0.1,0.2,0.3
				c0.7,1.1,1.3,2.1,1.5,3.1c0.3,0.9,0.4,2,0.4,3.1c0,1.1-0.1,2.2-0.4,3.1c-0.3,1-0.8,2-1.5,3.1c-0.1,0.2-0.2,0.3-0.2,0.3
				c0,0.1,0.2,0.1,0.4,0.1h0.4c0.3,0,0.5-0.1,0.7-0.3c1.4-2,2.1-4.1,2.1-6.4C939.2,78,938.5,75.9,937.1,73.9z"/>
		</g>
            <g>
			<path fill="#FFFFFF" d="M880.5,94.2c-0.1-0.2-0.2-0.4-0.3-0.5c-0.1-0.1-0.2-0.2-0.4-0.4c-0.1-0.1-0.2-0.1-0.4-0.1
				c-0.1,0-0.2,0-0.2,0l-0.9,0.2c-0.3,0-0.6,0.1-0.9,0.1c-0.6,0.1-1.4,0.2-2.3,0.3l-0.2,0l0.1-0.3c0.4-1,0.6-1.3,0.6-1.3l0-0.1
				c0,0,0-0.1,0.1-0.1c0-0.1,0-0.1,0-0.2c0-0.1,0-0.2-0.2-0.3c-0.5-0.4-1.1-0.6-1.6-0.7l-0.2,0c-0.1,0-0.1,0-0.1,0c0,0,0,0,0,0.1
				c0.1,0.1,0.1,0.3,0.1,0.4c0,0.3-0.1,0.7-0.3,1.3c-0.2,0.6-0.3,0.9-0.4,1.2l0,0.1l-0.1,0c-1.8,0.3-2.9,0.4-3.6,0.5
				c-0.1,0-0.3,0-0.3,0.1c0,0,0,0.1,0.1,0.2c0.1,0.2,0.3,0.4,0.5,0.6c0.2,0.2,0.4,0.3,0.5,0.3c0,0,0.1,0,0.1,0c0,0,0.1,0,0.1,0
				c0.1,0,0.1,0,0.2,0c0.5-0.1,1.1-0.3,1.8-0.4l0.2,0l-0.1,0.2c-0.6,1.2-1.2,2.4-2,3.4c-0.7,1-1.5,1.9-2.4,2.7c0,0,0,0,0,0
				c0.1,0,0.1,0,0.1,0c0.8-0.4,1.6-0.8,2.3-1.3c0.7-0.5,1.3-1.1,1.8-1.7l0.2-0.3v0.3c0,0.7,0,1.3,0,1.9c0,0.6-0.1,1.1-0.1,1.7
				l-0.1,1.2c0,0.2,0,0.4,0.1,0.7c0.1,0.2,0.2,0.4,0.4,0.6c0.1,0.1,0.3,0.2,0.4,0.3c0.1,0,0.2,0,0.3-0.1c0.1-0.1,0.2-0.3,0.4-0.5
				c0.1-0.2,0.2-0.5,0.2-0.8l0-0.4c0-0.4-0.1-0.9-0.1-1.4v-0.2l0.2,0c0.1,0,0.2,0,0.3,0c0.7-0.1,1.3-0.1,1.7-0.2c0.2,0,0.3,0,0.3,0
				v-0.1c0-0.2-0.1-0.4-0.2-0.5c-0.1-0.1-0.1-0.2-0.2-0.2c-0.1,0-0.1,0-0.2,0c0,0-0.1,0-0.3,0c-0.4,0.1-0.9,0.1-1.5,0.2l-0.1,0
				l0-0.1c0-0.2,0-0.4,0-0.7v-0.1l0.3,0l1.7-0.2c0.2,0,0.2,0,0.3-0.1c0,0,0,0,0,0c0,0,0-0.1,0-0.1c0-0.2-0.1-0.3-0.1-0.3
				c0-0.1-0.1-0.1-0.1-0.2c-0.1-0.1-0.1-0.1-0.2-0.2c0,0-0.1,0-0.2,0l-0.2,0c-0.6,0.1-1,0.2-1.3,0.2l-0.1,0l0-0.1c0-0.4,0-0.7,0.1-1
				l0-0.1l0.1,0c0.1,0.1,0.2,0,0.3,0c0.1,0,0.4-0.1,0.9-0.2c1-0.2,1.2-0.1,1.3-0.1c0.1,0,0.1,0.1,0.1,0.3l0,1.6c0,0.9,0,1.6,0,2.1
				c0,0.6,0,1.1,0,1.5c0,0.4-0.3,0.5-0.5,0.5h-1c0,0,0,0-0.1,0c0,0,0,0,0.1,0c0.7,0.5,1.1,0.9,1.3,1.3c0.1,0.1,0.2,0.2,0.3,0.3
				c0,0,0.1,0.1,0.3,0c0.1,0,0.3-0.1,0.4-0.2c0.1-0.1,0.3-0.2,0.5-0.5c0.2-0.2,0.3-0.4,0.4-0.7c0.1-0.3,0.1-0.5,0.1-0.7
				c0-0.5-0.1-1.1-0.1-1.8c0-0.8,0-1.5,0-2.1c0-0.5,0-0.8,0-0.9c0-0.3,0.1-0.6,0.2-0.9c0.1-0.2,0.1-0.3,0.1-0.4c0-0.1,0-0.1-0.1-0.2
				c-0.2-0.2-0.4-0.4-0.7-0.5l-0.6-0.3c-0.1-0.1-0.3-0.1-0.4,0c-0.1,0.1-0.2,0.2-0.4,0.2c-0.2,0-0.2,0.1-0.3,0.1
				c-0.2,0.1-0.5,0.2-1.1,0.2c-0.5,0.1-1,0.2-1.4,0.2l-0.2,0l0.1-0.2c0.2-0.4,0.5-0.9,0.7-1.4l0-0.1l0.1,0c1-0.1,1.8-0.2,2.6-0.3
				c0.8-0.1,1.5-0.1,1.9-0.1c0.4,0,0.6,0,0.9,0c0.5,0,0.7,0.1,0.8-0.1c0.1-0.1,0.1-0.2,0.1-0.2C880.5,94.4,880.5,94.3,880.5,94.2z"
            />
		</g>
            <g>
			<path fill="#FFFFFF" d="M886.7,94.3c0.3-0.4,0.6-0.7,0.8-1c0.1-0.1,0.1-0.2,0.1-0.2c0,0,0-0.1-0.1-0.2c-0.1-0.1-0.2-0.2-0.4-0.4
				c-0.2-0.2-0.4-0.2-0.5-0.3c-0.1-0.1-0.3-0.1-0.4,0c-0.1,0-0.3,0.1-0.6,0.3c-0.3,0.1-0.5,0.2-0.6,0.2l-0.1,0v-0.2
				c0,0,0-0.1-0.3-0.2c-0.2-0.1-0.5-0.1-0.8-0.2c-0.3,0-0.5,0-0.7,0c0,0,0,0,0,0.1c0,0,0,0,0,0c0.1,0.5,0.2,1,0.2,1.5
				c0,0.5,0,1.3,0,2.3c0,1.2,0,2.5-0.1,3.6c0,1.2-0.1,2-0.2,2.4c0,0.1,0,0.2,0,0.4c0,0.1,0,0.2,0,0.3c0.1,0.3,0.2,0.6,0.5,0.8
				c0.2,0.2,0.3,0.3,0.5,0.2c0.3-0.1,0.4-0.3,0.6-0.6c0.1-0.3,0.2-0.8,0.2-1.5l-0.1-3.8l0,0v-0.8c0-1.2,0-2.3,0.1-3.2
				c0-0.1,0-0.1,0-0.2c0-0.1,0-0.1,0-0.2l0-0.1l0.1,0c0.4-0.2,0.6-0.2,0.7-0.3l0.2-0.1l-0.4,1l-0.4,1.1c0,0,0,0.1,0,0.2l0,0
				c0,0,0,0.1,0,0.1c0,0,0,0.1,0,0.1c0.3,0.3,0.5,0.5,0.6,0.8c0.1,0.2,0.2,0.6,0.3,1.2c0,0.2,0,0.3-0.1,0.4
				c-0.1,0.1-0.2,0.1-0.4,0.1l-0.4-0.1c-0.2,0-0.3,0-0.4-0.1l0.1,0.1c0.3,0.3,0.5,0.6,0.8,0.9l0.3,0.3c0.1,0.1,0.2,0.2,0.3,0.2
				c0.1,0,0.1,0,0.2,0c0.2-0.1,0.5-0.3,0.7-0.6c0.2-0.3,0.3-0.6,0.3-1c0-0.3-0.1-0.6-0.3-1c-0.2-0.4-0.6-0.9-1.2-1.4l-0.1-0.1l0-0.1
				C886.1,95.1,886.4,94.7,886.7,94.3z M896,103c-0.6-0.2-1.1-0.6-1.7-1.2c-0.6-0.6-1.2-1.3-1.8-2.3l-0.1-0.1l0.2,0
				c0.7-0.2,1.4-0.4,2.1-0.6c0.2-0.1,0.3-0.2,0.3-0.4c0,0,0-0.1-0.1-0.2c0-0.1-0.1-0.2-0.4-0.4c-0.2-0.2-0.4-0.4-0.7-0.5
				c0,0,0,0,0,0c-0.1,0.4-0.6,1.1-1.5,1.9l-0.1,0.1l-0.4-0.7c-0.2-0.4-0.4-0.7-0.5-0.8l-0.1-0.2l0.1-0.1c0,0,0.1,0,0.1,0
				c0.1,0,0.2,0,0.3,0h0l0,0c0,0,0.1,0.1,0.1,0.1l-0.1,0.1l0.1-0.1c0.1,0.1,0.1,0.1,0.2,0.1c0.1,0,0.3-0.1,0.5-0.2
				c0.2-0.1,0.3-0.3,0.5-0.5c0.1-0.2,0.2-0.4,0.2-0.6c0-0.3,0.1-0.7,0.2-1.3c0.1-0.5,0.2-0.9,0.2-1.3c0-0.2,0.1-0.4,0.2-0.5
				c0.1-0.2,0.1-0.3,0.1-0.3c0,0,0-0.1,0-0.1c0-0.1,0-0.2-0.2-0.4c-0.2-0.2-0.5-0.5-1.1-0.8c-0.1,0-0.2-0.1-0.2-0.1c0,0-0.1,0-0.1,0
				c-0.2,0.1-0.5,0.3-1.1,0.4c-0.5,0.2-1,0.3-1.4,0.3l-0.1,0l0-0.1c0-0.1,0-0.2-0.1-0.3c-0.1-0.1-0.2-0.2-0.4-0.2
				c-0.2-0.1-0.5-0.1-0.9-0.2l-0.3-0.1h0c0,0-0.1,0-0.1,0c0,0,0,0,0,0c0,0,0,0.1,0,0.1l0,0c0.3,0.7,0.4,2.4,0.4,5.1
				c0,1.6,0,3.3-0.1,4.9c0,0.2-0.1,0.4-0.2,0.6c-0.1,0.2-0.2,0.3-0.3,0.3l0,0c-0.1,0.1-0.2,0.1-0.2,0.1c-0.1,0.1-0.1,0.1-0.1,0.2
				c0,0,0,0.1,0.1,0.2c0.1,0.1,0.2,0.3,0.3,0.5c0.2,0.2,0.3,0.4,0.5,0.6c0.1,0.1,0.2,0.1,0.2,0.1c0.1,0,0.2,0,0.4-0.3
				c0.3-0.4,0.9-1.1,1.7-2l0.7-0.8c0,0,0-0.1,0-0.1c0,0-0.1,0-0.1,0c-0.3,0.2-0.8,0.4-1.4,0.6c-0.1,0-0.2,0-0.2,0
				c0,0-0.1-0.1-0.1-0.2c0-1,0-2.3,0-3.8l0-0.1l0.6-0.1l0,0.1c0.3,0.7,0.8,1.7,1.4,3.1c0.5,1.2,0.8,1.9,1,2.2
				c0.2,0.3,0.3,0.5,0.5,0.6c0.2,0.2,0.5,0.2,1,0.1c0.8-0.2,1.4-0.5,1.9-0.7C896.1,103,896,103,896,103z M890,96.7L890,96.7l-0.2,0
				l0-1.3l0.1,0c0.1,0,0.2,0,0.3,0l1.1-0.1c0.3,0,0.4-0.1,0.4-0.2c0-0.1,0-0.1,0-0.2c-0.1-0.2-0.1-0.2-0.1-0.3c0,0-0.1-0.1-0.2-0.2
				c0,0-0.1,0-0.1,0c0,0-0.1,0-0.3,0l-1.1,0.2l0-1.1l0.8-0.1c0.3,0,0.5-0.1,0.7-0.1c0.1,0,0.2,0,0.3,0c0.1,0,0.1,0,0.2,0
				c0.1,0,0.2,0,0.2,0c0.1,0.1,0.1,0.2,0.1,0.3c0,0.4,0,0.8-0.1,1.3c0,0.5-0.1,0.8-0.1,1.1c0,0.2-0.1,0.3-0.1,0.4
				c-0.1,0.1-0.2,0.1-0.3,0.2l-0.2,0.1C890.8,96.6,890.4,96.6,890,96.7z"/>
		</g>
            <g>
			<path fill="#FFFFFF" d="M902.5,93.2c-0.2-0.4-0.7-0.7-1.4-1.1c-0.2-0.1-0.3-0.1-0.3-0.1c0,0,0,0-0.1,0c0,0,0,0,0,0.1
				c0,0.3,0,0.7-0.2,1.1c-0.4,1.3-0.8,2.5-1.3,3.4c-0.5,0.9-1.2,1.8-2.1,2.6c0,0,0,0,0,0h0c0.8-0.2,1.5-0.4,2-0.8
				c0.5-0.4,1-0.8,1.3-1.3c0.3-0.5,0.7-1,1-1.7l0.5-0.9c0-0.1,0.1-0.2,0.1-0.3l0.1-0.1c0,0,0-0.1,0.1-0.1c0.2-0.3,0.2-0.6,0.2-0.8
				C902.5,93.2,902.5,93.2,902.5,93.2z M908,102.2c-0.1-0.3-0.4-0.7-0.7-1c-0.4-0.4-0.8-0.7-1.2-0.9c-0.4-0.2-0.8-0.3-1.1-0.3
				c-0.1,0-0.1,0-0.2,0c0,0,0,0.1,0,0.1c0,0,0,0.1,0,0.1c0.2,0.2,0.4,0.6,0.7,1.2l0.1,0.1l-4.4,0.7l0.2-0.3c0.5-0.5,1-1.1,1.6-1.8
				c0.7-0.8,1-1.2,1.1-1.4c0-0.1,0.1-0.1,0.2-0.3s0.1-0.2,0.2-0.4c0-0.1,0.1-0.2,0.1-0.3c0,0,0-0.1,0-0.1c-0.1-0.2-0.3-0.4-0.6-0.6
				c-0.3-0.2-0.7-0.4-1.1-0.6l-0.2,0c-0.1,0-0.1,0-0.2,0.1c0,0-0.1,0.1-0.1,0.2c0,0,0,0,0,0.1v0.1c0,0.1,0,0.2-0.1,0.4
				c0,0.2-0.1,0.4-0.2,0.7c-0.3,0.8-0.8,1.6-1.2,2.2c-0.5,0.7-0.9,1.2-1.4,1.6c0,0-0.1,0.1-0.2,0.2c-0.1,0.1-0.2,0.2-0.3,0.2
				c-0.1,0.1-0.1,0.1-0.1,0.2c0,0.2,0.1,0.5,0.3,0.9c0.2,0.4,0.4,0.7,0.7,0.9c0,0,0.1,0,0.1,0c0.1,0,0.2,0,0.5-0.2
				c0.3-0.2,1-0.4,2.2-0.7c1.2-0.3,2.3-0.5,3.1-0.7l0.1,0l0.3,1c0,0.2,0.1,0.3,0.2,0.4l0,0c0.1,0.1,0.1,0.1,0.2,0.1
				c0.4-0.1,0.7-0.2,1-0.5c0.2-0.3,0.4-0.6,0.4-0.9C908.1,102.5,908,102.3,908,102.2z M910.4,97.6c-0.5-0.2-1.1-0.7-2-1.3
				c-0.6-0.4-1.1-1-1.6-1.6c-0.5-0.6-1.1-1.4-1.6-2.4c-0.1-0.2-0.3-0.4-0.5-0.5c-0.2-0.1-0.5-0.2-0.8-0.2c-0.2,0-0.3,0-0.4,0.1
				c-0.1,0-0.1,0.1-0.2,0.1c0,0,0,0,0,0c0.1,0.1,0.3,0.4,0.6,1c0.2,0.4,0.5,0.9,1,1.9c0.4,0.8,0.7,1.4,0.9,1.8
				c0.3,0.5,0.5,0.8,0.8,1.1c0.4,0.4,0.9,0.6,1.3,0.6c0.2,0,0.2,0,0.3,0c0.2,0,0.5-0.1,0.9-0.2l0.4-0.1c0.2-0.1,0.4-0.1,0.4-0.1
				l0.1,0c0.1,0,0.1,0,0.2-0.1c0.1,0,0.1,0,0.2,0c0.1,0,0.2-0.1,0.2-0.1C910.6,97.7,910.6,97.7,910.4,97.6z"/>
		</g>
            <g>
			<path fill="#FFFFFF" d="M918.8,95.4c-0.1-0.1-0.1-0.2-0.2-0.4c-0.1-0.1-0.2-0.2-0.3-0.3c-0.1-0.1-0.3-0.1-0.6-0.1
				c-0.1,0-0.2,0-0.3,0c-0.7,0.1-1.6,0.2-2.7,0.4l-0.1,0c-0.3,0.1-0.7,0.1-1,0.2c-0.3,0-0.6,0.1-0.8,0.1c-0.1,0-0.2,0-0.3,0.1
				c0,0-0.1,0.1-0.1,0.1c0,0,0,0,0,0.1c0.5,0.6,0.8,0.9,1.1,0.9c0,0,0.1,0,0.1,0c0.4-0.1,1.1-0.3,2.3-0.4c1.1-0.2,2-0.2,2.6-0.2
				c0.3,0,0.3-0.1,0.3-0.2C918.8,95.5,918.8,95.4,918.8,95.4z M918.5,97.6c-0.1-0.1-0.3-0.2-0.5-0.4c-0.2-0.2-0.4-0.2-0.5-0.3
				c-0.1,0-0.2-0.1-0.3-0.1c-0.1,0-0.2,0-0.3,0.1c-0.1,0.1-0.5,0.2-1,0.3c-0.6,0.1-1.2,0.2-1.7,0.3l0,0l0,0
				c-0.2-0.1-0.3-0.2-0.5-0.3c-0.2-0.1-0.4-0.1-0.6-0.1c-0.1,0-0.3,0-0.3,0.1c0,0,0,0.1,0,0.2c0,0.1,0.1,0.2,0.1,0.3
				c0,0.2,0,0.3,0,0.4c0,0.2,0,0.6,0,1.1c0,0.7,0,1.2-0.1,1.6c0,0.1,0,0.2,0,0.3c0,0.1,0.1,0.3,0.2,0.4c0.1,0.2,0.3,0.3,0.5,0.4
				c0.3,0.2,0.6,0.3,0.8,0c0.1-0.1,0.2-0.3,0.2-0.4v-0.3l1.9-0.2l0.2,0.2c0.1,0.1,0.1,0.2,0.2,0.3c0,0,0.1,0.1,0.2,0.1
				c0.2,0,0.5-0.1,0.8-0.3c0.3-0.2,0.4-0.4,0.4-0.5c0-0.1,0-0.2,0-0.3c0-0.1,0-0.2,0.1-0.3s0-0.3,0.1-0.5c0.1-0.4,0.1-0.8,0.2-1
				c0-0.2,0.1-0.4,0.2-0.6c0-0.1,0.1-0.2,0.1-0.3C918.6,97.7,918.6,97.6,918.5,97.6z M916.7,99.9L916.7,99.9l-2.4,0.3l0-1.9l0.1,0
				c0.7-0.1,1.4-0.2,2.1-0.2c0.1,0,0.2,0,0.2,0.2c0,0.1,0,0.2,0,0.2C916.8,99,916.8,99.5,916.7,99.9z M922.8,92.5
				c-0.1-0.2-0.3-0.4-0.6-0.5c-0.3-0.2-0.6-0.3-0.9-0.5c-0.2-0.1-0.3-0.1-0.5,0c-0.1,0-0.2,0.1-0.3,0.1c-0.2,0.1-1.3,0.3-3.3,0.5
				c-2,0.3-3.2,0.4-3.6,0.4c-0.2,0-0.3,0-0.3,0.1c0,0,0,0.1,0,0.2c0.1,0.2,0.3,0.5,0.5,0.7c0.2,0.2,0.4,0.3,0.6,0.3
				c0.1,0,0.1,0,0.1,0c0.7-0.2,1.7-0.3,2.8-0.5s2.1-0.3,2.7-0.3c0.1,0,0.2,0,0.2,0.1c0.1,0.1,0.1,0.2,0.1,0.2v0.6
				c0,1.5-0.1,3.1-0.2,4.8c-0.1,1.8-0.3,2.9-0.5,3.6c0,0.2-0.2,0.4-0.6,0.4h-0.3c-0.1,0-0.4,0-0.8,0c-0.1,0-0.2,0-0.2,0
				c0,0,0,0,0.1,0.1c0.7,0.6,1.2,1.1,1.4,1.6c0.1,0.3,0.3,0.4,0.5,0.4c0.1,0,0.2,0,0.4-0.1c0.4-0.1,0.7-0.4,1-0.8
				c0.3-0.4,0.6-0.8,0.7-1.2c0.1-0.4,0.2-1.1,0.3-2.1c0.1-1.1,0.1-2.4,0.2-3.9l0-0.4c0-1.3,0.1-2.3,0.1-2.8c0-0.2,0.1-0.3,0.1-0.4
				l0.1-0.2c0.1-0.1,0.1-0.2,0.1-0.3C922.9,92.6,922.8,92.6,922.8,92.5z"/>
		</g>
	</g>
        <g>
		<linearGradient id="SVGID_1_" gradientUnits="userSpaceOnUse" x1="163.4842" y1="311.1876" x2="163.4842"
                        y2="21.3134">
			<stop offset="0" style="stop-color:#2975FE"/>
            <stop offset="1" style="stop-color:#0CD5FF"/>
		</linearGradient>
            <path fill="url(#SVGID_1_)" d="M163.5,21.3c-80,0-144.9,64.9-144.9,144.9s64.9,144.9,144.9,144.9c80.1,0,144.9-64.9,144.9-144.9
			S243.5,21.3,163.5,21.3z"/>
            <path fill-rule="evenodd" clip-rule="evenodd" fill="#FFFFFF" d="M272.2,84.6c0,0,23.8,35.4,13.2,65.5
			c-7.1,20.2-32.7,27.3-53.2,20.7c-31.9-10.1-71.4-44-114.5-12.9c-36.5,26.3-21.3,72.3,4.8,87.6c19.5,11.5,46.8,15.1,62.7,1.5
			c12.8-10.9,19.7-39.2-1.8-48.9c-7.3-3.3-21.7-4-29.7,5.2c-10.4,12.1-6.4,29,7.9,34.3c0,0-25.7-1.3-29.1-27.8
			c-5.8-45.2,52-52.6,79.4-35.7c49.3,30.5,31.8,99.4-41.5,112c-37.2,6.4-98.5-6.4-122.9-56.1c-9.1-18.6-6.6-15.4-6.6-15.4
			s3.2,3.6,8.6,7.5c17.4,12.7,33.7,1.2,29.7-15.5c-13.6-57.4,9.3-67.1,23.2-77.9c14-10.7,8.5-30.8-19-26.4
			c-38.5,6.2-48.7,62.1-48.7,62.1s-6.4-95,76.9-103.4c84.9-8.5,97.1,66.2,134.2,77.5C297.4,154.3,272.2,84.6,272.2,84.6z"/>
	</g>
        <g class="zentao">
		<g>
			<g>
				<g>
					<rect x="380.7" y="72.5" fill="#221714" width="66.5" height="14.3"/>
                    <rect x="627.9" y="72.5" fill="#221714" width="59.5" height="14.3"/>
                    <polygon fill="#221714" points="380.7,118 433.1,118 433.1,129 381.3,129 381.3,254.5 395.6,254.5 395.6,143.3 407.4,143.3
						407.4,254.5 421.7,254.5 421.7,172.3 433.1,172.3 433.1,254.5 447.5,254.5 447.5,157.9 421.7,157.9 421.7,143.3 447.5,143.3
						447.5,103.6 380.7,103.6 					"/>
                    <path fill="#221714" d="M536.1,118h64.7V68.9h-64.7V118z M550.4,83.2h36v20.5h-36V83.2z"/>
                    <path fill="#221714" d="M522.1,68.9h-64.7V118h64.7V68.9z M507.8,103.6h-36V83.2h36V103.6z"/>
                    <path fill="#221714" d="M457.4,209.6h63.9v11.2h-63.8v14.3h63.8v19.3h14.3v-19.3h65v-14.3h-65v-11.2h65.2v-83.3H457.4V209.6z
						 M471.7,195.3v-20.2h49.6v20.2H471.7z M535.6,195.3v-20.2h50.8v20.2H535.6z M586.5,160.8h-50.8v-20.2h50.8V160.8z M521.3,140.7
						v20.2h-49.6v-20.2H521.3z"/>
				</g>
			</g>
            <g>
				<path fill-rule="evenodd" clip-rule="evenodd" fill="#221714" d="M772,238.2c-16.6,3.2-54.4,24-54.4,24
					c-44.2,17.3-67.1-15.5-67.1-15.5l-8.7,7.1c33.6,41.5,87.1,15.3,87.1,15.3c108.3-63.4,165.5-14.6,178.7-1.3
					C847.9,207.7,772,238.2,772,238.2z"/>
                <path fill-rule="evenodd" clip-rule="evenodd" fill="#221714" d="M701.7,249.9c6.4,2.3,24.3-5.6,24.3-5.6
					c87.6-55.6,162.4-0.7,176.9,13.7c-89.8-89.3-186.4-20.3-186.4-20.3C710.5,250.7,701.7,249.9,701.7,249.9L701.7,249.9z"/>
                <path fill-rule="evenodd" clip-rule="evenodd" fill="#221714" d="M600.1,240.7c6.9,17,27.2,16,27.2,16c21.3,0,17.1-22,17.1-22
					c-4.8-11.8-15.9-8.1-15.9-8.1l0,0c-5.2,1.2-4.4,6-4.4,6c2.2,6,8.1,3.6,8.1,3.6l1.8-0.5c3.6,9.2-5,11.7-5,11.7
					c-20.6,0.7-21.6-16.1-21.6-16.1c-1.7-24,21.4-19.7,21.4-19.7c4.1-32.4,25.5-30.8,25.5-30.8c30.7-3.3,27,26.9,27,26.9
					c32.7,2.8,24.1,23.2,24.1,23.2c-5.2,16.9-20.5,4.2-20.5,4.2c-2.8-2.5,4-4.8,4-4.8c8.3-1.9,4.4-6.8,4.4-6.8
					c-4.2-5.7-13.6,0.8-13.6,0.8c-16.4,10.8,5,22.4,5,22.4c23.6,10.5,30.5-11.7,30.5-11.7c7-30.2-24.6-34.3-24.6-34.3
					c-2-30.8-35.4-29.1-35.4-29.1c-10.4,0.3-17.9,3.5-23.1,7.8c-9.6,8.1-12.7,23-12.7,23C590.2,210.9,600.1,240.7,600.1,240.7z"/>
			</g>
            <g>
				<path fill="#221714" d="M695.8,226.8h0.3c-0.1,0-0.2-0.1-0.3-0.2V226.8z"/>
                <path fill="#221714" d="M695.8,117.2v89.7c4.7,1.5,15.3,14.9,19.1,19.9h29.8c20.4-3.9,38.2-16.8,62.2-11.7l-7.6-2.7h-89.2v-81
					h123.7V181h-92.2v-17.8h74.1v-14.3h-88.4v46.5h120.9v-78.2H779v-16.6h68.8V86.2h-19.7V69.3h-14.3v16.9h-83.9V69.3h-14.3v16.9
					h-19.7v14.3h68.8v16.6H695.8z"/>
			</g>
            <g>
				<path fill="#221714"
                      d="M672.7,146.2h-44.1v51.6c3.6-2.9,8.3-15.8,14.2-17.3l0.1-20H687v-56.9h-58.5V118h44.2V146.2z"/>
			</g>
		</g>
	</g>
</g>
    <g>
</g>
    <g>
</g>
    <g>
</g>
    <g>
</g>
    <g>
</g>
    <g>
</g>
</svg>
